<svg xmlns="http://www.w3.org/2000/svg" width="1063" height="1063" viewBox="0 0 1063 1063" version="1.1"><path d="M 178 385.432 C 145.921 391.172, 119.184 404.918, 97.051 427.051 C 76.424 447.678, 62.621 473.410, 56.312 503 C 53.733 515.097, 53.733 547.903, 56.312 560 C 62.621 589.590, 76.424 615.322, 97.051 635.949 C 113.291 652.189, 132.808 664.331, 154.012 671.386 C 172.317 677.476, 179.152 678.500, 201.500 678.500 C 223.848 678.500, 230.683 677.476, 248.988 671.386 C 270.192 664.331, 289.709 652.189, 305.949 635.949 C 326.576 615.322, 340.379 589.590, 346.688 560 C 349.267 547.903, 349.267 515.097, 346.688 503 C 340.379 473.410, 326.576 447.678, 305.949 427.051 C 285.625 406.727, 260.150 392.936, 231 386.475 C 220.807 384.216, 188.366 383.578, 178 385.432 M 179.668 389.501 C 147.746 394.706, 120.647 408.972, 98.321 432.326 C 83.011 448.340, 72.895 465.091, 65.979 485.879 C 60.513 502.309, 58.718 513.585, 58.718 531.500 C 58.718 549.415, 60.513 560.691, 65.979 577.121 C 73.431 599.520, 83.486 615.611, 100.938 633.062 C 122.023 654.147, 145.648 666.836, 174.730 672.695 C 186.977 675.162, 216.023 675.162, 228.270 672.695 C 257.352 666.836, 280.977 654.147, 302.062 633.062 C 319.514 615.611, 329.569 599.520, 337.021 577.121 C 342.487 560.691, 344.282 549.415, 344.282 531.500 C 344.282 513.585, 342.487 502.309, 337.021 485.879 C 329.569 463.480, 319.514 447.389, 302.062 429.938 C 281.358 409.233, 258.905 396.958, 230.500 390.815 C 218.372 388.192, 191.896 387.508, 179.668 389.501 M 185.609 390.991 C 122.097 399.020, 72.674 446.574, 62.473 509.470 C 60.596 521.043, 60.596 541.957, 62.473 553.530 C 72.017 612.375, 115.362 657.579, 174.312 670.162 C 188.833 673.262, 214.167 673.262, 228.688 670.162 C 287.638 657.579, 330.983 612.375, 340.527 553.530 C 342.404 541.957, 342.404 521.043, 340.527 509.470 C 330.990 450.669, 287.021 404.824, 228.780 392.955 C 217.321 390.620, 196.159 389.657, 185.609 390.991 M 151 408.257 C 151 408.398, 151.439 410.044, 151.975 411.914 C 152.779 414.716, 152.647 415.546, 151.225 416.626 C 149.594 417.865, 149.596 417.938, 151.250 417.968 C 152.583 417.992, 153 418.848, 153 421.559 C 153 423.516, 153.419 424.859, 153.932 424.542 C 154.444 424.226, 155.506 424.884, 156.291 426.006 C 157.191 427.290, 158.327 427.812, 159.360 427.415 C 161.275 426.681, 161.531 428.069, 159.800 429.800 C 158.867 430.733, 159.089 431, 160.800 431 C 162.010 431, 163.045 431.563, 163.100 432.250 C 163.155 432.938, 163.524 432.375, 163.922 431 C 164.405 429.328, 164.199 428.231, 163.301 427.689 C 162.562 427.242, 162.200 426.486, 162.495 426.008 C 162.791 425.529, 162.618 424.882, 162.110 424.568 C 160.677 423.682, 162.029 420.055, 164.232 418.876 C 165.323 418.292, 166.542 418.194, 166.942 418.657 C 168.289 420.218, 170.917 428.482, 170.707 430.500 C 170.583 431.703, 171.098 432.500, 172 432.500 C 172.868 432.500, 173.626 431.413, 173.800 429.921 C 174.115 427.212, 170.513 416.435, 168.975 415.485 C 168.482 415.180, 165.374 416.297, 162.068 417.966 C 158.762 419.634, 155.819 421, 155.529 421 C 154.125 421, 155.270 418.095, 157.500 416 C 160.642 413.048, 160.689 411.789, 157.628 412.557 C 155.681 413.046, 155.139 412.690, 154.609 410.576 C 154.253 409.159, 153.295 408, 152.481 408 C 151.666 408, 151 408.115, 151 408.257 M 244.470 411.417 C 243.087 414.729, 242.568 415.106, 239.791 414.821 C 236.176 414.449, 234.604 416.822, 237.895 417.683 C 239.053 417.986, 240 418.601, 240 419.050 C 240 420.070, 232.515 426.173, 228.500 428.425 L 225.500 430.109 229.422 429.589 C 232.166 429.226, 234.484 427.957, 237.138 425.365 C 241.313 421.288, 241.433 421.375, 242.482 429.222 C 242.938 432.630, 243.827 434.506, 245.675 435.959 C 249.609 439.053, 249.968 437.628, 246.851 431.285 C 245.288 428.103, 243.743 424.123, 243.417 422.441 C 242.836 419.433, 242.887 419.388, 246.413 419.800 C 249.217 420.127, 250 419.867, 250 418.609 C 250 417.683, 249.176 417, 248.059 417 C 245.344 417, 244.849 415.733, 246.128 412.064 C 247.711 407.521, 246.324 406.980, 244.470 411.417 M 156 422.571 C 156 423.675, 158.769 425.898, 159.381 425.286 C 160.716 423.950, 159.897 422, 158 422 C 156.900 422, 156 422.257, 156 422.571 M 150.602 428.750 C 151.563 432.883, 154.625 439.650, 155.887 440.430 C 157.679 441.538, 157.191 438.937, 154.353 432.250 C 151.638 425.855, 149.454 423.817, 150.602 428.750 M 192 438.578 C 190.625 438.823, 186.800 439.509, 183.500 440.102 C 148.097 446.468, 118.021 476.243, 110.573 512.300 C 108.534 522.172, 108.534 540.828, 110.573 550.700 C 117.917 586.257, 145.689 614.321, 181.786 622.662 C 197.697 626.339, 219.346 624.635, 235.087 618.466 C 264.083 607.103, 286.168 581.002, 292.427 550.700 C 294.466 540.828, 294.466 522.172, 292.427 512.300 C 285.146 477.050, 257.576 448.955, 222 440.530 C 215.446 438.978, 196.631 437.754, 192 438.578 M 96.369 448.162 C 94.173 451.586, 93.197 454, 94.010 454 C 94.500 454, 95.277 453.328, 95.737 452.506 C 96.475 451.186, 96.831 451.193, 98.786 452.563 C 101.581 454.521, 101.676 456.349, 98.937 455.480 C 97.059 454.884, 96.991 455.013, 98.177 456.913 C 99.638 459.251, 101.569 459.639, 102.349 457.750 C 102.662 456.993, 103.135 457.387, 103.549 458.750 C 104.319 461.282, 106 461.797, 106 459.500 C 106 458.675, 106.738 458, 107.640 458 C 109.419 458, 111.917 455.259, 111.968 453.250 C 111.986 452.563, 111.325 452, 110.500 452 C 109.675 452, 109.053 452.337, 109.118 452.750 C 109.501 455.170, 108.777 456.107, 106.750 455.820 C 105.312 455.615, 104.386 454.696, 104.184 453.274 C 103.957 451.679, 103.265 451.111, 101.745 451.274 C 100.384 451.419, 99.194 450.661, 98.425 449.162 C 97.504 447.363, 97.029 447.132, 96.369 448.162 M 304.728 456.073 C 301.012 459.136, 300.016 461, 302.096 461 C 303.773 461, 308.877 457.099, 310.037 454.930 C 311.640 451.936, 309.077 452.487, 304.728 456.073 M 307.744 459.284 L 301.987 463.380 298.696 460.190 C 295.131 456.735, 292.284 456.097, 291.345 458.543 C 290.488 460.778, 291.793 461.611, 293.996 460.234 C 295.527 459.279, 296.207 459.350, 297.454 460.597 C 300.144 463.287, 305.358 471.320, 305.479 472.961 C 305.628 474.991, 306.877 477, 307.989 477 C 309.148 477, 307.576 471.661, 305.579 468.809 C 304.711 467.569, 304 466.242, 304 465.859 C 304 464.526, 311.061 460.809, 312.525 461.371 C 314.651 462.187, 314.400 464.915, 312.250 464.363 C 311.231 464.102, 309.999 464.728, 309.301 465.862 C 308.249 467.571, 308.423 467.889, 310.726 468.467 C 312.598 468.937, 313.608 468.665, 314.249 467.519 C 314.756 466.614, 315.880 466.142, 316.824 466.438 C 317.931 466.785, 318.885 466.137, 319.633 464.531 C 320.960 461.680, 320.393 460.719, 318.104 461.944 C 315.802 463.176, 312.120 460.480, 313.804 458.796 C 315.126 457.474, 315.430 454.946, 314.250 455.094 C 313.837 455.146, 310.910 457.032, 307.744 459.284 M 87.500 460.654 C 85.598 465.207, 86.052 465.767, 89.089 462.611 C 91.903 459.687, 93.720 460.252, 91.652 463.408 C 90.266 465.524, 90.455 465.831, 95.605 469.815 C 102.381 475.058, 104.187 475.256, 102.383 470.556 C 101.974 469.489, 101.385 469.266, 100.630 469.892 C 99.901 470.497, 98.848 470.362, 97.687 469.513 C 96.548 468.680, 96.272 467.950, 96.940 467.537 C 99.037 466.241, 98.008 462.184, 94.923 459.589 C 90.790 456.111, 89.310 456.323, 87.500 460.654 M 107.989 464.250 C 106.899 466.038, 106.009 468.175, 106.011 469 C 106.013 470.317, 111.636 475, 113.214 475 C 113.539 475, 114.292 473.538, 114.888 471.750 C 115.820 468.957, 115.783 468.746, 114.626 470.250 C 113.160 472.155, 111 472.602, 111 471 C 111 470.450, 111.450 470, 112 470 C 112.550 470, 112.976 469.212, 112.948 468.250 C 112.903 466.761, 112.667 466.826, 111.367 468.688 C 109.814 470.910, 107 470.820, 107 468.548 C 107 467.867, 107.878 466.515, 108.952 465.544 C 110.823 463.850, 111.050 463.868, 114.452 465.970 C 117.313 467.739, 118 467.871, 118 466.654 C 118 464.915, 113.396 461, 111.350 461 C 110.592 461, 109.079 462.462, 107.989 464.250 M 191.500 475.915 C 155.892 492.349, 158.349 490.326, 161.943 500.253 C 164.725 507.936, 165.548 518.823, 164.029 527.830 C 162.478 537.024, 158.716 542.369, 151.064 546.250 C 144.968 549.342, 139.707 549.707, 133.500 547.471 C 128.382 545.627, 123 545.554, 123 547.329 C 123 550.086, 129.550 558.393, 133.899 561.151 L 138.423 564.020 184.329 563.760 L 230.235 563.500 232.220 558.500 C 241.077 536.183, 242.291 508.032, 235.419 484.319 C 232.303 473.564, 226.560 460.976, 224.815 461.073 C 224.092 461.114, 209.100 467.793, 191.500 475.915 M 298.395 467.626 C 299.402 470.865, 295.085 471.711, 292.772 468.728 C 290.890 466.301, 290.354 467.924, 292.013 471.024 C 292.818 472.529, 292.606 473.141, 290.973 474.014 C 289.845 474.618, 287.968 474.975, 286.804 474.806 C 285.639 474.638, 284.494 475.062, 284.260 475.749 C 283.540 477.861, 287 478.370, 290.553 476.676 C 292.590 475.705, 294.160 475.451, 294.521 476.034 C 295.725 477.981, 297.068 476.924, 296.788 474.250 C 296.530 471.790, 296.790 471.530, 299.250 471.788 C 302.621 472.141, 302.906 470.119, 299.867 467.405 C 297.758 465.521, 297.742 465.524, 298.395 467.626 M 119.392 472.750 C 114.598 479.833, 114.521 480.006, 116.167 479.973 C 118.323 479.930, 125.773 467, 123.642 467 C 123.444 467, 121.532 469.587, 119.392 472.750 M 199 499 L 199 504 193.441 504 C 187.360 504, 186.995 502.817, 192.514 500.995 C 195.219 500.103, 196 499.302, 196 497.422 C 196 494.420, 194.243 494.325, 188.919 497.041 C 184.932 499.075, 177 506.449, 177 508.121 C 177 508.604, 181.950 509, 188 509 L 199 509 199 515 C 199 520.333, 198.778 521, 197 521 C 195.333 521, 195 520.333, 195 517 L 195 513 184.500 513 C 174.667 513, 174 513.127, 174 515 C 174 516.843, 174.667 517, 182.500 517 C 190.333 517, 191 517.157, 191 519 C 191 520.854, 190.333 521, 181.860 521 L 172.720 521 173.276 526.387 C 174.229 535.623, 179.278 543.398, 187.313 548.006 C 193.667 551.651, 196 551.837, 196 548.701 C 196 546.999, 195.127 546.086, 192.638 545.186 C 186.341 542.909, 180.077 535.384, 178.541 528.250 L 177.841 525 184.421 525 C 190.333 525, 191 525.203, 191 527 C 191 528.619, 190.333 529, 187.500 529 C 185.295 529, 184 529.481, 184 530.300 C 184 532.934, 186.506 534, 192.700 534 C 197.532 534, 199 534.337, 199 535.448 C 199 536.484, 197.508 536.993, 193.750 537.239 L 188.500 537.582 193.750 539.989 L 199 542.397 199 547.198 C 199 551.653, 199.180 552, 201.500 552 C 203.812 552, 204.002 551.644, 204.024 547.250 C 204.047 542.512, 204.060 542.494, 209.274 540.026 L 214.500 537.551 209.250 537.223 C 205.485 536.988, 204 536.486, 204 535.448 C 204 534.323, 205.552 534, 210.965 534 C 216.827 534, 218.093 533.694, 218.965 532.066 C 220.494 529.209, 220.326 529, 216.500 529 C 213.639 529, 213 528.626, 213 526.952 C 213 525.075, 213.521 524.929, 219.250 525.202 C 225.277 525.489, 225.487 525.589, 225.146 527.994 C 224.232 534.430, 217.087 543.028, 210.844 545.204 C 208.783 545.923, 208 546.857, 208 548.598 C 208 549.919, 208.563 550.990, 209.250 550.978 C 212.354 550.923, 218.872 546.897, 222.826 542.591 C 227.840 537.131, 229.618 533.361, 230.572 526.168 L 231.258 521 222.129 521 C 213.667 521, 213 520.854, 213 519 C 213 517.156, 213.667 517, 221.573 517 C 229.199 517, 230.110 516.807, 229.812 515.250 C 229.523 513.742, 228.060 513.461, 219.238 513.215 L 209 512.930 209 516.965 C 209 520.602, 208.754 521, 206.500 521 C 204.113 521, 204 520.731, 204 515.032 L 204 509.063 215.750 508.782 L 227.500 508.500 223.169 503.800 C 219.195 499.488, 212.063 495, 209.184 495 C 206.935 495, 207.858 499.821, 210.250 500.567 C 211.488 500.953, 213.388 501.884, 214.473 502.635 C 216.233 503.853, 215.777 504, 210.223 504 L 204 504 204 499 C 204 494.333, 203.833 494, 201.500 494 C 199.167 494, 199 494.333, 199 499 M 195 527 C 195 528.810, 195.667 529, 202 529 C 208.333 529, 209 528.810, 209 527 C 209 525.190, 208.333 525, 202 525 C 195.667 525, 195 525.190, 195 527 M 83.502 528.375 C 80.969 530.227, 81.902 534.416, 84.944 534.845 C 88.013 535.278, 90.332 532.489, 88.989 529.980 C 87.690 527.552, 85.502 526.912, 83.502 528.375 M 315.571 528.571 C 312.541 531.602, 314.772 535.454, 319.195 534.827 C 322.168 534.405, 322.954 530.170, 320.404 528.306 C 318.108 526.627, 317.481 526.662, 315.571 528.571 M 276.867 536.236 C 272.566 538.127, 272.107 538.694, 270.459 544.137 C 269.482 547.361, 268.305 550, 267.842 550 C 266.611 550, 266.801 548.539, 268.625 543.979 C 269.519 541.745, 270.059 539.725, 269.824 539.491 C 269.468 539.134, 262.196 540.903, 261.177 541.594 C 260.999 541.715, 259.095 546.806, 256.946 552.907 L 253.038 564 260.937 564 C 265.282 564, 269.527 563.735, 270.371 563.411 C 274.104 561.979, 280.811 547.997, 282.467 538.194 C 283.267 533.459, 283.221 533.443, 276.867 536.236 M 254.026 542.882 C 251.703 543.295, 250.130 544.328, 249.276 546 L 248 548.500 247.369 546.193 C 246.963 544.712, 246.218 544.086, 245.287 544.443 C 244.489 544.750, 242.820 545, 241.577 545 C 239.646 545, 238.942 546.129, 236.744 552.750 C 235.328 557.013, 233.859 561.288, 233.478 562.250 C 232.888 563.743, 233.382 564, 236.843 564 C 239.652 564, 241.214 563.462, 241.920 562.250 C 242.882 560.598, 242.941 560.601, 242.970 562.307 C 242.995 563.812, 243.713 564.063, 247.248 563.807 L 251.497 563.500 255.222 553 C 259.497 540.948, 259.215 541.962, 258.250 542.132 C 257.837 542.204, 255.937 542.542, 254.026 542.882 M 90 567.080 C 81.705 569.996, 81.676 570.009, 82.233 570.566 C 83.057 571.390, 97.946 566.722, 97.386 565.816 C 96.732 564.757, 96.491 564.798, 90 567.080 M 307.250 575.317 C 304.363 575.894, 302 576.772, 302 577.270 C 302 577.793, 303.796 577.841, 306.250 577.383 C 311.535 576.397, 314.714 576.408, 318.250 577.426 C 319.933 577.910, 321 577.832, 321 577.225 C 321 576.311, 320.102 575.964, 314.500 574.716 C 313.400 574.471, 310.137 574.741, 307.250 575.317 M 99.410 576.885 C 98.910 577.327, 95.508 578.965, 91.850 580.524 C 88.124 582.112, 85.392 583.857, 85.636 584.493 C 85.917 585.226, 88.405 584.454, 92.656 582.314 C 96.278 580.491, 99.862 579, 100.620 579 C 101.379 579, 102 578.577, 102 578.059 C 102 576.664, 100.453 575.963, 99.410 576.885 M 171.250 577.678 C 170.012 578.539, 169 579.864, 169 580.622 C 169 582.319, 170.204 582.396, 171.800 580.800 C 172.733 579.867, 173 581.311, 173 587.300 C 173 593.561, 173.287 595, 174.538 595 C 175.830 595, 176.029 593.539, 175.788 585.831 C 175.629 580.788, 175.050 576.538, 174.500 576.387 C 173.950 576.235, 172.488 576.816, 171.250 577.678 M 187 577.263 C 184.137 578.732, 183.162 583.566, 185.027 587.051 C 185.964 588.801, 186.891 589.125, 190.087 588.820 C 194.222 588.426, 195.472 590.077, 192.358 591.820 C 190.514 592.851, 187 592.237, 187 590.883 C 187 590.398, 186.325 590, 185.500 590 C 183.559 590, 183.589 591.446, 185.571 593.429 C 187.755 595.613, 192.608 595.392, 195 593 C 197.340 590.660, 197.824 581.461, 195.750 578.746 C 193.988 576.439, 189.943 575.754, 187 577.263 M 204.409 576.972 C 201.530 578.137, 199.614 583.222, 200.341 587.767 C 201.342 594.015, 206.914 596.849, 211.662 593.524 C 216.226 590.328, 215.307 578.828, 210.337 576.938 C 207.468 575.847, 207.188 575.849, 204.409 576.972 M 221.247 577.200 C 216.972 579.303, 216.092 588.995, 219.789 593.250 C 223.338 597.334, 231 594.155, 231 588.598 C 231 584.255, 228.100 581.612, 223.996 582.214 C 221.635 582.560, 221.041 582.335, 221.457 581.251 C 221.756 580.473, 222 579.648, 222 579.418 C 222 578.231, 227.146 579.218, 227.638 580.500 C 228.361 582.382, 231 582.478, 231 580.622 C 231 577.478, 224.977 575.365, 221.247 577.200 M 187.667 579.667 C 187.300 580.033, 187 581.578, 187 583.099 C 187 586.491, 190.403 588.025, 192.741 585.687 C 195.007 583.421, 193.623 579, 190.648 579 C 189.375 579, 188.033 579.300, 187.667 579.667 M 204.449 581.345 C 204.126 582.635, 204.005 585.448, 204.180 587.595 C 204.446 590.838, 204.905 591.557, 206.887 591.837 C 208.200 592.023, 209.655 591.573, 210.122 590.837 C 211.391 588.834, 211.172 581.572, 209.800 580.200 C 207.821 578.221, 205.087 578.806, 204.449 581.345 M 221.713 585.621 C 220.315 587.018, 221.031 590.946, 222.862 591.926 C 225.493 593.334, 228.290 591.098, 227.845 587.944 C 227.597 586.187, 226.786 585.417, 224.963 585.204 C 223.567 585.041, 222.104 585.229, 221.713 585.621 M 102.776 596.317 C 100.754 602.266, 99.608 606.964, 100.229 606.757 C 101.681 606.273, 107.148 590.134, 106.752 587.500 C 106.587 586.400, 104.798 590.367, 102.776 596.317 M 295 589.738 C 295 590.611, 308.256 600, 309.488 600 C 311.379 600, 309.212 597.687, 304.750 594.943 C 301.863 593.167, 298.488 591.052, 297.250 590.242 C 296.012 589.433, 295 589.206, 295 589.738 M 285.703 602.630 C 284.849 603.485, 298.277 614.947, 299.354 614.281 C 299.859 613.969, 299.357 612.991, 298.238 612.107 C 297.120 611.223, 293.972 608.599, 291.244 606.275 C 288.515 603.952, 286.022 602.311, 285.703 602.630 M 121.738 609.692 C 120.769 609.945, 120.212 610.534, 120.501 611.002 C 121.049 611.888, 117.374 622.686, 115.876 624.592 C 115.404 625.193, 115.313 625.980, 115.675 626.342 C 116.890 627.557, 117.763 627.016, 118.245 624.750 C 118.508 623.513, 119.890 619.462, 121.317 615.750 C 122.743 612.038, 123.818 609.052, 123.705 609.116 C 123.592 609.180, 122.707 609.439, 121.738 609.692 M 272.063 617.179 C 271.928 620.764, 274.822 622.119, 281.094 621.410 C 286.638 620.783, 287.024 620.880, 287.922 623.123 C 288.757 625.211, 288.879 625.257, 288.921 623.500 C 289.021 619.339, 287.642 618.658, 280.578 619.382 C 274.317 620.023, 273.908 619.936, 273.042 617.780 C 272.395 616.169, 272.108 615.992, 272.063 617.179 M 134.394 619.794 C 134.829 620.516, 134.582 621.815, 133.836 622.736 C 133.087 623.660, 133.008 624.079, 133.656 623.691 C 134.446 623.218, 135.013 624.662, 135.448 628.249 C 136.728 638.828, 137.225 641.174, 138.007 640.346 C 138.447 639.881, 138.427 637.250, 137.963 634.500 C 137.499 631.750, 137.092 627.643, 137.060 625.372 C 137.022 622.760, 136.379 620.741, 135.308 619.872 C 134.051 618.852, 133.816 618.832, 134.394 619.794 M 260.957 626.223 C 262.308 626.934, 263.709 628.637, 264.069 630.008 C 264.664 632.269, 264.798 632.325, 265.521 630.614 C 266.646 627.952, 264.812 625.551, 261.399 625.215 L 258.500 624.929 260.957 626.223 M 255.263 628.250 C 254.568 629.134, 255.682 631.628, 259.068 636.771 C 261.702 640.770, 264.101 643.646, 264.399 643.163 C 264.697 642.680, 262.919 639.270, 260.448 635.585 C 257.976 631.899, 256.216 628.460, 256.536 627.942 C 257.392 626.556, 256.406 626.795, 255.263 628.250 M 156.193 640.266 C 154.164 646.707, 154.105 647.511, 155.510 649.655 C 157.351 652.465, 158.540 652.838, 156.806 650.062 C 155.831 648.500, 155.949 646.993, 157.410 642.312 C 158.408 639.115, 159.635 635.990, 160.138 635.367 C 160.719 634.645, 160.572 634.050, 159.732 633.727 C 158.824 633.379, 157.721 635.416, 156.193 640.266 M 263 633.536 C 263 633.830, 265.064 634.956, 267.586 636.037 C 270.833 637.429, 272.658 637.719, 273.836 637.032 C 275.287 636.185, 275.227 636.057, 273.372 636.030 C 272.202 636.014, 269.629 635.325, 267.654 634.500 C 263.760 632.873, 263 632.715, 263 633.536 M 237 636.828 C 237 637.283, 238.058 640.320, 239.351 643.578 C 240.645 646.835, 241.991 650.316, 242.344 651.313 C 242.697 652.311, 243.424 652.856, 243.959 652.526 C 244.925 651.928, 244.742 651.372, 240.076 640.750 C 238.130 636.318, 237 634.878, 237 636.828 M 180.008 641.750 C 188.826 656.067, 190.994 659.240, 190.997 657.830 C 191.001 655.380, 181.721 640.053, 180.215 640.025 C 179.246 640.006, 179.195 640.431, 180.008 641.750 M 214.645 642.250 C 215.065 642.938, 217.509 646.786, 220.077 650.803 C 224.282 657.380, 224.795 657.855, 225.229 655.583 C 225.494 654.196, 225.384 653.263, 224.984 653.510 C 224.187 654.003, 217 643.655, 217 642.015 C 217 641.457, 216.298 641, 215.441 641 C 214.453 641, 214.162 641.458, 214.645 642.250 M 203 650.500 C 203 655.500, 203.412 659, 204 659 C 204.588 659, 205 655.500, 205 650.500 C 205 645.500, 204.588 642, 204 642 C 203.412 642, 203 645.500, 203 650.500" stroke="none" fill="#0f6a7b" fill-rule="evenodd"/><path d="M 178 385.432 C 145.921 391.172, 119.184 404.918, 97.051 427.051 C 76.424 447.678, 62.621 473.410, 56.312 503 C 53.733 515.097, 53.733 547.903, 56.312 560 C 62.621 589.590, 76.424 615.322, 97.051 635.949 C 113.291 652.189, 132.808 664.331, 154.012 671.386 C 172.317 677.476, 179.152 678.500, 201.500 678.500 C 223.848 678.500, 230.683 677.476, 248.988 671.386 C 270.192 664.331, 289.709 652.189, 305.949 635.949 C 326.576 615.322, 340.379 589.590, 346.688 560 C 349.267 547.903, 349.267 515.097, 346.688 503 C 340.379 473.410, 326.576 447.678, 305.949 427.051 C 285.625 406.727, 260.150 392.936, 231 386.475 C 220.807 384.216, 188.366 383.578, 178 385.432 M 179.668 389.501 C 147.746 394.706, 120.647 408.972, 98.321 432.326 C 83.011 448.340, 72.895 465.091, 65.979 485.879 C 60.513 502.309, 58.718 513.585, 58.718 531.500 C 58.718 549.415, 60.513 560.691, 65.979 577.121 C 73.431 599.520, 83.486 615.611, 100.938 633.062 C 122.023 654.147, 145.648 666.836, 174.730 672.695 C 186.977 675.162, 216.023 675.162, 228.270 672.695 C 257.352 666.836, 280.977 654.147, 302.062 633.062 C 319.514 615.611, 329.569 599.520, 337.021 577.121 C 342.487 560.691, 344.282 549.415, 344.282 531.500 C 344.282 513.585, 342.487 502.309, 337.021 485.879 C 329.569 463.480, 319.514 447.389, 302.062 429.938 C 281.358 409.233, 258.905 396.958, 230.500 390.815 C 218.372 388.192, 191.896 387.508, 179.668 389.501 M 185.609 390.991 C 122.097 399.020, 72.674 446.574, 62.473 509.470 C 60.596 521.043, 60.596 541.957, 62.473 553.530 C 72.017 612.375, 115.362 657.579, 174.312 670.162 C 188.833 673.262, 214.167 673.262, 228.688 670.162 C 287.638 657.579, 330.983 612.375, 340.527 553.530 C 342.404 541.957, 342.404 521.043, 340.527 509.470 C 330.990 450.669, 287.021 404.824, 228.780 392.955 C 217.321 390.620, 196.159 389.657, 185.609 390.991 M 151 408.257 C 151 408.398, 151.439 410.044, 151.975 411.914 C 152.779 414.716, 152.647 415.546, 151.225 416.626 C 149.594 417.865, 149.596 417.938, 151.250 417.968 C 152.583 417.992, 153 418.848, 153 421.559 C 153 423.516, 153.419 424.859, 153.932 424.542 C 154.444 424.226, 155.506 424.884, 156.291 426.006 C 157.191 427.290, 158.327 427.812, 159.360 427.415 C 161.275 426.681, 161.531 428.069, 159.800 429.800 C 158.867 430.733, 159.089 431, 160.800 431 C 162.010 431, 163.045 431.563, 163.100 432.250 C 163.155 432.938, 163.524 432.375, 163.922 431 C 164.405 429.328, 164.199 428.231, 163.301 427.689 C 162.562 427.242, 162.200 426.486, 162.495 426.008 C 162.791 425.529, 162.618 424.882, 162.110 424.568 C 160.677 423.682, 162.029 420.055, 164.232 418.876 C 165.323 418.292, 166.542 418.194, 166.942 418.657 C 168.289 420.218, 170.917 428.482, 170.707 430.500 C 170.583 431.703, 171.098 432.500, 172 432.500 C 172.868 432.500, 173.626 431.413, 173.800 429.921 C 174.115 427.212, 170.513 416.435, 168.975 415.485 C 168.482 415.180, 165.374 416.297, 162.068 417.966 C 158.762 419.634, 155.819 421, 155.529 421 C 154.125 421, 155.270 418.095, 157.500 416 C 160.642 413.048, 160.689 411.789, 157.628 412.557 C 155.681 413.046, 155.139 412.690, 154.609 410.576 C 154.253 409.159, 153.295 408, 152.481 408 C 151.666 408, 151 408.115, 151 408.257 M 244.470 411.417 C 243.087 414.729, 242.568 415.106, 239.791 414.821 C 236.176 414.449, 234.604 416.822, 237.895 417.683 C 239.053 417.986, 240 418.601, 240 419.050 C 240 420.070, 232.515 426.173, 228.500 428.425 L 225.500 430.109 229.422 429.589 C 232.166 429.226, 234.484 427.957, 237.138 425.365 C 241.313 421.288, 241.433 421.375, 242.482 429.222 C 242.938 432.630, 243.827 434.506, 245.675 435.959 C 249.609 439.053, 249.968 437.628, 246.851 431.285 C 245.288 428.103, 243.743 424.123, 243.417 422.441 C 242.836 419.433, 242.887 419.388, 246.413 419.800 C 249.217 420.127, 250 419.867, 250 418.609 C 250 417.683, 249.176 417, 248.059 417 C 245.344 417, 244.849 415.733, 246.128 412.064 C 247.711 407.521, 246.324 406.980, 244.470 411.417 M 156 422.571 C 156 423.675, 158.769 425.898, 159.381 425.286 C 160.716 423.950, 159.897 422, 158 422 C 156.900 422, 156 422.257, 156 422.571 M 150.602 428.750 C 151.563 432.883, 154.625 439.650, 155.887 440.430 C 157.679 441.538, 157.191 438.937, 154.353 432.250 C 151.638 425.855, 149.454 423.817, 150.602 428.750 M 192 438.578 C 190.625 438.823, 186.800 439.509, 183.500 440.102 C 148.097 446.468, 118.021 476.243, 110.573 512.300 C 108.534 522.172, 108.534 540.828, 110.573 550.700 C 117.917 586.257, 145.689 614.321, 181.786 622.662 C 197.697 626.339, 219.346 624.635, 235.087 618.466 C 264.083 607.103, 286.168 581.002, 292.427 550.700 C 294.466 540.828, 294.466 522.172, 292.427 512.300 C 285.146 477.050, 257.576 448.955, 222 440.530 C 215.446 438.978, 196.631 437.754, 192 438.578 M 96.369 448.162 C 94.173 451.586, 93.197 454, 94.010 454 C 94.500 454, 95.277 453.328, 95.737 452.506 C 96.475 451.186, 96.831 451.193, 98.786 452.563 C 101.581 454.521, 101.676 456.349, 98.937 455.480 C 97.059 454.884, 96.991 455.013, 98.177 456.913 C 99.638 459.251, 101.569 459.639, 102.349 457.750 C 102.662 456.993, 103.135 457.387, 103.549 458.750 C 104.319 461.282, 106 461.797, 106 459.500 C 106 458.675, 106.738 458, 107.640 458 C 109.419 458, 111.917 455.259, 111.968 453.250 C 111.986 452.563, 111.325 452, 110.500 452 C 109.675 452, 109.053 452.337, 109.118 452.750 C 109.501 455.170, 108.777 456.107, 106.750 455.820 C 105.312 455.615, 104.386 454.696, 104.184 453.274 C 103.957 451.679, 103.265 451.111, 101.745 451.274 C 100.384 451.419, 99.194 450.661, 98.425 449.162 C 97.504 447.363, 97.029 447.132, 96.369 448.162 M 304.728 456.073 C 301.012 459.136, 300.016 461, 302.096 461 C 303.773 461, 308.877 457.099, 310.037 454.930 C 311.640 451.936, 309.077 452.487, 304.728 456.073 M 307.744 459.284 L 301.987 463.380 298.696 460.190 C 295.131 456.735, 292.284 456.097, 291.345 458.543 C 290.488 460.778, 291.793 461.611, 293.996 460.234 C 295.527 459.279, 296.207 459.350, 297.454 460.597 C 300.144 463.287, 305.358 471.320, 305.479 472.961 C 305.628 474.991, 306.877 477, 307.989 477 C 309.148 477, 307.576 471.661, 305.579 468.809 C 304.711 467.569, 304 466.242, 304 465.859 C 304 464.526, 311.061 460.809, 312.525 461.371 C 314.651 462.187, 314.400 464.915, 312.250 464.363 C 311.231 464.102, 309.999 464.728, 309.301 465.862 C 308.249 467.571, 308.423 467.889, 310.726 468.467 C 312.598 468.937, 313.608 468.665, 314.249 467.519 C 314.756 466.614, 315.880 466.142, 316.824 466.438 C 317.931 466.785, 318.885 466.137, 319.633 464.531 C 320.960 461.680, 320.393 460.719, 318.104 461.944 C 315.802 463.176, 312.120 460.480, 313.804 458.796 C 315.126 457.474, 315.430 454.946, 314.250 455.094 C 313.837 455.146, 310.910 457.032, 307.744 459.284 M 87.500 460.654 C 85.598 465.207, 86.052 465.767, 89.089 462.611 C 91.903 459.687, 93.720 460.252, 91.652 463.408 C 90.266 465.524, 90.455 465.831, 95.605 469.815 C 102.381 475.058, 104.187 475.256, 102.383 470.556 C 101.974 469.489, 101.385 469.266, 100.630 469.892 C 99.901 470.497, 98.848 470.362, 97.687 469.513 C 96.548 468.680, 96.272 467.950, 96.940 467.537 C 99.037 466.241, 98.008 462.184, 94.923 459.589 C 90.790 456.111, 89.310 456.323, 87.500 460.654 M 107.989 464.250 C 106.899 466.038, 106.009 468.175, 106.011 469 C 106.013 470.317, 111.636 475, 113.214 475 C 113.539 475, 114.292 473.538, 114.888 471.750 C 115.820 468.957, 115.783 468.746, 114.626 470.250 C 113.160 472.155, 111 472.602, 111 471 C 111 470.450, 111.450 470, 112 470 C 112.550 470, 112.976 469.212, 112.948 468.250 C 112.903 466.761, 112.667 466.826, 111.367 468.688 C 109.814 470.910, 107 470.820, 107 468.548 C 107 467.867, 107.878 466.515, 108.952 465.544 C 110.823 463.850, 111.050 463.868, 114.452 465.970 C 117.313 467.739, 118 467.871, 118 466.654 C 118 464.915, 113.396 461, 111.350 461 C 110.592 461, 109.079 462.462, 107.989 464.250 M 191.500 475.915 C 155.892 492.349, 158.349 490.326, 161.943 500.253 C 164.725 507.936, 165.548 518.823, 164.029 527.830 C 162.478 537.024, 158.716 542.369, 151.064 546.250 C 144.968 549.342, 139.707 549.707, 133.500 547.471 C 128.382 545.627, 123 545.554, 123 547.329 C 123 550.086, 129.550 558.393, 133.899 561.151 L 138.423 564.020 184.329 563.760 L 230.235 563.500 232.220 558.500 C 241.077 536.183, 242.291 508.032, 235.419 484.319 C 232.303 473.564, 226.560 460.976, 224.815 461.073 C 224.092 461.114, 209.100 467.793, 191.500 475.915 M 298.395 467.626 C 299.402 470.865, 295.085 471.711, 292.772 468.728 C 290.890 466.301, 290.354 467.924, 292.013 471.024 C 292.818 472.529, 292.606 473.141, 290.973 474.014 C 289.845 474.618, 287.968 474.975, 286.804 474.806 C 285.639 474.638, 284.494 475.062, 284.260 475.749 C 283.540 477.861, 287 478.370, 290.553 476.676 C 292.590 475.705, 294.160 475.451, 294.521 476.034 C 295.725 477.981, 297.068 476.924, 296.788 474.250 C 296.530 471.790, 296.790 471.530, 299.250 471.788 C 302.621 472.141, 302.906 470.119, 299.867 467.405 C 297.758 465.521, 297.742 465.524, 298.395 467.626 M 119.392 472.750 C 114.598 479.833, 114.521 480.006, 116.167 479.973 C 118.323 479.930, 125.773 467, 123.642 467 C 123.444 467, 121.532 469.587, 119.392 472.750 M 199 499 L 199 504 193.441 504 C 187.360 504, 186.995 502.817, 192.514 500.995 C 195.219 500.103, 196 499.302, 196 497.422 C 196 494.420, 194.243 494.325, 188.919 497.041 C 184.932 499.075, 177 506.449, 177 508.121 C 177 508.604, 181.950 509, 188 509 L 199 509 199 515 C 199 520.333, 198.778 521, 197 521 C 195.333 521, 195 520.333, 195 517 L 195 513 184.500 513 C 174.667 513, 174 513.127, 174 515 C 174 516.843, 174.667 517, 182.500 517 C 190.333 517, 191 517.157, 191 519 C 191 520.854, 190.333 521, 181.860 521 L 172.720 521 173.276 526.387 C 174.229 535.623, 179.278 543.398, 187.313 548.006 C 193.667 551.651, 196 551.837, 196 548.701 C 196 546.999, 195.127 546.086, 192.638 545.186 C 186.341 542.909, 180.077 535.384, 178.541 528.250 L 177.841 525 184.421 525 C 190.333 525, 191 525.203, 191 527 C 191 528.619, 190.333 529, 187.500 529 C 185.295 529, 184 529.481, 184 530.300 C 184 532.934, 186.506 534, 192.700 534 C 197.532 534, 199 534.337, 199 535.448 C 199 536.484, 197.508 536.993, 193.750 537.239 L 188.500 537.582 193.750 539.989 L 199 542.397 199 547.198 C 199 551.653, 199.180 552, 201.500 552 C 203.812 552, 204.002 551.644, 204.024 547.250 C 204.047 542.512, 204.060 542.494, 209.274 540.026 L 214.500 537.551 209.250 537.223 C 205.485 536.988, 204 536.486, 204 535.448 C 204 534.323, 205.552 534, 210.965 534 C 216.827 534, 218.093 533.694, 218.965 532.066 C 220.494 529.209, 220.326 529, 216.500 529 C 213.639 529, 213 528.626, 213 526.952 C 213 525.075, 213.521 524.929, 219.250 525.202 C 225.277 525.489, 225.487 525.589, 225.146 527.994 C 224.232 534.430, 217.087 543.028, 210.844 545.204 C 208.783 545.923, 208 546.857, 208 548.598 C 208 549.919, 208.563 550.990, 209.250 550.978 C 212.354 550.923, 218.872 546.897, 222.826 542.591 C 227.840 537.131, 229.618 533.361, 230.572 526.168 L 231.258 521 222.129 521 C 213.667 521, 213 520.854, 213 519 C 213 517.156, 213.667 517, 221.573 517 C 229.199 517, 230.110 516.807, 229.812 515.250 C 229.523 513.742, 228.060 513.461, 219.238 513.215 L 209 512.930 209 516.965 C 209 520.602, 208.754 521, 206.500 521 C 204.113 521, 204 520.731, 204 515.032 L 204 509.063 215.750 508.782 L 227.500 508.500 223.169 503.800 C 219.195 499.488, 212.063 495, 209.184 495 C 206.935 495, 207.858 499.821, 210.250 500.567 C 211.488 500.953, 213.388 501.884, 214.473 502.635 C 216.233 503.853, 215.777 504, 210.223 504 L 204 504 204 499 C 204 494.333, 203.833 494, 201.500 494 C 199.167 494, 199 494.333, 199 499 M 195 527 C 195 528.810, 195.667 529, 202 529 C 208.333 529, 209 528.810, 209 527 C 209 525.190, 208.333 525, 202 525 C 195.667 525, 195 525.190, 195 527 M 83.502 528.375 C 80.969 530.227, 81.902 534.416, 84.944 534.845 C 88.013 535.278, 90.332 532.489, 88.989 529.980 C 87.690 527.552, 85.502 526.912, 83.502 528.375 M 315.571 528.571 C 312.541 531.602, 314.772 535.454, 319.195 534.827 C 322.168 534.405, 322.954 530.170, 320.404 528.306 C 318.108 526.627, 317.481 526.662, 315.571 528.571 M 276.867 536.236 C 272.566 538.127, 272.107 538.694, 270.459 544.137 C 269.482 547.361, 268.305 550, 267.842 550 C 266.611 550, 266.801 548.539, 268.625 543.979 C 269.519 541.745, 270.059 539.725, 269.824 539.491 C 269.468 539.134, 262.196 540.903, 261.177 541.594 C 260.999 541.715, 259.095 546.806, 256.946 552.907 L 253.038 564 260.937 564 C 265.282 564, 269.527 563.735, 270.371 563.411 C 274.104 561.979, 280.811 547.997, 282.467 538.194 C 283.267 533.459, 283.221 533.443, 276.867 536.236 M 254.026 542.882 C 251.703 543.295, 250.130 544.328, 249.276 546 L 248 548.500 247.369 546.193 C 246.963 544.712, 246.218 544.086, 245.287 544.443 C 244.489 544.750, 242.820 545, 241.577 545 C 239.646 545, 238.942 546.129, 236.744 552.750 C 235.328 557.013, 233.859 561.288, 233.478 562.250 C 232.888 563.743, 233.382 564, 236.843 564 C 239.652 564, 241.214 563.462, 241.920 562.250 C 242.882 560.598, 242.941 560.601, 242.970 562.307 C 242.995 563.812, 243.713 564.063, 247.248 563.807 L 251.497 563.500 255.222 553 C 259.497 540.948, 259.215 541.962, 258.250 542.132 C 257.837 542.204, 255.937 542.542, 254.026 542.882 M 90 567.080 C 81.705 569.996, 81.676 570.009, 82.233 570.566 C 83.057 571.390, 97.946 566.722, 97.386 565.816 C 96.732 564.757, 96.491 564.798, 90 567.080 M 307.250 575.317 C 304.363 575.894, 302 576.772, 302 577.270 C 302 577.793, 303.796 577.841, 306.250 577.383 C 311.535 576.397, 314.714 576.408, 318.250 577.426 C 319.933 577.910, 321 577.832, 321 577.225 C 321 576.311, 320.102 575.964, 314.500 574.716 C 313.400 574.471, 310.137 574.741, 307.250 575.317 M 99.410 576.885 C 98.910 577.327, 95.508 578.965, 91.850 580.524 C 88.124 582.112, 85.392 583.857, 85.636 584.493 C 85.917 585.226, 88.405 584.454, 92.656 582.314 C 96.278 580.491, 99.862 579, 100.620 579 C 101.379 579, 102 578.577, 102 578.059 C 102 576.664, 100.453 575.963, 99.410 576.885 M 171.250 577.678 C 170.012 578.539, 169 579.864, 169 580.622 C 169 582.319, 170.204 582.396, 171.800 580.800 C 172.733 579.867, 173 581.311, 173 587.300 C 173 593.561, 173.287 595, 174.538 595 C 175.830 595, 176.029 593.539, 175.788 585.831 C 175.629 580.788, 175.050 576.538, 174.500 576.387 C 173.950 576.235, 172.488 576.816, 171.250 577.678 M 187 577.263 C 184.137 578.732, 183.162 583.566, 185.027 587.051 C 185.964 588.801, 186.891 589.125, 190.087 588.820 C 194.222 588.426, 195.472 590.077, 192.358 591.820 C 190.514 592.851, 187 592.237, 187 590.883 C 187 590.398, 186.325 590, 185.500 590 C 183.559 590, 183.589 591.446, 185.571 593.429 C 187.755 595.613, 192.608 595.392, 195 593 C 197.340 590.660, 197.824 581.461, 195.750 578.746 C 193.988 576.439, 189.943 575.754, 187 577.263 M 204.409 576.972 C 201.530 578.137, 199.614 583.222, 200.341 587.767 C 201.342 594.015, 206.914 596.849, 211.662 593.524 C 216.226 590.328, 215.307 578.828, 210.337 576.938 C 207.468 575.847, 207.188 575.849, 204.409 576.972 M 221.247 577.200 C 216.972 579.303, 216.092 588.995, 219.789 593.250 C 223.338 597.334, 231 594.155, 231 588.598 C 231 584.255, 228.100 581.612, 223.996 582.214 C 221.635 582.560, 221.041 582.335, 221.457 581.251 C 221.756 580.473, 222 579.648, 222 579.418 C 222 578.231, 227.146 579.218, 227.638 580.500 C 228.361 582.382, 231 582.478, 231 580.622 C 231 577.478, 224.977 575.365, 221.247 577.200 M 187.667 579.667 C 187.300 580.033, 187 581.578, 187 583.099 C 187 586.491, 190.403 588.025, 192.741 585.687 C 195.007 583.421, 193.623 579, 190.648 579 C 189.375 579, 188.033 579.300, 187.667 579.667 M 204.449 581.345 C 204.126 582.635, 204.005 585.448, 204.180 587.595 C 204.446 590.838, 204.905 591.557, 206.887 591.837 C 208.200 592.023, 209.655 591.573, 210.122 590.837 C 211.391 588.834, 211.172 581.572, 209.800 580.200 C 207.821 578.221, 205.087 578.806, 204.449 581.345 M 221.713 585.621 C 220.315 587.018, 221.031 590.946, 222.862 591.926 C 225.493 593.334, 228.290 591.098, 227.845 587.944 C 227.597 586.187, 226.786 585.417, 224.963 585.204 C 223.567 585.041, 222.104 585.229, 221.713 585.621 M 102.776 596.317 C 100.754 602.266, 99.608 606.964, 100.229 606.757 C 101.681 606.273, 107.148 590.134, 106.752 587.500 C 106.587 586.400, 104.798 590.367, 102.776 596.317 M 295 589.738 C 295 590.611, 308.256 600, 309.488 600 C 311.379 600, 309.212 597.687, 304.750 594.943 C 301.863 593.167, 298.488 591.052, 297.250 590.242 C 296.012 589.433, 295 589.206, 295 589.738 M 285.703 602.630 C 284.849 603.485, 298.277 614.947, 299.354 614.281 C 299.859 613.969, 299.357 612.991, 298.238 612.107 C 297.120 611.223, 293.972 608.599, 291.244 606.275 C 288.515 603.952, 286.022 602.311, 285.703 602.630 M 121.738 609.692 C 120.769 609.945, 120.212 610.534, 120.501 611.002 C 121.049 611.888, 117.374 622.686, 115.876 624.592 C 115.404 625.193, 115.313 625.980, 115.675 626.342 C 116.890 627.557, 117.763 627.016, 118.245 624.750 C 118.508 623.513, 119.890 619.462, 121.317 615.750 C 122.743 612.038, 123.818 609.052, 123.705 609.116 C 123.592 609.180, 122.707 609.439, 121.738 609.692 M 272.063 617.179 C 271.928 620.764, 274.822 622.119, 281.094 621.410 C 286.638 620.783, 287.024 620.880, 287.922 623.123 C 288.757 625.211, 288.879 625.257, 288.921 623.500 C 289.021 619.339, 287.642 618.658, 280.578 619.382 C 274.317 620.023, 273.908 619.936, 273.042 617.780 C 272.395 616.169, 272.108 615.992, 272.063 617.179 M 134.394 619.794 C 134.829 620.516, 134.582 621.815, 133.836 622.736 C 133.087 623.660, 133.008 624.079, 133.656 623.691 C 134.446 623.218, 135.013 624.662, 135.448 628.249 C 136.728 638.828, 137.225 641.174, 138.007 640.346 C 138.447 639.881, 138.427 637.250, 137.963 634.500 C 137.499 631.750, 137.092 627.643, 137.060 625.372 C 137.022 622.760, 136.379 620.741, 135.308 619.872 C 134.051 618.852, 133.816 618.832, 134.394 619.794 M 260.957 626.223 C 262.308 626.934, 263.709 628.637, 264.069 630.008 C 264.664 632.269, 264.798 632.325, 265.521 630.614 C 266.646 627.952, 264.812 625.551, 261.399 625.215 L 258.500 624.929 260.957 626.223 M 255.263 628.250 C 254.568 629.134, 255.682 631.628, 259.068 636.771 C 261.702 640.770, 264.101 643.646, 264.399 643.163 C 264.697 642.680, 262.919 639.270, 260.448 635.585 C 257.976 631.899, 256.216 628.460, 256.536 627.942 C 257.392 626.556, 256.406 626.795, 255.263 628.250 M 156.193 640.266 C 154.164 646.707, 154.105 647.511, 155.510 649.655 C 157.351 652.465, 158.540 652.838, 156.806 650.062 C 155.831 648.500, 155.949 646.993, 157.410 642.312 C 158.408 639.115, 159.635 635.990, 160.138 635.367 C 160.719 634.645, 160.572 634.050, 159.732 633.727 C 158.824 633.379, 157.721 635.416, 156.193 640.266 M 263 633.536 C 263 633.830, 265.064 634.956, 267.586 636.037 C 270.833 637.429, 272.658 637.719, 273.836 637.032 C 275.287 636.185, 275.227 636.057, 273.372 636.030 C 272.202 636.014, 269.629 635.325, 267.654 634.500 C 263.760 632.873, 263 632.715, 263 633.536 M 237 636.828 C 237 637.283, 238.058 640.320, 239.351 643.578 C 240.645 646.835, 241.991 650.316, 242.344 651.313 C 242.697 652.311, 243.424 652.856, 243.959 652.526 C 244.925 651.928, 244.742 651.372, 240.076 640.750 C 238.130 636.318, 237 634.878, 237 636.828 M 180.008 641.750 C 188.826 656.067, 190.994 659.240, 190.997 657.830 C 191.001 655.380, 181.721 640.053, 180.215 640.025 C 179.246 640.006, 179.195 640.431, 180.008 641.750 M 214.645 642.250 C 215.065 642.938, 217.509 646.786, 220.077 650.803 C 224.282 657.380, 224.795 657.855, 225.229 655.583 C 225.494 654.196, 225.384 653.263, 224.984 653.510 C 224.187 654.003, 217 643.655, 217 642.015 C 217 641.457, 216.298 641, 215.441 641 C 214.453 641, 214.162 641.458, 214.645 642.250 M 203 650.500 C 203 655.500, 203.412 659, 204 659 C 204.588 659, 205 655.500, 205 650.500 C 205 645.500, 204.588 642, 204 642 C 203.412 642, 203 645.500, 203 650.500" stroke="none" fill="#0f6a7b" fill-rule="evenodd"/><path d="M 178 385.432 C 145.921 391.172, 119.184 404.918, 97.051 427.051 C 76.424 447.678, 62.621 473.410, 56.312 503 C 53.733 515.097, 53.733 547.903, 56.312 560 C 62.621 589.590, 76.424 615.322, 97.051 635.949 C 113.291 652.189, 132.808 664.331, 154.012 671.386 C 172.317 677.476, 179.152 678.500, 201.500 678.500 C 223.848 678.500, 230.683 677.476, 248.988 671.386 C 270.192 664.331, 289.709 652.189, 305.949 635.949 C 326.576 615.322, 340.379 589.590, 346.688 560 C 349.267 547.903, 349.267 515.097, 346.688 503 C 340.379 473.410, 326.576 447.678, 305.949 427.051 C 285.625 406.727, 260.150 392.936, 231 386.475 C 220.807 384.216, 188.366 383.578, 178 385.432 M 179.668 389.501 C 147.746 394.706, 120.647 408.972, 98.321 432.326 C 83.011 448.340, 72.895 465.091, 65.979 485.879 C 60.513 502.309, 58.718 513.585, 58.718 531.500 C 58.718 549.415, 60.513 560.691, 65.979 577.121 C 73.431 599.520, 83.486 615.611, 100.938 633.062 C 122.023 654.147, 145.648 666.836, 174.730 672.695 C 186.977 675.162, 216.023 675.162, 228.270 672.695 C 257.352 666.836, 280.977 654.147, 302.062 633.062 C 319.514 615.611, 329.569 599.520, 337.021 577.121 C 342.487 560.691, 344.282 549.415, 344.282 531.500 C 344.282 513.585, 342.487 502.309, 337.021 485.879 C 329.569 463.480, 319.514 447.389, 302.062 429.938 C 281.358 409.233, 258.905 396.958, 230.500 390.815 C 218.372 388.192, 191.896 387.508, 179.668 389.501 M 185.609 390.991 C 122.097 399.020, 72.674 446.574, 62.473 509.470 C 60.596 521.043, 60.596 541.957, 62.473 553.530 C 72.017 612.375, 115.362 657.579, 174.312 670.162 C 188.833 673.262, 214.167 673.262, 228.688 670.162 C 287.638 657.579, 330.983 612.375, 340.527 553.530 C 342.404 541.957, 342.404 521.043, 340.527 509.470 C 330.990 450.669, 287.021 404.824, 228.780 392.955 C 217.321 390.620, 196.159 389.657, 185.609 390.991 M 151 408.257 C 151 408.398, 151.439 410.044, 151.975 411.914 C 152.779 414.716, 152.647 415.546, 151.225 416.626 C 149.594 417.865, 149.596 417.938, 151.250 417.968 C 152.583 417.992, 153 418.848, 153 421.559 C 153 423.516, 153.419 424.859, 153.932 424.542 C 154.444 424.226, 155.506 424.884, 156.291 426.006 C 157.191 427.290, 158.327 427.812, 159.360 427.415 C 161.275 426.681, 161.531 428.069, 159.800 429.800 C 158.867 430.733, 159.089 431, 160.800 431 C 162.010 431, 163.045 431.563, 163.100 432.250 C 163.155 432.938, 163.524 432.375, 163.922 431 C 164.405 429.328, 164.199 428.231, 163.301 427.689 C 162.562 427.242, 162.200 426.486, 162.495 426.008 C 162.791 425.529, 162.618 424.882, 162.110 424.568 C 160.677 423.682, 162.029 420.055, 164.232 418.876 C 165.323 418.292, 166.542 418.194, 166.942 418.657 C 168.289 420.218, 170.917 428.482, 170.707 430.500 C 170.583 431.703, 171.098 432.500, 172 432.500 C 172.868 432.500, 173.626 431.413, 173.800 429.921 C 174.115 427.212, 170.513 416.435, 168.975 415.485 C 168.482 415.180, 165.374 416.297, 162.068 417.966 C 158.762 419.634, 155.819 421, 155.529 421 C 154.125 421, 155.270 418.095, 157.500 416 C 160.642 413.048, 160.689 411.789, 157.628 412.557 C 155.681 413.046, 155.139 412.690, 154.609 410.576 C 154.253 409.159, 153.295 408, 152.481 408 C 151.666 408, 151 408.115, 151 408.257 M 244.470 411.417 C 243.087 414.729, 242.568 415.106, 239.791 414.821 C 236.176 414.449, 234.604 416.822, 237.895 417.683 C 239.053 417.986, 240 418.601, 240 419.050 C 240 420.070, 232.515 426.173, 228.500 428.425 L 225.500 430.109 229.422 429.589 C 232.166 429.226, 234.484 427.957, 237.138 425.365 C 241.313 421.288, 241.433 421.375, 242.482 429.222 C 242.938 432.630, 243.827 434.506, 245.675 435.959 C 249.609 439.053, 249.968 437.628, 246.851 431.285 C 245.288 428.103, 243.743 424.123, 243.417 422.441 C 242.836 419.433, 242.887 419.388, 246.413 419.800 C 249.217 420.127, 250 419.867, 250 418.609 C 250 417.683, 249.176 417, 248.059 417 C 245.344 417, 244.849 415.733, 246.128 412.064 C 247.711 407.521, 246.324 406.980, 244.470 411.417 M 156 422.571 C 156 423.675, 158.769 425.898, 159.381 425.286 C 160.716 423.950, 159.897 422, 158 422 C 156.900 422, 156 422.257, 156 422.571 M 150.602 428.750 C 151.563 432.883, 154.625 439.650, 155.887 440.430 C 157.679 441.538, 157.191 438.937, 154.353 432.250 C 151.638 425.855, 149.454 423.817, 150.602 428.750 M 192 438.578 C 190.625 438.823, 186.800 439.509, 183.500 440.102 C 148.097 446.468, 118.021 476.243, 110.573 512.300 C 108.534 522.172, 108.534 540.828, 110.573 550.700 C 117.917 586.257, 145.689 614.321, 181.786 622.662 C 197.697 626.339, 219.346 624.635, 235.087 618.466 C 264.083 607.103, 286.168 581.002, 292.427 550.700 C 294.466 540.828, 294.466 522.172, 292.427 512.300 C 285.146 477.050, 257.576 448.955, 222 440.530 C 215.446 438.978, 196.631 437.754, 192 438.578 M 96.369 448.162 C 94.173 451.586, 93.197 454, 94.010 454 C 94.500 454, 95.277 453.328, 95.737 452.506 C 96.475 451.186, 96.831 451.193, 98.786 452.563 C 101.581 454.521, 101.676 456.349, 98.937 455.480 C 97.059 454.884, 96.991 455.013, 98.177 456.913 C 99.638 459.251, 101.569 459.639, 102.349 457.750 C 102.662 456.993, 103.135 457.387, 103.549 458.750 C 104.319 461.282, 106 461.797, 106 459.500 C 106 458.675, 106.738 458, 107.640 458 C 109.419 458, 111.917 455.259, 111.968 453.250 C 111.986 452.563, 111.325 452, 110.500 452 C 109.675 452, 109.053 452.337, 109.118 452.750 C 109.501 455.170, 108.777 456.107, 106.750 455.820 C 105.312 455.615, 104.386 454.696, 104.184 453.274 C 103.957 451.679, 103.265 451.111, 101.745 451.274 C 100.384 451.419, 99.194 450.661, 98.425 449.162 C 97.504 447.363, 97.029 447.132, 96.369 448.162 M 304.728 456.073 C 301.012 459.136, 300.016 461, 302.096 461 C 303.773 461, 308.877 457.099, 310.037 454.930 C 311.640 451.936, 309.077 452.487, 304.728 456.073 M 307.744 459.284 L 301.987 463.380 298.696 460.190 C 295.131 456.735, 292.284 456.097, 291.345 458.543 C 290.488 460.778, 291.793 461.611, 293.996 460.234 C 295.527 459.279, 296.207 459.350, 297.454 460.597 C 300.144 463.287, 305.358 471.320, 305.479 472.961 C 305.628 474.991, 306.877 477, 307.989 477 C 309.148 477, 307.576 471.661, 305.579 468.809 C 304.711 467.569, 304 466.242, 304 465.859 C 304 464.526, 311.061 460.809, 312.525 461.371 C 314.651 462.187, 314.400 464.915, 312.250 464.363 C 311.231 464.102, 309.999 464.728, 309.301 465.862 C 308.249 467.571, 308.423 467.889, 310.726 468.467 C 312.598 468.937, 313.608 468.665, 314.249 467.519 C 314.756 466.614, 315.880 466.142, 316.824 466.438 C 317.931 466.785, 318.885 466.137, 319.633 464.531 C 320.960 461.680, 320.393 460.719, 318.104 461.944 C 315.802 463.176, 312.120 460.480, 313.804 458.796 C 315.126 457.474, 315.430 454.946, 314.250 455.094 C 313.837 455.146, 310.910 457.032, 307.744 459.284 M 87.500 460.654 C 85.598 465.207, 86.052 465.767, 89.089 462.611 C 91.903 459.687, 93.720 460.252, 91.652 463.408 C 90.266 465.524, 90.455 465.831, 95.605 469.815 C 102.381 475.058, 104.187 475.256, 102.383 470.556 C 101.974 469.489, 101.385 469.266, 100.630 469.892 C 99.901 470.497, 98.848 470.362, 97.687 469.513 C 96.548 468.680, 96.272 467.950, 96.940 467.537 C 99.037 466.241, 98.008 462.184, 94.923 459.589 C 90.790 456.111, 89.310 456.323, 87.500 460.654 M 107.989 464.250 C 106.899 466.038, 106.009 468.175, 106.011 469 C 106.013 470.317, 111.636 475, 113.214 475 C 113.539 475, 114.292 473.538, 114.888 471.750 C 115.820 468.957, 115.783 468.746, 114.626 470.250 C 113.160 472.155, 111 472.602, 111 471 C 111 470.450, 111.450 470, 112 470 C 112.550 470, 112.976 469.212, 112.948 468.250 C 112.903 466.761, 112.667 466.826, 111.367 468.688 C 109.814 470.910, 107 470.820, 107 468.548 C 107 467.867, 107.878 466.515, 108.952 465.544 C 110.823 463.850, 111.050 463.868, 114.452 465.970 C 117.313 467.739, 118 467.871, 118 466.654 C 118 464.915, 113.396 461, 111.350 461 C 110.592 461, 109.079 462.462, 107.989 464.250 M 191.500 475.915 C 155.892 492.349, 158.349 490.326, 161.943 500.253 C 164.725 507.936, 165.548 518.823, 164.029 527.830 C 162.478 537.024, 158.716 542.369, 151.064 546.250 C 144.968 549.342, 139.707 549.707, 133.500 547.471 C 128.382 545.627, 123 545.554, 123 547.329 C 123 550.086, 129.550 558.393, 133.899 561.151 L 138.423 564.020 184.329 563.760 L 230.235 563.500 232.220 558.500 C 241.077 536.183, 242.291 508.032, 235.419 484.319 C 232.303 473.564, 226.560 460.976, 224.815 461.073 C 224.092 461.114, 209.100 467.793, 191.500 475.915 M 298.395 467.626 C 299.402 470.865, 295.085 471.711, 292.772 468.728 C 290.890 466.301, 290.354 467.924, 292.013 471.024 C 292.818 472.529, 292.606 473.141, 290.973 474.014 C 289.845 474.618, 287.968 474.975, 286.804 474.806 C 285.639 474.638, 284.494 475.062, 284.260 475.749 C 283.540 477.861, 287 478.370, 290.553 476.676 C 292.590 475.705, 294.160 475.451, 294.521 476.034 C 295.725 477.981, 297.068 476.924, 296.788 474.250 C 296.530 471.790, 296.790 471.530, 299.250 471.788 C 302.621 472.141, 302.906 470.119, 299.867 467.405 C 297.758 465.521, 297.742 465.524, 298.395 467.626 M 119.392 472.750 C 114.598 479.833, 114.521 480.006, 116.167 479.973 C 118.323 479.930, 125.773 467, 123.642 467 C 123.444 467, 121.532 469.587, 119.392 472.750 M 199 499 L 199 504 193.441 504 C 187.360 504, 186.995 502.817, 192.514 500.995 C 195.219 500.103, 196 499.302, 196 497.422 C 196 494.420, 194.243 494.325, 188.919 497.041 C 184.932 499.075, 177 506.449, 177 508.121 C 177 508.604, 181.950 509, 188 509 L 199 509 199 515 C 199 520.333, 198.778 521, 197 521 C 195.333 521, 195 520.333, 195 517 L 195 513 184.500 513 C 174.667 513, 174 513.127, 174 515 C 174 516.843, 174.667 517, 182.500 517 C 190.333 517, 191 517.157, 191 519 C 191 520.854, 190.333 521, 181.860 521 L 172.720 521 173.276 526.387 C 174.229 535.623, 179.278 543.398, 187.313 548.006 C 193.667 551.651, 196 551.837, 196 548.701 C 196 546.999, 195.127 546.086, 192.638 545.186 C 186.341 542.909, 180.077 535.384, 178.541 528.250 L 177.841 525 184.421 525 C 190.333 525, 191 525.203, 191 527 C 191 528.619, 190.333 529, 187.500 529 C 185.295 529, 184 529.481, 184 530.300 C 184 532.934, 186.506 534, 192.700 534 C 197.532 534, 199 534.337, 199 535.448 C 199 536.484, 197.508 536.993, 193.750 537.239 L 188.500 537.582 193.750 539.989 L 199 542.397 199 547.198 C 199 551.653, 199.180 552, 201.500 552 C 203.812 552, 204.002 551.644, 204.024 547.250 C 204.047 542.512, 204.060 542.494, 209.274 540.026 L 214.500 537.551 209.250 537.223 C 205.485 536.988, 204 536.486, 204 535.448 C 204 534.323, 205.552 534, 210.965 534 C 216.827 534, 218.093 533.694, 218.965 532.066 C 220.494 529.209, 220.326 529, 216.500 529 C 213.639 529, 213 528.626, 213 526.952 C 213 525.075, 213.521 524.929, 219.250 525.202 C 225.277 525.489, 225.487 525.589, 225.146 527.994 C 224.232 534.430, 217.087 543.028, 210.844 545.204 C 208.783 545.923, 208 546.857, 208 548.598 C 208 549.919, 208.563 550.990, 209.250 550.978 C 212.354 550.923, 218.872 546.897, 222.826 542.591 C 227.840 537.131, 229.618 533.361, 230.572 526.168 L 231.258 521 222.129 521 C 213.667 521, 213 520.854, 213 519 C 213 517.156, 213.667 517, 221.573 517 C 229.199 517, 230.110 516.807, 229.812 515.250 C 229.523 513.742, 228.060 513.461, 219.238 513.215 L 209 512.930 209 516.965 C 209 520.602, 208.754 521, 206.500 521 C 204.113 521, 204 520.731, 204 515.032 L 204 509.063 215.750 508.782 L 227.500 508.500 223.169 503.800 C 219.195 499.488, 212.063 495, 209.184 495 C 206.935 495, 207.858 499.821, 210.250 500.567 C 211.488 500.953, 213.388 501.884, 214.473 502.635 C 216.233 503.853, 215.777 504, 210.223 504 L 204 504 204 499 C 204 494.333, 203.833 494, 201.500 494 C 199.167 494, 199 494.333, 199 499 M 195 527 C 195 528.810, 195.667 529, 202 529 C 208.333 529, 209 528.810, 209 527 C 209 525.190, 208.333 525, 202 525 C 195.667 525, 195 525.190, 195 527 M 83.502 528.375 C 80.969 530.227, 81.902 534.416, 84.944 534.845 C 88.013 535.278, 90.332 532.489, 88.989 529.980 C 87.690 527.552, 85.502 526.912, 83.502 528.375 M 315.571 528.571 C 312.541 531.602, 314.772 535.454, 319.195 534.827 C 322.168 534.405, 322.954 530.170, 320.404 528.306 C 318.108 526.627, 317.481 526.662, 315.571 528.571 M 276.867 536.236 C 272.566 538.127, 272.107 538.694, 270.459 544.137 C 269.482 547.361, 268.305 550, 267.842 550 C 266.611 550, 266.801 548.539, 268.625 543.979 C 269.519 541.745, 270.059 539.725, 269.824 539.491 C 269.468 539.134, 262.196 540.903, 261.177 541.594 C 260.999 541.715, 259.095 546.806, 256.946 552.907 L 253.038 564 260.937 564 C 265.282 564, 269.527 563.735, 270.371 563.411 C 274.104 561.979, 280.811 547.997, 282.467 538.194 C 283.267 533.459, 283.221 533.443, 276.867 536.236 M 254.026 542.882 C 251.703 543.295, 250.130 544.328, 249.276 546 L 248 548.500 247.369 546.193 C 246.963 544.712, 246.218 544.086, 245.287 544.443 C 244.489 544.750, 242.820 545, 241.577 545 C 239.646 545, 238.942 546.129, 236.744 552.750 C 235.328 557.013, 233.859 561.288, 233.478 562.250 C 232.888 563.743, 233.382 564, 236.843 564 C 239.652 564, 241.214 563.462, 241.920 562.250 C 242.882 560.598, 242.941 560.601, 242.970 562.307 C 242.995 563.812, 243.713 564.063, 247.248 563.807 L 251.497 563.500 255.222 553 C 259.497 540.948, 259.215 541.962, 258.250 542.132 C 257.837 542.204, 255.937 542.542, 254.026 542.882 M 90 567.080 C 81.705 569.996, 81.676 570.009, 82.233 570.566 C 83.057 571.390, 97.946 566.722, 97.386 565.816 C 96.732 564.757, 96.491 564.798, 90 567.080 M 307.250 575.317 C 304.363 575.894, 302 576.772, 302 577.270 C 302 577.793, 303.796 577.841, 306.250 577.383 C 311.535 576.397, 314.714 576.408, 318.250 577.426 C 319.933 577.910, 321 577.832, 321 577.225 C 321 576.311, 320.102 575.964, 314.500 574.716 C 313.400 574.471, 310.137 574.741, 307.250 575.317 M 99.410 576.885 C 98.910 577.327, 95.508 578.965, 91.850 580.524 C 88.124 582.112, 85.392 583.857, 85.636 584.493 C 85.917 585.226, 88.405 584.454, 92.656 582.314 C 96.278 580.491, 99.862 579, 100.620 579 C 101.379 579, 102 578.577, 102 578.059 C 102 576.664, 100.453 575.963, 99.410 576.885 M 171.250 577.678 C 170.012 578.539, 169 579.864, 169 580.622 C 169 582.319, 170.204 582.396, 171.800 580.800 C 172.733 579.867, 173 581.311, 173 587.300 C 173 593.561, 173.287 595, 174.538 595 C 175.830 595, 176.029 593.539, 175.788 585.831 C 175.629 580.788, 175.050 576.538, 174.500 576.387 C 173.950 576.235, 172.488 576.816, 171.250 577.678 M 187 577.263 C 184.137 578.732, 183.162 583.566, 185.027 587.051 C 185.964 588.801, 186.891 589.125, 190.087 588.820 C 194.222 588.426, 195.472 590.077, 192.358 591.820 C 190.514 592.851, 187 592.237, 187 590.883 C 187 590.398, 186.325 590, 185.500 590 C 183.559 590, 183.589 591.446, 185.571 593.429 C 187.755 595.613, 192.608 595.392, 195 593 C 197.340 590.660, 197.824 581.461, 195.750 578.746 C 193.988 576.439, 189.943 575.754, 187 577.263 M 204.409 576.972 C 201.530 578.137, 199.614 583.222, 200.341 587.767 C 201.342 594.015, 206.914 596.849, 211.662 593.524 C 216.226 590.328, 215.307 578.828, 210.337 576.938 C 207.468 575.847, 207.188 575.849, 204.409 576.972 M 221.247 577.200 C 216.972 579.303, 216.092 588.995, 219.789 593.250 C 223.338 597.334, 231 594.155, 231 588.598 C 231 584.255, 228.100 581.612, 223.996 582.214 C 221.635 582.560, 221.041 582.335, 221.457 581.251 C 221.756 580.473, 222 579.648, 222 579.418 C 222 578.231, 227.146 579.218, 227.638 580.500 C 228.361 582.382, 231 582.478, 231 580.622 C 231 577.478, 224.977 575.365, 221.247 577.200 M 187.667 579.667 C 187.300 580.033, 187 581.578, 187 583.099 C 187 586.491, 190.403 588.025, 192.741 585.687 C 195.007 583.421, 193.623 579, 190.648 579 C 189.375 579, 188.033 579.300, 187.667 579.667 M 204.449 581.345 C 204.126 582.635, 204.005 585.448, 204.180 587.595 C 204.446 590.838, 204.905 591.557, 206.887 591.837 C 208.200 592.023, 209.655 591.573, 210.122 590.837 C 211.391 588.834, 211.172 581.572, 209.800 580.200 C 207.821 578.221, 205.087 578.806, 204.449 581.345 M 221.713 585.621 C 220.315 587.018, 221.031 590.946, 222.862 591.926 C 225.493 593.334, 228.290 591.098, 227.845 587.944 C 227.597 586.187, 226.786 585.417, 224.963 585.204 C 223.567 585.041, 222.104 585.229, 221.713 585.621 M 102.776 596.317 C 100.754 602.266, 99.608 606.964, 100.229 606.757 C 101.681 606.273, 107.148 590.134, 106.752 587.500 C 106.587 586.400, 104.798 590.367, 102.776 596.317 M 295 589.738 C 295 590.611, 308.256 600, 309.488 600 C 311.379 600, 309.212 597.687, 304.750 594.943 C 301.863 593.167, 298.488 591.052, 297.250 590.242 C 296.012 589.433, 295 589.206, 295 589.738 M 285.703 602.630 C 284.849 603.485, 298.277 614.947, 299.354 614.281 C 299.859 613.969, 299.357 612.991, 298.238 612.107 C 297.120 611.223, 293.972 608.599, 291.244 606.275 C 288.515 603.952, 286.022 602.311, 285.703 602.630 M 121.738 609.692 C 120.769 609.945, 120.212 610.534, 120.501 611.002 C 121.049 611.888, 117.374 622.686, 115.876 624.592 C 115.404 625.193, 115.313 625.980, 115.675 626.342 C 116.890 627.557, 117.763 627.016, 118.245 624.750 C 118.508 623.513, 119.890 619.462, 121.317 615.750 C 122.743 612.038, 123.818 609.052, 123.705 609.116 C 123.592 609.180, 122.707 609.439, 121.738 609.692 M 272.063 617.179 C 271.928 620.764, 274.822 622.119, 281.094 621.410 C 286.638 620.783, 287.024 620.880, 287.922 623.123 C 288.757 625.211, 288.879 625.257, 288.921 623.500 C 289.021 619.339, 287.642 618.658, 280.578 619.382 C 274.317 620.023, 273.908 619.936, 273.042 617.780 C 272.395 616.169, 272.108 615.992, 272.063 617.179 M 134.394 619.794 C 134.829 620.516, 134.582 621.815, 133.836 622.736 C 133.087 623.660, 133.008 624.079, 133.656 623.691 C 134.446 623.218, 135.013 624.662, 135.448 628.249 C 136.728 638.828, 137.225 641.174, 138.007 640.346 C 138.447 639.881, 138.427 637.250, 137.963 634.500 C 137.499 631.750, 137.092 627.643, 137.060 625.372 C 137.022 622.760, 136.379 620.741, 135.308 619.872 C 134.051 618.852, 133.816 618.832, 134.394 619.794 M 260.957 626.223 C 262.308 626.934, 263.709 628.637, 264.069 630.008 C 264.664 632.269, 264.798 632.325, 265.521 630.614 C 266.646 627.952, 264.812 625.551, 261.399 625.215 L 258.500 624.929 260.957 626.223 M 255.263 628.250 C 254.568 629.134, 255.682 631.628, 259.068 636.771 C 261.702 640.770, 264.101 643.646, 264.399 643.163 C 264.697 642.680, 262.919 639.270, 260.448 635.585 C 257.976 631.899, 256.216 628.460, 256.536 627.942 C 257.392 626.556, 256.406 626.795, 255.263 628.250 M 156.193 640.266 C 154.164 646.707, 154.105 647.511, 155.510 649.655 C 157.351 652.465, 158.540 652.838, 156.806 650.062 C 155.831 648.500, 155.949 646.993, 157.410 642.312 C 158.408 639.115, 159.635 635.990, 160.138 635.367 C 160.719 634.645, 160.572 634.050, 159.732 633.727 C 158.824 633.379, 157.721 635.416, 156.193 640.266 M 263 633.536 C 263 633.830, 265.064 634.956, 267.586 636.037 C 270.833 637.429, 272.658 637.719, 273.836 637.032 C 275.287 636.185, 275.227 636.057, 273.372 636.030 C 272.202 636.014, 269.629 635.325, 267.654 634.500 C 263.760 632.873, 263 632.715, 263 633.536 M 237 636.828 C 237 637.283, 238.058 640.320, 239.351 643.578 C 240.645 646.835, 241.991 650.316, 242.344 651.313 C 242.697 652.311, 243.424 652.856, 243.959 652.526 C 244.925 651.928, 244.742 651.372, 240.076 640.750 C 238.130 636.318, 237 634.878, 237 636.828 M 180.008 641.750 C 188.826 656.067, 190.994 659.240, 190.997 657.830 C 191.001 655.380, 181.721 640.053, 180.215 640.025 C 179.246 640.006, 179.195 640.431, 180.008 641.750 M 214.645 642.250 C 215.065 642.938, 217.509 646.786, 220.077 650.803 C 224.282 657.380, 224.795 657.855, 225.229 655.583 C 225.494 654.196, 225.384 653.263, 224.984 653.510 C 224.187 654.003, 217 643.655, 217 642.015 C 217 641.457, 216.298 641, 215.441 641 C 214.453 641, 214.162 641.458, 214.645 642.250 M 203 650.500 C 203 655.500, 203.412 659, 204 659 C 204.588 659, 205 655.500, 205 650.500 C 205 645.500, 204.588 642, 204 642 C 203.412 642, 203 645.500, 203 650.500" stroke="none" fill="#0f6a7b" fill-rule="evenodd"/><path d="M 944.486 417.438 C 939.733 419.436, 938.874 421.157, 939.203 428.023 C 939.428 432.721, 939.136 434.434, 938 435.081 C 934.229 437.228, 922.916 441.066, 922.009 440.506 C 921.454 440.163, 921 438.065, 921 435.845 C 921 430.177, 918.404 426.320, 913.270 424.359 C 909.218 422.811, 908.856 422.820, 906.986 424.512 C 905.091 426.228, 905.025 427.291, 905.512 448.267 C 905.792 460.345, 906.264 470.618, 906.559 471.096 C 906.855 471.575, 906.738 473.661, 906.299 475.733 C 905.661 478.742, 905.366 477.085, 904.833 467.500 C 903.715 447.408, 902.984 444.008, 898.523 438.158 C 896.359 435.321, 894.067 433, 893.429 433 C 891.430 433, 887.322 436.808, 886.076 439.816 C 884.092 444.606, 886.170 480.716, 888.801 487.169 C 889.399 488.637, 890.702 490.295, 891.695 490.852 C 893.404 491.811, 893.393 491.902, 891.500 492.557 C 890.400 492.937, 887.168 494.279, 884.317 495.538 C 880.644 497.161, 878.007 497.677, 875.263 497.309 C 871.749 496.837, 871.085 497.139, 868.065 500.579 C 863.652 505.605, 861.049 511.555, 861.022 516.679 C 861.004 520.066, 861.638 521.534, 864.368 524.429 C 868.639 528.957, 873.592 529.311, 878.656 525.449 C 881.438 523.327, 882 522.244, 882 519.008 C 882 516.869, 881.550 514.840, 881 514.500 C 879.318 513.460, 879.887 508.499, 881.941 506.294 C 884.106 503.970, 886.272 503.648, 911 501.974 C 920.203 501.351, 931.984 501.244, 940 501.712 L 953.500 502.500 953.817 506.354 C 954.116 509.999, 954.279 510.169, 956.817 509.496 C 958.292 509.105, 962.715 508.721, 966.644 508.643 C 975.191 508.472, 978.284 506.509, 977.799 501.564 C 977.528 498.810, 976.608 498.079, 968 493.773 L 958.500 489.021 939.550 489.011 C 924.811 489.002, 920.867 488.733, 921.800 487.800 C 922.460 487.140, 923 485.592, 923 484.359 C 923 483.126, 923.450 481.840, 924 481.500 C 925.321 480.684, 925.265 475.587, 923.844 467.269 C 923.208 463.546, 922.995 458.468, 923.370 455.985 C 924.002 451.802, 924.343 451.380, 928.010 450.235 C 935.508 447.895, 943.235 449.439, 936.618 451.955 C 933.299 453.217, 930 458.204, 930 461.957 C 930 463.689, 931.125 466.762, 932.500 468.785 C 933.875 470.809, 935 473.053, 935 473.772 C 935 474.492, 933.164 476.827, 930.920 478.961 C 927.993 481.746, 926.933 483.500, 927.170 485.171 C 927.560 487.924, 931.671 489.020, 932.593 486.617 C 932.915 485.780, 935.388 483.676, 938.089 481.943 C 940.790 480.210, 943 478.365, 943 477.845 C 943 477.324, 944.500 476.271, 946.333 475.506 C 950.285 473.854, 956.020 467.779, 957.891 463.262 C 959.530 459.306, 958.595 454.968, 955.954 454.278 C 952.975 453.499, 953.352 448.548, 956.562 446.297 C 963.699 441.293, 965.106 439.725, 964.804 437.116 C 964.581 435.197, 963.674 434.233, 961.402 433.499 C 956.365 431.870, 955 430.172, 955 425.533 C 955 419.234, 949.777 415.213, 944.486 417.438 M 427.500 430.536 C 425.850 431.292, 421.300 431.930, 417.390 431.955 C 413.479 431.980, 408.191 432.286, 405.640 432.636 C 401.030 433.268, 401 433.297, 401 437.136 C 401 442.020, 403.762 445, 408.289 445 C 410.097 445, 413.360 445.914, 415.539 447.031 C 418.724 448.665, 420.545 448.934, 424.836 448.405 C 430.032 447.765, 430.163 447.810, 429.836 450.124 C 429.540 452.217, 428.762 452.605, 423.312 453.381 C 416.223 454.390, 414 453.859, 414 451.154 C 414 448.865, 412.385 447.386, 408.940 446.521 L 406.391 445.881 406.425 457.191 C 406.496 480.785, 405.298 501.351, 403.618 505.372 C 401.313 510.888, 401.606 514.825, 404.649 519.215 C 409.079 525.607, 413.463 525.302, 418.676 518.237 C 420.192 516.181, 422.885 512.839, 424.660 510.810 C 428.662 506.233, 429.979 500.550, 427.591 498.163 C 426.039 496.612, 425.663 496.652, 422.015 498.750 C 419.864 499.988, 417.630 501, 417.052 501 C 416.410 501, 416 498.086, 416 493.519 L 416 486.038 420.382 486.639 C 427.660 487.636, 440 482.413, 440 478.335 C 440 477.499, 440.877 475.700, 441.950 474.337 C 445.535 469.779, 446.984 462.176, 446.894 448.399 C 446.807 435.149, 445.804 430.906, 442.455 429.621 C 439.663 428.550, 430.632 429.102, 427.500 430.536 M 477.103 433.376 C 476.036 434.662, 473.815 435, 466.437 435 C 461.311 435, 456.872 435.398, 456.571 435.885 C 456.270 436.372, 456.500 438.136, 457.082 439.804 C 458.465 443.772, 463.255 446, 470.401 446 L 476 446 475.988 451.250 C 475.974 457.501, 473.621 466.990, 471.798 468.146 C 469.263 469.754, 468.909 468.928, 469.582 462.975 C 470.150 457.960, 469.964 456.618, 468.477 454.975 C 466.424 452.706, 463.283 452.469, 460.750 454.392 C 459.522 455.324, 459 457.116, 459 460.401 C 459 463.468, 458.323 466.015, 457.035 467.790 C 454.576 471.179, 453.953 479.697, 456.059 481.120 C 456.852 481.656, 459.895 481.840, 462.823 481.530 C 467.998 480.981, 468.126 481.028, 467.442 483.233 C 466.618 485.886, 463.750 490.133, 461.547 491.961 C 460.582 492.762, 460 494.893, 460 497.622 C 460 501.843, 460.111 502, 463.072 502 C 464.761 502, 468.053 500.881, 470.386 499.514 L 474.628 497.028 476.320 500.865 C 478.934 506.789, 480.801 507.906, 490.030 509.063 C 501.418 510.491, 505.015 509.716, 510.637 504.627 L 515.273 500.429 513.584 497.163 C 512.655 495.367, 511.244 493.647, 510.448 493.342 C 509.651 493.036, 509 492.020, 509 491.084 C 509 490.148, 508.325 488.509, 507.499 487.441 C 505.835 485.289, 506.491 484.783, 499.967 493.250 C 498.227 495.508, 497.065 496, 493.471 496 C 489.227 496, 489.031 495.859, 487.047 491.373 C 485.921 488.828, 485 485.207, 485 483.327 C 485 480.180, 485.417 479.714, 490.250 477.464 C 493.137 476.119, 496.288 475.015, 497.250 475.010 C 500.361 474.992, 499.429 469.140, 495.378 463.259 C 491.795 458.055, 489.713 456.827, 488.585 459.250 C 488.264 459.938, 488.244 458.436, 488.538 455.912 C 488.833 453.389, 488.633 450.165, 488.094 448.747 C 487.050 446.001, 488.100 445, 492.026 445 C 493.050 445, 495.101 443.957, 496.582 442.683 C 499.119 440.501, 499.205 440.152, 498.060 436.683 C 497.064 433.664, 496.363 432.999, 494.172 432.993 C 492.703 432.989, 488.564 432.708, 484.975 432.369 C 479.656 431.867, 478.201 432.053, 477.103 433.376 M 599.465 439.952 C 595.793 441.440, 594.780 443.863, 593.909 453.242 C 593.092 462.051, 592.465 466.726, 591.427 471.750 C 591.019 473.725, 590.344 474, 585.915 474 C 579.358 474, 577 475.301, 577 478.919 C 577 480.973, 578.115 482.775, 581 485.381 C 583.200 487.369, 585 489.638, 585 490.425 C 585 492.556, 578.563 504.501, 574.971 509.037 C 571.517 513.398, 570 514.018, 570 511.067 C 570 508.254, 566.309 507.418, 563.787 509.660 C 561.081 512.066, 558.050 518.746, 558.022 522.363 C 558.010 523.938, 557.145 528.888, 556.099 533.363 C 554.810 538.881, 553.992 547.358, 553.558 559.702 C 552.920 577.838, 552.927 577.923, 555.476 582.952 C 558.190 588.308, 560.662 589.322, 565.150 586.920 C 569.542 584.569, 570 580.960, 570 548.699 L 570 518.334 575.250 517.319 C 578.138 516.761, 581.135 516.123, 581.911 515.902 C 582.853 515.634, 583.758 516.952, 584.630 519.859 C 585.348 522.257, 586.430 524.813, 587.033 525.539 C 587.865 526.542, 587.631 527.127, 586.065 527.965 C 583.521 529.327, 583.402 532.756, 585.750 537.003 C 587.490 540.148, 587.537 540.164, 593.678 539.563 C 597.675 539.172, 600.094 539.343, 600.528 540.046 C 601.452 541.541, 601.135 541.729, 595.472 543.041 C 582.588 546.028, 582.854 545.903, 583.189 548.808 C 583.594 552.310, 588.827 554.996, 595.250 554.998 L 600 555 600 561.893 C 600 567.531, 600.319 568.910, 601.750 569.468 C 604.072 570.372, 610.650 562.891, 612.054 557.750 C 612.930 554.538, 613.484 554, 615.916 554 C 622.289 554, 622.660 547.990, 616.500 544.553 C 614.300 543.326, 612.339 541.492, 612.141 540.477 C 611.710 538.258, 614.508 536, 617.691 536 C 621.124 536, 620.553 533.407, 616.250 529.449 L 612.500 526.001 615.868 522.839 C 617.721 521.100, 619.838 518.239, 620.572 516.481 C 621.731 513.707, 622.527 513.200, 626.594 512.642 C 633.965 511.632, 638.456 511.882, 640.559 513.419 C 642.340 514.722, 642.471 515.899, 642.155 527.669 C 641.965 534.725, 641.515 540.949, 641.155 541.499 C 640.795 542.050, 640.480 545.875, 640.455 550 C 640.430 554.125, 639.850 559.413, 639.166 561.750 C 637.942 565.935, 637.854 566, 633.430 566 C 627.841 566, 627.052 567.568, 629.896 573.024 C 631.053 575.245, 632 577.586, 632 578.226 C 632 578.867, 633.209 580.653, 634.687 582.195 C 636.715 584.312, 638.313 585, 641.202 585 C 647.212 585, 651.086 580.599, 656.048 568.133 C 659.700 558.957, 660.276 556.373, 661.057 545.633 C 661.542 538.960, 661.953 527.413, 661.969 519.973 C 662.004 504.841, 661.345 502.878, 655.401 500.394 C 650.966 498.541, 632.791 498.599, 618.500 500.511 C 612.450 501.321, 604.146 501.987, 600.047 501.992 L 592.594 502 596.119 498.250 C 598.057 496.188, 600.409 493.262, 601.345 491.750 C 602.823 489.361, 603.684 489, 607.901 489 C 610.571 489, 614.371 488.325, 616.346 487.500 C 618.320 486.675, 621.222 486, 622.794 486 C 624.531 486, 626.551 485.042, 627.947 483.556 C 629.811 481.573, 630.119 480.447, 629.582 477.585 C 628.790 473.363, 625.776 471, 621.184 471 C 618.654 471, 617.682 470.501, 617.290 469 C 616.470 465.865, 613.366 466.603, 611.274 470.431 C 610.509 471.830, 610.363 468.786, 610.745 459.375 L 611.272 446.388 606.956 442.694 C 602.275 438.688, 602.437 438.747, 599.465 439.952 M 772.530 456.904 C 771.392 460.490, 769.039 480.495, 769.020 486.750 L 769 493 765.968 493 C 764.300 493, 761.326 493.672, 759.359 494.494 C 757.038 495.464, 754.393 495.767, 751.825 495.356 C 748.204 494.777, 747.534 495.050, 743.934 498.565 C 739.007 503.376, 738.951 505.884, 743.665 510.599 L 747.330 514.264 754.709 513.706 C 763.217 513.062, 762.984 512.334, 758 524 C 756.473 527.575, 754.887 531.608, 754.477 532.962 C 754.067 534.316, 751.991 537.145, 749.865 539.250 C 747.739 541.355, 746 543.727, 746 544.521 C 746 545.316, 744.763 547.383, 743.250 549.117 C 735.122 558.431, 730.574 563, 729.432 563 C 728.730 563, 727.635 564.575, 727 566.500 C 726.365 568.425, 725.280 570, 724.590 570 C 723.900 570, 721.866 571.828, 720.070 574.063 C 718.274 576.297, 715.274 578.855, 713.403 579.748 C 707.249 582.682, 710.128 587.009, 717.200 585.456 C 718.935 585.075, 723.671 583.016, 727.725 580.882 C 731.778 578.747, 735.694 577, 736.425 577 C 737.157 577, 738.351 576.282, 739.080 575.404 C 739.808 574.526, 743.599 571.403, 747.504 568.464 C 753.723 563.784, 755.439 561.716, 761.323 551.810 C 765.018 545.590, 768.992 537.913, 770.155 534.750 C 771.317 531.587, 772.623 529, 773.056 529 C 773.490 529, 774.389 530.688, 775.055 532.750 C 776.588 537.504, 785.556 554.415, 788.931 558.917 C 790.339 560.796, 792.633 564.621, 794.027 567.417 C 796.881 573.140, 802.324 576.989, 814.087 581.604 C 821.659 584.574, 828.059 584.392, 832.138 581.089 C 834.181 579.435, 834.255 579.029, 833.040 576.097 C 832.313 574.342, 830.544 572.295, 829.109 571.548 C 827.674 570.801, 825.375 568.972, 824 567.484 C 822.625 565.996, 818.922 562.784, 815.772 560.347 C 812.621 557.910, 807.014 551.998, 803.312 547.208 C 799.610 542.419, 794.723 536.250, 792.452 533.500 C 790.182 530.750, 786.925 525.462, 785.215 521.750 C 783.504 518.038, 781.631 515, 781.053 515 C 780.474 515, 780 514.618, 780 514.151 C 780 513.684, 784.613 513.040, 790.250 512.721 C 801.322 512.094, 805.246 511.041, 808.750 507.759 C 812.715 504.045, 810.851 494.040, 805.901 492.469 C 804.735 492.099, 798.833 492.119, 792.786 492.514 C 782.349 493.196, 781.820 493.138, 782.343 491.366 C 782.647 490.340, 783.017 482.366, 783.167 473.647 C 783.417 459.020, 783.290 457.685, 781.528 456.397 C 778.639 454.284, 773.266 454.587, 772.530 456.904 M 422.108 466.900 C 417.546 467.523, 415.277 470.211, 416.982 472.971 C 417.832 474.346, 423.809 473.708, 427.232 471.876 C 429.236 470.803, 429.678 465.918, 427.750 466.150 C 427.063 466.233, 424.524 466.570, 422.108 466.900 M 904.100 485.061 C 904.045 486.470, 903.082 488.608, 901.961 489.811 C 899.636 492.307, 899.874 492.470, 903.453 490.839 C 906.135 489.617, 906.291 489.030, 905 485 L 904.199 482.500 904.100 485.061 M 429.250 487.610 C 427.105 488.565, 427.870 493.010, 431.231 499.123 C 434.835 505.679, 436.293 506.218, 441.580 502.950 C 447.189 499.484, 447.387 494.141, 442.053 490.197 C 439.090 488.006, 431.709 486.515, 429.250 487.610 M 914.276 506.326 C 912.502 506.972, 910.038 508.514, 908.800 509.753 C 906.560 511.996, 906.558 512.024, 908.421 515.482 C 911 520.272, 916.127 521.596, 921.336 518.817 C 922.345 518.279, 923.394 518.061, 923.667 518.333 C 924.610 519.276, 921.993 522.867, 919.872 523.541 C 917.962 524.147, 917.798 524.749, 918.275 529.377 L 918.808 534.538 906.702 536.257 C 893.850 538.082, 890.610 539.573, 892.610 542.743 C 894.696 546.050, 902.569 549.029, 910.923 549.674 L 918.921 550.290 919.563 554.570 C 920.235 559.051, 919.128 563.718, 915.844 570.250 C 913.814 574.289, 912.554 574.800, 910.079 572.590 C 907.333 570.138, 904.539 570.226, 904.177 572.776 C 903.640 576.561, 907.898 587.774, 910.713 589.989 C 914.886 593.271, 920.239 592.682, 924.954 588.422 C 931.209 582.771, 933.423 575.927, 933.420 562.250 L 933.417 551 937.748 551 C 940.131 551, 943.855 550.095, 946.024 548.988 C 955.907 543.946, 949.259 535, 935.630 535 C 930.610 535, 930.120 534.791, 929.200 532.250 C 928.653 530.737, 927.899 528.749, 927.526 527.830 C 927 526.535, 927.931 525.682, 931.674 524.027 C 944.273 518.455, 945.633 509.213, 934.315 506.071 C 929.353 504.693, 918.378 504.832, 914.276 506.326 M 596.902 515.775 C 600.080 518.504, 600.262 518.986, 599.664 523.098 C 599.030 527.460, 599.037 527.475, 600.544 524.750 C 601.380 523.237, 602.445 522, 602.911 522 C 604.266 522, 606.398 515.996, 605.394 515.006 C 604.902 514.521, 602.025 513.838, 599 513.488 L 593.500 512.853 596.902 515.775 M 443.450 514.883 C 443.135 515.198, 440.559 515.691, 437.726 515.978 C 432.867 516.470, 432.537 516.684, 431.915 519.744 C 431.552 521.528, 430.799 523.553, 430.242 524.244 C 428.949 525.846, 427 540.436, 427 548.510 C 427 555.045, 428.356 560.424, 430.684 563.126 C 432.650 565.407, 439.004 566.299, 440.954 564.569 C 441.804 563.814, 444.750 562.981, 447.500 562.717 C 453.259 562.165, 462 559.210, 462 557.816 C 462 553.346, 453.030 550.502, 446.918 553.034 C 445.278 553.713, 443.673 554.006, 443.351 553.684 C 442.196 552.530, 441.717 544, 442.807 544 C 443.393 544, 444.014 545.462, 444.187 547.250 C 444.462 550.108, 444.892 550.538, 447.750 550.813 C 449.576 550.989, 451 550.661, 451 550.063 C 451 549.479, 452.012 548.982, 453.250 548.959 C 454.488 548.937, 457.053 547.592, 458.950 545.970 C 461.668 543.646, 462.400 542.276, 462.400 539.510 C 462.400 534.256, 460.944 533.321, 455.244 534.915 C 447.836 536.986, 441.862 538.033, 440.889 537.431 C 440.400 537.129, 440 533.707, 440 529.827 L 440 522.773 443.250 523.458 C 445.038 523.835, 449.951 524.449, 454.169 524.822 C 458.386 525.195, 462.176 525.840, 462.591 526.256 C 464.180 527.849, 465.991 543.647, 465.379 550.586 C 464.622 559.168, 465.758 562, 469.958 562 C 473.037 562, 478.255 558.251, 480.199 554.642 C 481.489 552.248, 483.231 538.174, 483.188 530.500 C 483.140 521.889, 481.981 517.066, 479.643 515.743 C 477.450 514.501, 444.612 513.721, 443.450 514.883 M 461.508 575.825 C 461.244 576.089, 452.359 576.234, 441.764 576.147 C 421.194 575.978, 417.780 576.608, 417.193 580.676 C 416.832 583.183, 421.944 589.403, 426.157 591.581 C 428.473 592.779, 429.445 592.827, 431.259 591.836 C 432.794 590.998, 440.559 590.533, 455.914 590.359 C 479.363 590.095, 481.731 589.718, 487.750 585.289 C 495.231 579.786, 488.922 575.813, 472.244 575.523 C 466.603 575.426, 461.772 575.561, 461.508 575.825 M 502.046 632.217 C 494.759 649.578, 492.832 653, 490.345 653 C 489.605 653, 489 653.450, 489 654 C 489 654.571, 492 655, 496 655 C 500 655, 503 654.571, 503 654 C 503 653.450, 502.127 653, 501.059 653 C 498.024 653, 497.735 651.389, 499.892 646.512 L 501.888 642 508.694 642.004 L 515.500 642.007 517.333 646.465 C 519.220 651.054, 518.955 653, 516.441 653 C 515.648 653, 515 653.450, 515 654 C 515 654.583, 518.333 655, 523 655 C 527.667 655, 531 654.583, 531 654 C 531 653.450, 530.380 653, 529.622 653 C 527.332 653, 526.126 650.795, 518.612 632.862 C 514.642 623.385, 510.922 615.474, 510.347 615.282 C 509.771 615.090, 506.036 622.711, 502.046 632.217 M 849.304 616.956 C 847.160 618.264, 845.717 620.211, 844.919 622.877 C 843.218 628.553, 845.681 632.344, 854.537 637.684 C 864.971 643.977, 866.907 647.093, 862.884 651.116 C 858.593 655.407, 848.926 651.492, 847.472 644.874 C 846.328 639.663, 845 641.878, 845 649 C 845 652.850, 845.413 656, 845.917 656 C 846.421 656, 847.008 655.475, 847.222 654.834 C 847.518 653.947, 848.408 653.947, 850.954 654.834 C 858.683 657.528, 866.678 655.456, 869.483 650.033 C 872.779 643.659, 870.181 638.019, 861.916 633.608 C 858.937 632.018, 855.038 629.633, 853.250 628.308 C 847.610 624.126, 849.585 618.600, 856.720 618.600 C 859.436 618.600, 860.918 619.344, 863.127 621.816 C 864.707 623.584, 866 625.924, 866 627.016 C 866 628.107, 866.450 629, 867 629 C 867.571 629, 868 626, 868 622 C 868 618.150, 867.587 615, 867.083 615 C 866.579 615, 865.992 615.525, 865.778 616.166 C 865.482 617.053, 864.592 617.053, 862.046 616.166 C 857.192 614.474, 852.943 614.737, 849.304 616.956 M 402 617 C 402 617.550, 402.810 618, 403.800 618 C 407.566 618, 408 619.876, 408 636.141 C 408 644.799, 407.599 652.130, 407.109 652.432 C 406.620 652.735, 405.466 651.834, 404.546 650.430 C 402.387 647.135, 398.650 647.435, 398.155 650.944 C 397.492 655.641, 405.175 657.839, 409.633 654.228 C 413.413 651.166, 414 648.581, 414 635 C 414 621.257, 414.773 618, 418.035 618 C 419.116 618, 420 617.550, 420 617 C 420 616.407, 416.333 616, 411 616 C 405.667 616, 402 616.407, 402 617 M 424 616.892 C 424 617.382, 425.136 618.068, 426.524 618.417 L 429.048 619.050 428.774 635.775 C 428.504 652.263, 428.468 652.505, 426.250 652.820 C 425.012 652.995, 424 653.558, 424 654.070 C 424 654.581, 427.825 655, 432.500 655 C 437.500 655, 441 654.588, 441 654 C 441 653.450, 440.089 653, 438.975 653 C 435.873 653, 435 649.155, 435 635.500 C 435 621.845, 435.873 618, 438.975 618 C 440.089 618, 441 617.550, 441 617 C 441 616.412, 437.500 616, 432.500 616 C 427.825 616, 424 616.401, 424 616.892 M 444.022 616.750 C 444.034 617.163, 445.496 618.175, 447.272 619 L 450.500 620.500 450.500 636.500 C 450.500 652.331, 450.476 652.503, 448.250 652.820 C 443.247 653.530, 446.450 655, 453 655 C 457 655, 460 654.571, 460 654 C 460 653.450, 459.086 653, 457.969 653 C 455.116 653, 454.897 651.865, 455.217 638.725 L 455.500 627.066 467.307 641.533 C 473.801 649.490, 479.529 656, 480.035 656 C 480.554 656, 481.075 647.808, 481.228 637.250 C 481.498 618.661, 481.519 618.497, 483.750 618.180 C 488.753 617.470, 485.550 616, 479 616 C 472.450 616, 469.247 617.470, 474.250 618.180 C 476.427 618.490, 476.509 618.901, 476.782 630.875 L 477.064 643.249 465.920 629.625 L 454.777 616 449.388 616 C 446.425 616, 444.010 616.337, 444.022 616.750 M 533 617 C 533 617.550, 533.822 618, 534.826 618 C 535.830 618, 537.630 619.042, 538.826 620.314 C 540.821 622.438, 541 623.668, 541 635.249 C 541 649.148, 540.137 653, 537.025 653 C 535.911 653, 535 653.450, 535 654 C 535 654.571, 538 655, 542 655 C 546 655, 549 654.571, 549 654 C 549 653.450, 548.086 653, 546.969 653 C 545.851 653, 544.711 652.411, 544.435 651.692 C 544.159 650.972, 544.061 645.021, 544.217 638.466 L 544.500 626.548 556.334 641.024 C 562.843 648.986, 568.580 655.650, 569.084 655.833 C 569.616 656.027, 570 648.977, 570 639.018 C 570 621.218, 570.618 618, 574.035 618 C 575.116 618, 576 617.550, 576 617 C 576 616.422, 572.833 616, 568.500 616 C 564.167 616, 561 616.422, 561 617 C 561 617.550, 561.845 618, 562.878 618 C 566.445 618, 567.080 620.284, 566.784 632.042 L 566.500 643.297 555.500 629.692 L 544.500 616.086 538.750 616.043 C 535.555 616.019, 533 616.444, 533 617 M 605 616.930 C 605 617.442, 606.013 618.005, 607.250 618.180 C 609.428 618.490, 609.519 618.947, 610.086 632.500 C 610.758 648.539, 612.018 652.274, 617.534 654.579 C 622.894 656.818, 631.084 656.418, 635.088 653.720 C 640.275 650.224, 640.969 647.925, 640.985 634.184 C 641.001 621.228, 641.809 618, 645.035 618 C 646.116 618, 647 617.550, 647 617 C 647 616.422, 643.833 616, 639.500 616 C 635.167 616, 632 616.422, 632 617 C 632 617.550, 632.884 618, 633.965 618 C 635.045 618, 636.395 618.870, 636.965 619.934 C 638.372 622.564, 638.173 641.661, 636.694 646 C 634.406 652.708, 624.054 655.028, 619.387 649.878 C 617.718 648.036, 617.500 646.101, 617.500 633.148 C 617.500 618.719, 617.534 618.495, 619.750 618.180 C 620.987 618.005, 622 617.442, 622 616.930 C 622 616.419, 618.175 616, 613.500 616 C 608.825 616, 605 616.419, 605 616.930 M 649.022 616.750 C 649.034 617.163, 650.496 618.175, 652.272 619 L 655.500 620.500 655.500 636.500 C 655.500 652.331, 655.476 652.503, 653.250 652.820 C 648.247 653.530, 651.450 655, 658 655 C 662 655, 665 654.571, 665 654 C 665 653.450, 664.086 653, 662.969 653 C 660.116 653, 659.897 651.865, 660.217 638.725 L 660.500 627.066 672.307 641.533 C 678.801 649.490, 684.529 656, 685.035 656 C 685.554 656, 686.075 647.808, 686.228 637.250 C 686.498 618.661, 686.519 618.497, 688.750 618.180 C 693.753 617.470, 690.550 616, 684 616 C 677.450 616, 674.247 617.470, 679.250 618.180 C 681.426 618.490, 681.509 618.903, 681.781 630.820 L 682.063 643.141 679.226 639.820 C 677.665 637.994, 672.650 631.888, 668.081 626.250 L 659.774 616 654.387 616 C 651.424 616, 649.010 616.337, 649.022 616.750 M 695 617 C 695 617.550, 695.845 618, 696.878 618 C 700.619 618, 701.063 620.124, 700.776 636.634 L 700.500 652.500 697.750 652.816 C 696.237 652.990, 695 653.553, 695 654.066 C 695 654.580, 699.050 655, 704 655 C 709.333 655, 713 654.593, 713 654 C 713 653.450, 712.190 653, 711.200 653 C 707.484 653, 707 651.070, 707 636.234 C 707 621.265, 707.723 618, 711.035 618 C 712.116 618, 713 617.550, 713 617 C 713 616.407, 709.333 616, 704 616 C 698.667 616, 695 616.407, 695 617 M 717 616.839 C 717 617.301, 718.013 618.140, 719.250 618.704 C 720.910 619.461, 723.567 624.500, 729.377 637.906 C 733.710 647.903, 737.745 655.918, 738.345 655.718 C 738.944 655.519, 742.616 647.572, 746.504 638.060 C 750.710 627.769, 754.469 620.039, 755.786 618.972 C 757.004 617.986, 758 616.914, 758 616.590 C 758 616.265, 755.300 616, 752 616 C 746.314 616, 744.216 617.101, 747.500 618.362 C 748.325 618.678, 749 619.777, 749 620.803 C 749 622.516, 742.425 639.631, 740.327 643.380 C 739.642 644.604, 738.183 642.115, 734.244 632.996 C 729.248 621.432, 728.644 618, 731.607 618 C 732.373 618, 733 617.550, 733 617 C 733 616.417, 729.667 616, 725 616 C 720.600 616, 717 616.378, 717 616.839 M 762 617 C 762 617.550, 762.884 618, 763.965 618 C 767.245 618, 768 621.272, 768 635.500 C 768 649.728, 767.245 653, 763.965 653 C 762.884 653, 762 653.450, 762 654 C 762 654.623, 767.802 655, 777.406 655 L 792.812 655 794.403 650.330 C 795.278 647.762, 795.764 645.431, 795.483 645.150 C 795.202 644.869, 793.456 646.295, 791.601 648.320 C 788.322 651.899, 788.036 652, 781.115 652 L 774 652 774 644 L 774 636 778.566 636 C 784.084 636, 787 637.395, 787 640.035 C 787 641.116, 787.675 642, 788.500 642 C 789.690 642, 790 640.556, 790 635 C 790 629.596, 789.674 628, 788.570 628 C 787.783 628, 786.995 629.013, 786.820 630.250 C 786.533 632.271, 785.864 632.530, 780.250 632.798 L 774 633.095 774 626.048 L 774 619 781.047 619 C 787.827 619, 788.157 619.113, 789.797 621.994 C 792.158 626.144, 793 625.752, 793 620.500 L 793 616 777.500 616 C 767.833 616, 762 616.376, 762 617 M 800 616.918 C 800 617.513, 800.810 618, 801.800 618 C 805.530 618, 806 619.917, 806 635.118 C 806 643.213, 805.727 650.548, 805.393 651.418 C 805.059 652.288, 803.709 653, 802.393 653 C 801.077 653, 800 653.450, 800 654 C 800 654.593, 803.667 655, 809 655 C 814.333 655, 818 654.593, 818 654 C 818 653.450, 816.923 653, 815.607 653 C 812.594 653, 812 651.423, 812 643.418 C 812 638.430, 812.328 637, 813.474 637 C 814.285 637, 817.921 641.050, 821.554 646 L 828.160 655 833.580 655 C 839.762 655, 840.367 654.155, 835.728 652 C 833.910 651.155, 830.222 647.463, 827.284 643.545 L 822.069 636.590 824.906 635.397 C 831.456 632.643, 832.963 625.230, 828.084 619.766 L 825.169 616.500 812.584 616.168 C 804.024 615.943, 800 616.183, 800 616.918 M 877 617 C 877 617.550, 877.810 618, 878.800 618 C 882.530 618, 883 619.917, 883 635.118 C 883 643.213, 882.727 650.548, 882.393 651.418 C 882.059 652.288, 880.709 653, 879.393 653 C 878.077 653, 877 653.450, 877 654 C 877 654.593, 880.667 655, 886 655 C 891.333 655, 895 654.593, 895 654 C 895 653.450, 893.923 653, 892.607 653 C 891.291 653, 889.941 652.288, 889.607 651.418 C 889.273 650.548, 889 643.213, 889 635.118 C 889 619.917, 889.470 618, 893.200 618 C 894.190 618, 895 617.550, 895 617 C 895 616.407, 891.333 616, 886 616 C 880.667 616, 877 616.407, 877 617 M 900 621 C 900 623.750, 900.450 626, 901 626 C 901.550 626, 902 625.325, 902 624.500 C 902 621.786, 905.811 619, 909.524 619 L 913.048 619 912.774 635.750 C 912.504 652.264, 912.468 652.504, 910.250 652.820 C 909.013 652.995, 908 653.558, 908 654.070 C 908 654.581, 911.825 655, 916.500 655 C 921.175 655, 925 654.581, 925 654.070 C 925 653.558, 924.006 652.995, 922.791 652.820 C 919.712 652.374, 919.215 649.742, 919.100 633.250 L 919 619 921.935 619 C 926.597 619, 929.886 620.699, 930.580 623.465 C 931.642 627.693, 933 626.309, 933 621 L 933 616 916.500 616 L 900 616 900 621 M 937 616.933 C 937 617.446, 937.938 618.163, 939.084 618.527 C 940.236 618.892, 944.061 623.602, 947.631 629.051 L 954.093 638.914 953.797 645.707 C 953.527 651.884, 953.296 652.529, 951.250 652.820 C 950.013 652.995, 949 653.558, 949 654.070 C 949 654.581, 952.825 655, 957.500 655 C 962.175 655, 966 654.581, 966 654.070 C 966 653.558, 964.987 652.995, 963.750 652.820 C 961.694 652.528, 961.475 651.896, 961.212 645.500 C 960.928 638.564, 960.974 638.422, 966.300 630 C 969.256 625.325, 973.080 620.600, 974.799 619.500 C 976.517 618.400, 977.940 617.163, 977.961 616.750 C 977.983 616.337, 974.850 616, 971 616 C 967 616, 964 616.429, 964 617 C 964 617.550, 964.648 618, 965.441 618 C 966.234 618, 967.173 618.470, 967.528 619.045 C 968.214 620.156, 960.448 634, 959.139 634 C 958.715 634, 956.461 631.010, 954.132 627.356 C 949.960 620.812, 949.460 618, 952.469 618 C 953.311 618, 954 617.550, 954 617 C 954 616.412, 950.500 616, 945.500 616 C 940.825 616, 937 616.420, 937 616.933 M 812 627 C 812 631.400, 812.337 634.997, 812.750 634.994 C 813.163 634.991, 815.192 634.519, 817.259 633.945 C 826.936 631.258, 825.310 619, 815.277 619 L 812 619 812 627 M 505.811 632.467 L 503.122 639 508.561 639 C 511.552 639, 513.978 638.663, 513.951 638.250 C 513.924 637.837, 512.686 634.898, 511.201 631.717 L 508.500 625.934 505.811 632.467" stroke="none" fill="#312a23" fill-rule="evenodd"/><path d="" stroke="none" fill="#342c24" fill-rule="evenodd"/><path d="" stroke="none" fill="#0c6c7c" fill-rule="evenodd"/></svg>