<?xml version="1.0" standalone="no"?>
<!DOCTYPE svg PUBLIC "-//W3C//DTD SVG 20010904//EN"
 "http://www.w3.org/TR/2001/REC-SVG-20010904/DTD/svg10.dtd">
<svg version="1.0" xmlns="http://www.w3.org/2000/svg"
 width="2205.000000pt" height="866.000000pt" viewBox="0 0 2205.000000 866.000000"
 preserveAspectRatio="xMidYMid meet">

<g transform="translate(0.000000,866.000000) scale(0.100000,-0.100000)"
fill="#000000" stroke="none">
<path d="M2833 4913 c2 -1267 4 -1352 21 -1408 83 -276 272 -473 611 -635 123
-59 211 -94 515 -201 279 -98 381 -154 415 -226 17 -34 19 -36 29 -19 54 94
162 153 501 271 121 42 257 92 303 111 366 151 585 329 696 565 76 161 71 38
74 1542 l2 1347 -1585 0 -1585 0 3 -1347z m3147 41 c0 -707 -4 -1284 -8 -1282
-5 2 -353 244 -775 538 l-767 535 0 747 0 748 775 0 775 0 0 -1286z m-2308
1220 c4 -3 -8 -20 -26 -37 -20 -20 -21 -23 -4 -8 32 28 36 22 11 -19 -10 -17
-27 -31 -42 -33 -24 -4 -23 -4 4 -6 17 0 49 8 70 20 23 12 68 23 105 26 42 3
80 14 107 29 54 31 69 30 44 -2 -30 -38 -26 -47 12 -24 44 27 61 27 46 -1 -6
-12 -9 -43 -7 -69 1 -27 0 -46 -4 -43 -13 7 -9 -6 9 -34 17 -26 63 -132 63
-145 0 -4 -16 4 -36 17 -20 14 -43 25 -50 25 -8 0 -14 5 -14 11 0 8 11 9 31 5
25 -5 29 -3 21 7 -6 7 -16 24 -22 38 -10 24 -10 24 -5 -3 4 -22 2 -28 -13 -28
-15 0 -20 -13 -28 -80 -14 -104 -43 -148 -121 -187 -50 -24 -69 -28 -143 -27
-47 0 -110 3 -140 6 -30 3 -44 4 -30 1 14 -2 58 -11 98 -19 82 -18 144 -13
206 17 22 10 42 16 45 13 10 -10 -43 -43 -103 -64 -76 -25 -121 -25 -181 1
-25 11 -49 19 -51 16 -3 -3 10 -10 28 -17 l33 -13 -47 -7 c-35 -4 -58 -15 -85
-40 -21 -19 -42 -39 -48 -44 -17 -15 17 6 51 31 17 13 34 23 38 23 14 0 -40
-62 -72 -82 -18 -11 -30 -23 -27 -26 3 -3 26 9 52 27 28 20 43 26 40 17 -4
-10 -1 -16 8 -16 7 0 24 -19 37 -42 13 -23 30 -44 38 -46 8 -3 2 9 -13 27 -31
38 -33 48 -11 79 19 28 58 48 109 56 39 6 41 5 85 -46 25 -29 60 -75 78 -103
28 -43 32 -46 26 -20 -4 17 -14 42 -23 56 -9 15 -29 48 -45 73 -16 26 -25 50
-21 54 4 4 10 1 12 -6 3 -6 10 -9 15 -6 7 4 8 2 4 -4 -9 -14 18 -55 28 -44 4
4 6 2 5 -3 -2 -6 9 -35 24 -66 16 -31 31 -81 34 -111 5 -51 7 -54 29 -50 17 3
36 -8 76 -45 65 -61 108 -79 147 -59 81 42 59 174 -44 271 -63 59 -78 105 -51
161 8 19 20 34 26 34 5 0 10 9 10 19 0 20 25 44 79 73 34 19 40 49 20 106 -7
22 -7 36 0 49 9 16 10 15 11 -8 0 -14 7 -34 15 -45 8 -10 15 -35 15 -54 1 -31
2 -33 12 -16 8 15 8 36 -1 82 -15 72 -7 95 38 119 28 14 40 37 55 106 3 15 13
29 21 33 12 4 13 2 6 -12 -5 -10 -7 -37 -4 -60 5 -37 2 -45 -26 -71 -31 -29
-31 -31 -29 -110 3 -67 5 -78 16 -64 6 9 12 34 12 54 0 42 8 69 20 69 5 0 6
-8 3 -18 -2 -10 3 -38 11 -62 21 -61 20 -109 -4 -148 -32 -53 -74 -72 -157
-72 -60 0 -77 -4 -93 -20 -36 -36 -26 -68 40 -129 93 -87 126 -191 86 -268 -9
-18 -17 -36 -17 -40 -1 -15 -21 -33 -31 -27 -5 3 -15 0 -23 -6 -8 -6 -19 -9
-25 -5 -5 3 -10 1 -10 -4 0 -6 -11 -11 -25 -11 -24 0 -34 13 -17 23 4 2 1 2
-6 0 -19 -4 -82 24 -112 50 -20 18 -20 16 4 -10 15 -17 39 -34 52 -37 24 -6
34 -26 13 -26 -5 0 -7 -5 -3 -11 4 -7 -2 -7 -17 1 -24 13 -66 58 -86 94 -11
19 -12 18 -7 -11 4 -21 3 -33 -5 -33 -6 0 -11 8 -11 18 0 9 -5 24 -10 32 -6
10 -9 -9 -8 -57 1 -52 -3 -78 -15 -97 -10 -14 -14 -26 -9 -26 5 0 16 15 25 33
10 21 16 26 16 14 1 -14 5 -16 21 -7 15 8 18 8 14 -3 -8 -23 22 -40 59 -33 44
8 65 -10 69 -59 3 -33 7 -41 28 -45 14 -3 26 -11 28 -19 2 -10 -5 -12 -23 -9
-20 4 -23 3 -14 -8 6 -8 9 -14 5 -14 -4 0 1 -14 9 -30 17 -32 13 -50 -10 -50
-12 0 -12 -6 -4 -27 13 -36 -15 -101 -37 -82 -11 9 -14 7 -14 -14 0 -16 -8
-31 -19 -37 -17 -8 -20 -6 -23 13 -2 17 -9 22 -30 20 -20 -1 -28 4 -31 20 -2
12 -5 1 -6 -24 -1 -37 -5 -48 -24 -56 -21 -10 -23 -8 -23 11 1 18 -4 21 -40
19 -36 -2 -40 0 -40 20 1 16 -4 21 -16 19 -25 -4 -23 2 13 43 19 22 25 33 14
29 -13 -5 -16 -2 -13 17 4 30 39 37 73 15 38 -25 42 -20 34 45 -6 50 -13 67
-41 96 -35 36 -114 77 -129 67 -5 -3 -8 0 -7 8 2 7 -5 13 -14 13 -10 0 -23 6
-30 14 -11 11 -11 13 1 6 9 -5 12 -3 9 6 -3 8 -10 13 -15 12 -6 -1 -10 20 -9
50 1 39 9 64 31 100 63 102 68 114 55 152 -6 19 -16 38 -22 41 -6 4 -6 -1 1
-14 14 -25 14 -82 1 -102 -8 -13 -10 -12 -10 3 0 9 -7 17 -15 17 -8 0 -15 -9
-15 -21 0 -13 -10 -23 -30 -31 -24 -8 -29 -15 -25 -29 4 -10 2 -19 -3 -19 -6
0 -13 11 -16 25 -7 26 -36 25 -36 -1 0 -13 -6 -22 -50 -71 -26 -30 -15 -29 26
2 19 15 35 21 39 15 3 -5 15 -10 26 -10 23 0 25 -13 4 -33 -8 -8 -12 -17 -9
-20 3 -3 -12 -1 -32 3 -21 5 -40 7 -42 5 -3 -2 5 -16 16 -30 31 -40 20 -98
-17 -88 -18 5 -20 0 -18 -49 1 -37 -3 -61 -13 -73 -14 -17 -15 -16 -20 11 -6
32 -23 36 -28 7 -4 -26 -24 -63 -34 -63 -4 0 -8 12 -9 28 0 23 -2 24 -8 7 -8
-19 -8 -19 -20 0 -7 13 -11 14 -9 5 3 -22 -12 -61 -22 -55 -4 3 -6 15 -3 28 4
18 3 19 -6 7 -9 -12 -11 -12 -11 -1 0 11 -5 10 -20 -4 -18 -17 -20 -17 -26 0
-5 13 -14 15 -35 11 -17 -3 -29 -1 -29 5 0 17 27 63 49 83 17 15 23 16 36 6 9
-8 15 -8 15 -2 0 13 -36 26 -49 18 -5 -4 -22 -26 -38 -51 -29 -46 -43 -56 -43
-31 0 37 -41 28 -58 -12 -11 -26 -11 -26 -6 -2 9 44 26 69 65 96 25 17 45 24
56 20 14 -6 15 -4 7 4 -16 16 -44 6 -89 -30 -21 -17 -43 -30 -49 -29 -7 0 -6
3 2 6 6 2 12 14 12 26 0 14 13 30 35 45 40 25 55 27 75 10 12 -11 12 -10 1 5
-7 9 -23 17 -36 17 -13 0 -22 6 -22 15 0 28 41 16 73 -22 25 -30 35 -35 56
-30 45 12 68 76 68 191 0 94 1 98 29 127 34 34 61 36 138 12 45 -14 58 -15 74
-4 17 10 24 10 37 -1 15 -12 16 -11 4 4 -8 9 -36 24 -62 33 -28 9 -60 29 -74
46 -23 27 -44 41 -32 20 4 -5 1 -22 -5 -38 l-12 -28 -8 31 c-5 17 -18 39 -29
49 -19 18 -20 18 -20 0 0 -20 -27 -55 -42 -55 -5 0 -7 10 -3 23 3 12 -4 4 -17
-18 -13 -22 -30 -40 -38 -40 -8 0 -20 -7 -27 -15 -11 -13 -12 -13 -13 0 0 9
-5 5 -13 -9 -17 -34 -41 -41 -33 -10 4 17 1 14 -10 -8 -20 -37 -45 -52 -37
-22 6 22 -12 26 -21 4 -3 -8 -13 -15 -22 -15 -12 0 -15 6 -11 23 6 21 6 21 -8
3 -8 -11 -15 -23 -15 -27 0 -4 -9 -5 -20 -2 -11 3 -20 10 -20 16 0 6 -7 18
-16 28 -19 21 -8 46 31 77 13 11 22 22 18 26 -9 9 -58 -46 -78 -88 -22 -47
-55 -50 -55 -5 0 30 30 69 75 96 19 11 18 11 -3 6 -13 -3 -40 -21 -59 -39 -40
-38 -43 -39 -43 -21 0 7 9 18 21 25 13 9 18 19 14 32 -8 27 35 37 92 22 57
-16 92 -1 158 67 54 56 54 62 2 31 -39 -23 -156 -28 -137 -5 6 7 26 15 46 18
62 10 84 40 37 50 -16 3 -46 13 -67 22 -44 19 -35 34 19 36 26 0 27 2 10 9
-11 5 -37 9 -58 9 -32 1 -37 4 -33 19 5 16 2 18 -25 14 -26 -4 -31 -2 -26 11
3 8 0 18 -7 20 -8 3 -11 16 -9 34 6 37 55 63 84 44 15 -9 19 -8 20 1 1 7 3 28
5 46 4 34 -22 72 -51 72 -8 0 -15 9 -15 21 0 13 6 20 18 18 30 -3 33 0 21 23
-9 17 -2 13 25 -12 37 -35 38 -36 33 -98 -4 -55 -2 -64 16 -77 12 -8 32 -15
45 -15 13 0 33 -5 45 -12 12 -6 39 -13 60 -14 21 -1 40 -4 43 -7 7 -7 -7 -37
-18 -37 -5 0 -17 -7 -26 -16 -10 -11 -27 -15 -51 -12 -20 3 -47 1 -61 -3 l-25
-7 23 -7 c23 -8 30 -25 10 -25 -9 0 -8 -4 2 -10 13 -9 12 -13 -5 -26 l-20 -16
20 5 c11 3 29 8 41 11 12 4 35 24 52 45 18 22 41 43 52 46 12 4 19 14 18 23
-3 18 36 42 70 42 13 0 20 4 17 10 -3 6 -2 10 3 10 15 0 22 43 10 58 -8 9 -21
11 -37 7 -14 -3 -49 -10 -78 -14 -47 -6 -53 -5 -62 15 -5 13 -7 38 -4 57 4 29
2 36 -15 41 -11 4 -26 14 -33 23 -9 10 -2 9 21 -6 26 -15 44 -19 72 -15 33 6
39 4 46 -17 9 -24 9 -23 26 8 20 40 20 52 0 75 -16 17 -18 17 -51 -3 -33 -20
-35 -20 -53 -4 -13 11 -20 31 -20 52 0 20 -4 32 -10 28 -14 -9 -12 19 2 33 7
7 39 12 72 12 44 0 69 6 91 20 17 11 47 20 68 20 21 0 54 7 75 16 31 14 62 23
113 33 3 0 8 -2 11 -5z m-415 -220 c-3 -3 -12 -4 -19 -1 -8 3 -5 6 6 6 11 1
17 -2 13 -5z m-307 -69 c27 -29 53 -18 29 11 -11 14 -8 13 16 -3 17 -11 42
-28 58 -37 33 -20 39 -53 7 -36 -12 6 -38 9 -58 7 l-37 -4 41 -1 c58 -3 93
-42 36 -42 -15 0 -38 -7 -50 -16 -34 -24 -39 -13 -42 93 0 12 -10 29 -22 38
-13 8 -18 15 -12 15 6 0 21 -11 34 -25z m1040 -44 c5 -11 10 -36 10 -56 0 -43
16 -78 32 -69 7 4 8 3 4 -4 -22 -36 -86 18 -86 73 0 36 15 48 23 18 4 -14 5
-13 6 4 0 12 -3 25 -9 28 -5 3 -10 10 -10 16 0 16 19 10 30 -10z m-1092 -35
c-7 -8 -15 -12 -17 -11 -5 6 10 25 20 25 5 0 4 -6 -3 -14z m435 -43 c-7 -2
-19 -2 -25 0 -7 3 -2 5 12 5 14 0 19 -2 13 -5z m-410 -38 c-3 -9 -8 -14 -10
-11 -3 3 -2 9 2 15 9 16 15 13 8 -4z m1037 -32 c0 -21 3 -55 6 -75 5 -31 4
-38 -9 -38 -9 0 -22 9 -30 21 -15 21 -15 21 -21 1 -4 -11 -18 -27 -31 -36 -14
-9 -25 -25 -25 -36 0 -11 -4 -20 -10 -20 -19 0 -10 46 15 80 14 19 25 38 25
42 0 5 10 23 23 39 l22 31 6 -39 c6 -36 6 -35 8 15 1 59 21 73 21 15z m-1005
-1 c-3 -3 -11 0 -18 7 -9 10 -8 11 6 5 10 -3 15 -9 12 -12z m-22 -350 c-10
-10 -20 -17 -22 -16 -6 5 20 34 30 34 5 0 1 -8 -8 -18z m7 -66 c0 -2 -8 -10
-17 -17 -16 -13 -17 -12 -4 4 13 16 21 21 21 13z m67 -78 c-3 -8 -6 -5 -6 6
-1 11 2 17 5 13 3 -3 4 -12 1 -19z m53 18 c0 -2 -8 -10 -17 -17 -16 -13 -17
-12 -4 4 13 16 21 21 21 13z m39 -319 c-13 -13 -26 -21 -29 -19 -5 4 38 42 48
42 3 0 -6 -10 -19 -23z m106 -117 c3 -5 -1 -10 -10 -10 -9 0 -13 5 -10 10 3 6
8 10 10 10 2 0 7 -4 10 -10z m-36 -13 c-2 -1 -13 -9 -24 -17 -19 -14 -19 -14
-6 3 7 9 18 17 24 17 6 0 8 -1 6 -3z m168 -33 c-3 -3 -12 -4 -19 -1 -8 3 -5 6
6 6 11 1 17 -2 13 -5z m432 -27 c-2 -1 -13 -9 -24 -17 -19 -14 -19 -14 -6 3 7
9 18 17 24 17 6 0 8 -1 6 -3z m-19 -51 c0 -2 -7 -6 -15 -10 -8 -3 -15 -1 -15
4 0 6 7 10 15 10 8 0 15 -2 15 -4z m-7 -71 c-3 -9 -8 -14 -10 -11 -3 3 -2 9 2
15 9 16 15 13 8 -4z m212 -45 c-10 -11 -21 -18 -23 -15 -3 3 3 12 14 20 27 20
30 18 9 -5z m-138 -12 c-3 -8 -6 -5 -6 6 -1 11 2 17 5 13 3 -3 4 -12 1 -19z
m523 -386 c62 -17 68 -17 120 -1 109 35 312 20 457 -33 43 -16 85 -22 164 -23
l106 -2 52 -52 c28 -28 56 -51 61 -51 11 0 13 -97 4 -189 -5 -39 -10 -57 -15
-49 -6 8 -9 -1 -10 -27 -1 -61 -17 -13 -18 55 -1 39 -4 51 -11 40 -7 -10 -10
18 -12 90 l-2 105 -6 -80 c-6 -77 -6 -78 -10 -25 -3 53 -4 54 -7 13 -6 -65
-23 -51 -24 20 -1 34 -5 73 -9 87 -4 14 -8 -116 -9 -288 -1 -207 2 -311 9
-307 6 3 11 -4 11 -17 1 -20 3 -19 10 7 5 18 7 -42 5 -150 -3 -136 -2 -158 4
-90 4 50 8 123 9 163 1 89 20 97 23 10 1 -58 2 -59 5 -15 4 41 6 47 19 36 12
-10 13 -9 9 4 -4 8 -1 18 5 22 8 5 11 -45 9 -184 l-1 -190 -47 -23 c-60 -30
-186 -36 -290 -14 -40 9 -78 13 -82 10 -5 -3 -9 0 -9 7 0 6 -8 9 -20 6 -12 -3
-18 -1 -14 5 5 7 -2 9 -20 6 -14 -3 -26 -1 -26 5 0 5 -15 7 -35 4 -21 -3 -33
-2 -30 4 4 5 -21 9 -59 9 -36 0 -66 -4 -66 -10 0 -5 -13 -7 -32 -3 -22 4 -29
3 -24 -5 5 -8 1 -10 -10 -5 -12 4 -15 3 -10 -5 5 -8 2 -10 -8 -6 -24 9 -19 23
9 30 14 3 23 10 20 14 -10 16 19 23 129 31 l111 7 -110 -3 c-60 -2 -121 -7
-135 -11 -34 -10 -16 8 23 23 l32 12 -37 -5 c-53 -9 -47 3 10 20 26 8 40 15
31 15 -9 1 -46 -8 -83 -19 -49 -15 -64 -24 -60 -35 4 -8 2 -15 -4 -15 -9 0
-26 30 -20 35 8 7 158 54 183 58 25 3 23 4 -11 6 -42 1 -142 -24 -158 -40 -6
-5 -12 -9 -15 -9 -4 0 -6 215 -6 478 0 302 -4 483 -10 494 -7 11 -10 -141 -8
-473 1 -269 -2 -489 -7 -489 -4 0 -27 7 -51 16 -25 8 -89 17 -149 19 -101 4
-102 3 -25 -4 87 -9 125 -18 125 -30 0 -5 -12 -6 -27 -4 -22 4 -25 2 -13 -6 8
-6 11 -11 5 -11 -5 0 1 -7 15 -15 l25 -14 -30 -2 c-24 -1 -25 -3 -7 -6 12 -2
22 -9 22 -14 0 -5 -10 -9 -22 -10 -13 0 -1 -6 25 -13 27 -7 54 -19 60 -26 10
-10 7 -11 -13 -6 -119 32 -213 30 -353 -5 -43 -11 -106 -22 -140 -25 -34 -4
-71 -7 -82 -9 -28 -3 -112 19 -164 43 l-43 20 1 118 c2 160 -17 549 -28 598
-5 22 -13 84 -17 138 -6 85 -5 98 8 93 16 -6 68 32 101 73 17 20 27 22 109 22
76 0 108 6 205 36 104 33 196 49 308 53 22 0 70 -7 105 -17z m1090 -368 c22
-9 40 -19 40 -23 0 -4 6 -8 13 -9 91 -8 164 -26 202 -48 25 -14 45 -29 45 -33
0 -4 -18 -7 -41 -8 -22 -1 -60 -10 -84 -19 -54 -20 -108 -14 -184 21 -29 14
-66 25 -82 25 -40 0 -37 20 4 21 30 2 30 2 5 6 -25 4 -28 8 -28 44 0 38 1 39
35 39 19 0 53 -7 75 -16z m-1923 -18 c1 -1 5 -25 9 -54 l7 -53 -25 10 c-23 9
-37 9 -73 0 -5 -1 12 -5 39 -8 27 -3 51 -11 53 -17 3 -8 -10 -10 -39 -7 -33 4
-62 -3 -122 -27 -67 -27 -89 -31 -139 -28 -49 4 -64 9 -83 31 -19 22 -21 32
-14 64 12 50 33 63 104 63 l61 0 -2 -77 c-1 -56 1 -73 8 -60 6 9 16 17 23 17
14 0 10 56 -5 66 -14 8 -11 44 4 44 6 0 26 7 42 16 48 26 77 33 115 27 19 -3
36 -6 37 -7z m-412 -96 c18 -8 17 -9 -7 -9 -16 -1 -28 4 -28 9 0 12 8 12 35 0z
m2092 -192 c-3 -8 -6 -5 -6 6 -1 11 2 17 5 13 3 -3 4 -12 1 -19z m143 -45 c1
-17 1 -17 14 0 7 9 20 17 29 17 20 0 67 -21 67 -29 0 -8 15 -10 112 -15 65 -3
85 -8 120 -32 l43 -28 -30 -7 c-16 -4 -50 -12 -75 -19 -79 -21 -142 -23 -190
-5 -25 10 -62 20 -82 22 -21 3 -38 10 -38 15 0 11 60 7 95 -6 20 -7 20 -7 0 5
-10 7 -32 15 -49 18 -25 6 -29 11 -30 44 -1 20 2 37 7 37 4 0 7 -8 7 -17z
m-1802 -47 c3 -41 1 -48 -12 -43 -9 4 -26 2 -38 -3 -20 -8 -18 -9 15 -9 20 -1
37 -5 37 -11 0 -5 -13 -10 -28 -10 -16 0 -55 -9 -87 -20 -31 -11 -61 -17 -66
-14 -18 11 -8 24 19 24 18 0 23 3 14 9 -11 6 -36 83 -29 86 35 19 120 44 142
42 28 -2 30 -4 33 -51z m-215 24 c14 0 17 -10 17 -70 0 -56 -3 -70 -15 -70 -8
0 -16 10 -16 23 -1 12 -3 29 -4 37 -1 8 -3 24 -4 35 -1 18 -7 20 -41 17 -52
-5 -70 -32 -40 -62 11 -11 33 -20 50 -20 20 0 30 -5 30 -15 0 -26 -76 -19
-105 10 -57 56 -10 131 75 120 19 -3 43 -5 53 -5z m-163 -60 c0 -13 -20 -13
-40 0 -12 8 -9 10 13 10 15 0 27 -4 27 -10z m140 -10 c0 -13 -50 -13 -70 0
-11 7 -4 10 28 10 23 0 42 -4 42 -10z m1110 -232 c0 -13 -23 -5 -28 10 -2 7 2
10 12 6 9 -3 16 -11 16 -16z m90 -8 c-20 -13 -33 -13 -25 0 3 6 14 10 23 10
15 0 15 -2 2 -10z m-105 -10 c3 -5 1 -10 -5 -10 -6 0 -8 -4 -5 -10 8 -13 -5
-13 -25 0 -13 8 -12 10 3 10 10 0 15 5 12 10 -3 6 -2 10 4 10 5 0 13 -4 16
-10z m85 -21 c0 -6 9 -9 20 -6 26 7 25 1 -1 -14 -17 -9 -23 -8 -30 2 -12 19
-11 29 1 29 6 0 10 -5 10 -11z m-110 -19 c8 -5 12 -12 9 -15 -8 -8 -39 5 -39
16 0 11 11 11 30 -1z m123 -50 c3 -11 1 -18 -4 -14 -5 3 -9 1 -9 -3 0 -12 -56
-15 -103 -7 -32 5 -36 8 -26 21 9 10 23 12 50 8 21 -4 46 -2 56 4 25 15 30 14
36 -9z"/>
<path d="M4679 6133 c-6 -15 -17 -42 -24 -59 -8 -18 -17 -49 -21 -70 -4 -22
-14 -44 -22 -50 -13 -10 -13 -14 1 -35 10 -13 17 -33 17 -44 0 -12 12 -45 26
-73 l26 -53 -27 -24 c-25 -24 -80 -133 -71 -142 2 -2 12 17 22 44 22 56 69
113 94 113 10 0 28 -12 39 -26 24 -31 18 -57 -13 -49 -18 5 -19 5 -3 -5 9 -6
17 -16 17 -22 0 -6 -8 -7 -17 -3 -15 5 -16 4 -5 -6 17 -18 15 -31 -5 -25 -26
7 -74 -64 -61 -89 6 -10 14 -41 18 -69 7 -50 8 -49 10 29 1 44 2 85 1 91 -1 6
6 17 14 24 13 11 15 2 15 -75 l0 -87 45 54 c24 29 54 73 66 98 24 52 52 85 94
112 28 18 28 19 5 13 -24 -6 -24 -5 8 25 40 39 41 48 2 19 -16 -12 -41 -42
-57 -66 -29 -46 -46 -51 -51 -14 -7 46 7 70 56 95 64 32 76 48 68 88 -4 18
-11 56 -15 83 -8 49 -8 49 -10 11 0 -21 4 -56 11 -77 10 -34 9 -42 -8 -60 -10
-12 -33 -28 -49 -35 -46 -19 -68 -49 -67 -90 1 -20 6 -41 10 -48 11 -13 -16
-77 -47 -116 l-21 -25 0 33 c0 18 5 43 12 55 39 69 40 106 4 136 -13 11 -13
18 3 60 11 26 21 60 23 76 1 17 11 36 21 43 21 16 22 38 2 50 -9 4 -22 34 -29
66 -8 31 -21 65 -31 76 -9 10 -15 23 -12 27 8 13 -5 29 -30 37 -19 6 -25 2
-34 -21z m30 0 c-2 -10 4 -31 13 -48 8 -16 21 -54 28 -82 8 -35 17 -53 27 -53
8 0 13 -6 10 -12 -2 -7 -9 -12 -15 -11 -5 1 -13 -18 -17 -43 -7 -48 -41 -134
-54 -134 -13 0 -50 74 -61 125 -6 27 -16 53 -23 57 -9 5 -8 11 4 20 9 7 20 31
24 53 3 22 15 55 26 73 10 18 19 42 19 53 0 10 5 19 11 19 5 0 9 -8 8 -17z"/>
<path d="M4659 5968 c-2 -80 2 -111 14 -137 15 -31 33 -37 41 -15 5 14 4 15
-8 5 -11 -10 -13 -6 -11 21 1 18 -2 36 -8 40 -6 4 -10 35 -9 72 1 37 -3 66 -8
66 -6 0 -10 -24 -11 -52z"/>
<path d="M5059 6132 c-13 -11 -31 -22 -39 -25 -10 -4 -11 -6 -2 -6 7 -1 26 8
41 20 25 18 32 19 52 8 13 -7 34 -12 47 -10 17 2 35 -10 63 -40 21 -23 39 -48
39 -55 0 -7 6 -19 14 -27 39 -39 66 -92 66 -129 l0 -40 -40 32 c-29 23 -39 38
-36 53 1 12 1 16 -1 10 -3 -7 -9 -13 -14 -13 -5 0 -9 6 -9 13 -1 16 -33 -43
-35 -64 -2 -33 -27 -77 -51 -89 -13 -8 -22 -15 -19 -18 2 -3 16 3 29 12 28 18
40 21 31 7 -3 -5 -1 -12 5 -16 5 -3 8 -16 6 -28 -2 -13 5 -27 17 -36 15 -11
18 -21 14 -50 -5 -29 -4 -32 5 -17 6 11 8 38 4 67 -5 39 7 132 20 148 2 2 23
-13 48 -34 45 -37 65 -76 64 -127 -1 -32 -12 -36 -28 -10 -11 16 -11 16 -6 -1
6 -18 -28 -102 -45 -113 -5 -3 -9 -17 -9 -32 l0 -27 -21 25 -20 25 15 -32 c9
-18 16 -40 17 -50 0 -17 1 -17 8 0 6 17 8 16 19 -8 15 -32 15 -76 1 -124 -7
-25 -7 -51 0 -86 10 -48 10 -48 7 -8 l-4 43 36 -28 c42 -32 92 -107 92 -137 0
-12 7 -30 15 -41 27 -36 8 -49 -28 -17 -18 17 -19 16 -16 -31 4 -54 -6 -65
-41 -46 -13 7 -19 17 -16 26 3 9 1 12 -4 9 -6 -4 -10 11 -10 37 0 24 -5 50
-11 58 -9 12 -10 12 -5 -3 3 -10 3 -37 -1 -60 -5 -31 -8 -37 -13 -22 -5 16 -8
12 -14 -19 -4 -21 -10 -36 -13 -32 -8 8 -33 -20 -33 -37 0 -8 -7 -20 -15 -27
-12 -10 -15 -10 -15 4 0 14 -2 14 -18 -1 -13 -13 -14 -19 -5 -21 7 -2 10 -8 6
-14 -4 -7 0 -9 10 -5 12 5 17 1 17 -13 0 -11 5 -20 11 -20 7 0 10 -12 7 -30
-3 -16 -1 -30 4 -30 5 0 8 -6 7 -12 -6 -38 51 -136 99 -171 34 -25 53 -31 115
-35 86 -5 121 8 163 64 33 42 43 124 25 191 -12 45 -62 103 -88 103 -9 0 -1
-10 18 -23 57 -38 87 -163 55 -225 -68 -130 -261 -124 -340 11 -28 47 -52 179
-41 227 4 16 14 30 26 33 17 5 18 3 8 -9 -25 -31 14 -256 41 -239 5 3 12 0 16
-6 4 -8 3 -9 -4 -5 -7 4 -12 3 -12 -3 0 -15 59 -61 88 -67 15 -3 33 -8 41 -10
24 -8 88 16 115 42 80 81 38 231 -63 222 -29 -2 -38 -8 -45 -31 -13 -35 2 -61
36 -65 14 -2 33 5 43 14 20 21 34 6 29 -33 -4 -36 -25 -54 -71 -60 -35 -5 -44
-1 -75 29 -60 56 -62 110 -7 173 42 48 97 62 155 40 23 -9 48 -23 54 -30 7 -8
15 -13 19 -11 4 3 7 -3 8 -12 1 -9 9 -44 18 -76 13 -45 15 -73 9 -115 -5 -31
-8 -64 -8 -73 0 -9 -4 -14 -9 -11 -6 4 -8 -1 -4 -11 5 -11 3 -15 -5 -10 -8 5
-9 2 -5 -9 4 -10 2 -16 -5 -14 -6 1 -13 -4 -16 -12 -3 -9 0 -11 9 -6 8 4 -2
-8 -20 -28 -35 -37 -48 -47 -35 -26 4 7 3 10 -2 7 -5 -2 -36 -17 -68 -32 -74
-36 -168 -44 -240 -22 -27 8 -54 12 -60 9 -6 -3 -8 -3 -4 2 4 4 -21 26 -55 48
-97 62 -176 150 -229 252 -50 98 -75 174 -60 184 5 3 12 13 15 21 4 8 4 0 1
-19 -4 -23 -3 -31 5 -27 6 4 15 -2 20 -15 l8 -23 12 22 c6 12 21 27 32 33 17
8 23 7 35 -8 13 -16 13 -15 2 10 -9 21 -9 30 0 39 7 7 12 15 12 20 0 4 -21
-13 -47 -38 l-46 -45 -12 33 c-6 18 -16 42 -23 53 -11 19 -11 18 -12 -8 0 -16
-4 -26 -10 -22 -5 3 -10 16 -10 27 l0 21 -19 -21 c-23 -27 -27 -27 -34 -2 -3
11 -11 20 -17 20 -14 0 8 -38 45 -80 12 -14 34 -59 49 -101 57 -162 197 -324
339 -394 123 -61 236 -63 353 -5 142 70 209 236 154 385 -32 91 -27 145 16
145 36 0 85 23 128 60 79 70 81 127 4 117 -87 -12 -142 30 -153 114 -11 80
-15 90 -42 100 -71 27 -103 -108 -61 -264 6 -25 8 -62 4 -90 l-7 -47 -53 6
c-68 8 -117 -8 -154 -51 -55 -62 -50 -142 12 -207 30 -32 93 -51 133 -42 l28
6 -25 -18 c-36 -27 -113 -25 -144 5 -37 35 -67 115 -73 196 -7 86 6 122 37
103 14 -9 27 -9 47 -2 23 8 27 15 25 37 -2 23 1 27 21 27 14 0 30 7 37 15 10
12 9 18 -9 32 -23 20 -44 112 -22 98 9 -5 12 -2 9 11 -1 9 -15 21 -30 25 -31
8 -138 95 -138 112 0 6 12 0 27 -14 l27 -24 -23 33 c-33 47 -19 50 24 5 37
-37 30 -20 -9 24 -26 31 -12 42 18 14 45 -42 35 -4 -11 43 -25 26 -42 50 -38
54 12 12 115 -104 115 -130 0 -14 11 -47 25 -74 14 -27 25 -59 25 -70 0 -29
25 -86 33 -77 13 12 7 74 -12 121 -11 26 -25 67 -33 92 l-14 46 56 -4 c53 -4
58 -2 82 27 32 38 44 128 33 240 -5 42 -8 121 -6 175 1 82 -2 108 -20 152 -13
29 -30 55 -40 57 -10 3 -28 25 -39 50 -12 25 -29 48 -38 50 -19 4 -81 -24
-124 -56 l-27 -20 28 -56 c16 -31 39 -84 51 -118 12 -35 27 -64 31 -64 43 -6
49 -17 48 -77 0 -31 -4 -78 -7 -104 l-7 -46 -39 33 c-35 29 -39 37 -43 90 -2
32 -10 70 -18 86 -8 15 -15 53 -15 84 0 60 -15 98 -49 130 -12 10 -38 45 -57
76 -36 61 -44 66 -114 79 -25 5 -52 11 -61 15 -8 3 -26 -3 -40 -13z m418 -73
c-3 -12 -3 -34 0 -49 5 -25 8 -27 46 -23 l42 4 22 -53 c17 -41 21 -65 16 -108
-6 -62 -17 -81 -41 -73 -14 4 -15 3 -2 -5 8 -6 17 -9 21 -6 13 7 21 -30 26
-122 8 -130 -2 -196 -35 -229 -24 -24 -32 -27 -74 -22 -96 12 -168 72 -168
142 0 22 8 43 20 55 24 24 25 30 5 30 -8 0 -12 6 -9 13 2 7 13 13 24 13 10 0
16 -4 14 -8 -3 -4 8 -14 23 -22 34 -17 65 -51 85 -90 l15 -28 1 48 c0 27 5 91
9 142 5 50 6 92 3 92 -12 0 -32 48 -25 60 5 8 12 5 22 -10 12 -17 18 -19 27
-10 8 9 8 14 -2 17 -9 3 -6 13 9 34 31 44 18 44 -31 -1 -53 -48 -74 -53 -59
-14 15 42 -27 158 -62 169 -29 10 -23 19 29 48 57 32 56 32 49 6z m205 -774
c10 -76 34 -115 88 -143 35 -18 55 -22 88 -18 39 5 42 4 33 -12 -31 -57 -132
-122 -192 -122 -11 0 -18 -12 -23 -40 -3 -22 -11 -40 -17 -40 -6 0 -8 9 -4 23
5 17 4 18 -4 7 -18 -26 -24 -2 -13 53 8 42 8 65 -2 98 -8 24 -17 72 -21 106
-6 51 -3 69 14 108 12 28 26 45 33 43 7 -3 16 -30 20 -63z"/>
<path d="M5475 5960 c5 -8 10 -19 11 -25 0 -5 2 -15 2 -22 2 -16 42 -38 42
-23 0 5 -6 10 -14 10 -15 0 -29 27 -21 40 3 4 -3 14 -12 21 -15 12 -16 12 -8
-1z"/>
<path d="M5582 5630 c0 -19 2 -27 5 -17 2 9 2 25 0 35 -3 9 -5 1 -5 -18z"/>
<path d="M5386 5439 c6 -10 65 -39 79 -39 12 0 -20 25 -48 38 -34 15 -40 15
-31 1z"/>
<path d="M5656 5095 c3 -11 8 -35 11 -52 3 -18 9 -33 13 -33 20 0 98 33 120
51 22 19 21 18 -14 -2 l-39 -22 -17 21 c-15 18 -19 19 -24 7 -9 -24 -25 -17
-41 18 -8 17 -13 23 -9 12z"/>
<path d="M5662 4980 c0 -14 2 -19 5 -12 2 6 2 18 0 25 -3 6 -5 1 -5 -13z"/>
<path d="M4977 6083 c-8 -10 -18 -31 -21 -48 l-6 -30 11 30 c6 17 18 38 27 48
8 9 13 17 10 17 -3 0 -12 -8 -21 -17z"/>
<path d="M5150 6051 c0 -11 -8 -25 -17 -31 -15 -9 -15 -10 5 -5 13 4 30 1 40
-7 16 -12 16 -11 1 7 -9 11 -14 25 -12 32 2 6 -1 14 -6 18 -7 3 -11 -2 -11
-14z"/>
<path d="M5096 6025 c-11 -8 -15 -15 -9 -15 6 0 16 7 23 15 16 19 11 19 -14 0z"/>
<path d="M5020 6000 c-8 -5 -12 -11 -10 -14 3 -2 14 2 24 10 22 15 10 19 -14
4z"/>
<path d="M5026 5951 c-8 -12 14 -19 37 -13 15 4 16 7 5 13 -17 11 -35 11 -42
0z"/>
<path d="M5128 5949 c-10 -5 -18 -15 -18 -22 0 -8 3 -8 9 1 4 8 14 13 22 12
25 -4 39 0 39 10 0 13 -30 12 -52 -1z"/>
<path d="M4951 5942 c-1 -7 6 -26 14 -41 8 -16 17 -47 21 -70 4 -22 10 -38 15
-35 18 11 8 -47 -11 -66 -20 -20 -20 -20 -1 -20 21 0 54 38 45 52 -3 4 -1 8 5
8 5 0 13 -4 16 -10 3 -5 11 -10 17 -10 6 0 0 9 -13 19 -14 10 -36 43 -49 73
-14 29 -28 55 -32 58 -4 3 -11 17 -17 30 -5 14 -10 19 -10 12z"/>
<path d="M5098 5793 c7 -3 16 -2 19 1 4 3 -2 6 -13 5 -11 0 -14 -3 -6 -6z"/>
<path d="M4981 5769 c-1 -9 -8 -22 -16 -29 -8 -7 -15 -17 -15 -23 0 -5 9 2 21
17 11 14 18 32 16 39 -4 7 -6 6 -6 -4z"/>
<path d="M5302 5696 c10 -30 9 -43 -5 -72 -21 -43 -22 -69 -2 -34 29 51 32 65
22 95 -14 44 -28 54 -15 11z"/>
<path d="M5192 5570 c-1 -47 4 -75 18 -100 23 -43 26 -31 4 16 -22 47 -12 65
14 23 19 -32 20 -39 8 -79 -16 -55 -40 -62 -85 -25 -17 15 -31 22 -31 17 0
-19 52 -52 81 -52 25 0 29 5 43 52 14 50 14 53 -10 95 -13 25 -21 49 -18 55 4
6 2 8 -4 4 -7 -4 -12 6 -15 26 -2 18 -4 4 -5 -32z"/>
<path d="M4575 5468 c3 -78 8 -109 28 -150 42 -91 86 -119 133 -83 26 20 32
19 37 -7 4 -19 4 -19 6 5 1 33 25 83 54 115 33 36 38 25 12 -30 -14 -29 -24
-62 -24 -73 0 -14 4 -10 10 10 12 41 42 95 52 95 10 0 1 -32 -19 -72 -8 -15
-14 -33 -14 -40 1 -7 7 1 14 18 23 53 32 46 30 -24 -1 -37 0 -51 2 -32 2 19 9
67 16 105 l11 70 41 -3 c34 -3 46 1 69 24 15 14 27 32 27 40 0 7 2 21 5 31 3
10 0 7 -7 -7 -7 -14 -18 -31 -25 -38 -7 -7 -13 -17 -13 -22 0 -5 -14 -11 -31
-15 -42 -9 -75 9 -93 54 -9 22 -15 29 -15 17 -2 -39 -104 -157 -164 -187 -21
-11 -46 -17 -56 -14 -32 10 -69 112 -80 216 l-10 94 4 -97z"/>
<path d="M4901 5534 c0 -11 3 -14 6 -6 3 7 2 16 -1 19 -3 4 -6 -2 -5 -13z"/>
<path d="M4843 5433 c-9 -16 -22 -34 -27 -42 -8 -11 -8 -13 0 -8 13 7 56 77
49 77 -3 0 -12 -12 -22 -27z"/>
<path d="M4940 5450 c0 -5 5 -10 11 -10 5 0 7 5 4 10 -3 6 -8 10 -11 10 -2 0
-4 -4 -4 -10z"/>
<path d="M5250 5385 c-6 -20 -9 -43 -6 -52 4 -9 -3 -32 -15 -52 -11 -20 -15
-30 -8 -23 18 17 34 15 19 -3 -7 -8 -8 -15 -3 -15 5 0 10 -29 10 -65 1 -60 -2
-69 -28 -95 -27 -27 -84 -48 -96 -36 -3 3 7 10 23 16 42 14 57 25 62 40 3 9
-7 6 -30 -8 -49 -30 -135 -39 -179 -18 l-34 17 23 -20 c28 -25 123 -45 168
-36 45 8 100 57 114 100 9 27 8 55 -5 129 -11 69 -13 101 -5 121 6 15 9 30 6
32 -2 2 -9 -12 -16 -32z"/>
<path d="M5272 5340 c0 -14 2 -19 5 -12 2 6 2 18 0 25 -3 6 -5 1 -5 -13z"/>
<path d="M4686 5338 c3 -5 10 -6 15 -3 13 9 11 12 -6 12 -8 0 -12 -4 -9 -9z"/>
<path d="M5363 5194 c15 -16 27 -34 27 -39 0 -5 -12 2 -27 16 l-28 24 21 -25
c12 -14 24 -32 27 -40 4 -12 6 -11 6 3 1 11 6 15 12 11 21 -12 -8 30 -38 56
l-28 25 28 -31z"/>
<path d="M4766 5145 c-19 -47 -17 -77 8 -110 15 -20 15 -20 16 3 0 12 -5 22
-11 22 -6 0 -8 9 -4 21 5 15 4 19 -4 15 -16 -10 -14 10 5 45 8 17 14 34 12 40
-2 5 -11 -12 -22 -36z"/>
<path d="M5315 5169 c-4 -6 3 -21 16 -35 12 -13 26 -43 30 -67 l6 -42 2 38 c2
60 -37 135 -54 106z"/>
<path d="M5412 5110 c0 -14 2 -19 5 -12 2 6 2 18 0 25 -3 6 -5 1 -5 -13z"/>
<path d="M5392 5090 c0 -14 2 -19 5 -12 2 6 2 18 0 25 -3 6 -5 1 -5 -13z"/>
<path d="M4835 5050 c-4 -17 -5 -34 -2 -36 2 -3 7 10 11 27 8 42 0 50 -9 9z"/>
<path d="M5118 4911 c-36 -23 -51 -51 -28 -51 6 0 10 5 10 12 0 6 3 9 6 5 8
-8 57 38 53 50 -2 5 -21 -2 -41 -16z"/>
<path d="M5006 4841 c-9 -13 67 -178 96 -208 11 -12 18 -28 15 -36 -4 -11 0
-13 15 -9 14 3 19 1 14 -6 -4 -7 -1 -12 8 -12 9 0 16 -4 16 -10 0 -5 7 -10 15
-10 9 0 18 -7 21 -15 4 -8 10 -13 14 -10 5 3 15 -1 23 -9 8 -8 17 -13 20 -10
3 4 11 3 17 -1 9 -6 9 -10 -1 -16 -10 -6 -10 -9 -2 -9 6 0 15 5 18 10 4 6 13
7 23 1 20 -10 53 -14 102 -11 25 1 14 6 -41 15 -94 16 -154 42 -208 90 -47 42
-100 127 -126 200 -21 58 -30 71 -39 56z"/>
<path d="M5210 4809 c0 -5 5 -7 10 -4 6 3 10 8 10 11 0 2 -4 4 -10 4 -5 0 -10
-5 -10 -11z"/>
<path d="M4960 4800 c-9 -6 -10 -10 -3 -10 6 0 15 5 18 10 8 12 4 12 -15 0z"/>
<path d="M5135 4790 c-19 -8 -19 -9 3 -9 12 -1 22 4 22 9 0 6 -1 10 -2 9 -2 0
-12 -4 -23 -9z"/>
<path d="M4995 4740 c-3 -5 -1 -10 4 -10 6 0 11 5 11 10 0 6 -2 10 -4 10 -3 0
-8 -4 -11 -10z"/>
<path d="M5117 4739 c7 -7 15 -10 18 -7 3 3 -2 9 -12 12 -14 6 -15 5 -6 -5z"/>
<path d="M5190 4740 c-8 -5 -10 -10 -5 -10 6 0 17 5 25 10 8 5 11 10 5 10 -5
0 -17 -5 -25 -10z"/>
<path d="M5210 4700 c-13 -8 -13 -10 2 -10 9 0 20 5 23 10 8 13 -5 13 -25 0z"/>
<path d="M5028 4663 c7 -3 16 -2 19 1 4 3 -2 6 -13 5 -11 0 -14 -3 -6 -6z"/>
<path d="M5210 4650 c-9 -6 -10 -10 -3 -10 6 0 15 5 18 10 8 12 4 12 -15 0z"/>
<path d="M5265 4650 c-3 -5 -1 -10 4 -10 6 0 11 5 11 10 0 6 -2 10 -4 10 -3 0
-8 -4 -11 -10z"/>
<path d="M5058 4623 c6 -2 18 -2 25 0 6 3 1 5 -13 5 -14 0 -19 -2 -12 -5z"/>
<path d="M5208 4583 c7 -3 16 -2 19 1 4 3 -2 6 -13 5 -11 0 -14 -3 -6 -6z"/>
<path d="M5310 4550 c-9 -6 -10 -10 -3 -10 6 0 15 5 18 10 8 12 4 12 -15 0z"/>
<path d="M5370 4540 c-13 -8 -13 -10 2 -10 9 0 20 5 23 10 8 13 -5 13 -25 0z"/>
<path d="M5415 4530 c-3 -5 -2 -10 4 -10 5 0 13 5 16 10 3 6 2 10 -4 10 -5 0
-13 -4 -16 -10z"/>
<path d="M5614 4518 l-19 -23 23 19 c12 11 22 21 22 23 0 8 -8 2 -26 -19z"/>
<path d="M3962 6083 c-1 -17 -5 -40 -8 -50 -5 -14 -4 -15 5 -7 7 7 11 28 8 50
-3 35 -4 35 -5 7z"/>
<path d="M3434 6079 c-10 -12 -27 -24 -36 -28 -14 -5 -13 -8 8 -18 13 -6 22
-8 20 -4 -6 9 53 35 61 27 4 -3 -2 -13 -13 -21 -10 -8 -14 -15 -8 -15 14 0 34
21 34 37 0 8 -12 13 -31 13 -27 0 -30 2 -19 15 19 23 6 18 -16 -6z"/>
<path d="M3906 6073 c-6 -14 -5 -15 5 -6 7 7 10 15 7 18 -3 3 -9 -2 -12 -12z"/>
<path d="M3744 6066 c-4 -10 -16 -22 -28 -26 -16 -7 -17 -9 -4 -9 9 -1 20 -10
23 -21 9 -28 23 -25 56 10 36 37 37 49 3 42 -16 -3 -29 1 -35 9 -6 11 -9 10
-15 -5z m16 -16 c0 -5 -5 -10 -11 -10 -5 0 -7 5 -4 10 3 6 8 10 11 10 2 0 4
-4 4 -10z m40 -10 c0 -10 -32 -30 -49 -30 -6 0 -11 5 -11 10 0 6 7 10 15 10 8
0 15 5 15 10 0 6 7 10 15 10 8 0 15 -4 15 -10z"/>
<path d="M3346 6051 c-4 -7 -5 -15 -2 -18 9 -9 19 4 14 18 -4 11 -6 11 -12 0z"/>
<path d="M3525 6017 c2 -59 4 -67 13 -67 11 0 6 90 -5 101 -5 5 -8 -8 -8 -34z"/>
<path d="M3898 6018 c-7 -18 1 -38 15 -38 8 0 8 3 0 11 -6 6 -9 18 -6 25 3 8
3 14 0 14 -3 0 -7 -6 -9 -12z"/>
<path d="M3662 6004 c10 -10 20 -15 24 -12 3 4 -5 12 -18 18 -22 12 -22 12 -6
-6z"/>
<path d="M3488 5929 c23 -22 42 -44 42 -49 0 -17 -19 -21 -39 -8 -18 11 -24
10 -41 -10 -11 -12 -17 -20 -14 -17 10 7 65 -35 63 -48 -1 -7 1 -20 6 -30 9
-22 -10 -47 -39 -48 -11 -1 -1 -5 24 -10 60 -12 105 2 164 51 49 41 48 52 -3
26 -23 -12 -48 -14 -71 -6 -3 1 -15 1 -27 1 -29 -3 -38 29 -22 74 15 40 45 53
79 35 14 -7 20 -17 16 -28 -3 -9 5 -4 19 11 46 52 24 112 -32 84 -32 -17 -88
-16 -105 1 -7 7 -23 12 -37 12 -25 0 -24 -2 17 -41z"/>
<path d="M3886 5925 c3 -22 10 -62 14 -90 7 -49 7 -49 8 -10 1 22 -6 63 -14
90 -13 44 -14 45 -8 10z"/>
<path d="M3952 5935 c0 -16 2 -22 5 -12 2 9 2 23 0 30 -3 6 -5 -1 -5 -18z"/>
<path d="M3421 5923 c-1 -19 -10 -41 -23 -54 l-23 -21 22 11 c24 12 38 48 30
78 -3 10 -5 4 -6 -14z"/>
<path d="M3700 5920 c0 -5 5 -10 11 -10 5 0 7 5 4 10 -3 6 -8 10 -11 10 -2 0
-4 -4 -4 -10z"/>
<path d="M3831 5912 c-1 -20 -3 -21 -23 -11 -18 10 -20 9 -15 -5 3 -8 2 -18
-3 -21 -4 -3 -11 1 -13 7 -4 10 -6 10 -6 0 -1 -7 -5 -10 -11 -7 -5 3 -10 -1
-10 -10 0 -9 -4 -13 -10 -10 -5 3 -10 -1 -10 -9 0 -10 9 -16 21 -16 19 0 20
-2 8 -17 -13 -15 -12 -15 9 -4 38 20 38 4 1 -18 -19 -12 -37 -21 -40 -21 -4 0
-10 -8 -13 -17 -6 -15 -5 -16 11 -1 10 8 39 25 65 36 54 24 66 49 50 109 -7
26 -10 31 -11 15z"/>
<path d="M3680 5855 c-8 -9 -8 -15 -2 -15 12 0 26 19 19 26 -2 2 -10 -2 -17
-11z"/>
<path d="M3851 5740 c-13 -11 -36 -20 -52 -20 -19 0 -42 -12 -66 -34 -21 -18
-45 -36 -53 -39 -11 -4 -10 -6 4 -6 10 -1 34 13 53 29 19 17 45 30 61 30 28 1
47 12 71 43 17 22 12 21 -18 -3z"/>
<path d="M4321 5712 c-1 -7 -8 -29 -16 -50 -13 -29 -18 -34 -25 -22 -7 11 -10
12 -10 2 0 -8 -6 -12 -12 -9 -7 2 -20 -1 -28 -8 -8 -7 -28 -17 -45 -23 l-30
-10 40 -1 c61 -1 108 26 123 73 7 22 11 44 8 50 -3 7 -5 6 -5 -2z"/>
<path d="M3068 5703 c7 -3 16 -2 19 1 4 3 -2 6 -13 5 -11 0 -14 -3 -6 -6z"/>
<path d="M3088 5683 c6 -2 18 -2 25 0 6 3 1 5 -13 5 -14 0 -19 -2 -12 -5z"/>
<path d="M3374 5651 c-21 -16 -52 -44 -69 -62 -21 -24 -15 -21 20 11 28 25 61
53 75 62 14 9 22 17 19 17 -3 1 -24 -12 -45 -28z"/>
<path d="M3734 5648 c-19 -23 -19 -23 1 -7 11 9 27 19 35 22 13 5 13 6 -1 6
-9 1 -24 -9 -35 -21z"/>
<path d="M3434 5624 c-18 -14 -18 -14 6 -3 31 14 36 19 24 19 -6 0 -19 -7 -30
-16z"/>
<path d="M3384 5555 c-17 -8 -37 -22 -45 -32 -13 -17 -13 -17 5 -3 10 8 35 22
55 31 43 20 30 24 -15 4z"/>
<path d="M3450 5544 c-24 -13 -38 -24 -30 -24 8 0 33 11 55 25 50 31 35 30
-25 -1z"/>
<path d="M3345 5441 c-6 -6 -23 -17 -40 -25 -18 -10 -23 -16 -13 -16 15 0 81
49 68 50 -4 0 -10 -4 -15 -9z"/>
<path d="M3316 5354 c-16 -19 -35 -34 -42 -34 -8 0 -28 -9 -46 -21 -28 -17
-29 -20 -8 -14 46 12 94 41 114 68 29 39 16 40 -18 1z"/>
<path d="M3145 5295 c0 -13 3 -21 8 -18 4 2 7 10 7 18 0 8 -3 16 -7 18 -5 3
-8 -5 -8 -18z"/>
<path d="M3860 5211 c0 -6 4 -13 10 -16 6 -3 7 1 4 9 -7 18 -14 21 -14 7z"/>
<path d="M3541 5174 c0 -11 3 -14 6 -6 3 7 2 16 -1 19 -3 4 -6 -2 -5 -13z"/>
<path d="M3502 5018 c-14 -14 -16 -38 -3 -38 5 0 11 11 13 25 6 29 6 29 -10
13z"/>
<path d="M3474 4962 c12 -19 -5 -62 -24 -62 -10 0 -20 -9 -23 -20 -7 -26 4
-25 37 1 28 22 36 72 14 85 -7 4 -8 3 -4 -4z"/>
<path d="M3898 4927 c-3 -19 -2 -25 4 -19 6 6 8 18 6 28 -3 14 -5 12 -10 -9z"/>
<path d="M3987 4874 c22 -48 25 -66 20 -118 -3 -34 -8 -70 -12 -81 -3 -11 1
-6 9 10 8 17 15 47 16 68 0 22 5 37 12 37 9 0 9 3 0 12 -16 16 -15 31 1 22 6
-4 3 2 -7 14 -11 12 -15 22 -11 22 5 0 4 5 -3 12 -7 7 -12 22 -12 35 0 16 -6
23 -19 23 -19 0 -19 -3 6 -56z"/>
<path d="M3921 4894 c0 -11 3 -14 6 -6 3 7 2 16 -1 19 -3 4 -6 -2 -5 -13z"/>
<path d="M3840 4696 c0 -2 7 -7 16 -10 8 -3 12 -2 9 4 -6 10 -25 14 -25 6z"/>
<path d="M3844 4635 c-15 -20 -24 -38 -22 -41 3 -3 15 11 27 30 12 19 30 37
39 39 16 4 16 5 0 6 -9 0 -29 -15 -44 -34z"/>
<path d="M3631 4034 c-1 -14 -10 -24 -26 -28 -14 -4 -25 -13 -25 -21 0 -8 -6
-15 -14 -15 -26 0 -46 -40 -41 -84 3 -23 12 -100 20 -171 8 -72 16 -185 17
-250 l2 -120 8 115 c4 63 8 136 8 162 0 25 3 49 8 52 11 6 21 -92 23 -214 l2
-85 9 120 c5 66 7 189 6 273 -2 83 0 152 5 152 4 0 8 -30 9 -67 1 -50 2 -56 5
-23 2 25 -1 86 -5 135 -5 50 -10 80 -11 69z"/>
<path d="M4145 3928 c-50 -13 -51 -14 -36 -32 8 -10 12 -39 9 -81 -2 -51 0
-64 10 -60 8 3 17 5 22 5 4 0 6 19 2 43 l-5 42 45 -42 c37 -33 51 -40 70 -35
l23 7 -22 3 c-13 2 -32 17 -44 34 l-22 30 27 24 c32 30 32 38 4 58 -25 18 -27
18 -83 4z m62 -24 c8 -22 -9 -48 -36 -52 -18 -3 -21 1 -21 32 0 32 3 36 25 36
15 0 28 -7 32 -16z"/>
<path d="M4730 3931 c0 -4 -15 -39 -32 -77 -18 -38 -34 -72 -36 -76 -2 -5 1
-8 6 -8 5 0 13 12 16 26 5 20 12 25 34 22 21 -2 28 -9 30 -30 2 -20 9 -28 22
-28 16 0 18 4 11 23 -4 12 -14 52 -21 90 -7 37 -16 67 -21 67 -5 0 -9 -4 -9
-9z m10 -76 c0 -18 -5 -25 -20 -25 -17 0 -18 3 -8 25 6 14 15 25 20 25 4 0 8
-11 8 -25z"/>
<path d="M4851 3852 c-1 -42 -5 -80 -8 -85 -8 -13 17 -27 50 -27 16 0 38 10
52 25 51 50 20 137 -56 154 l-35 8 -3 -75z m67 42 c24 -17 30 -72 12 -119 -13
-34 -55 -32 -54 3 4 149 3 144 42 116z"/>
<path d="M3979 3886 c-35 -11 -35 -12 -26 -46 5 -19 7 -58 5 -86 l-4 -51 50
15 c28 8 57 16 64 18 6 2 12 16 12 31 l-1 28 -15 -27 c-8 -16 -21 -28 -29 -28
-7 0 -20 -3 -29 -6 -13 -5 -16 2 -16 36 0 37 2 42 20 37 15 -4 20 0 20 15 0
17 -3 18 -15 8 -18 -15 -35 -5 -35 21 0 24 38 40 63 27 13 -6 17 -5 17 7 0 18
-28 18 -81 1z"/>
<path d="M3785 3847 c3 -12 7 -53 8 -90 2 -60 4 -67 22 -67 18 0 20 5 17 39
-4 36 -2 38 29 45 65 13 93 67 43 86 -14 6 -48 10 -75 10 -46 0 -49 -1 -44
-23z m107 -12 c13 -29 6 -39 -33 -49 -22 -5 -28 -2 -33 17 -12 44 -11 46 47
56 4 0 13 -10 19 -24z"/>
<path d="M3654 3625 c0 -77 2 -107 3 -67 2 40 2 103 0 140 -2 37 -3 4 -3 -73z"/>
<path d="M4297 3482 c-14 -42 -29 -85 -33 -96 -5 -14 -3 -17 7 -14 7 2 16 15
19 29 8 34 44 33 48 -2 2 -17 11 -29 23 -32 16 -4 19 -2 14 11 -13 34 -35 127
-35 149 0 48 -18 29 -43 -45z m33 -29 c0 -7 -7 -13 -16 -13 -11 0 -14 5 -10
16 3 9 6 21 6 27 0 16 20 -14 20 -30z"/>
<path d="M4218 3538 c18 -18 16 -133 -3 -148 -25 -21 -34 -1 -37 78 -3 66 -5
72 -25 72 -23 0 -23 5 -4 -114 4 -24 15 -44 28 -53 20 -14 24 -13 48 11 23 23
25 32 23 96 -3 62 -5 70 -22 70 -16 0 -17 -3 -8 -12z"/>
<path d="M4547 3478 c-13 -40 -27 -81 -32 -91 -5 -13 -4 -16 9 -11 9 3 16 17
16 30 0 20 5 24 29 24 28 0 47 -22 35 -41 -3 -5 6 -9 19 -9 l25 0 -29 71 c-16
39 -29 77 -29 85 0 36 -21 7 -43 -58z m43 -20 c0 -10 -6 -18 -14 -18 -21 0
-25 11 -14 40 7 20 11 22 18 10 5 -8 10 -23 10 -32z"/>
<path d="M4688 3486 c2 -35 -1 -72 -7 -84 -10 -19 -7 -21 39 -27 48 -7 70 -2
70 15 0 4 -19 6 -41 3 l-41 -6 3 82 c4 68 2 81 -11 81 -13 0 -15 -11 -12 -64z"/>
<path d="M3583 3505 c0 -22 2 -30 4 -17 2 12 2 30 0 40 -3 9 -5 -1 -4 -23z"/>
<path d="M3633 3490 c0 -25 2 -35 4 -22 2 12 2 32 0 45 -2 12 -4 2 -4 -23z"/>
<path d="M4817 3506 c-5 -13 -2 -13 19 -4 13 6 26 9 29 7 5 -6 -11 -117 -20
-141 -6 -14 -2 -18 16 -18 23 0 24 4 26 72 2 39 5 73 8 76 3 3 17 0 31 -7 22
-10 25 -9 22 6 -4 25 -122 32 -131 9z"/>
<path d="M4004 3494 c3 -9 6 -50 6 -91 l0 -75 32 6 c50 10 79 51 74 103 -5 59
-20 73 -73 73 -37 0 -44 -3 -39 -16z m76 -13 c22 -43 6 -131 -24 -131 -13 0
-26 60 -26 121 0 22 5 29 20 29 10 0 24 -9 30 -19z"/>
<path d="M4990 3443 c-13 -38 -29 -76 -38 -85 -14 -17 -13 -18 11 -18 19 0 24
4 21 18 -6 26 9 42 34 35 15 -3 22 -13 22 -29 0 -19 5 -24 25 -24 l25 0 -18
38 c-11 20 -25 58 -33 85 -7 26 -17 47 -20 47 -4 0 -17 -30 -29 -67z m33 -12
c6 -23 0 -31 -18 -25 -7 3 -11 14 -8 25 7 24 19 24 26 0z"/>
<path d="M3750 3433 c-13 -38 -26 -72 -31 -77 -13 -15 -11 -26 6 -26 8 0 12 6
10 13 -8 20 11 39 36 35 18 -2 25 -10 27 -30 2 -20 9 -28 24 -28 15 0 18 4 13
18 -4 9 -17 50 -28 90 -11 39 -24 72 -28 72 -4 0 -17 -30 -29 -67z m28 -32
c-15 -5 -21 7 -13 26 7 17 8 17 15 -2 4 -11 3 -22 -2 -24z"/>
<path d="M3865 3407 c0 -86 1 -93 18 -89 15 4 18 12 15 38 -5 40 4 44 21 10 7
-13 25 -29 39 -36 25 -11 26 -11 11 7 -9 10 -22 29 -29 41 -10 21 -9 26 9 39
44 30 14 83 -47 83 l-37 0 0 -93z m63 74 c8 -5 12 -21 10 -37 -2 -21 -9 -30
-25 -32 -21 -3 -23 1 -23 37 0 41 10 50 38 32z"/>
<path d="M3663 3415 c0 -27 2 -38 4 -22 2 15 2 37 0 50 -2 12 -4 0 -4 -28z"/>
<path d="M5164 3325 c0 -49 1 -71 3 -48 2 23 2 64 0 90 -2 26 -3 8 -3 -42z"/>
<path d="M3643 3355 c0 -27 2 -38 4 -22 2 15 2 37 0 50 -2 12 -4 0 -4 -28z"/>
<path d="M5183 3295 c0 -44 2 -61 4 -37 2 23 2 59 0 80 -2 20 -4 1 -4 -43z"/>
<path d="M3593 3320 c0 -25 2 -35 4 -22 2 12 2 32 0 45 -2 12 -4 2 -4 -23z"/>
<path d="M3623 3305 c0 -27 2 -38 4 -22 2 15 2 37 0 50 -2 12 -4 0 -4 -28z"/>
<path d="M3673 3305 c0 -27 2 -38 4 -22 2 15 2 37 0 50 -2 12 -4 0 -4 -28z"/>
<path d="M3573 3300 c0 -25 2 -35 4 -22 2 12 2 32 0 45 -2 12 -4 2 -4 -23z"/>
<path d="M5257 3196 c-4 -82 -6 -151 -3 -153 6 -6 18 215 14 262 -1 22 -7 -27
-11 -109z"/>
<path d="M3652 3240 c0 -19 2 -27 5 -17 2 9 2 25 0 35 -3 9 -5 1 -5 -18z"/>
<path d="M3584 3150 c0 -52 1 -74 3 -47 2 26 2 68 0 95 -2 26 -3 4 -3 -48z"/>
<path d="M3603 3195 c0 -27 2 -38 4 -22 2 15 2 37 0 50 -2 12 -4 0 -4 -28z"/>
<path d="M5234 3155 c0 -49 1 -71 3 -48 2 23 2 64 0 90 -2 26 -3 8 -3 -42z"/>
<path d="M3682 3190 c0 -19 2 -27 5 -17 2 9 2 25 0 35 -3 9 -5 1 -5 -18z"/>
<path d="M5152 3173 c-2 -40 -6 -53 -19 -56 -17 -4 -17 -5 0 -6 23 -1 29 17
24 70 l-4 44 -1 -52z"/>
<path d="M4668 3173 c7 -3 16 -2 19 1 4 3 -2 6 -13 5 -11 0 -14 -3 -6 -6z"/>
<path d="M4723 3163 c9 -2 25 -2 35 0 9 3 1 5 -18 5 -19 0 -27 -2 -17 -5z"/>
<path d="M5182 3150 c0 -14 2 -19 5 -12 2 6 2 18 0 25 -3 6 -5 1 -5 -13z"/>
<path d="M4033 3153 c9 -2 23 -2 30 0 6 3 -1 5 -18 5 -16 0 -22 -2 -12 -5z"/>
<path d="M4790 3153 c46 -15 46 -15 25 -23 -18 -8 -19 -9 -1 -9 11 -1 16 -6
13 -15 -4 -10 15 -18 69 -30 41 -9 85 -16 99 -16 13 0 27 -5 31 -12 7 -11 -69
-7 -136 7 l-25 6 25 -11 c27 -12 230 -34 238 -25 3 3 -9 5 -26 5 -42 0 -41 20
1 21 32 0 32 0 7 11 -14 6 -20 12 -13 15 7 2 9 11 6 19 -4 10 -22 14 -64 14
-33 0 -96 11 -145 25 -47 14 -94 25 -103 24 -13 0 -13 -1 -1 -6z m105 -33 c2
-4 -7 -5 -20 -2 -14 2 -25 8 -25 12 0 10 38 1 45 -10z m27 -22 c52 -11 87 -28
58 -28 -20 0 -121 27 -128 34 -8 9 11 7 70 -6z"/>
<path d="M3895 3130 c-38 -10 -61 -19 -50 -19 11 0 54 8 95 19 41 10 64 18 50
18 -14 0 -56 -8 -95 -18z"/>
<path d="M4153 3133 c15 -2 39 -2 55 0 15 2 2 4 -28 4 -30 0 -43 -2 -27 -4z"/>
<path d="M4748 3133 c6 -2 18 -2 25 0 6 3 1 5 -13 5 -14 0 -19 -2 -12 -5z"/>
<path d="M4058 3123 c6 -2 18 -2 25 0 6 3 1 5 -13 5 -14 0 -19 -2 -12 -5z"/>
<path d="M3748 3113 c6 -2 18 -2 25 0 6 3 1 5 -13 5 -14 0 -19 -2 -12 -5z"/>
<path d="M3998 3113 c7 -3 16 -2 19 1 4 3 -2 6 -13 5 -11 0 -14 -3 -6 -6z"/>
<path d="M4638 3113 c23 -2 59 -2 80 0 20 2 1 4 -43 4 -44 0 -61 -2 -37 -4z"/>
<path d="M3915 3100 c-16 -4 -65 -8 -107 -9 -50 -1 -78 -5 -78 -12 0 -6 -9 -9
-20 -6 -12 3 -18 1 -14 -5 4 -6 25 -8 53 -4 77 12 161 16 126 6 -16 -4 -49 -8
-72 -9 -25 0 -43 -6 -43 -12 0 -8 -15 -10 -45 -7 -24 3 -42 2 -39 -3 3 -5 30
-9 60 -9 33 0 54 -4 54 -11 0 -8 -21 -10 -65 -7 -40 2 -61 0 -56 -5 18 -18
144 -19 221 -2 41 9 91 21 110 25 l35 8 -33 1 c-20 1 -31 5 -27 11 4 6 -8 16
-26 24 l-32 13 29 11 c33 12 13 13 -31 2z"/>
<path d="M4088 3103 c12 -2 30 -2 40 0 9 3 -1 5 -23 4 -22 0 -30 -2 -17 -4z"/>
<path d="M4778 3103 c6 -2 18 -2 25 0 6 3 1 5 -13 5 -14 0 -19 -2 -12 -5z"/>
<path d="M4018 3093 c6 -2 18 -2 25 0 6 3 1 5 -13 5 -14 0 -19 -2 -12 -5z"/>
<path d="M3968 3083 c7 -3 16 -2 19 1 4 3 -2 6 -13 5 -11 0 -14 -3 -6 -6z"/>
<path d="M4168 3083 c12 -2 32 -2 45 0 12 2 2 4 -23 4 -25 0 -35 -2 -22 -4z"/>
<path d="M4068 3073 c12 -2 32 -2 45 0 12 2 2 4 -23 4 -25 0 -35 -2 -22 -4z"/>
<path d="M4788 3073 c6 -2 18 -2 25 0 6 3 1 5 -13 5 -14 0 -19 -2 -12 -5z"/>
<path d="M4003 3063 c9 -2 23 -2 30 0 6 3 -1 5 -18 5 -16 0 -22 -2 -12 -5z"/>
<path d="M4838 3063 c7 -3 16 -2 19 1 4 3 -2 6 -13 5 -11 0 -14 -3 -6 -6z"/>
<path d="M4173 3053 c9 -2 25 -2 35 0 9 3 1 5 -18 5 -19 0 -27 -2 -17 -5z"/>
<path d="M4583 3053 c9 -2 23 -2 30 0 6 3 -1 5 -18 5 -16 0 -22 -2 -12 -5z"/>
<path d="M4718 3053 c12 -2 30 -2 40 0 9 3 -1 5 -23 4 -22 0 -30 -2 -17 -4z"/>
<path d="M4058 3043 c12 -2 32 -2 45 0 12 2 2 4 -23 4 -25 0 -35 -2 -22 -4z"/>
<path d="M4798 3043 c7 -3 16 -2 19 1 4 3 -2 6 -13 5 -11 0 -14 -3 -6 -6z"/>
<path d="M4899 3020 c41 -10 109 -20 150 -23 l76 -6 -60 10 c-33 5 -93 16
-133 24 -100 21 -123 17 -33 -5z"/>
<path d="M5342 3760 c0 -14 2 -19 5 -12 2 6 2 18 0 25 -3 6 -5 1 -5 -13z"/>
<path d="M5395 3730 c3 -5 11 -10 16 -10 6 0 7 5 4 10 -3 6 -11 10 -16 10 -6
0 -7 -4 -4 -10z"/>
<path d="M5472 3711 c-11 -6 -10 -10 4 -15 20 -8 32 0 18 14 -5 5 -15 5 -22 1z"/>
<path d="M5425 3674 c28 -13 57 -24 65 -24 8 0 -12 12 -45 25 -75 31 -85 31
-20 -1z"/>
<path d="M5550 3690 c0 -5 7 -10 16 -10 8 0 12 5 9 10 -3 6 -10 10 -16 10 -5
0 -9 -4 -9 -10z"/>
<path d="M5533 3643 c9 -2 23 -2 30 0 6 3 -1 5 -18 5 -16 0 -22 -2 -12 -5z"/>
<path d="M3200 3690 c-38 -4 -46 -9 -48 -28 -5 -33 15 -52 53 -52 24 0 35 -5
37 -17 7 -36 13 4 8 52 l-5 50 -45 -5z m40 -40 c0 -5 -15 -10 -34 -10 -19 0
-38 5 -41 10 -4 6 10 10 34 10 23 0 41 -4 41 -10z"/>
<path d="M3360 3635 c-33 -19 -21 -19 21 0 19 8 27 14 19 14 -8 0 -26 -6 -40
-14z"/>
<path d="M5370 3390 c0 -5 5 -10 10 -10 6 0 10 5 10 10 0 6 -4 10 -10 10 -5 0
-10 -4 -10 -10z"/>
<path d="M5467 3376 c-11 -8 -14 -17 -8 -20 5 -4 15 3 21 14 13 23 11 24 -13
6z"/>
<path d="M5538 3353 c7 -3 16 -2 19 1 4 3 -2 6 -13 5 -11 0 -14 -3 -6 -6z"/>
<path d="M5630 3340 c34 -11 60 -11 35 0 -11 5 -29 8 -40 8 -16 0 -15 -2 5 -8z"/>
<path d="M5555 3325 c-16 -8 -23 -14 -15 -14 8 0 26 6 40 14 32 18 15 18 -25
0z"/>
<path d="M5458 3313 c6 -2 18 -2 25 0 6 3 1 5 -13 5 -14 0 -19 -2 -12 -5z"/>
<path d="M3410 3310 c-18 -12 -2 -12 25 0 13 6 15 9 5 9 -8 0 -22 -4 -30 -9z"/>
<path d="M14300 6235 c-150 -42 -239 -148 -240 -284 0 -96 16 -138 80 -202 45
-45 85 -70 213 -134 174 -87 218 -118 247 -176 22 -43 27 -130 9 -176 -31 -82
-130 -130 -245 -120 -81 8 -122 26 -179 78 -53 49 -87 109 -111 198 -10 34
-21 61 -26 61 -4 0 -8 -81 -8 -180 0 -177 6 -206 31 -159 13 26 42 23 149 -16
222 -81 455 -15 537 153 25 50 28 68 28 152 0 166 -45 218 -294 344 -193 98
-241 131 -264 179 -79 165 107 300 299 217 77 -33 152 -133 170 -227 14 -74
24 -24 24 122 0 85 0 158 1 162 2 20 -19 10 -30 -13 -10 -22 -16 -25 -44 -21
-17 2 -58 14 -90 26 -77 29 -186 35 -257 16z"/>
<path d="M17910 6231 c-109 -23 -216 -68 -316 -133 -101 -65 -273 -238 -344
-345 -30 -45 -57 -82 -60 -82 -3 0 -36 56 -75 126 -178 322 -186 341 -145 378
11 10 36 21 56 24 21 3 36 11 35 16 0 6 -84 11 -221 13 -191 2 -220 0 -220
-13 0 -8 9 -15 20 -15 42 0 92 -69 245 -337 l155 -273 0 -157 c0 -87 -5 -175
-11 -195 -15 -57 -49 -90 -98 -97 -23 -3 -42 -10 -41 -16 0 -6 87 -10 240 -10
152 0 241 4 241 10 1 6 -13 13 -32 16 -94 15 -110 55 -117 287 l-5 174 59 86
c74 109 216 258 318 334 149 111 307 168 466 168 146 0 242 -41 300 -129 50
-75 63 -135 57 -275 -5 -137 -14 -175 -60 -243 -43 -64 -95 -93 -171 -93 -149
0 -226 103 -226 301 0 109 24 179 77 231 51 48 73 58 127 58 34 0 46 4 46 15
0 35 -141 26 -227 -16 -56 -27 -127 -107 -147 -166 -21 -61 -20 -177 1 -244
25 -76 107 -159 188 -189 76 -28 217 -31 285 -6 170 63 268 222 258 418 -15
293 -297 455 -658 379z"/>
<path d="M7447 6224 c-13 -13 5 -24 36 -24 42 0 75 -24 95 -69 13 -30 17 -97
23 -386 7 -382 10 -406 69 -498 32 -51 92 -94 180 -129 46 -19 74 -22 180 -22
159 0 217 20 301 103 90 91 91 97 99 506 5 220 12 364 19 387 18 57 56 96 103
105 23 5 43 14 46 21 3 10 -39 12 -195 10 -121 -2 -198 -7 -198 -13 0 -5 16
-12 35 -15 56 -10 80 -28 103 -78 21 -45 22 -60 22 -397 0 -347 0 -351 -24
-402 -50 -112 -153 -169 -287 -161 -143 9 -238 86 -264 213 -7 36 -10 168 -8
392 3 294 5 342 20 369 24 43 44 57 91 63 22 3 42 12 45 19 3 9 -50 12 -240
12 -135 0 -248 -3 -251 -6z"/>
<path d="M8680 6215 c0 -10 10 -15 28 -15 40 0 91 -36 110 -78 15 -33 17 -83
17 -442 0 -302 -3 -414 -13 -441 -17 -48 -59 -87 -105 -96 -21 -4 -38 -12 -37
-18 0 -13 379 -14 383 0 1 5 -13 12 -32 16 -55 11 -80 30 -103 78 -22 44 -23
57 -26 366 -2 176 -2 347 0 380 l3 60 368 -463 c299 -375 373 -462 393 -462
l23 0 3 488 c3 475 4 488 25 534 23 49 62 78 108 78 16 0 25 6 25 15 0 13 -26
15 -192 13 -122 -2 -192 -7 -191 -13 1 -5 19 -13 39 -18 48 -10 72 -31 98 -87
19 -42 21 -66 24 -325 2 -154 2 -297 0 -318 -3 -39 -4 -38 -323 362 l-320 401
-152 0 c-129 0 -153 -2 -153 -15z"/>
<path d="M9987 6224 c-13 -13 5 -24 36 -24 40 0 72 -21 95 -63 15 -29 17 -74
20 -430 2 -271 0 -415 -8 -453 -15 -72 -45 -106 -99 -113 -23 -3 -42 -10 -41
-16 0 -6 90 -11 245 -13 204 -2 245 0 245 12 0 9 -16 15 -45 19 -54 6 -79 26
-97 76 -19 53 -19 850 0 903 18 50 55 78 103 78 28 0 39 4 39 15 0 13 -34 15
-243 15 -134 0 -247 -3 -250 -6z"/>
<path d="M10560 6215 c0 -9 9 -15 23 -15 36 0 83 -35 111 -82 13 -24 106 -257
206 -518 100 -261 187 -483 192 -493 5 -10 16 -17 24 -15 10 2 76 160 185 438
93 239 183 464 201 499 40 84 99 148 149 163 22 6 39 17 39 25 0 10 -39 13
-195 13 -167 0 -195 -2 -195 -15 0 -9 9 -15 25 -15 41 0 82 -27 94 -61 15 -44
14 -64 -8 -150 -20 -80 -221 -602 -229 -594 -12 12 -251 627 -260 670 -15 72
3 110 60 126 24 6 49 13 56 15 7 2 10 8 7 14 -4 6 -96 10 -246 10 -206 0 -239
-2 -239 -15z"/>
<path d="M11767 6224 c-13 -13 5 -24 38 -24 50 0 90 -39 107 -103 19 -74 19
-779 0 -853 -16 -63 -49 -96 -102 -103 -23 -3 -42 -10 -43 -16 -2 -12 913 -19
924 -8 4 5 9 80 10 167 3 170 -8 210 -29 108 -14 -66 -56 -139 -98 -169 -57
-41 -122 -55 -249 -56 -132 -1 -164 8 -199 56 -19 26 -21 44 -24 237 l-4 208
49 -5 c148 -13 199 -51 218 -160 16 -97 25 -32 25 177 0 140 -4 220 -10 220
-5 0 -10 -8 -10 -17 0 -38 -22 -92 -46 -117 -29 -29 -68 -41 -161 -51 l-63 -6
0 236 0 235 88 0 c130 0 248 -16 299 -41 50 -24 98 -89 109 -146 3 -18 12 -33
19 -33 10 0 12 26 8 123 -2 67 -6 128 -8 135 -4 9 -97 12 -423 12 -230 0 -422
-3 -425 -6z"/>
<path d="M12830 6216 c0 -12 10 -16 34 -16 46 0 92 -40 108 -93 18 -60 18
-814 0 -874 -16 -53 -62 -93 -108 -93 -24 0 -34 -5 -34 -15 0 -13 34 -15 245
-15 211 0 245 2 245 15 0 10 -10 15 -34 15 -46 0 -92 40 -108 93 -7 26 -12
115 -12 237 l-1 195 73 -3 c91 -3 131 -19 168 -68 16 -20 79 -137 139 -258
l110 -221 153 0 c146 0 198 11 123 26 -72 15 -125 78 -227 272 -85 162 -159
245 -238 267 l-50 14 70 21 c126 39 195 103 213 200 26 136 -40 241 -179 287
-60 20 -91 22 -377 26 -281 3 -313 2 -313 -12z m543 -57 c93 -26 144 -120 134
-245 -11 -137 -88 -194 -264 -194 l-83 0 0 223 c0 123 3 227 8 231 9 10 154 0
205 -15z"/>
<path d="M14987 6224 c-13 -13 5 -24 36 -24 40 0 72 -21 95 -63 15 -29 17 -72
17 -467 0 -389 -2 -438 -17 -466 -23 -43 -44 -57 -89 -63 -22 -3 -40 -10 -39
-16 0 -6 90 -11 245 -13 214 -2 245 0 245 13 0 10 -10 15 -30 15 -52 0 -86 25
-107 77 -16 44 -18 84 -18 453 0 369 2 409 18 453 22 56 49 77 99 77 27 0 38
4 38 15 0 13 -34 15 -243 15 -134 0 -247 -3 -250 -6z"/>
<path d="M15590 6075 c0 -85 0 -158 -1 -162 0 -4 4 -9 9 -11 6 -2 13 12 17 30
18 93 47 158 85 192 43 39 89 50 205 51 l70 0 0 -450 c0 -326 -4 -461 -13
-491 -16 -54 -52 -86 -105 -93 -23 -3 -41 -10 -39 -16 3 -16 494 -13 500 3 2
8 -7 12 -28 12 -52 0 -86 25 -107 77 -17 44 -18 85 -18 503 l0 455 95 -3 c173
-4 221 -49 264 -244 4 -16 11 -28 16 -28 6 0 10 64 10 165 l0 165 -480 0 -480
0 0 -155z"/>
<path d="M18620 6215 c0 -9 9 -15 24 -15 14 0 38 -11 53 -24 l28 -24 3 -289
c2 -158 0 -303 -3 -322 -8 -42 -46 -81 -80 -81 -16 0 -25 -6 -25 -15 0 -13 28
-15 190 -15 162 0 190 2 190 15 0 9 -9 15 -25 15 -38 0 -79 25 -94 56 -17 39
-28 299 -12 308 19 12 90 -4 117 -27 17 -15 27 -36 31 -65 4 -26 11 -42 20
-42 11 0 13 27 11 150 -2 91 -7 150 -13 150 -5 1 -13 -15 -16 -35 -9 -54 -38
-77 -103 -83 l-56 -4 0 156 0 156 93 0 c50 0 109 -5 129 -10 42 -12 83 -56 93
-100 9 -43 40 -42 31 1 -3 17 -6 60 -6 95 l0 64 -290 0 c-251 0 -290 -2 -290
-15z"/>
<path d="M14540 4615 c-96 -26 -181 -76 -250 -145 -115 -115 -170 -258 -170
-439 0 -173 50 -303 159 -412 172 -171 415 -197 699 -75 46 20 94 36 107 36
l24 0 3 194 c4 227 4 228 99 248 33 7 59 16 59 20 0 4 -112 8 -250 8 -236 0
-312 -9 -200 -24 35 -5 60 -16 83 -36 l32 -28 3 -145 c3 -130 1 -149 -17 -185
-41 -81 -127 -119 -249 -110 -161 12 -277 124 -329 318 -24 90 -23 308 2 405
38 149 114 258 213 307 39 19 63 23 137 23 76 0 99 -4 146 -26 31 -15 75 -43
97 -64 46 -41 99 -138 108 -197 4 -23 12 -38 20 -38 11 0 14 33 14 175 0 120
-3 175 -11 175 -6 0 -22 -9 -35 -19 -27 -21 -54 -18 -159 20 -79 28 -255 36
-335 14z"/>
<path d="M17201 4608 c-58 -148 -332 -813 -362 -876 -53 -114 -100 -176 -154
-202 -25 -12 -43 -26 -39 -31 3 -5 88 -9 190 -9 150 0 184 3 184 14 0 8 -15
17 -37 21 -20 3 -49 20 -66 36 -28 28 -29 34 -24 87 3 32 23 99 44 152 l39 95
182 3 183 2 19 -46 c39 -89 80 -216 80 -244 0 -41 -29 -70 -85 -84 -27 -7 -51
-18 -53 -24 -5 -15 484 -17 493 -3 3 6 -15 19 -40 30 -34 15 -53 34 -82 78
-22 34 -121 264 -232 541 -159 393 -198 482 -213 482 -10 0 -22 -10 -27 -22z
m39 -448 c40 -102 74 -191 77 -197 4 -10 -31 -13 -157 -13 -126 0 -161 3 -157
13 110 278 157 390 162 386 2 -2 36 -87 75 -189z"/>
<path d="M7448 4605 c-14 -14 3 -25 38 -25 46 0 88 -40 105 -101 18 -61 19
-795 1 -856 -18 -62 -51 -95 -101 -102 -23 -3 -40 -10 -39 -16 4 -12 565 -16
658 -5 137 18 238 80 285 175 29 58 28 185 -2 241 -45 85 -147 150 -251 161
-29 3 -55 10 -58 14 -3 5 1 9 8 9 28 0 134 59 165 91 97 102 80 277 -34 349
-93 59 -119 63 -458 67 -170 3 -313 2 -317 -2z m554 -71 c85 -27 128 -100 128
-214 -1 -146 -93 -220 -272 -220 l-78 0 0 231 0 231 88 -6 c48 -4 108 -14 134
-22z m-15 -494 c45 -5 97 -16 115 -26 109 -55 153 -176 113 -312 -31 -103
-117 -153 -263 -153 -157 0 -166 15 -170 294 l-3 207 63 0 c35 0 100 -4 145
-10z"/>
<path d="M8637 4604 c-13 -13 5 -24 36 -24 40 0 72 -21 95 -63 15 -29 17 -72
17 -467 0 -389 -2 -438 -17 -466 -23 -43 -44 -57 -89 -63 -22 -3 -40 -10 -39
-16 0 -6 90 -11 245 -13 214 -2 245 0 245 13 0 10 -10 15 -30 15 -52 0 -86 25
-107 77 -16 44 -18 84 -18 453 0 369 2 409 18 453 21 52 55 77 107 77 20 0 30
5 30 15 0 13 -34 15 -243 15 -134 0 -247 -3 -250 -6z"/>
<path d="M9340 4595 c0 -11 11 -15 41 -15 55 0 93 -38 108 -108 15 -71 15
-772 0 -842 -15 -71 -43 -101 -102 -107 -26 -3 -46 -10 -45 -15 5 -13 492 -11
496 2 2 5 -10 10 -28 10 -46 0 -85 24 -106 67 -16 33 -19 67 -22 246 l-4 207
71 0 c88 0 127 -16 172 -68 37 -44 33 -37 147 -272 44 -91 90 -175 102 -187
20 -22 29 -23 155 -23 113 0 135 2 135 15 0 8 -7 15 -16 15 -52 0 -146 113
-224 270 -51 102 -115 195 -154 225 -21 16 -60 36 -88 45 l-51 16 55 13 c68
15 152 64 190 111 66 84 60 225 -13 305 -81 88 -173 105 -555 105 -228 0 -264
-2 -264 -15z m583 -69 c22 -11 51 -37 65 -59 23 -35 27 -53 30 -132 5 -116
-14 -160 -85 -202 -42 -24 -60 -28 -150 -31 l-103 -4 0 227 0 227 103 -4 c74
-2 112 -8 140 -22z"/>
<path d="M10530 4595 c0 -10 10 -15 30 -15 17 0 46 -6 65 -14 56 -24 59 -48
60 -496 0 -431 -4 -466 -55 -515 -17 -17 -43 -29 -69 -32 -24 -3 -40 -10 -38
-17 2 -7 68 -12 205 -14 175 -2 202 0 202 13 0 9 -9 15 -25 15 -36 0 -86 23
-111 51 -45 51 -47 74 -52 484 -2 215 0 387 4 382 4 -4 91 -215 193 -470 126
-313 191 -463 202 -465 12 -2 59 97 202 425 102 235 194 446 204 468 18 40 18
37 21 -285 4 -510 -9 -570 -128 -590 -19 -3 -34 -10 -33 -15 2 -6 99 -11 248
-13 219 -3 245 -2 245 12 0 11 -9 16 -30 16 -52 0 -86 25 -107 77 -16 44 -18
84 -18 453 0 369 2 409 18 453 21 52 55 77 107 77 20 0 30 5 30 15 0 13 -24
15 -158 15 l-159 0 -12 -27 c-7 -16 -87 -199 -178 -408 -91 -209 -168 -383
-172 -387 -4 -5 -83 179 -175 407 l-169 415 -173 0 c-148 0 -174 -2 -174 -15z"/>
<path d="M12117 4604 c-13 -13 5 -24 37 -24 43 0 81 -30 98 -78 19 -53 19
-850 0 -903 -17 -48 -40 -68 -91 -77 -24 -4 -42 -11 -42 -17 1 -15 483 -14
488 1 2 7 -15 13 -44 17 -59 6 -87 36 -102 107 -7 32 -11 191 -11 420 0 229 4
388 11 420 15 71 43 101 102 107 29 4 46 10 44 17 -4 12 -478 22 -490 10z"/>
<path d="M12785 4601 c-7 -12 2 -17 46 -25 45 -8 85 -46 100 -95 16 -50 24
-628 11 -757 -6 -56 -18 -116 -27 -133 -19 -38 -69 -71 -108 -71 -19 0 -27 -4
-25 -12 4 -10 54 -14 196 -16 166 -2 192 0 192 13 0 10 -10 15 -29 15 -49 0
-94 39 -115 100 -17 49 -19 95 -24 418 -2 203 -1 362 4 362 5 -1 173 -208 374
-460 285 -359 370 -459 388 -460 l22 0 0 433 c0 433 7 543 36 598 18 36 69 69
107 69 19 0 27 4 25 13 -4 9 -54 13 -196 15 -166 2 -192 0 -192 -13 0 -10 10
-15 28 -15 40 0 86 -32 108 -76 17 -35 19 -70 24 -367 3 -180 3 -327 0 -327
-3 1 -148 181 -323 400 l-318 400 -149 0 c-82 0 -151 -4 -155 -9z"/>
<path d="M15370 4595 c0 -10 10 -15 34 -15 46 0 92 -40 108 -93 18 -60 18
-814 0 -874 -16 -53 -62 -93 -108 -93 -24 0 -34 -5 -34 -15 0 -13 34 -15 245
-15 211 0 245 2 245 15 0 10 -10 15 -34 15 -19 0 -45 9 -61 22 -51 40 -58 74
-63 301 l-4 207 276 0 276 0 0 -197 c0 -109 -5 -215 -11 -235 -15 -57 -47 -88
-97 -95 -26 -4 -42 -11 -42 -19 0 -20 481 -16 488 4 2 8 -8 12 -31 12 -45 0
-92 39 -108 88 -17 51 -24 706 -10 813 16 119 47 159 122 159 20 0 29 4 27 13
-4 9 -64 13 -246 15 -211 2 -242 0 -242 -13 0 -11 10 -15 36 -15 45 0 87 -40
103 -96 6 -21 11 -114 11 -206 l0 -168 -276 0 -276 0 4 178 c5 193 14 232 63
270 16 13 42 22 61 22 24 0 34 5 34 15 0 13 -34 15 -245 15 -211 0 -245 -2
-245 -15z"/>
<path d="M17870 4595 c0 -10 10 -15 30 -15 17 0 46 -6 65 -14 56 -24 59 -48
60 -501 0 -290 -3 -411 -12 -440 -17 -56 -61 -95 -112 -102 -24 -3 -40 -10
-38 -17 2 -7 68 -12 205 -14 175 -2 202 0 202 13 0 9 -9 15 -25 15 -36 0 -86
23 -111 51 -45 51 -47 74 -52 484 -2 215 -1 387 3 383 4 -3 90 -215 192 -470
101 -255 189 -467 194 -473 6 -6 14 -4 22 5 8 8 101 218 207 465 106 248 197
454 201 459 11 13 11 -553 0 -695 -12 -153 -36 -194 -121 -209 -19 -3 -34 -10
-33 -15 2 -6 99 -11 248 -13 219 -3 245 -2 245 12 0 11 -9 16 -30 16 -46 0
-85 25 -106 67 -18 35 -19 67 -19 458 0 394 1 423 19 464 22 46 58 71 106 71
20 0 30 5 30 15 0 13 -22 15 -161 13 l-161 -3 -178 -412 c-97 -227 -179 -415
-181 -418 -3 -2 -81 185 -174 415 l-168 420 -174 0 c-147 0 -173 -2 -173 -15z"/>
</g>
</svg>
