<?xml version="1.0" encoding="UTF-8"?>
<svg version="1.1" xmlns="http://www.w3.org/2000/svg" width="200" height="98">
<path d="M0 0 C66 0 132 0 200 0 C200 32.34 200 64.68 200 98 C134 98 68 98 0 98 C0 65.66 0 33.32 0 0 Z " fill="#FDFCFB" transform="translate(0,0)"/>
<path d="M0 0 C53.46 0 106.92 0 162 0 C162 8 162 8 160.79296875 9.875 C156.33333333 13 156.33333333 13 153 13 C152.87625 13.78375 152.7525 14.5675 152.625 15.375 C152 18 152 18 150 20 C148.68 20 147.36 20 146 20 C145.9175 19.38125 145.835 18.7625 145.75 18.125 C145.18741541 15.81562433 145.18741541 15.81562433 142.9375 14.75 C141.9784375 14.37875 141.9784375 14.37875 141 14 C140.77054688 14.56332031 140.54109375 15.12664063 140.3046875 15.70703125 C135.90400211 23.44116995 122.28411519 34.77639001 113.71484375 37.80859375 C113.14894531 37.87175781 112.58304687 37.93492188 112 38 C110.39673958 36.39673958 110.75250451 34.71699591 110.6875 32.5 C110.73571612 26.86675008 112.46117254 22.93205908 115 18 C115.59490796 16.65087819 116.17941084 15.29708565 116.75 13.9375 C117.1625 12.968125 117.575 11.99875 118 11 C110.58517182 14.20185762 107.73736008 19.19266556 104 26 C103.67 26 103.34 26 103 26 C102.67 22.7 102.34 19.4 102 16 C95.54018326 14.65486961 95.54018326 14.65486961 89.625 16.9375 C88.75875 17.618125 87.8925 18.29875 87 19 C86.01 19 85.02 19 84 19 C84.99 17.68 85.98 16.36 87 15 C73.52267759 22.12540176 62.83048186 44.1759365 56.671875 57.67578125 C55.84340777 60.54169988 55.81582999 63.03235151 56 66 C56.33 66.33 56.66 66.66 57 67 C69.146084 66.77916211 77.47647714 58.13859778 86.09375 50.51171875 C89 48 89 48 91 47 C89.6077541 51.62675657 87.70479016 55.64686231 85.375 59.875 C84.42753906 61.60363281 84.42753906 61.60363281 83.4609375 63.3671875 C82.97882813 64.23601562 82.49671875 65.10484375 82 66 C86.34493671 64.52599708 87.78716296 61.39990034 89.8125 57.5625 C90.50844137 56.29838967 91.20638984 55.03538245 91.90625 53.7734375 C92.25429687 53.14147461 92.60234375 52.50951172 92.9609375 51.85839844 C94.50858239 49.09038318 96.14267646 46.38327445 97.8125 43.6875 C98.35519531 42.80449219 98.89789063 41.92148437 99.45703125 41.01171875 C101 39 101 39 104 38 C104.495 40.97 104.495 40.97 105 44 C111.436326 43.67358035 114.94378338 41.36288471 119.9375 37.4375 C120.62134766 36.91736328 121.30519531 36.39722656 122.00976562 35.86132812 C123.68247516 34.58632575 125.34256895 33.29480135 127 32 C127 35.38495802 126.37791659 36.40417726 124.65625 39.24609375 C124.15528809 40.07842529 123.65432617 40.91075684 123.13818359 41.76831055 C122.59758301 42.64914307 122.05698242 43.52997559 121.5 44.4375 C120.95553223 45.33315674 120.41106445 46.22881348 119.85009766 47.15161133 C108.03714031 66.48142984 108.03714031 66.48142984 105 68 C105.33 68.99 105.66 69.98 106 71 C99.16408898 73.23462173 92.15353036 74.14988368 85.0625 75.25 C71.497434 77.40085468 58.25556326 80.38160975 45 84 C44.01 82.35 43.02 80.7 42 79 C42.66 79 43.32 79 44 79 C44 78.34 44 77.68 44 77 C42.02 77.495 42.02 77.495 40 78 C40.78375 77.2575 41.5675 76.515 42.375 75.75 C44.56504531 73.45566682 45.82731386 71.87841142 47 69 C46.175 69.7425 45.35 70.485 44.5 71.25 C38.53495418 76.16732115 31.90851302 79.44596878 24 79 C20.15217214 77.47341612 18.69528436 75.81438982 17 72 C15.19918613 61.19511679 22.57915315 50.04461544 28.46875 41.43359375 C35.87773539 31.10016263 45.84158295 19.58399866 58 15 C61.39577997 14.52809362 64.61715353 14.39249449 68 15 C68.99 15.99 68.99 15.99 70 17 C69.8793992 20.32748559 69.33296196 21.6676759 66.9609375 24.03515625 C66.10757813 24.70417969 65.25421875 25.37320312 64.375 26.0625 C56.85677035 32.50516031 52.5317818 40.85891768 49 50 C52.15335947 50.07883399 54.29276324 49.57836251 56.7578125 47.5625 C61.51050502 42.47174986 65.47403792 36.71225591 69.4375 31 C70.23631592 29.87960327 70.23631592 29.87960327 71.05126953 28.73657227 C74.49538417 23.62618448 76.21289363 19.22941978 76 13 C75.1950483 9.57174316 75.1950483 9.57174316 74 7 C66.39616462 6.42799634 61.8866704 7.97074769 55.3125 11.6875 C54.08950195 12.34008789 54.08950195 12.34008789 52.84179688 13.00585938 C49.1412338 15.0251642 45.74507198 17.08029961 42.54296875 19.83203125 C40 22 40 22 38 22 C38 22.66 38 23.32 38 24 C36.49609375 25.4453125 36.49609375 25.4453125 34.4375 27.125 C20.67323175 38.90914545 10.54048441 54.65641145 6.1875 72.21484375 C5 75 5 75 0 78 C0 52.26 0 26.52 0 0 Z " fill="#FDFAF9" transform="translate(0,0)"/>
<path d="M0 0 C-1.11179163 3.33537489 -2.47411298 4.63707344 -5 7 C-4.360625 7.185625 -3.72125 7.37125 -3.0625 7.5625 C-1 9 -1 9 -0.25 12.625 C-0.1675 13.73875 -0.085 14.8525 0 16 C-0.0309375 14.2365625 -0.0309375 14.2365625 -0.0625 12.4375 C0.43998453 8.29939207 2.01739402 6.575709 5.1875 3.9375 C8.00987631 2.00991492 9.66835407 1.05414627 13.0625 0.5 C18.11827577 3.08167273 22.45272888 7.90545775 25 13 C26.04640399 24.95645217 23.49566018 32.71987292 15.98046875 41.93359375 C12.7269886 45.32825056 9.0512504 47.65958169 5 50 C4.278125 50.44085938 3.55625 50.88171875 2.8125 51.3359375 C-1.29057858 53.75382309 -5.29002349 55.49851378 -9.8125 57 C-14.24277459 58.55708395 -16.67321051 59.73421926 -19 64 C-20.81523126 67.84542412 -22.06523815 70.8909515 -21.8125 75.1875 C-22.03033348 78.45500213 -22.4456533 78.80400914 -24.8125 80.875 C-28 83 -28 83 -31 83 C-30.85866501 81.22880197 -30.71176792 79.45804713 -30.5625 77.6875 C-30.44068359 76.20830078 -30.44068359 76.20830078 -30.31640625 74.69921875 C-30 72 -30 72 -29 69 C-47.68041834 68.48428293 -65.97627701 69.73888533 -84 75 C-85.17046875 75.32097656 -86.3409375 75.64195313 -87.546875 75.97265625 C-93.81753935 77.71230258 -99.9804864 79.52404912 -106 82 C-106.99257812 82.40476562 -107.98515625 82.80953125 -109.0078125 83.2265625 C-114.65465079 85.49561245 -114.65465079 85.49561245 -120.125 88.14453125 C-123.03786434 89.47352561 -125.85225902 89.12106696 -129 89 C-128.67 87.68 -128.34 86.36 -128 85 C-126.02 84.505 -126.02 84.505 -124 84 C-124 82.02 -124 80.04 -124 78 C-110.12871078 73.48656533 -96.39695136 70.30402594 -82 68 C-81.06978027 67.84901855 -80.13956055 67.69803711 -79.18115234 67.54248047 C-73.79121848 66.66942985 -68.39783012 65.82276394 -63 65 C-63.495 63.02 -63.495 63.02 -64 61 C-63.01 60.67 -62.02 60.34 -61 60 C-59.23131836 57.60757484 -59.23131836 57.60757484 -57.5 54.5625 C-56.80112669 53.39041895 -56.10188594 52.21855695 -55.40234375 51.046875 C-55.02319824 50.40556641 -54.64405273 49.76425781 -54.25341797 49.10351562 C-51.89684318 45.14865619 -49.47227993 41.23507748 -47.0625 37.3125 C-46.11479479 35.76759558 -45.16810479 34.22206773 -44.22265625 32.67578125 C-43.81797119 32.01489502 -43.41328613 31.35400879 -42.99633789 30.6730957 C-41.9544604 28.97008296 -41.9544604 28.97008296 -41 27 C-41.48879639 27.36351563 -41.97759277 27.72703125 -42.48120117 28.1015625 C-44.7077741 29.74677447 -46.94728617 31.37341792 -49.1875 33 C-49.95642578 33.57234375 -50.72535156 34.1446875 -51.51757812 34.734375 C-52.26845703 35.27578125 -53.01933594 35.8171875 -53.79296875 36.375 C-54.4789917 36.87773438 -55.16501465 37.38046875 -55.87182617 37.8984375 C-58.4339873 39.22463585 -60.15205928 39.28059125 -63 39 C-64 38 -64 38 -64.0625 34.9375 C-64.041875 33.968125 -64.02125 32.99875 -64 32 C-68.61122169 36.09153123 -71.21279965 40.57367723 -74.0625 46 C-79.654352 56.55001786 -79.654352 56.55001786 -83 60 C-83.99 60 -84.98 60 -86 60 C-84.443154 55.98696492 -82.68861143 52.0907072 -80.875 48.1875 C-80.33617187 47.02605469 -79.79734375 45.86460938 -79.2421875 44.66796875 C-78.83226562 43.78753906 -78.42234375 42.90710937 -78 42 C-79.10794922 43.06927734 -79.10794922 43.06927734 -80.23828125 44.16015625 C-98.26204738 61.28019045 -98.26204738 61.28019045 -108.6875 62.25 C-111 62 -111 62 -113 60 C-113.204348 47.53477226 -104.58413677 37.17482063 -98 27.1875 C-97.41903564 26.30416992 -96.83807129 25.42083984 -96.23950195 24.51074219 C-88.49016784 12.96015577 -88.49016784 12.96015577 -84 9 C-83.01 9 -82.02 9 -81 9 C-81.33 10.32 -81.66 11.64 -82 13 C-81.21625 12.360625 -80.4325 11.72125 -79.625 11.0625 C-75.85179378 8.09783797 -73.81488239 7.51851176 -69 8 C-65.86842368 10.20056715 -65.11501777 11.50158965 -64.25 15.25 C-64.1675 16.1575 -64.085 17.065 -64 18 C-63.62488281 17.39671875 -63.24976562 16.7934375 -62.86328125 16.171875 C-57.50141212 7.7981751 -57.50141212 7.7981751 -53 5 C-52.01 5 -51.02 5 -50 5 C-50.52553222 9.2042578 -52.1082931 12.43993622 -54.0625 16.1328125 C-55.81117382 19.61558786 -56.11232152 22.35124308 -56.0625 26.1875 C-56.05347656 27.08855469 -56.04445313 27.98960938 -56.03515625 28.91796875 C-56.02355469 29.60503906 -56.01195313 30.29210937 -56 31 C-48.05154829 28.51610884 -41.852957 22.09899392 -35.625 16.8125 C-35.00568604 16.28930176 -34.38637207 15.76610352 -33.74829102 15.22705078 C-33.16362061 14.72544434 -32.5789502 14.22383789 -31.9765625 13.70703125 C-31.18886475 13.03377808 -31.18886475 13.03377808 -30.38525391 12.34692383 C-28.74778849 10.8490226 -28.74778849 10.8490226 -27 8 C-25.125 8.3125 -25.125 8.3125 -23 9 C-22.01 10.485 -22.01 10.485 -21 12 C-21.33 12.66 -21.66 13.32 -22 14 C-19.52372901 13.36078035 -19.52372901 13.36078035 -17 12 C-16.5359375 10.7934375 -16.5359375 10.7934375 -16.0625 9.5625 C-14.57110455 5.9656051 -12.47915562 5.56903096 -9 4 C-8.13375 3.278125 -7.2675 2.55625 -6.375 1.8125 C-4 0 -4 0 0 0 Z " fill="#FBF6F4" transform="translate(168,6)"/>
<path d="M0 0 C-0.52553222 4.2042578 -2.1082931 7.43993622 -4.0625 11.1328125 C-5.81117382 14.61558786 -6.11232152 17.35124308 -6.0625 21.1875 C-6.05347656 22.08855469 -6.04445312 22.98960938 -6.03515625 23.91796875 C-6.02355469 24.60503906 -6.01195312 25.29210937 -6 26 C0.50208787 23.96809754 5.43078793 19.40324993 10.453125 14.97265625 C11.06744385 14.43366699 11.6817627 13.89467773 12.31469727 13.33935547 C13.54713328 12.25231831 14.77185914 11.1564661 15.98803711 10.05126953 C19.22904176 7.18763281 21.50585793 5.31315114 26 5 C25.43993581 9.07236957 24.19412952 11.58382632 21.82421875 14.921875 C20.83748169 16.32505981 20.83748169 16.32505981 19.83081055 17.7565918 C18.76987183 19.23832886 18.76987183 19.23832886 17.6875 20.75 C16.96925049 21.76682861 16.25100098 22.78365723 15.51098633 23.83129883 C14.0473048 25.90190838 12.58010627 27.97003637 11.109375 30.03564453 C9.18867176 32.73485504 7.27882188 35.44121175 5.375 38.15234375 C0.08965827 45.67478822 0.08965827 45.67478822 -1.89697266 48.44677734 C-2.83434062 49.76672754 -3.73919356 51.10967244 -4.63671875 52.45703125 C-5.08660156 52.96621094 -5.53648438 53.47539063 -6 54 C-6.99 54 -7.98 54 -9 54 C-7.65033237 50.39765841 -6.03571453 47.17720315 -4.06640625 43.875 C-3.49986328 42.92109375 -2.93332031 41.9671875 -2.34960938 40.984375 C-1.75986328 39.99953125 -1.17011719 39.0146875 -0.5625 38 C0.31631836 36.52273437 0.31631836 36.52273437 1.21289062 35.015625 C3.79894604 30.67128673 6.39803677 26.3348251 9 22 C8.51120361 22.36351563 8.02240723 22.72703125 7.51879883 23.1015625 C5.2922259 24.74677447 3.05271383 26.37341792 0.8125 28 C0.04357422 28.57234375 -0.72535156 29.1446875 -1.51757812 29.734375 C-2.26845703 30.27578125 -3.01933594 30.8171875 -3.79296875 31.375 C-4.4789917 31.87773438 -5.16501465 32.38046875 -5.87182617 32.8984375 C-8.4339873 34.22463585 -10.15205928 34.28059125 -13 34 C-14 33 -14 33 -14.0625 29.9375 C-14.041875 28.968125 -14.02125 27.99875 -14 27 C-18.61122169 31.09153123 -21.21279965 35.57367723 -24.0625 41 C-29.654352 51.55001786 -29.654352 51.55001786 -33 55 C-33.99 55 -34.98 55 -36 55 C-34.443154 50.98696492 -32.68861143 47.0907072 -30.875 43.1875 C-30.33617187 42.02605469 -29.79734375 40.86460938 -29.2421875 39.66796875 C-28.83226562 38.78753906 -28.42234375 37.90710937 -28 37 C-29.10794922 38.06927734 -29.10794922 38.06927734 -30.23828125 39.16015625 C-48.26204738 56.28019045 -48.26204738 56.28019045 -58.6875 57.25 C-61 57 -61 57 -63 55 C-63.204348 42.53477226 -54.58413677 32.17482063 -48 22.1875 C-47.41903564 21.30416992 -46.83807129 20.42083984 -46.23950195 19.51074219 C-38.49016784 7.96015577 -38.49016784 7.96015577 -34 4 C-33.01 4 -32.02 4 -31 4 C-31.33 5.32 -31.66 6.64 -32 8 C-30.824375 7.0409375 -30.824375 7.0409375 -29.625 6.0625 C-25.85179378 3.09783797 -23.81488239 2.51851176 -19 3 C-15.86842368 5.20056715 -15.11501777 6.50158965 -14.25 10.25 C-14.1675 11.1575 -14.085 12.065 -14 13 C-13.62488281 12.39671875 -13.24976563 11.7934375 -12.86328125 11.171875 C-5.70967742 0 -5.70967742 0 0 0 Z " fill="#F9090B" transform="translate(118,11)"/>
<path d="M0 0 C5.12734016 2.45685049 9.45119498 7.33988995 12 12.4375 C13.04640399 24.39395217 10.49566018 32.15737292 2.98046875 41.37109375 C-0.2730114 44.76575056 -3.9487496 47.09708169 -8 49.4375 C-8.721875 49.87835938 -9.44375 50.31921875 -10.1875 50.7734375 C-14.29057858 53.19132309 -18.29002349 54.93601378 -22.8125 56.4375 C-27.24277459 57.99458395 -29.67321051 59.17171926 -32 63.4375 C-33.81523126 67.28292412 -35.06523815 70.3284515 -34.8125 74.625 C-35.03033348 77.89250213 -35.4456533 78.24150914 -37.8125 80.3125 C-41 82.4375 -41 82.4375 -44 82.4375 C-43.51051418 76.52482203 -41.69849319 72.21203032 -38.9375 67 C-38.56044922 66.26845703 -38.18339844 65.53691406 -37.79492188 64.78320312 C-36.87240704 62.99656047 -35.9374688 61.21634171 -35 59.4375 C-35.66 59.4375 -36.32 59.4375 -37 59.4375 C-37 58.7775 -37 58.1175 -37 57.4375 C-36.38125 57.375625 -35.7625 57.31375 -35.125 57.25 C-34.42375 56.981875 -33.7225 56.71375 -33 56.4375 C-32.2847157 54.79111287 -31.6307796 53.11807708 -31 51.4375 C-18.04360357 24.21690187 -18.04360357 24.21690187 -12.75 19.3828125 C-10.72992559 17.55251257 -10.72992559 17.55251257 -10.890625 14.8515625 C-11.00921875 13.93117188 -11.1278125 13.01078125 -11.25 12.0625 C-11.45182758 7.04372092 -11.45182758 7.04372092 -9.4453125 4.3515625 C-6.36255761 1.87372555 -3.92713108 0.57270662 0 0 Z " fill="#F81012" transform="translate(181,6.5625)"/>
<path d="M0 0 C2.29605325 2.29605325 2.38375203 3.05823424 2.75 6.1875 C2.84796875 6.92355469 2.9459375 7.65960938 3.046875 8.41796875 C2.90259981 16.3651271 -1.16159849 21.73065197 -5.625 28 C-6.21667969 28.86367188 -6.80835938 29.72734375 -7.41796875 30.6171875 C-11.19500746 35.98498766 -15.27383991 41.5866265 -21 45 C-23.74072266 45.1796875 -23.74072266 45.1796875 -26 45 C-23.63373208 33.16866041 -14.62639832 22.00101696 -5 15 C-5.495 12.525 -5.495 12.525 -6 10 C-14.99294264 8.74655888 -20.84937695 11.69499821 -28 17 C-38.2114838 25.66090281 -48.01360856 37.44168081 -53 50 C-53.29519531 50.73734375 -53.59039062 51.4746875 -53.89453125 52.234375 C-56.00312692 57.97283628 -57.18578879 62.96965086 -54.875 68.875 C-53.13210376 71.20014314 -53.13210376 71.20014314 -50.3125 71.9375 C-42.24235286 72.08976693 -34.14292309 68.90408495 -28.23828125 63.33984375 C-27.82964844 62.89769531 -27.42101563 62.45554688 -27 62 C-26.01 62.495 -26.01 62.495 -25 63 C-30.84702244 70.74335404 -38.50828494 76.50280314 -48 79 C-51.7265625 79.3359375 -51.7265625 79.3359375 -55.625 79.375 C-56.91664062 79.40335937 -58.20828125 79.43171875 -59.5390625 79.4609375 C-63 79 -63 79 -65.3984375 77.1640625 C-68.80368165 72.56283016 -68.64953711 67.48746873 -68 62 C-62.84966727 44.83992279 -51.06015689 29.94865417 -38 18 C-37.34 18 -36.68 18 -36 18 C-36 17.34 -36 16.68 -36 16 C-30.52576335 11.14447314 -23.81283297 7.59920667 -17.4375 4.0625 C-16.74213135 3.66087646 -16.0467627 3.25925293 -15.33032227 2.84545898 C-10.31742665 0.14494277 -5.70279873 -1.03260246 0 0 Z " fill="#F90A0B" transform="translate(74,6)"/>
<path d="M0 0 C-1.11179163 3.33537489 -2.47411298 4.63707344 -5 7 C-4.01 7.33 -3.02 7.66 -2 8 C-1.69537742 13.35458808 -2.4416558 16.7688953 -4.8125 21.5625 C-5.33457031 22.63628906 -5.85664063 23.71007812 -6.39453125 24.81640625 C-6.92433594 25.86699219 -7.45414063 26.91757812 -8 28 C-8.43699219 28.89203125 -8.87398437 29.7840625 -9.32421875 30.703125 C-11.80096371 35.57578874 -14.39725377 40.38122103 -17 45.1875 C-17.53367188 46.18458984 -18.06734375 47.18167969 -18.6171875 48.20898438 C-19.13539063 49.16482422 -19.65359375 50.12066406 -20.1875 51.10546875 C-20.65542969 51.97324951 -21.12335938 52.84103027 -21.60546875 53.73510742 C-22.90924923 55.85260944 -24.08493801 57.4220741 -26 59 C-26.66 59 -27.32 59 -28 59 C-26.4719611 53.90117545 -24.28963144 49.34334341 -21.875 44.625 C-21.50246094 43.88894531 -21.12992188 43.15289062 -20.74609375 42.39453125 C-19.8343878 40.59449642 -18.91770068 38.79698598 -18 37 C-31.84310723 40.30244061 -38.34086828 43.93284027 -46 56 C-47.58144501 58.12207438 -49.21166408 60.03726438 -51 62 C-51.66 62 -52.32 62 -53 62 C-51.16615027 56.80409244 -48.38092886 52.61765952 -44.8125 48.4375 C-42.84315269 46.16708166 -42.84315269 46.16708166 -42.5625 43.5625 C-41.56564861 39.02128809 -38.34567525 35.98805116 -34.70703125 33.31640625 C-31.15914773 30.28048283 -28.65554675 26.77449511 -25.9375 23 C-22.82121557 18.70489637 -19.78708506 14.73336754 -16 11 C-15.814375 9.9790625 -15.814375 9.9790625 -15.625 8.9375 C-15 7 -15 7 -12.25 5.5 C-11.1775 5.005 -10.105 4.51 -9 4 C-7.700625 2.9171875 -7.700625 2.9171875 -6.375 1.8125 C-4 0 -4 0 0 0 Z " fill="#F90D0F" transform="translate(168,6)"/>
<path d="M0 0 C2.00322669 2.35161394 2.02709831 3.64516549 1.79296875 6.7109375 C0.84636169 10.6372584 -0.91072804 13.62175343 -3.125 16.9375 C-3.53242432 17.5550415 -3.93984863 18.17258301 -4.35961914 18.80883789 C-9.72143907 26.75962986 -16.43461871 33.46943659 -25 38 C-27.7421875 38.25390625 -27.7421875 38.25390625 -30 38 C-30.33 37.67 -30.66 37.34 -31 37 C-30.79066446 24.23053195 -23.53646374 14.02638253 -15 5 C-6.63918851 -2.02062259 -6.63918851 -2.02062259 0 0 Z " fill="#FBF5F4" transform="translate(94,23)"/>
<path d="M0 0 C-0.33 1.65 -0.66 3.3 -1 5 C-2.0923999 5.10022461 -3.1847998 5.20044922 -4.31030273 5.30371094 C-8.45097936 5.68685428 -12.5900061 6.08591582 -16.72875977 6.48925781 C-18.50375174 6.66011779 -20.27913871 6.82693368 -22.05493164 6.98925781 C-41.45766577 8.76861979 -60.89692887 12.55383112 -79 20 C-79.99257812 20.40476562 -80.98515625 20.80953125 -82.0078125 21.2265625 C-87.65465079 23.49561245 -87.65465079 23.49561245 -93.125 26.14453125 C-96.03786434 27.47352561 -98.85225902 27.12106696 -102 27 C-101.67 25.68 -101.34 24.36 -101 23 C-99.68 22.67 -98.36 22.34 -97 22 C-97 20.02 -97 18.04 -97 16 C-83.12659224 11.485876 -69.40736708 8.26106935 -55 6 C-53.9063916 5.82726562 -52.8127832 5.65453125 -51.68603516 5.4765625 C-13.80967967 -0.44547354 -13.80967967 -0.44547354 0 0 Z " fill="#F91214" transform="translate(141,68)"/>
<path d="M0 0 C5.12734016 2.45685049 9.45119498 7.33988995 12 12.4375 C13.01831129 26.61552645 13.01831129 26.61552645 9 31.4375 C5.8828125 32.078125 5.8828125 32.078125 3 32.4375 C2.89042969 31.48488281 2.78085938 30.53226563 2.66796875 29.55078125 C2.50941406 28.29652344 2.35085937 27.04226562 2.1875 25.75 C2.03667969 24.50863281 1.88585937 23.26726563 1.73046875 21.98828125 C0.68924917 16.92695187 -0.69288015 14.30891323 -5 11.4375 C-4.67 12.0975 -4.34 12.7575 -4 13.4375 C-3.51794278 17.61532921 -3.58999095 20.46212685 -6.0625 23.875 C-9 26.4375 -9 26.4375 -12.8125 26.8125 C-13.864375 26.68875 -14.91625 26.565 -16 26.4375 C-15.75 24.1875 -15.75 24.1875 -15 21.4375 C-14.319375 20.90125 -13.63875 20.365 -12.9375 19.8125 C-10.49253671 16.81544822 -10.95035844 15.82071616 -11.25 12.0625 C-11.45182758 7.04372092 -11.45182758 7.04372092 -9.4453125 4.3515625 C-6.36255761 1.87372555 -3.92713108 0.57270662 0 0 Z " fill="#F90B0C" transform="translate(181,6.5625)"/>
<path d="M0 0 C3.83360612 1.77057272 5.26657917 3.03789524 7 7 C8.80154121 13.80716579 7.9197485 18.4809973 4.71484375 24.67578125 C0.80664125 29.97277553 -4.59906431 33.15779332 -10.25 36.3125 C-10.87390625 36.67150391 -11.4978125 37.03050781 -12.140625 37.40039062 C-16.73574405 40 -16.73574405 40 -19 40 C-17.51150427 34.51333552 -14.85618437 30.30509549 -11.75 25.625 C-11.28464844 24.90828125 -10.81929687 24.1915625 -10.33984375 23.453125 C-7.91993555 19.75993177 -5.40949272 16.23220889 -2.6640625 12.7734375 C-0.39237772 9.78410685 0.73812671 7.87335154 0.375 4 C0.32085937 3.236875 0.26671875 2.47375 0.2109375 1.6875 C0.14132813 1.130625 0.07171875 0.57375 0 0 Z " fill="#FBF5F4" transform="translate(176,18)"/>
<path d="M0 0 C1.32 0 2.64 0 4 0 C3.43993581 4.07236957 2.19412952 6.58382632 -0.17578125 9.921875 C-1.16251831 11.32505981 -1.16251831 11.32505981 -2.16918945 12.7565918 C-2.87648193 13.7444165 -3.58377441 14.73224121 -4.3125 15.75 C-5.03074951 16.76682861 -5.74899902 17.78365723 -6.48901367 18.83129883 C-7.9526952 20.90190838 -9.41989373 22.97003637 -10.890625 25.03564453 C-12.81132824 27.73485504 -14.72117812 30.44121175 -16.625 33.15234375 C-21.91034173 40.67478822 -21.91034173 40.67478822 -23.89697266 43.44677734 C-24.83434062 44.76672754 -25.73919356 46.10967244 -26.63671875 47.45703125 C-27.08660156 47.96621094 -27.53648438 48.47539063 -28 49 C-28.99 49 -29.98 49 -31 49 C-29.65033237 45.39765841 -28.03571453 42.17720315 -26.06640625 38.875 C-25.49986328 37.92109375 -24.93332031 36.9671875 -24.34960938 35.984375 C-23.75986328 34.99953125 -23.17011719 34.0146875 -22.5625 33 C-21.97662109 32.01515625 -21.39074219 31.0303125 -20.78710938 30.015625 C-18.20105396 25.67128673 -15.60196323 21.3348251 -13 17 C-13.44915771 17.33322266 -13.89831543 17.66644531 -14.36108398 18.00976562 C-16.38474754 19.50896981 -18.41107821 21.00452644 -20.4375 22.5 C-21.14455078 23.02464844 -21.85160156 23.54929687 -22.58007812 24.08984375 C-23.25361328 24.58613281 -23.92714844 25.08242188 -24.62109375 25.59375 C-25.2442749 26.05458984 -25.86745605 26.51542969 -26.50952148 26.99023438 C-28 28 -28 28 -29 28 C-29 25.69 -29 23.38 -29 21 C-28.25621094 20.89300781 -27.51242188 20.78601563 -26.74609375 20.67578125 C-23.7951915 19.94959905 -22.39967809 19.089639 -20.0625 17.1875 C-19.30066406 16.57003906 -18.53882812 15.95257813 -17.75390625 15.31640625 C-8.65184592 7.90491752 -8.65184592 7.90491752 0 0 Z " fill="#F80D0E" transform="translate(140,16)"/>
<path d="M0 0 C1.65 0.33 3.3 0.66 5 1 C5.33 2.98 5.66 4.96 6 7 C7.32 5.02 8.64 3.04 10 1 C11.18334564 4.55003693 10.79896199 5.06304713 9.25 8.3125 C8.90453125 9.05113281 8.5590625 9.78976563 8.203125 10.55078125 C7.80609375 11.35902344 7.4090625 12.16726562 7 13 C6.37351563 14.28390625 6.37351563 14.28390625 5.734375 15.59375 C3.23543487 20.50157837 0.62247113 25.34479668 -2 30.1875 C-2.53367188 31.18458984 -3.06734375 32.18167969 -3.6171875 33.20898438 C-4.13539063 34.16482422 -4.65359375 35.12066406 -5.1875 36.10546875 C-5.88939453 37.40713989 -5.88939453 37.40713989 -6.60546875 38.73510742 C-7.90924923 40.85260944 -9.08493801 42.4220741 -11 44 C-11.66 44 -12.32 44 -13 44 C-11.4719611 38.90117545 -9.28963144 34.34334341 -6.875 29.625 C-6.50246094 28.88894531 -6.12992188 28.15289062 -5.74609375 27.39453125 C-4.8343878 25.59449642 -3.91770068 23.79698598 -3 22 C-3.66 21.67 -4.32 21.34 -5 21 C-4.67 20.67 -4.34 20.34 -4 20 C-7.3 19.67 -10.6 19.34 -14 19 C-9.69731334 12.33083568 -5.04089608 6.12839905 0 0 Z " fill="#F71516" transform="translate(153,21)"/>
<path d="M0 0 C1.875 0.3125 1.875 0.3125 4 1 C4.66 1.99 5.32 2.98 6 4 C5.67 4.66 5.34 5.32 5 6 C5.99 6.33 6.98 6.66 8 7 C5.82498844 9.88463791 3.63279129 12.7557743 1.4375 15.625 C0.52387695 16.83736328 0.52387695 16.83736328 -0.40820312 18.07421875 C-3.81210054 22.5046884 -7.18860496 26.32420755 -11.60205078 29.7668457 C-13.63659589 31.56155184 -14.27372244 33.42501591 -15 36 C-16.91270347 41.7381104 -20.65371596 45.88246775 -25 50 C-25 49.34 -25 48.68 -25 48 C-25.66 47.67 -26.32 47.34 -27 47 C-26.195625 45.88431641 -26.195625 45.88431641 -25.375 44.74609375 C-18.9724576 35.83590056 -12.69584619 26.84077725 -6.44726562 17.82202148 C-5.45436523 16.39031616 -5.45436523 16.39031616 -4.44140625 14.9296875 C-3.85045166 14.07616699 -3.25949707 13.22264648 -2.65063477 12.34326172 C-1.57518088 10.81653395 -0.46857375 9.31113999 0.67211914 7.83251953 C2.08769805 5.87897379 2.57917049 4.35664526 3 2 C2.01 2 1.02 2 0 2 C0 1.34 0 0.68 0 0 Z " fill="#F9EAE7" transform="translate(141,14)"/>
<path d="M0 0 C1 2 1 2 1 5 C2.32 5.33 3.64 5.66 5 6 C5.33 5.34 5.66 4.68 6 4 C6 8.58957777 4.93965852 10.45839365 2.75 14.4375 C2.14671875 15.54996094 1.5434375 16.66242187 0.921875 17.80859375 C-0.8763791 20.79471894 -2.61946759 23.45283032 -5 26 C-5.99 26 -6.98 26 -8 26 C-6.443154 21.98696492 -4.68861143 18.0907072 -2.875 14.1875 C-2.33617188 13.02605469 -1.79734375 11.86460938 -1.2421875 10.66796875 C-0.83226563 9.78753906 -0.42234375 8.90710937 0 8 C-0.7734375 8.73605469 -1.546875 9.47210938 -2.34375 10.23046875 C-7.93281476 15.48796359 -13.25590595 20.23887062 -20 24 C-20.33 22.68 -20.66 21.36 -21 20 C-20.29875 19.52691406 -19.5975 19.05382812 -18.875 18.56640625 C-11.31719983 13.29853738 -5.12693787 7.6904068 0 0 Z " fill="#F81316" transform="translate(90,40)"/>
<path d="M0 0 C0.33 0 0.66 0 1 0 C1.33463884 1.5119591 1.61562499 3.03582778 1.875 4.5625 C2.11863281 5.83287109 2.11863281 5.83287109 2.3671875 7.12890625 C1.88163337 10.92552628 0.19659309 12.35686335 -2.3515625 15.10083008 C-5.10080565 18.26824159 -6.96336107 21.88081458 -8.9375 25.5625 C-9.36498535 26.34101318 -9.7924707 27.11952637 -10.23291016 27.92163086 C-12.26707003 31.65626297 -14.22576099 35.41236499 -16.05859375 39.25 C-16.36869385 39.89638428 -16.67879395 40.54276855 -16.99829102 41.20874023 C-17.82461626 42.95596597 -18.6279278 44.71402253 -19.4296875 46.47265625 C-21 49 -21 49 -23.1953125 49.87109375 C-23.79085937 49.91363281 -24.38640625 49.95617188 -25 50 C-25 50.66 -25 51.32 -25 52 C-24.34 52.33 -23.68 52.66 -23 53 C-23.99 53 -24.98 53 -26 53 C-25.40776424 49.15906311 -24.27254262 46.29658571 -22.3828125 42.91015625 C-21.85816406 41.96076172 -21.33351562 41.01136719 -20.79296875 40.03320312 C-19.96732422 38.56270508 -19.96732422 38.56270508 -19.125 37.0625 C-18.04339083 35.11637424 -16.96263711 33.16977275 -15.8828125 31.22265625 C-15.37508301 30.30822754 -14.86735352 29.39379883 -14.34423828 28.45166016 C-12.81866168 25.66927 -11.38112196 22.85678502 -10 20 C-9.48179687 18.9378125 -8.96359375 17.875625 -8.4296875 16.78125 C-7.66011719 15.15703125 -7.66011719 15.15703125 -6.875 13.5 C-6.09769531 11.87578125 -6.09769531 11.87578125 -5.3046875 10.21875 C-4.04059484 7.10015014 -3.41104066 4.32842684 -3 1 C-2.67 1 -2.34 1 -2 1 C-1.67 3.31 -1.34 5.62 -1 8 C-0.67 5.36 -0.34 2.72 0 0 Z " fill="#FADAD6" transform="translate(169,14)"/>
<path d="M0 0 C-1.11179163 3.33537489 -2.47411298 4.63707344 -5 7 C-4.01 7.33 -3.02 7.66 -2 8 C-1.75 11.3125 -1.75 11.3125 -2 15 C-3.875 16.625 -3.875 16.625 -6 18 C-7.26847685 20.58498512 -7.26847685 20.58498512 -8 23 C-8.66 22.67 -9.32 22.34 -10 22 C-10.103125 21.030625 -10.20625 20.06125 -10.3125 19.0625 C-10.539375 18.051875 -10.76625 17.04125 -11 16 C-13.46255685 14.54708727 -13.46255685 14.54708727 -16 14 C-15.875 10.6875 -15.875 10.6875 -15 7 C-12.25 5.3125 -12.25 5.3125 -9 4 C-7.700625 2.9171875 -7.700625 2.9171875 -6.375 1.8125 C-4 0 -4 0 0 0 Z " fill="#F80404" transform="translate(168,6)"/>
<path d="M0 0 C1.65 0.33 3.3 0.66 5 1 C4.60561975 7.17862384 2.49757159 13.50242841 -2 18 C-4.01594582 18.23427778 -6.038474 18.41336124 -8.0625 18.5625 C-9.71958984 18.68818359 -9.71958984 18.68818359 -11.41015625 18.81640625 C-12.26480469 18.87699219 -13.11945313 18.93757813 -14 19 C-9.73796376 12.31635226 -5.03409271 6.12012793 0 0 Z " fill="#FBEFEE" transform="translate(153,21)"/>
<path d="M0 0 C2.33333333 2.33333333 4.66666667 4.66666667 7 7 C-0.65870628 17.40043249 -0.65870628 17.40043249 -6 21 C-8.875 21.3125 -8.875 21.3125 -11 21 C-9.6077988 14.038994 -5.93164367 8.82328355 -2 3 C-1.34 2.01 -0.68 1.02 0 0 Z " fill="#F60D0F" transform="translate(59,30)"/>
<path d="M0 0 C-0.66 1.32 -1.32 2.64 -2 4 C-1.01 4.66 -0.02 5.32 1 6 C1 6.66 1 7.32 1 8 C-0.134375 8.639375 -1.26875 9.27875 -2.4375 9.9375 C-7.41053152 12.88415391 -10.51582715 16.94965278 -14.01953125 21.4765625 C-15.59236927 23.48061252 -17.14920511 25.26013603 -19 27 C-19 26.34 -19 25.68 -19 25 C-19.66 24.67 -20.32 24.34 -21 24 C-4.89320388 0 -4.89320388 0 0 0 Z " fill="#F81115" transform="translate(87,15)"/>
<path d="M0 0 C4.3782512 -0.02469081 8.75646567 -0.04285557 13.13476562 -0.05493164 C14.62468166 -0.05996514 16.11459274 -0.06679242 17.60449219 -0.07543945 C19.74415304 -0.08754805 21.88374868 -0.09323807 24.0234375 -0.09765625 C25.31169434 -0.10289307 26.59995117 -0.10812988 27.92724609 -0.11352539 C31 0 31 0 33 1 C33 1.66 33 2.32 33 3 C32.37955811 3.02505615 31.75911621 3.0501123 31.11987305 3.07592773 C28.30887603 3.19196721 25.49820759 3.31465759 22.6875 3.4375 C21.71103516 3.47681641 20.73457031 3.51613281 19.72851562 3.55664062 C18.79072266 3.59853516 17.85292969 3.64042969 16.88671875 3.68359375 C16.02264404 3.72025146 15.15856934 3.75690918 14.26831055 3.79467773 C11.8352174 3.92747354 11.8352174 3.92747354 9 5 C7.43881572 5.06740865 5.8749748 5.08514456 4.3125 5.0625 C3.10013672 5.04896484 3.10013672 5.04896484 1.86328125 5.03515625 C0.94095703 5.01775391 0.94095703 5.01775391 0 5 C0 3.35 0 1.7 0 0 Z " fill="#F91112" transform="translate(153,67)"/>
<path d="M0 0 C0.66 0.66 1.32 1.32 2 2 C1.83927104 6.22622628 -1.29272423 9.03936922 -3.9375 12.0625 C-6.43864515 14.96694154 -8.86872943 17.80309415 -11 21 C-10.67 21.66 -10.34 22.32 -10 23 C-10.99 23 -11.98 23 -13 23 C-14.41544275 17.72843214 -14.41544275 17.72843214 -12.55859375 14.47265625 C-11.50865234 13.27962891 -11.50865234 13.27962891 -10.4375 12.0625 C-9.70402344 11.21042969 -8.97054687 10.35835937 -8.21484375 9.48046875 C-7.48394531 8.66191406 -6.75304687 7.84335937 -6 7 C-4.83148621 5.62656939 -3.66454952 4.25179356 -2.5 2.875 C-1.675 1.92625 -0.85 0.9775 0 0 Z " fill="#F8191C" transform="translate(151,18)"/>
<path d="M0 0 C2.31 0 4.62 0 7 0 C7.12375 0.61875 7.2475 1.2375 7.375 1.875 C7.87197356 4.19120832 7.87197356 4.19120832 10 6 C8.57164495 8.77564009 7.13075535 11.54458238 5.6875 14.3125 C5.28337891 15.09818359 4.87925781 15.88386719 4.46289062 16.69335938 C4.06650391 17.45068359 3.67011719 18.20800781 3.26171875 18.98828125 C2.90037842 19.68477783 2.53903809 20.38127441 2.16674805 21.09887695 C0.95785174 23.06867723 -0.23315838 24.51227109 -2 26 C-2.66 26 -3.32 26 -4 26 C-2.4719611 20.90117545 -0.28963144 16.34334341 2.125 11.625 C2.49753906 10.88894531 2.87007812 10.15289062 3.25390625 9.39453125 C4.1656122 7.59449642 5.08229932 5.79698598 6 4 C5.34 3.67 4.68 3.34 4 3 C4.33 2.67 4.66 2.34 5 2 C3.35 1.67 1.7 1.34 0 1 C0 0.67 0 0.34 0 0 Z " fill="#F81517" transform="translate(144,39)"/>
<path d="M0 0 C0.33 0.66 0.66 1.32 1 2 C-0.24125182 4.61161731 -1.5310524 7.10501786 -2.9375 9.625 C-3.32357422 10.33140625 -3.70964844 11.0378125 -4.10742188 11.765625 C-5.06448696 13.51433651 -6.03134031 15.25768432 -7 17 C-7.66 17 -8.32 17 -9 17 C-9 16.34 -9 15.68 -9 15 C-9.66 14.67 -10.32 14.34 -11 14 C-10.34 14 -9.68 14 -9 14 C-9.33 13.34 -9.66 12.68 -10 12 C-10.391875 12.474375 -10.78375 12.94875 -11.1875 13.4375 C-13.40808374 15.35179633 -15.13375709 15.61266988 -18 16 C-14.99616068 12.88254028 -11.81005084 10.14930618 -8.4375 7.4375 C-4.04811569 3.9063154 -4.04811569 3.9063154 0 0 Z " fill="#F8F8F6" transform="translate(90,47)"/>
<path d="M0 0 C3.83360612 1.77057272 5.26657917 3.03789524 7 7 C8.7342398 15.8986403 8.7342398 15.8986403 6 20 C4.68373308 16.38026598 4 13.90432869 4 10 C2.02 10.66 0.04 11.32 -2 12 C-1.34 11.01 -0.68 10.02 0 9 C0.24107326 6.71351152 0.24107326 6.71351152 0.125 4.3125 C0.10695312 3.50425781 0.08890625 2.69601563 0.0703125 1.86328125 C0.04710937 1.24839844 0.02390625 0.63351563 0 0 Z " fill="#FAE6E2" transform="translate(176,18)"/>
<path d="M0 0 C0 0.66 0 1.32 0 2 C2.64 2 5.28 2 8 2 C8 2.33 8 2.66 8 3 C7.3709375 3.02578125 6.741875 3.0515625 6.09375 3.078125 C-0.23015102 3.49717868 -4.50558326 4.8457978 -10 8 C-10.99 7.34 -11.98 6.68 -13 6 C-14.98 6.99 -14.98 6.99 -17 8 C-12.48725056 3.07700062 -7.16229542 -2.60447106 0 0 Z " fill="#F92021" transform="translate(60,12)"/>
<path d="M0 0 C-0.33 1.65 -0.66 3.3 -1 5 C-3.29160319 5.02692484 -5.58329546 5.04636124 -7.875 5.0625 C-9.15117187 5.07410156 -10.42734375 5.08570312 -11.7421875 5.09765625 C-15 5 -15 5 -17 4 C-17 3.34 -17 2.68 -17 2 C-11.21642935 -0.01167675 -6.09781001 -0.22084624 0 0 Z " fill="#FB0C0F" transform="translate(141,68)"/>
<path d="M0 0 C0.4125 0.495 0.825 0.99 1.25 1.5 C3.12202338 3.43386092 3.12202338 3.43386092 7 3 C5.49087042 7.98012761 2.44338151 11.24259942 -1 15 C-1.33 14.01 -1.66 13.02 -2 12 C-1.67 11.34 -1.34 10.68 -1 10 C-2.32 10.99 -3.64 11.98 -5 13 C-5.66 12.67 -6.32 12.34 -7 12 C-6.401875 11.319375 -5.80375 10.63875 -5.1875 9.9375 C-2.76412357 6.68325166 -1.4747599 3.76063775 0 0 Z " fill="#F71518" transform="translate(183,35)"/>
<path d="M0 0 C-1.11179163 3.33537489 -2.47411298 4.63707344 -5 7 C-4.01 7.33 -3.02 7.66 -2 8 C-2 10.31 -2 12.62 -2 15 C-2.33 13.68 -2.66 12.36 -3 11 C-3.66 11 -4.32 11 -5 11 C-5 10.34 -5 9.68 -5 9 C-9.53140653 8.06619039 -9.53140653 8.06619039 -14 9 C-14.33 9.66 -14.66 10.32 -15 11 C-15 9.68 -15 8.36 -15 7 C-14.113125 6.5875 -13.22625 6.175 -12.3125 5.75 C-8.97612546 4.13370186 -8.97612546 4.13370186 -6.375 1.8125 C-4 0 -4 0 0 0 Z " fill="#F61619" transform="translate(168,6)"/>
<path d="M0 0 C0.66 0.33 1.32 0.66 2 1 C1.2884375 1.8353125 1.2884375 1.8353125 0.5625 2.6875 C-1.14797212 4.85297777 -1.14797212 4.85297777 -1.3125 7.25 C-2.68045594 12.72182376 -7.00322001 17.1468169 -11 21 C-11 20.34 -11 19.68 -11 19 C-11.66 18.67 -12.32 18.34 -13 18 C-11.39642346 15.74957738 -9.79216064 13.49964941 -8.1875 11.25 C-7.73568359 10.61578125 -7.28386719 9.9815625 -6.81835938 9.328125 C-4.58023369 6.19148171 -2.33201302 3.06803042 0 0 Z " fill="#FADBD9" transform="translate(127,43)"/>
<path d="M0 0 C0.66 1.32 1.32 2.64 2 4 C-0.47634988 5.83716289 -2.95653322 7.66907801 -5.4375 9.5 C-6.49807617 10.28697266 -6.49807617 10.28697266 -7.58007812 11.08984375 C-8.25361328 11.58613281 -8.92714844 12.08242188 -9.62109375 12.59375 C-10.2442749 13.05458984 -10.86745605 13.51542969 -11.50952148 13.99023438 C-13 15 -13 15 -14 15 C-14 12.69 -14 10.38 -14 8 C-13.27425781 7.90847656 -12.54851562 7.81695312 -11.80078125 7.72265625 C-8.53345769 6.87962297 -6.7832937 5.56837543 -4.1875 3.4375 C-3.39730469 2.79683594 -2.60710937 2.15617187 -1.79296875 1.49609375 C-1.20128906 1.00238281 -0.60960938 0.50867188 0 0 Z " fill="#FA1A1F" transform="translate(125,29)"/>
<path d="M0 0 C0 0.66 0 1.32 0 2 C0.99 2.66 1.98 3.32 3 4 C1.27192682 4.33895656 -0.45751974 4.67091525 -2.1875 5 C-3.63189453 5.2784375 -3.63189453 5.2784375 -5.10546875 5.5625 C-7.7934206 5.96877612 -10.28771019 6.07933572 -13 6 C-13.33 4.68 -13.66 3.36 -14 2 C-4.58997722 -0.29612756 -4.58997722 -0.29612756 0 0 Z " fill="#FA0C0B" transform="translate(104,72)"/>
<path d="M0 0 C0.99 1.32 1.98 2.64 3 4 C1.76447525 5.98823522 0.51106266 7.96536368 -0.75 9.9375 C-1.44609375 11.03964844 -2.1421875 12.14179687 -2.859375 13.27734375 C-5 16 -5 16 -7.265625 16.87890625 C-7.83796875 16.91886719 -8.4103125 16.95882812 -9 17 C-7.51481201 12.95698825 -5.57122002 9.38853744 -3.375 5.6875 C-2.74335937 4.61886719 -2.11171875 3.55023438 -1.4609375 2.44921875 C-0.97882813 1.64097656 -0.49671875 0.83273438 0 0 Z " fill="#F81B1E" transform="translate(118,48)"/>
<path d="M0 0 C0.33 0 0.66 0 1 0 C2.06873535 3.04028366 2.40526817 5.1289668 1.02197266 8.10205078 C-0.47232802 10.48412662 -2.05025136 12.77635327 -3.6875 15.0625 C-4.23083984 15.85205078 -4.77417969 16.64160156 -5.33398438 17.45507812 C-8.08377884 21.4218312 -10.92242866 25.27845996 -14 29 C-14.33 28.01 -14.66 27.02 -15 26 C-13.84423828 23.81103516 -13.84423828 23.81103516 -12.0703125 21.2890625 C-11.43996094 20.37382813 -10.80960937 19.45859375 -10.16015625 18.515625 C-9.48855469 17.56171875 -8.81695312 16.6078125 -8.125 15.625 C-6.80762128 13.74741557 -5.49742871 11.8647636 -4.1953125 9.9765625 C-3.60766113 9.14205566 -3.02000977 8.30754883 -2.41455078 7.44775391 C-0.95129421 4.91571897 -0.39507633 2.87988163 0 0 Z " fill="#FBD4D2" transform="translate(76,17)"/>
<path d="M0 0 C1.32 1.65 2.64 3.3 4 5 C-0.93654267 12.68490153 -0.93654267 12.68490153 -5.375 14 C-6.24125 14 -7.1075 14 -8 14 C-5.67001891 9.09477665 -2.9286937 4.56089058 0 0 Z " fill="#FA3A3B" transform="translate(59,30)"/>
<path d="M0 0 C0.721875 0.00257812 1.44375 0.00515625 2.1875 0.0078125 C2.909375 0.00523438 3.63125 0.00265625 4.375 0 C6.1875 0.1328125 6.1875 0.1328125 7.1875 1.1328125 C7.22813832 2.79898365 7.230221 4.46669345 7.1875 6.1328125 C5.90875 6.2771875 4.63 6.4215625 3.3125 6.5703125 C0.93057106 6.83923996 -0.65702691 7.05507596 -2.8125 8.1328125 C-2.85491723 5.79986475 -2.85342937 3.46578683 -2.8125 1.1328125 C-1.8125 0.1328125 -1.8125 0.1328125 0 0 Z " fill="#FBF1F0" transform="translate(65.8125,-0.1328125)"/>
<path d="M0 0 C0.99 0.33 1.98 0.66 3 1 C-4.15789474 14.05263158 -4.15789474 14.05263158 -10 16 C-7.83132416 9.85541845 -4.11043158 4.99123834 0 0 Z " fill="#F71C1F" transform="translate(125,52)"/>
<path d="M0 0 C-0.53115106 4.51478398 -2.36620292 7.34666857 -5 11 C-5.61875 10.2884375 -5.61875 10.2884375 -6.25 9.5625 C-8.2004723 7.82100687 -9.48852019 7.53446781 -12 7 C-10.76125579 5.821389 -9.5085199 4.65747085 -8.25 3.5 C-7.55390625 2.8503125 -6.8578125 2.200625 -6.140625 1.53125 C-4 0 -4 0 0 0 Z " fill="#F81315" transform="translate(144,16)"/>
<path d="M0 0 C2 3 2 3 1.625 5.1875 C1.41875 5.785625 1.2125 6.38375 1 7 C0.34 7 -0.32 7 -1 7 C-0.6596875 7.86625 -0.6596875 7.86625 -0.3125 8.75 C0 11 0 11 -1.3125 13.25 C-1.869375 13.8275 -2.42625 14.405 -3 15 C-3.66 15 -4.32 15 -5 15 C-5 13.35 -5 11.7 -5 10 C-5.66 10 -6.32 10 -7 10 C-7 9.34 -7 8.68 -7 8 C-6.38125 7.938125 -5.7625 7.87625 -5.125 7.8125 C-2.74397155 7.17948312 -2.74397155 7.17948312 -1.8125 4.5625 C-1.4103125 3.2940625 -1.4103125 3.2940625 -1 2 C-0.67 1.34 -0.34 0.68 0 0 Z " fill="#F71012" transform="translate(151,56)"/>
<path d="M0 0 C0.66 0.33 1.32 0.66 2 1 C1.34 1.66 0.68 2.32 0 3 C4.95 3.33 9.9 3.66 15 4 C15 4.33 15 4.66 15 5 C8.4 5 1.8 5 -5 5 C-5 6.65 -5 8.3 -5 10 C-6.32 9.34 -7.64 8.68 -9 8 C-7.60415208 4.62670085 -6.07634389 2.95767338 -3 1 C-2.01 0.67 -1.02 0.34 0 0 Z " fill="#FBC4BF" transform="translate(158,62)"/>
<path d="M0 0 C0.33 0.66 0.66 1.32 1 2 C2.32 2 3.64 2 5 2 C5.99 2 6.98 2 8 2 C8 2.66 8 3.32 8 4 C3.44573816 6.66590937 0.26053037 7.31563182 -5 7 C-4.67 5.68 -4.34 4.36 -4 3 C-2.68 2.67 -1.36 2.34 0 2 C0 1.34 0 0.68 0 0 Z " fill="#F71112" transform="translate(44,88)"/>
<path d="M0 0 C1.98 0 3.96 0 6 0 C6 1.65 6 3.3 6 5 C6.66 5.33 7.32 5.66 8 6 C6.35 8.97 4.7 11.94 3 15 C2 11 2 11 3 8 C-0.63 7.67 -4.26 7.34 -8 7 C-8 6.67 -8 6.34 -8 6 C-2.06 5.505 -2.06 5.505 4 5 C4.33 3.68 4.66 2.36 5 1 C3.35 1 1.7 1 0 1 C0 0.67 0 0.34 0 0 Z " fill="#FBDCD3" transform="translate(136,67)"/>
<path d="M0 0 C2.31 0 4.62 0 7 0 C7 3 7 3 5.875 4.75 C4 6 4 6 0.8125 5.6875 C-0.115625 5.460625 -1.04375 5.23375 -2 5 C-1.34 3.35 -0.68 1.7 0 0 Z " fill="#FB0304" transform="translate(73,77)"/>
<path d="M0 0 C1.512545 5.16044765 2.33500455 8.65998179 1 14 C0.01 13.67 -0.98 13.34 -2 13 C-1.67 10.03 -1.34 7.06 -1 4 C-2.32 4.33 -3.64 4.66 -5 5 C-5.33 4.01 -5.66 3.02 -6 2 C-2.25 0 -2.25 0 0 0 Z " fill="#F9FCF8" transform="translate(180,28)"/>
<path d="M0 0 C1.24546405 2.49092811 0.7767578 3.41080733 0 6 C0.66 6 1.32 6 2 6 C0.80873219 8.38253561 -0.38694426 9.12188876 -2.5625 10.625 C-3.20316406 11.07101563 -3.84382813 11.51703125 -4.50390625 11.9765625 C-4.99761719 12.31429687 -5.49132812 12.65203125 -6 13 C-6.71484375 11.296875 -6.71484375 11.296875 -7 9 C-5.56640625 6.640625 -5.56640625 6.640625 -3.5625 4.25 C-2.57443359 3.05117188 -2.57443359 3.05117188 -1.56640625 1.828125 C-1.04949219 1.22484375 -0.53257813 0.6215625 0 0 Z " fill="#F72024" transform="translate(90,40)"/>
<path d="M0 0 C0 3.31246505 -0.55697235 4.36108136 -2.25 7.125 C-2.87648438 8.18074219 -2.87648438 8.18074219 -3.515625 9.2578125 C-5.26426684 11.31016581 -6.37417256 11.629691 -9 12 C-8.15768093 7.22685859 -7.41153884 4.90030913 -3.375 2.0625 C-2.26125 1.381875 -1.1475 0.70125 0 0 Z " fill="#F9F7F4" transform="translate(127,32)"/>
<path d="M0 0 C0.66 0.33 1.32 0.66 2 1 C-1.55015735 5.59506182 -4.47710509 8.76454254 -10 11 C-10 10.34 -10 9.68 -10 9 C-10.66 8.67 -11.32 8.34 -12 8 C-11.38511719 7.67386719 -10.77023438 7.34773438 -10.13671875 7.01171875 C-8.92435547 6.35623047 -8.92435547 6.35623047 -7.6875 5.6875 C-6.88699219 5.25824219 -6.08648437 4.82898438 -5.26171875 4.38671875 C-3.16212728 3.09940446 -1.64552279 1.81593292 0 0 Z " fill="#F62729" transform="translate(47,68)"/>
<path d="M0 0 C0.66 0 1.32 0 2 0 C2.04254356 1.99954746 2.04080783 4.00041636 2 6 C1.67 6.33 1.34 6.66 1 7 C0.7834375 7.9590625 0.7834375 7.9590625 0.5625 8.9375 C0 11 0 11 -2 13 C-3.71050559 8.02398374 -2.00885647 4.57383705 0 0 Z " fill="#FCE0DC" transform="translate(148,70)"/>
<path d="M0 0 C0.66 0.33 1.32 0.66 2 1 C-0.00530737 4.00796105 -1.58687035 5.72007638 -5 7 C-5.99 7 -6.98 7 -8 7 C-8 7.66 -8 8.32 -8 9 C-8.66 9 -9.32 9 -10 9 C-10 8.34 -10 7.68 -10 7 C-10.66 6.67 -11.32 6.34 -12 6 C-11.38511719 5.73445313 -10.77023438 5.46890625 -10.13671875 5.1953125 C-9.32847656 4.84210938 -8.52023438 4.48890625 -7.6875 4.125 C-6.88699219 3.77695313 -6.08648437 3.42890625 -5.26171875 3.0703125 C-2.8038166 1.97428106 -2.8038166 1.97428106 0 0 Z " fill="#FAD8D4" transform="translate(38,78)"/>
<path d="M0 0 C-0.33 1.98 -0.66 3.96 -1 6 C-5.75 7.125 -5.75 7.125 -8 6 C-6.72879117 2.18637351 -4.19078006 0 0 0 Z " fill="#F80707" transform="translate(182,45)"/>
<path d="M0 0 C0.33 0.66 0.66 1.32 1 2 C1.66 2.33 2.32 2.66 3 3 C1.35 5.31 -0.3 7.62 -2 10 C-2.33 9.34 -2.66 8.68 -3 8 C-3.66 7.67 -4.32 7.34 -5 7 C-3.35 4.69 -1.7 2.38 0 0 Z " fill="#F71F24" transform="translate(71,32)"/>
<path d="M0 0 C0.99 0.99 1.98 1.98 3 3 C1.1875 6 1.1875 6 -1 9 C-1.99 9 -2.98 9 -4 9 C-2.80100302 5.9168649 -1.52299523 2.93720508 0 0 Z " fill="#F72427" transform="translate(86,57)"/>
<path d="M0 0 C1 3 1 3 0.0625 5.1875 C-0.4634375 6.0846875 -0.4634375 6.0846875 -1 7 C0.32 7.33 1.64 7.66 3 8 C-2.75 11 -2.75 11 -5 11 C-3.77472971 6.94718288 -2.30119506 3.55639236 0 0 Z " fill="#FADCD7" transform="translate(162,47)"/>
<path d="M0 0 C2.97 1.98 2.97 1.98 6 4 C4.8125 5.5 4.8125 5.5 3 7 C0.3125 7.1875 0.3125 7.1875 -2 7 C-1.34 4.69 -0.68 2.38 0 0 Z " fill="#F91214" transform="translate(50,44)"/>
<path d="M0 0 C0.33 0 0.66 0 1 0 C1.875 2.4375 1.875 2.4375 2 6 C0.29484528 9.22667738 -1.78223317 12.10726066 -4 15 C-4.99 14.67 -5.98 14.34 -7 14 C-6.57847656 13.40832031 -6.15695313 12.81664062 -5.72265625 12.20703125 C-4.90087891 11.02173828 -4.90087891 11.02173828 -4.0625 9.8125 C-3.51722656 9.03519531 -2.97195312 8.25789063 -2.41015625 7.45703125 C-0.9543711 4.92049701 -0.40386565 2.8781818 0 0 Z " fill="#FBCBC7" transform="translate(76,17)"/>
<path d="M0 0 C-0.75 4.75 -0.75 4.75 -3 7 C-3 6.34 -3 5.68 -3 5 C-4.65 5 -6.3 5 -8 5 C-3.375 0 -3.375 0 0 0 Z " fill="#F71418" transform="translate(118,11)"/>
<path d="M0 0 C0.66 0.99 1.32 1.98 2 3 C2.99 2.67 3.98 2.34 5 2 C4.25 6.75 4.25 6.75 2 9 C2 8.01 2 7.02 2 6 C0.68 5.67 -0.64 5.34 -2 5 C-1.34 3.35 -0.68 1.7 0 0 Z " fill="#F61313" transform="translate(70,18)"/>
<path d="M0 0 C0.33 0.99 0.66 1.98 1 3 C0.01 3.66 -0.98 4.32 -2 5 C-2.33 5.66 -2.66 6.32 -3 7 C-4.32 6.34 -5.64 5.68 -7 5 C-7 4.34 -7 3.68 -7 3 C-6.21625 2.690625 -5.4325 2.38125 -4.625 2.0625 C-2.07669872 1.07124962 -2.07669872 1.07124962 0 0 Z " fill="#F90301" transform="translate(58,41)"/>
<path d="M0 0 C0.4125 0.495 0.825 0.99 1.25 1.5 C3.12202338 3.43386092 3.12202338 3.43386092 7 3 C6.34 4.65 5.68 6.3 5 8 C3.68 7.67 2.36 7.34 1 7 C1 6.34 1 5.68 1 5 C0.34 5 -0.32 5 -1 5 C-0.67 3.35 -0.34 1.7 0 0 Z " fill="#FA1F22" transform="translate(183,35)"/>
<path d="M0 0 C0.625 1.875 0.625 1.875 1 4 C0.34 4.66 -0.32 5.32 -1 6 C-3.125 5.625 -3.125 5.625 -5 5 C-5.33 5.99 -5.66 6.98 -6 8 C-6.33 6.68 -6.66 5.36 -7 4 C-6.1028125 3.566875 -6.1028125 3.566875 -5.1875 3.125 C-2.80672208 1.95257974 -2.80672208 1.95257974 0 0 Z " fill="#F60908" transform="translate(168,34)"/>
<path d="M0 0 C1.875 0.3125 1.875 0.3125 4 1 C4.66 1.99 5.32 2.98 6 4 C5.67 4.66 5.34 5.32 5 6 C5.99 6.33 6.98 6.66 8 7 C7.01 7.66 6.02 8.32 5 9 C3.4375 7.75 3.4375 7.75 2 6 C2.3125 3.8125 2.3125 3.8125 3 2 C2.01 2 1.02 2 0 2 C0 1.34 0 0.68 0 0 Z " fill="#F9E4E1" transform="translate(141,14)"/>
<path d="M0 0 C0.66 0.33 1.32 0.66 2 1 C1.2884375 1.8353125 1.2884375 1.8353125 0.5625 2.6875 C-1.12395996 5.18346074 -1.58953107 7.0446237 -2 10 C-3.65 10 -5.3 10 -7 10 C-6.02223933 8.51990357 -5.0427506 7.04094856 -4.0625 5.5625 C-3.51722656 4.73878906 -2.97195312 3.91507813 -2.41015625 3.06640625 C-1 1 -1 1 0 0 Z " fill="#FBCAC2" transform="translate(127,43)"/>
<path d="M0 0 C0.66 0 1.32 0 2 0 C2.1875 2.375 2.1875 2.375 2 5 C-1 7 -1 7 -4 7 C-2.92598892 4.08482708 -2.22189824 2.22189824 0 0 Z " fill="#F9D5D1" transform="translate(102,38)"/>
<path d="M0 0 C0.66 0 1.32 0 2 0 C2.33 0.99 2.66 1.98 3 3 C-0.25978366 5.22257977 -3.44774296 7.28564986 -7 9 C-6.02180976 7.68677212 -5.0424189 6.37443848 -4.0625 5.0625 C-3.51722656 4.33160156 -2.97195312 3.60070313 -2.41015625 2.84765625 C-1 1 -1 1 0 0 Z " fill="#F51718" transform="translate(29,31)"/>
<path d="M0 0 C-1.20842856 4.43090471 -2.51668565 6.98112756 -6 10 C-5.71872579 8.51882199 -5.42466268 7.04006751 -5.125 5.5625 C-4.96257812 4.73878906 -4.80015625 3.91507813 -4.6328125 3.06640625 C-4.42398438 2.38449219 -4.21515625 1.70257812 -4 1 C-2 0 -2 0 0 0 Z " fill="#FAEFEA" transform="translate(165,29)"/>
<path d="M0 0 C0.33 0.66 0.66 1.32 1 2 C1.66 2.33 2.32 2.66 3 3 C2.34 4.98 1.68 6.96 1 9 C0.34 8.34 -0.32 7.68 -1 7 C-1.99 7.66 -2.98 8.32 -4 9 C-2.80100302 5.9168649 -1.52299523 2.93720508 0 0 Z " fill="#F82529" transform="translate(145,69)"/>
<path d="M0 0 C0.33 0.66 0.66 1.32 1 2 C0.22265625 3.9453125 0.22265625 3.9453125 -0.9375 6.125 C-1.31777344 6.84945312 -1.69804688 7.57390625 -2.08984375 8.3203125 C-2.54037109 9.15175781 -2.54037109 9.15175781 -3 10 C-3.33 9.01 -3.66 8.02 -4 7 C-4.99 6.67 -5.98 6.34 -7 6 C-4.69 4.02 -2.38 2.04 0 0 Z " fill="#FBE2DA" transform="translate(90,47)"/>
<path d="M0 0 C2.64 0 5.28 0 8 0 C8.33 0.66 8.66 1.32 9 2 C2.25 3.125 2.25 3.125 0 2 C0 1.34 0 0.68 0 0 Z M-1 3 C2 4 2 4 2 4 Z " fill="#F50402" transform="translate(141,40)"/>
<path d="M0 0 C0.66 0.33 1.32 0.66 2 1 C2 1.99 2 2.98 2 4 C-0.375 5.0625 -0.375 5.0625 -3 6 C-3.66 5.67 -4.32 5.34 -5 5 C-5 4.34 -5 3.68 -5 3 C-2.625 1.3125 -2.625 1.3125 0 0 Z " fill="#F7090B" transform="translate(47,17)"/>
<path d="M0 0 C0.33 0 0.66 0 1 0 C1.66 4.29 2.32 8.58 3 13 C1.68 12.67 0.36 12.34 -1 12 C-0.67 8.04 -0.34 4.08 0 0 Z " fill="#FADCD5" transform="translate(5,70)"/>
<path d="M0 0 C0.99 0.33 1.98 0.66 3 1 C2.49396008 3.16874252 2.00016187 4.99967627 1 7 C0.01 7 -0.98 7 -2 7 C-1.125 2.25 -1.125 2.25 0 0 Z " fill="#F80C0F" transform="translate(57,33)"/>
<path d="M0 0 C0.66 0 1.32 0 2 0 C1.25 4.75 1.25 4.75 -1 7 C-1 6.34 -1 5.68 -1 5 C-2.32 5.33 -3.64 5.66 -5 6 C-3.38405168 3.95880212 -1.7143618 1.95927063 0 0 Z " fill="#FAEBE4" transform="translate(60,44)"/>
<path d="M0 0 C1.32 0 2.64 0 4 0 C4.33 1.32 4.66 2.64 5 4 C2.525 5.485 2.525 5.485 0 7 C0 4.69 0 2.38 0 0 Z " fill="#F61E21" transform="translate(111,37)"/>
<path d="M0 0 C1.65 0.33 3.3 0.66 5 1 C3.8553125 1.8971875 3.8553125 1.8971875 2.6875 2.8125 C0.6516425 4.46959332 -1.1978279 6.10297674 -3 8 C-3.33 6.68 -3.66 5.36 -4 4 C-3.01 3.67 -2.02 3.34 -1 3 C-0.67 2.01 -0.34 1.02 0 0 Z " fill="#FAE9E3" transform="translate(82,13)"/>
<path d="M0 0 C2.31 0 4.62 0 7 0 C5.515 1.98 5.515 1.98 4 4 C2.68 3.67 1.36 3.34 0 3 C0 2.01 0 1.02 0 0 Z " fill="#F90202" transform="translate(90,74)"/>
<path d="M0 0 C0 3 0 3 -2.1875 5.625 C-5.00654002 8.00552268 -6.39755548 8.69121904 -10 9 C-6.85281112 5.7317654 -3.50647501 2.8689341 0 0 Z " fill="#FAD3CF" transform="translate(82,54)"/>
<path d="M0 0 C1.32 0.33 2.64 0.66 4 1 C3.34 1 2.68 1 2 1 C2 1.66 2 2.32 2 3 C3.32 3.66 4.64 4.32 6 5 C3.03 5 0.06 5 -3 5 C-2.01 4.67 -1.02 4.34 0 4 C0 2.68 0 1.36 0 0 Z " fill="#F82A30" transform="translate(122,69)"/>
<path d="M0 0 C0.33 0.66 0.66 1.32 1 2 C1.66 2.33 2.32 2.66 3 3 C1.71937515 4.7074998 0.38232443 6.37373596 -1 8 C-1.66 8 -2.32 8 -3 8 C-1.125 2.25 -1.125 2.25 0 0 Z " fill="#F83034" transform="translate(143,57)"/>
<path d="M0 0 C-0.56371414 3.26954202 -1.49962266 4.82575883 -4 7 C-4.66 6.67 -5.32 6.34 -6 6 C-3.84615385 0 -3.84615385 0 0 0 Z " fill="#FAEEEB" transform="translate(124,52)"/>
<path d="M0 0 C0.433125 0.9590625 0.433125 0.9590625 0.875 1.9375 C1.82823451 4.15206079 1.82823451 4.15206079 4 5 C4 6.65 4 8.3 4 10 C3.34 10 2.68 10 2 10 C2 8.68 2 7.36 2 6 C0.68 5.67 -0.64 5.34 -2 5 C-1.34 3.35 -0.68 1.7 0 0 Z " fill="#F92227" transform="translate(154,49)"/>
<path d="M0 0 C0.99 0.33 1.98 0.66 3 1 C2.67 2.65 2.34 4.3 2 6 C0.68 6 -0.64 6 -2 6 C-1.49396008 3.83125748 -1.00016187 2.00032373 0 0 Z " fill="#F8FCFD" transform="translate(163,48)"/>
<path d="M0 0 C-1.75 5.75 -1.75 5.75 -4 8 C-4.33 7.01 -4.66 6.02 -5 5 C-4.67 4.34 -4.34 3.68 -4 3 C-4.66 2.34 -5.32 1.68 -6 1 C-3.92446352 0.4465236 -2.15634036 0 0 0 Z " fill="#FCD6D2" transform="translate(150,43)"/>
<path d="M0 0 C0.33 0.66 0.66 1.32 1 2 C2.65 1.67 4.3 1.34 6 1 C6 2.32 6 3.64 6 5 C4.35 5 2.7 5 1 5 C0.67 3.35 0.34 1.7 0 0 Z " fill="#F7110F" transform="translate(104,40)"/>
<path d="M0 0 C0.99 0 1.98 0 3 0 C3 0.66 3 1.32 3 2 C2.01 2.495 2.01 2.495 1 3 C-0.13350534 5.01669827 -0.13350534 5.01669827 -1 7 C-1.99 6.67 -2.98 6.34 -4 6 C-2.1875 3 -2.1875 3 0 0 Z " fill="#F7E5E3" transform="translate(71,38)"/>
<path d="M0 0 C1.32 0 2.64 0 4 0 C3.25 1.9375 3.25 1.9375 2 4 C-0.125 4.75 -0.125 4.75 -2 5 C-1.125 1.125 -1.125 1.125 0 0 Z " fill="#F81314" transform="translate(117,35)"/>
<path d="M0 0 C0.33 0.99 0.66 1.98 1 3 C-1 5 -1 5 -3.625 5.125 C-4.40875 5.08375 -5.1925 5.0425 -6 5 C-3.375 1.125 -3.375 1.125 0 0 Z " fill="#FAFAF8" transform="translate(152,26)"/>
<path d="M0 0 C0.99 0.33 1.98 0.66 3 1 C3 1.66 3 2.32 3 3 C4.32 3.33 5.64 3.66 7 4 C6.01 4 5.02 4 4 4 C3.67 4.66 3.34 5.32 3 6 C1.68 4.68 0.36 3.36 -1 2 C-0.67 1.34 -0.34 0.68 0 0 Z " fill="#F80402" transform="translate(45,86)"/>
<path d="M0 0 C0.33 0 0.66 0 1 0 C1 1.98 1 3.96 1 6 C-0.32 6.33 -1.64 6.66 -3 7 C-2.25 2.25 -2.25 2.25 0 0 Z " fill="#FA0301" transform="translate(144,75)"/>
<path d="M0 0 C0.99 0.99 1.98 1.98 3 3 C2.34 4.32 1.68 5.64 1 7 C0.34 6.67 -0.32 6.34 -1 6 C-1.042721 4.33388095 -1.04063832 2.66617115 -1 1 C-0.67 0.67 -0.34 0.34 0 0 Z " fill="#F90303" transform="translate(60,52)"/>
<path d="M0 0 C0.33 0.66 0.66 1.32 1 2 C1.99 2 2.98 2 4 2 C4 2.66 4 3.32 4 4 C2.35 4.66 0.7 5.32 -1 6 C-1.33 5.01 -1.66 4.02 -2 3 C-1.34 2.01 -0.68 1.02 0 0 Z " fill="#FDE7E7" transform="translate(130,50)"/>
<path d="M0 0 C0 3.90838866 -1.50567876 5.11594107 -4 8 C-4 7.01 -4 6.02 -4 5 C-4.66 4.67 -5.32 4.34 -6 4 C-4.02 2.68 -2.04 1.36 0 0 Z " fill="#FAD2CA" transform="translate(127,32)"/>
<path d="M0 0 C2.64 0 5.28 0 8 0 C8 0.99 8 1.98 8 3 C5.69 3 3.38 3 1 3 C0.67 2.01 0.34 1.02 0 0 Z " fill="#F70301" transform="translate(63,11)"/>
<path d="M0 0 C1.98 0.495 1.98 0.495 4 1 C3.67 1.33 3.34 1.66 3 2 C3.99 2.66 4.98 3.32 6 4 C3.69 4 1.38 4 -1 4 C-0.67 2.68 -0.34 1.36 0 0 Z " fill="#F72529" transform="translate(40,91)"/>
<path d="M0 0 C0.66 0 1.32 0 2 0 C1.6875 2.375 1.6875 2.375 1 5 C0.01 5.66 -0.98 6.32 -2 7 C-2 5.35 -2 3.7 -2 2 C-1.34 2 -0.68 2 0 2 C0 1.34 0 0.68 0 0 Z " fill="#FAE4DC" transform="translate(68,17)"/>
<path d="M0 0 C0.66 0 1.32 0 2 0 C2.1875 2.875 2.1875 2.875 2 6 C1.01 6.66 0.02 7.32 -1 8 C-1.125 2.25 -1.125 2.25 0 0 Z " fill="#F8EAE9" transform="translate(148,70)"/>
<path d="M0 0 C-0.33 0.99 -0.66 1.98 -1 3 C-2.65 2.67 -4.3 2.34 -6 2 C-6 1.34 -6 0.68 -6 0 C-3.50907189 -1.24546405 -2.58919267 -0.7767578 0 0 Z " fill="#FB0204" transform="translate(130,70)"/>
<path d="M0 0 C0.99 0 1.98 0 3 0 C2.67 1.32 2.34 2.64 2 4 C0.68 4.33 -0.64 4.66 -2 5 C-1.34 3.35 -0.68 1.7 0 0 Z " fill="#F62E32" transform="translate(111,60)"/>
<path d="M0 0 C0.33 0.99 0.66 1.98 1 3 C-0.375 4.5 -0.375 4.5 -2 6 C-2.66 6 -3.32 6 -4 6 C-3.6875 4.125 -3.6875 4.125 -3 2 C-2.01 1.34 -1.02 0.68 0 0 Z " fill="#F91111" transform="translate(116,55)"/>
<path d="M0 0 C2.475 0.495 2.475 0.495 5 1 C4.34 2.32 3.68 3.64 3 5 C2.01 4.67 1.02 4.34 0 4 C0 2.68 0 1.36 0 0 Z " fill="#F60606" transform="translate(151,39)"/>
<path d="M0 0 C5.625 -0.25 5.625 -0.25 9 2 C8.67 2.66 8.34 3.32 8 4 C5.9375 4.625 5.9375 4.625 4 5 C4.33 3.68 4.66 2.36 5 1 C3.35 1 1.7 1 0 1 C0 0.67 0 0.34 0 0 Z " fill="#F52528" transform="translate(93,14)"/>
<path d="M0 0 C1.11375 0.185625 1.11375 0.185625 2.25 0.375 C-0.63087546 2.77572955 -3.31404834 4.84791037 -6.75 6.375 C-3.42692308 0.46730769 -3.42692308 0.46730769 0 0 Z " fill="#FCD6D0" transform="translate(90.75,13.625)"/>
</svg>
