<?xml version="1.0" standalone="no"?>
<!DOCTYPE svg PUBLIC "-//W3C//DTD SVG 20010904//EN"
 "http://www.w3.org/TR/2001/REC-SVG-20010904/DTD/svg10.dtd">
<svg version="1.0" xmlns="http://www.w3.org/2000/svg"
 width="900.000000pt" height="290.000000pt" viewBox="0 0 900.000000 290.000000"
 preserveAspectRatio="xMidYMid meet">

<g transform="translate(0.000000,290.000000) scale(0.100000,-0.100000)"
fill="#000000" stroke="none">
<path d="M860 2830 c-342 -42 -633 -267 -749 -580 -61 -164 -73 -369 -33 -533
110 -447 542 -746 992 -687 444 58 771 406 797 850 14 255 -75 495 -252 675
-160 164 -335 249 -558 274 -105 12 -102 12 -197 1z m343 -44 c456 -135 727
-589 627 -1051 -25 -115 -101 -270 -179 -367 -322 -400 -922 -441 -1295 -89
-135 129 -211 258 -262 451 -25 94 -25 300 0 400 87 343 345 596 686 671 122
27 302 21 423 -15z"/>
<path d="M847 2789 c-163 -22 -345 -107 -468 -218 -109 -98 -216 -272 -255
-416 -24 -91 -30 -303 -10 -398 67 -327 311 -583 636 -668 117 -31 309 -31
425 0 490 130 769 645 606 1118 -134 390 -532 638 -934 582z m-149 -119 c16 0
15 -10 -5 -32 -19 -21 -8 -23 27 -3 14 8 30 14 37 15 14 0 43 -88 35 -108 -7
-19 -27 -9 -28 14 -2 36 -15 64 -31 64 -10 0 -14 -6 -10 -17 8 -32 9 -38 8
-55 -1 -22 -38 -12 -46 13 -4 10 -11 19 -16 19 -12 0 -11 -10 6 -40 8 -14 14
-33 15 -44 0 -32 -28 1 -41 47 -8 31 -8 42 3 48 9 6 10 13 3 26 -6 10 -9 33
-7 51 3 32 5 33 21 18 10 -9 23 -16 29 -16z m547 1 c-4 -21 -2 -30 9 -34 24
-9 19 -25 -9 -29 l-24 -3 20 -44 c11 -24 18 -49 16 -55 -6 -18 -47 33 -47 59
0 30 -4 31 -37 5 -14 -11 -37 -20 -52 -20 -23 0 -21 3 22 30 44 28 60 50 36
50 -6 0 -9 6 -6 13 2 6 13 11 24 9 15 -2 22 4 27 23 9 35 29 32 21 -4z m-96
-194 c169 -59 303 -193 361 -360 30 -86 38 -231 16 -317 -51 -205 -193 -357
-396 -426 -84 -29 -263 -26 -352 4 -175 60 -318 211 -376 396 -11 34 -16 87
-16 161 1 123 21 194 85 301 70 116 219 224 357 259 87 22 229 14 321 -18z
m-819 -37 c0 -5 9 -10 20 -10 13 0 18 -5 14 -15 -4 -9 0 -15 10 -15 9 0 16 7
16 15 0 8 5 15 10 15 6 0 10 -8 10 -19 0 -26 -40 -50 -67 -40 -24 9 -40 29
-23 29 6 0 8 5 5 10 -5 8 -11 7 -21 -1 -17 -14 -18 -5 -4 22 11 20 30 26 30 9z
m1310 -30 c0 -5 7 -10 16 -10 11 0 14 -6 9 -21 -6 -18 -4 -20 14 -14 14 4 21
2 21 -7 0 -14 -20 -48 -20 -34 0 5 -7 3 -15 -4 -8 -6 -23 -9 -35 -5 -19 6 -21
5 -11 -13 6 -12 11 -25 11 -31 0 -18 -20 -13 -28 7 -4 9 -17 18 -30 20 -19 1
-22 -2 -18 -16 5 -15 1 -19 -21 -19 -16 0 -34 -2 -42 -4 -8 -2 -17 4 -19 14
-3 13 2 16 20 15 19 -3 22 1 20 20 -2 12 2 22 7 22 6 0 11 -4 11 -10 0 -5 7
-10 16 -10 8 0 13 4 9 9 -3 5 -1 13 5 16 18 11 -8 34 -30 28 -14 -4 -20 0 -20
11 0 18 35 22 45 6 4 -6 19 0 38 15 34 27 47 31 47 15z m-1320 -50 c6 -11 15
-19 21 -17 6 1 12 -13 14 -30 3 -40 -4 -41 -56 -4 -22 17 -45 31 -51 33 -7 3
-5 14 6 31 15 22 22 25 37 17 10 -6 23 -19 29 -30z m114 -9 c16 -18 16 -21 1
-50 -16 -32 -23 -32 -57 -3 -16 13 -16 17 -2 43 17 34 34 37 58 10z m56 -29
c0 -16 -52 -82 -60 -77 -11 7 37 85 51 85 5 0 9 -3 9 -8z m-222 -390 c4 -28
-24 -40 -45 -19 -14 13 -14 19 -3 32 18 22 44 15 48 -13z m1440 0 c4 -28 -24
-40 -45 -19 -14 13 -14 19 -3 32 18 22 44 15 48 -13z m-1460 -226 c15 4 35 11
46 16 13 7 21 6 27 -3 6 -10 -5 -17 -43 -26 -44 -12 -54 -11 -66 1 -9 9 -11
19 -6 28 7 10 9 9 12 -5 3 -13 10 -16 30 -11z m1442 -46 c13 0 17 -5 14 -15
-5 -11 -10 -12 -26 -4 -18 10 -39 8 -90 -7 -12 -4 -15 0 -11 15 4 16 11 19 28
15 31 -8 40 11 16 35 -11 11 -17 22 -13 25 3 4 19 -10 35 -29 15 -19 37 -35
47 -35z m-1340 -15 c0 -8 -5 -15 -10 -15 -6 0 -30 -9 -52 -20 -49 -24 -48 -23
-48 -7 0 6 22 22 48 34 58 26 62 27 62 8z m1216 -54 c-16 -18 -15 -20 19 -40
20 -11 40 -21 46 -21 5 0 9 -4 9 -8 0 -21 -15 -19 -49 3 -42 30 -58 31 -63 8
-2 -10 -6 -13 -10 -8 -7 13 38 85 54 85 6 0 4 -8 -6 -19z m-1186 -11 c0 -11
-7 -36 -14 -55 -17 -40 -10 -44 26 -15 14 10 28 17 31 13 7 -6 -77 -63 -93
-63 -6 0 -1 23 9 50 21 55 18 59 -19 30 -27 -21 -40 -25 -40 -12 0 5 16 16 35
25 20 9 38 24 41 32 9 22 24 18 24 -5z m1122 -87 c2 -5 20 -22 40 -40 26 -22
33 -34 25 -40 -12 -9 -99 71 -89 82 8 7 20 6 24 -2z m-1032 -89 c-11 -25 -20
-53 -20 -61 0 -13 -3 -13 -15 -3 -12 10 -13 16 -4 26 9 11 8 18 -1 29 -14 17
-40 20 -40 5 0 -5 -4 -10 -10 -10 -40 0 49 57 92 59 16 1 16 -3 -2 -45z m985
26 c4 -6 -5 -10 -19 -10 -17 0 -26 -6 -26 -16 0 -12 9 -15 41 -12 55 4 75 -21
42 -53 -15 -16 -27 -19 -40 -13 -15 7 -14 8 10 12 47 6 33 32 -17 32 -53 0
-70 24 -36 52 25 20 36 22 45 8z m-885 -102 c0 -46 13 -49 30 -8 7 17 16 30
21 30 14 0 11 -9 -23 -58 -28 -40 -32 -43 -39 -26 -4 10 -8 35 -8 54 -1 37
-10 34 -34 -13 -8 -16 -17 -24 -21 -19 -3 5 6 25 19 45 14 20 25 44 25 54 1
38 30 -20 30 -59z m789 18 c6 -7 9 -21 5 -30 -5 -12 2 -18 26 -22 21 -5 28
-10 21 -17 -7 -7 -20 -6 -41 3 -38 16 -46 10 -20 -17 13 -15 16 -23 7 -26 -7
-3 -27 17 -45 44 l-32 48 22 16 c28 19 42 19 57 1z m-656 -42 c13 -5 13 -9 1
-32 -8 -15 -14 -39 -14 -54 0 -23 4 -28 25 -28 21 0 27 7 37 45 7 25 18 45 24
45 10 0 9 -7 -2 -27 -7 -16 -14 -33 -14 -39 0 -6 -8 -18 -19 -28 -14 -13 -24
-14 -44 -7 -33 13 -37 28 -21 75 8 21 11 42 8 47 -6 10 -1 11 19 3z m547 -4
c0 -5 -3 -9 -7 -9 -24 4 -43 -3 -43 -15 0 -21 18 -30 34 -17 7 6 16 8 19 4 13
-12 7 -23 -13 -23 -21 0 -26 -16 -12 -37 6 -10 12 -10 28 2 22 17 38 20 29 5
-5 -9 -69 -40 -82 -40 -2 0 -1 4 2 10 3 5 -3 31 -15 56 -11 26 -19 48 -18 49
41 23 78 30 78 15z m-392 -71 c32 -47 45 -49 40 -5 -2 22 0 35 6 33 11 -4 9
-67 -3 -101 -7 -18 -11 -14 -36 28 -15 26 -29 45 -31 44 -2 -2 -4 -20 -6 -41
-4 -61 -16 -42 -14 23 1 67 10 70 44 19z m266 -15 c-7 -31 -15 -58 -17 -60 -4
-5 -77 91 -77 101 0 3 8 5 18 5 10 0 19 -6 19 -13 0 -7 8 -26 19 -41 l19 -29
7 34 c4 19 5 40 3 47 -2 6 2 12 9 12 11 0 11 -9 0 -56z m-136 -21 c-4 -77 -23
-80 -23 -3 0 42 4 60 13 60 9 0 12 -15 10 -57z"/>
<path d="M899 2268 l-197 -91 16 -36 c10 -24 16 -67 16 -127 1 -81 -2 -94 -24
-127 -45 -65 -97 -79 -203 -52 -40 11 -35 -10 17 -61 l43 -44 282 0 282 0 18
43 c49 114 58 294 22 429 -20 78 -56 159 -69 157 -4 -1 -95 -42 -203 -91z m84
-138 c5 -25 11 -30 34 -30 l28 1 -28 15 c-29 16 -32 37 -5 42 17 3 99 -56 106
-75 3 -10 -14 -13 -61 -13 l-65 0 -4 -35 c-2 -19 0 -35 4 -35 4 0 8 11 8 25 0
24 2 25 70 25 63 0 70 -2 70 -20 0 -17 -7 -20 -52 -22 l-53 -1 55 -6 55 -6 -2
-39 c-4 -52 -36 -101 -90 -132 -34 -21 -47 -24 -56 -15 -9 10 -6 17 13 31 14
11 37 28 51 40 15 11 32 33 37 50 11 30 11 30 -26 29 -23 -1 -29 -3 -14 -6 24
-5 24 -5 16 -27 -4 -11 -20 -16 -53 -17 l-46 -2 40 -6 40 -6 -33 -18 c-22 -12
-35 -28 -39 -47 -8 -43 -43 -42 -43 0 0 23 -6 33 -24 40 -39 14 -41 30 -4 32
28 1 26 2 -12 7 -50 7 -69 36 -28 44 15 3 10 5 -14 6 -21 0 -38 -2 -38 -6 0
-21 44 -76 75 -94 41 -25 51 -65 13 -54 -65 20 -127 102 -128 168 0 26 2 27
58 29 l57 1 -55 6 c-30 3 -54 9 -52 14 1 4 2 12 2 17 0 7 25 10 67 8 62 -3 68
-5 74 -28 6 -21 7 -20 8 13 l1 37 -65 0 c-36 0 -65 4 -65 8 0 20 83 82 109 82
20 0 11 -37 -11 -48 -23 -10 -23 -11 5 -11 23 -1 27 3 27 28 0 27 15 44 31 35
4 -2 9 -17 12 -34z"/>
<path d="M948 1953 c12 -2 30 -2 40 0 9 3 -1 5 -23 4 -22 0 -30 -2 -17 -4z"/>
<path d="M1428 1894 c-15 -8 -31 -28 -38 -49 -6 -19 -16 -35 -21 -35 -9 0 -7
17 8 57 3 8 -3 10 -17 6 -21 -6 -51 -60 -66 -119 -6 -23 -4 -24 39 -24 48 0
67 12 91 58 15 29 39 112 34 117 -2 2 -15 -3 -30 -11z"/>
<path d="M1283 1852 c-13 -2 -23 -10 -23 -18 0 -8 -4 -14 -10 -14 -5 0 -10 5
-10 11 0 6 -9 9 -21 7 -15 -2 -27 -18 -40 -53 -23 -60 -23 -55 1 -55 10 0 23
7 28 16 8 15 10 15 15 0 4 -9 14 -16 24 -16 13 0 24 17 40 62 12 35 21 63 20
63 -1 1 -12 -1 -24 -3z"/>
<path d="M770 1635 c-11 -13 -10 -14 3 -9 13 5 17 -3 20 -43 l3 -48 2 58 c2
58 -5 69 -28 42z"/>
<path d="M867 1643 c-10 -9 -9 -51 1 -57 5 -3 6 8 4 25 -4 24 -1 29 17 29 27
0 38 -25 20 -47 -12 -14 -12 -15 -1 -9 10 6 13 3 10 -10 -4 -23 -37 -31 -50
-12 -8 10 -9 10 -5 -2 5 -20 34 -25 52 -10 18 15 20 71 3 88 -13 13 -41 16
-51 5z"/>
<path d="M972 1638 c-17 -17 -15 -73 3 -88 22 -18 48 -8 59 22 19 53 -27 101
-62 66z m46 -10 c28 -28 2 -88 -33 -74 -15 5 -22 66 -8 79 10 11 28 8 41 -5z"/>
<path d="M1084 1642 c-30 -21 -25 -87 7 -97 11 -4 27 -1 35 6 18 15 15 51 -6
56 -12 4 -12 3 -2 -5 20 -14 10 -47 -13 -47 -13 0 -21 8 -23 23 -2 13 2 22 10
22 10 0 9 3 -2 10 -12 7 -12 12 -2 22 10 10 17 10 32 0 11 -7 20 -8 20 -3 0
17 -38 26 -56 13z"/>
<path d="M1616 2345 c-11 -8 -16 -15 -10 -15 5 0 18 7 28 15 11 8 16 15 10 15
-5 0 -18 -7 -28 -15z"/>
<path d="M386 2325 c-3 -8 -1 -15 3 -15 5 0 11 7 15 15 3 8 1 15 -3 15 -5 0
-11 -7 -15 -15z"/>
<path d="M432 1421 c-11 -7 -11 -9 1 -14 9 -3 18 1 21 9 6 16 -2 18 -22 5z"/>
<path d="M1312 1323 c4 -21 33 -25 33 -3 0 8 -8 16 -18 18 -14 3 -18 -1 -15
-15z"/>
<path d="M2400 2005 c0 -337 3 -515 10 -515 7 0 10 178 10 515 0 337 -3 515
-10 515 -7 0 -10 -178 -10 -515z"/>
<path d="M3002 2028 l3 -493 27 -57 c49 -106 145 -173 359 -249 129 -46 165
-63 177 -85 8 -14 12 -13 33 8 13 13 60 37 104 53 229 81 329 134 385 205 67
85 65 64 68 613 l3 497 -581 0 -581 0 3 -492z m1148 22 c0 -253 -2 -460 -5
-460 -3 0 -129 86 -280 191 l-275 191 0 269 0 269 280 0 280 0 0 -460z m-843
425 c-5 -11 0 -13 26 -8 18 3 40 10 49 14 20 11 50 1 45 -15 -2 -6 2 -30 8
-53 9 -28 9 -43 3 -43 -6 0 -8 -12 -5 -26 4 -21 1 -25 -14 -21 -16 4 -17 2 -8
-15 6 -11 9 -20 7 -21 -2 -1 -13 -8 -25 -15 -15 -8 -23 -8 -23 -2 0 7 -6 8
-19 0 -11 -5 -38 -10 -60 -10 -40 0 -58 -11 -46 -30 4 -6 12 -4 21 5 21 20 54
19 70 -2 13 -17 14 -17 8 2 -5 19 -5 19 9 2 9 -11 13 -26 10 -35 -4 -10 -2
-13 5 -8 7 4 12 1 12 -8 0 -23 62 -77 85 -74 32 5 32 58 0 88 -32 30 -32 64 0
96 14 14 25 34 25 45 0 11 5 17 10 14 6 -3 10 3 10 14 0 11 5 23 11 26 6 4 14
17 19 29 l9 21 0 -22 c1 -12 -3 -25 -9 -28 -5 -3 -10 -13 -10 -21 0 -8 4 -13
9 -10 10 7 21 -16 21 -44 0 -29 -28 -50 -66 -50 -27 0 -34 -4 -34 -20 0 -10
11 -30 25 -44 29 -29 34 -86 10 -106 -21 -17 -66 -21 -82 -8 -18 14 -26 4 -18
-21 4 -13 15 -21 29 -21 19 0 26 -8 33 -39 13 -49 -7 -107 -34 -97 -9 4 -19 2
-23 -4 -11 -18 -63 7 -56 26 3 9 6 20 6 25 0 6 9 7 20 4 41 -13 16 45 -30 68
-14 7 -29 22 -35 33 -12 25 -35 20 -35 -7 0 -10 -4 -19 -10 -19 -5 0 -10 -7
-10 -16 0 -45 -87 -60 -122 -20 -21 23 -22 25 -3 50 14 18 16 18 33 3 26 -23
42 -4 42 49 0 51 16 66 61 58 32 -6 33 -5 14 9 -10 8 -25 13 -32 10 -7 -3 -13
0 -13 6 0 6 -22 -3 -49 -19 -49 -31 -85 -38 -96 -20 -4 6 -11 7 -17 4 -15 -10
-28 17 -17 38 7 13 17 16 37 12 19 -4 33 0 45 14 17 19 17 19 -10 15 -27 -5
-26 -3 17 35 41 37 43 40 17 35 -15 -3 -24 -9 -21 -14 10 -17 -25 -21 -41 -5
-9 9 -20 16 -25 16 -7 0 -17 23 -25 59 -4 17 23 40 48 41 12 0 17 -8 17 -29 0
-25 5 -30 42 -39 28 -7 48 -7 60 -1 27 15 12 29 -23 22 -28 -5 -30 -4 -27 18
2 16 9 24 21 23 9 -1 17 5 17 13 0 10 -6 13 -17 9 -16 -7 -33 8 -33 30 0 7 12
14 28 17 15 3 43 10 62 15 54 15 73 14 67 -3z m445 -731 c22 -8 57 -14 78 -14
47 0 83 -35 78 -76 -3 -24 1 -30 22 -32 14 -2 29 -8 34 -13 6 -5 21 -9 35 -9
33 0 58 -15 42 -24 -29 -18 -131 2 -131 26 0 5 -4 6 -10 3 -5 -3 -10 0 -10 7
0 8 -7 23 -15 34 -13 17 -14 10 -15 -77 0 -94 1 -96 23 -95 12 0 27 7 32 14 7
9 18 10 40 2 17 -5 44 -12 60 -16 l30 -6 -29 -15 c-23 -12 -36 -13 -66 -4 -21
6 -40 11 -44 11 -3 0 -6 -24 -6 -54 0 -72 -11 -80 -103 -72 -39 3 -90 9 -111
12 -29 5 -49 2 -73 -11 -32 -17 -34 -17 -67 0 -31 17 -41 17 -99 7 -75 -14
-146 -15 -166 -3 -7 5 -15 30 -17 56 -2 26 -5 50 -7 52 -3 2 -25 -2 -51 -9
-48 -13 -75 -6 -84 20 -5 15 8 19 81 27 57 6 57 7 57 40 0 38 -18 49 -56 35
-38 -15 -91 -12 -97 4 -9 22 13 33 81 41 l62 7 0 37 c0 45 36 77 90 79 19 1
55 8 80 16 62 18 279 19 332 0z"/>
<path d="M3696 2460 c3 -19 10 -39 15 -44 4 -5 3 -18 -2 -28 -15 -28 -23 -166
-9 -152 10 10 22 110 21 176 0 15 -7 40 -16 55 l-16 28 7 -35z"/>
<path d="M3876 2458 c4 -7 14 -21 22 -31 9 -10 17 -30 19 -45 6 -55 16 -87 34
-104 24 -23 37 -23 16 0 -9 10 -19 38 -23 62 -6 44 -51 130 -67 130 -5 0 -5
-6 -1 -12z"/>
<path d="M3970 2445 c0 -8 6 -15 14 -15 8 0 18 -10 22 -22 8 -26 8 -184 -1
-198 -3 -6 -17 -10 -30 -10 -22 0 -23 -2 -14 -32 11 -41 11 -41 -2 -32 -8 5
-10 -2 -6 -21 6 -32 -11 -54 -39 -52 -16 2 -18 -4 -16 -33 5 -44 28 -100 41
-100 6 0 8 7 4 16 -5 15 -3 15 21 -1 31 -21 56 -7 56 31 0 23 -31 49 -44 37
-15 -15 -5 -34 14 -28 14 4 20 2 20 -9 0 -20 -37 -31 -55 -16 -8 7 -15 9 -15
4 -1 -23 -20 24 -20 49 0 20 5 27 20 27 11 0 20 7 20 15 0 8 5 15 10 15 6 0 8
12 4 28 -4 21 -3 24 5 12 10 -13 11 -13 11 0 0 8 -4 30 -9 48 -9 30 -8 32 14
32 30 0 35 16 35 118 0 72 -3 91 -22 119 -25 35 -38 42 -38 18z"/>
<path d="M3938 2402 c24 -54 34 -64 22 -21 -5 18 -17 40 -25 49 -13 12 -12 6
3 -28z"/>
<path d="M3872 2380 c-5 -13 -6 -33 -3 -45 5 -20 5 -20 9 0 2 11 8 25 13 30 4
6 4 17 -1 25 -7 12 -11 10 -18 -10z"/>
<path d="M3790 2361 c0 -6 4 -13 10 -16 6 -3 7 1 4 9 -7 18 -14 21 -14 7z"/>
<path d="M3905 2271 c-3 -6 -2 -28 1 -51 4 -26 10 -37 15 -29 4 7 3 21 -3 32
-5 10 -8 28 -5 38 5 20 2 25 -8 10z"/>
<path d="M3747 2213 c-2 -5 -1 -17 3 -27 6 -19 7 -19 12 2 6 21 -6 40 -15 25z"/>
<path d="M4040 2174 c0 -22 19 -54 32 -54 9 0 9 3 0 12 -7 7 -12 22 -12 35 0
13 -4 23 -10 23 -5 0 -10 -7 -10 -16z"/>
<path d="M3705 2170 c-3 -5 -16 -10 -28 -10 -15 0 -18 -3 -10 -11 12 -12 53 4
53 21 0 13 -7 13 -15 0z"/>
<path d="M4107 2094 c-10 -13 -29 -27 -42 -30 -28 -7 -39 -29 -25 -54 24 -45
3 -113 -41 -136 -16 -8 -48 -14 -73 -14 -36 0 -54 7 -93 36 -39 30 -43 32 -23
9 41 -44 97 -68 148 -62 78 9 129 84 104 155 -12 34 -7 43 30 59 28 12 54 48
41 56 -5 3 -16 -6 -26 -19z"/>
<path d="M3818 2083 c6 -2 18 -2 25 0 6 3 1 5 -13 5 -14 0 -19 -2 -12 -5z"/>
<path d="M3730 2050 c0 -6 7 -10 15 -10 8 0 15 2 15 4 0 2 -7 6 -15 10 -8 3
-15 1 -15 -4z"/>
<path d="M3875 2031 c-3 -5 -1 -12 5 -16 5 -3 10 1 10 9 0 18 -6 21 -15 7z"/>
<path d="M3239 2407 c15 -18 61 -23 61 -7 0 6 -6 10 -12 10 -7 0 -24 3 -38 7
-22 6 -24 5 -11 -10z"/>
<path d="M3347 2384 c-8 -8 1 -24 14 -24 5 0 9 7 9 15 0 15 -12 20 -23 9z"/>
<path d="M3235 2370 c4 -6 11 -8 16 -5 14 9 11 15 -7 15 -8 0 -12 -5 -9 -10z"/>
<path d="M3250 2335 c0 -19 11 -19 36 0 18 14 18 14 -8 15 -18 0 -28 -5 -28
-15z"/>
<path d="M3285 2122 c-25 -14 -27 -17 -11 -20 10 -2 28 5 39 17 25 24 14 25
-28 3z"/>
<path d="M3569 1598 c-1 -68 -3 -114 -6 -103 -3 11 -9 25 -15 30 -6 7 -7 0 -2
-20 4 -16 11 -32 15 -35 4 -3 9 -21 12 -40 2 -19 5 38 5 128 1 89 0 162 -3
162 -3 0 -6 -55 -6 -122z"/>
<path d="M3270 1685 c-15 -19 -6 -105 13 -117 9 -5 13 8 15 54 3 66 -7 89 -28
63z"/>
<path d="M3506 1667 c3 -10 9 -15 12 -12 3 3 0 11 -7 18 -10 9 -11 8 -5 -6z"/>
<path d="M3470 1642 c0 -18 5 -32 10 -32 6 0 8 11 4 28 -10 39 -14 40 -14 4z"/>
<path d="M3698 1643 c5 -21 7 -23 10 -9 2 10 0 22 -6 28 -6 6 -7 0 -4 -19z"/>
<path d="M3742 1640 c0 -19 2 -27 5 -17 2 9 2 25 0 35 -3 9 -5 1 -5 -18z"/>
<path d="M3410 1642 c0 -15 4 -20 16 -15 9 3 12 9 7 12 -4 3 -11 10 -15 15 -5
5 -8 0 -8 -12z"/>
<path d="M3772 1640 c0 -14 2 -19 5 -12 2 6 2 18 0 25 -3 6 -5 1 -5 -13z"/>
<path d="M3352 1620 c1 -16 6 -30 10 -30 5 0 7 14 6 30 -1 17 -6 30 -10 30 -5
0 -7 -13 -6 -30z"/>
<path d="M3490 1641 c0 -5 5 -13 10 -16 6 -3 10 -2 10 4 0 5 -4 13 -10 16 -5
3 -10 2 -10 -4z"/>
<path d="M3127 1583 c-13 -12 -7 -23 13 -23 13 0 18 5 14 15 -7 16 -17 19 -27
8z"/>
<path d="M3512 1520 c0 -14 2 -19 5 -12 2 6 2 18 0 25 -3 6 -5 1 -5 -13z"/>
<path d="M3681 1508 c-1 -30 3 -38 17 -38 11 0 13 3 5 8 -6 4 -13 21 -16 37
-4 27 -4 27 -6 -7z"/>
<path d="M3483 1506 c1 -17 9 -31 17 -33 10 -3 11 -2 4 4 -7 4 -14 19 -17 33
-4 22 -5 21 -4 -4z"/>
<path d="M3642 1505 c6 -14 13 -24 14 -22 6 6 -9 47 -17 47 -5 0 -3 -11 3 -25z"/>
<path d="M3381 1485 c0 -22 3 -34 6 -27 2 6 9 10 14 6 13 -7 11 -1 -6 32 l-15
29 1 -40z"/>
<path d="M3406 1507 c3 -10 9 -15 12 -12 3 3 0 11 -7 18 -10 9 -11 8 -5 -6z"/>
<path d="M3430 1490 c0 -16 4 -30 8 -30 5 0 7 14 4 30 -2 17 -6 30 -8 30 -2 0
-4 -13 -4 -30z"/>
<path d="M3462 1495 c0 -16 2 -22 5 -12 2 9 2 23 0 30 -3 6 -5 -1 -5 -18z"/>
<path d="M3744 1505 c-3 -8 -4 -20 -2 -27 3 -7 7 -1 10 15 6 29 1 36 -8 12z"/>
<path d="M3790 1513 c1 -5 8 -19 16 -33 8 -14 13 -17 10 -7 -3 10 -6 25 -6 33
0 8 -4 14 -10 14 -5 0 -10 -3 -10 -7z"/>
<path d="M3340 1503 c1 -5 8 -19 16 -33 8 -14 13 -17 10 -7 -3 10 -6 25 -6 33
0 8 -4 14 -10 14 -5 0 -10 -3 -10 -7z"/>
<path d="M3142 1458 c6 -18 28 -21 28 -4 0 9 -7 16 -16 16 -9 0 -14 -5 -12
-12z"/>
<path d="M3530 1369 c0 -24 23 -21 28 4 2 10 -3 17 -12 17 -10 0 -16 -9 -16
-21z"/>
<path d="M3600 1375 c0 -8 4 -15 9 -15 5 0 11 7 15 15 3 9 0 15 -9 15 -8 0
-15 -7 -15 -15z"/>
<path d="M3730 1378 c0 -4 9 -8 21 -8 11 0 30 -5 41 -11 12 -6 24 -7 29 -2 5
5 -12 13 -41 19 -27 6 -50 7 -50 2z"/>
<path d="M3567 1360 c-4 -15 0 -20 14 -20 22 0 25 13 5 29 -11 9 -15 7 -19 -9z"/>
<path d="M3360 1360 c-22 -6 -23 -8 -7 -15 22 -9 70 2 62 15 -7 11 -19 11 -55
0z"/>
<path d="M7183 2513 c-12 -2 -36 -17 -53 -33 -23 -22 -30 -37 -30 -67 0 -53
21 -78 98 -117 80 -40 105 -66 105 -107 0 -43 -34 -74 -81 -74 -51 0 -89 27
-113 78 l-19 42 0 -64 c0 -48 3 -62 11 -54 8 8 22 8 51 -3 111 -39 208 12 208
109 0 47 -30 82 -104 118 -79 40 -106 66 -106 100 0 50 65 75 124 48 14 -7 34
-30 46 -53 l20 -41 0 55 0 55 -32 1 c-18 0 -49 3 -68 6 -19 3 -45 4 -57 1z"/>
<path d="M8483 2505 c-29 -8 -70 -25 -91 -39 -39 -25 -142 -131 -142 -147 0
-24 -20 -2 -58 65 -46 81 -50 100 -24 115 13 8 -1 10 -55 11 -70 0 -72 -1 -55
-18 9 -9 43 -64 76 -121 57 -101 58 -104 54 -168 -3 -49 -9 -69 -23 -79 -17
-12 -11 -14 50 -14 65 0 67 1 52 18 -13 14 -17 38 -17 93 0 72 1 75 45 131 74
95 165 147 260 148 96 0 143 -57 133 -162 -7 -68 -34 -102 -85 -106 -46 -3
-70 17 -82 70 -15 66 -1 105 54 143 19 13 19 14 -5 9 -65 -14 -100 -53 -100
-113 0 -75 50 -121 132 -121 121 0 182 158 94 246 -52 52 -119 64 -213 39z"/>
<path d="M4720 2492 c21 -17 23 -29 29 -169 5 -132 9 -154 26 -173 59 -67 180
-66 240 0 18 19 21 41 25 172 5 142 7 151 29 169 l23 19 -63 0 c-58 0 -62 -1
-39 -13 20 -10 26 -23 33 -67 11 -71 4 -229 -12 -258 -18 -33 -68 -55 -113
-49 -77 10 -98 55 -98 207 0 100 11 158 32 172 7 4 -20 8 -61 8 -72 0 -73 0
-51 -18z"/>
<path d="M5158 2500 c36 -15 44 -54 40 -208 -3 -137 -4 -145 -27 -163 l-23
-19 57 0 57 0 -23 19 c-23 18 -24 26 -27 160 -2 78 0 141 5 141 5 0 70 -75
144 -167 l134 -168 5 188 c5 183 6 189 29 208 l23 19 -63 -1 c-48 0 -58 -3
-42 -9 30 -12 34 -36 31 -165 l-3 -110 -114 143 -115 142 -55 -1 c-44 0 -51
-2 -33 -9z"/>
<path d="M5650 2490 c18 -18 20 -33 20 -178 0 -126 -3 -162 -16 -180 l-15 -22
65 0 66 0 -20 20 c-18 18 -20 33 -20 180 0 147 2 162 20 180 l20 20 -70 0 -70
0 20 -20z"/>
<path d="M5854 2488 c17 -16 47 -81 91 -198 37 -96 70 -179 74 -183 4 -4 36
66 71 155 70 181 93 226 124 238 14 6 -1 9 -49 8 -38 0 -62 -2 -53 -5 21 -5
32 -42 23 -75 -15 -52 -80 -218 -86 -218 -9 0 -99 233 -99 258 0 14 8 26 23
32 16 6 -1 9 -61 9 l-83 1 25 -22z"/>
<path d="M6300 2490 c18 -18 20 -33 20 -178 0 -126 -3 -162 -16 -180 l-15 -22
155 0 156 0 -1 58 0 57 -12 -35 c-21 -61 -130 -93 -185 -54 -20 13 -22 24 -22
95 0 69 2 79 18 79 40 0 65 -15 78 -44 13 -29 13 -27 13 49 0 76 0 78 -13 49
-13 -28 -44 -44 -88 -44 -5 0 -7 39 -6 87 l3 87 60 -3 c82 -3 95 -8 110 -44
l14 -32 1 48 0 47 -145 0 -145 0 20 -20z"/>
<path d="M6685 2497 c19 -14 20 -27 20 -187 0 -158 -2 -173 -19 -186 -18 -13
-13 -14 49 -14 65 0 67 1 52 18 -13 14 -17 38 -17 100 0 81 0 82 26 82 45 0
63 -19 109 -110 l45 -90 45 0 44 0 -23 25 c-13 14 -38 52 -56 86 -18 35 -45
68 -62 79 l-31 19 37 15 c67 28 79 108 22 150 -23 18 -45 21 -144 24 -106 3
-115 2 -97 -11z m189 -26 c51 -56 18 -137 -59 -143 l-40 -3 -3 83 -3 82 44 0
c30 0 49 -6 61 -19z"/>
<path d="M7468 2494 c21 -15 22 -21 22 -184 0 -140 -3 -171 -16 -184 -14 -15
-9 -16 52 -16 60 0 66 2 49 14 -16 12 -20 31 -23 139 -5 142 2 210 24 232 14
13 8 15 -58 15 -68 0 -71 -1 -50 -16z"/>
<path d="M7660 2478 c0 -18 -3 -44 -6 -58 -3 -14 5 -6 18 20 22 42 26 45 72
51 33 3 50 1 53 -7 2 -7 3 -87 1 -179 -3 -151 -5 -168 -22 -181 -18 -13 -12
-14 52 -14 l72 0 -20 20 c-19 19 -20 31 -18 193 l3 172 40 -4 c55 -4 73 -16
84 -54 9 -30 9 -29 10 21 l1 52 -170 0 -170 0 0 -32z"/>
<path d="M8783 2499 c15 -9 17 -26 17 -129 0 -111 -1 -120 -22 -134 -21 -15
-19 -16 46 -16 66 0 68 1 47 18 -27 23 -35 124 -10 130 9 1 24 -4 33 -13 15
-15 16 -14 16 14 0 28 -2 30 -19 20 -36 -23 -52 -5 -49 53 l3 53 37 3 c29 3
43 -2 63 -22 l25 -25 0 29 0 30 -102 0 c-75 -1 -98 -3 -85 -11z"/>
<path d="M7245 1911 c-111 -50 -156 -185 -100 -297 49 -97 145 -127 270 -83
l65 23 -6 35 c-9 59 8 114 36 122 14 4 -15 7 -65 7 -49 0 -81 -3 -70 -5 37 -9
45 -24 45 -80 0 -68 -11 -88 -55 -103 -65 -21 -138 23 -164 99 -28 84 -3 211
51 256 63 53 165 24 204 -59 12 -26 13 -27 9 -6 -2 14 -5 40 -5 58 0 23 -4 32
-12 29 -7 -2 -30 2 -52 9 -52 19 -103 17 -151 -5z"/>
<path d="M8191 1792 c-67 -169 -105 -248 -128 -261 -14 -8 -5 -10 40 -11 56 0
57 0 38 19 -21 21 -19 34 8 104 10 26 14 27 76 27 l66 0 19 -42 c24 -54 25
-84 3 -97 -13 -8 3 -10 62 -11 73 0 78 1 58 15 -19 14 -75 135 -148 323 -15
39 -31 72 -34 72 -3 0 -30 -62 -60 -138z m67 -34 c12 -35 22 -66 22 -70 0 -5
-25 -8 -55 -8 -30 0 -55 2 -55 5 0 13 53 135 59 135 3 0 16 -28 29 -62z"/>
<path d="M4720 1902 c24 -19 25 -27 29 -142 4 -138 -4 -203 -25 -225 -14 -13
-3 -15 101 -15 134 0 175 12 200 60 32 63 -3 129 -76 145 l-31 7 29 17 c43 27
55 46 51 87 -2 27 -11 43 -31 58 -24 18 -45 21 -150 24 l-121 4 24 -20z m191
-21 c18 -14 24 -29 24 -61 0 -53 -29 -80 -86 -80 l-39 0 0 80 0 80 39 0 c23 0
48 -8 62 -19z m35 -192 c32 -30 33 -88 2 -124 -19 -21 -32 -26 -72 -27 -31 0
-51 4 -57 13 -5 8 -9 50 -9 93 l0 79 56 -6 c39 -4 64 -13 80 -28z"/>
<path d="M5156 1906 c17 -13 19 -28 19 -186 0 -158 -2 -173 -19 -186 -18 -13
-12 -14 52 -14 l72 0 -20 20 c-18 18 -20 33 -20 180 0 147 2 162 20 180 l20
20 -72 0 c-64 0 -70 -1 -52 -14z"/>
<path d="M5415 1907 c19 -14 20 -27 20 -187 0 -158 -2 -173 -19 -186 -18 -13
-13 -14 49 -14 65 0 67 1 52 18 -13 14 -17 38 -17 100 0 81 0 82 26 82 45 0
63 -19 109 -110 l45 -90 45 0 44 0 -23 25 c-13 14 -38 52 -56 86 -18 35 -45
68 -62 79 l-31 19 36 14 c43 18 59 46 55 94 -5 62 -38 77 -176 81 -106 3 -115
2 -97 -11z m185 -25 c17 -13 23 -30 24 -61 1 -54 -27 -81 -85 -81 l-39 0 0 80
0 80 39 0 c23 0 48 -8 61 -18z"/>
<path d="M5833 1913 c30 -8 37 -47 37 -193 0 -146 -7 -185 -37 -193 -10 -3 11
-5 47 -5 45 -1 59 2 44 8 -12 4 -25 17 -29 27 -12 28 -19 293 -7 293 5 0 38
-71 72 -157 35 -87 66 -161 70 -166 3 -4 35 59 70 140 93 215 90 214 90 40 0
-134 -2 -149 -20 -167 l-20 -20 70 0 70 0 -20 20 c-18 18 -20 33 -20 180 0
147 2 162 20 180 l20 20 -48 0 -47 0 -64 -145 c-34 -80 -67 -145 -71 -145 -4
0 -34 65 -66 145 l-59 145 -60 -1 c-33 -1 -52 -3 -42 -6z"/>
<path d="M6412 1913 c30 -8 40 -70 37 -222 -4 -127 -6 -144 -23 -157 -18 -13
-13 -14 49 -14 65 0 67 1 52 18 -14 16 -17 44 -17 185 0 160 1 166 22 181 21
15 18 16 -57 15 -44 -1 -72 -3 -63 -6z"/>
<path d="M6650 1913 c36 -13 40 -35 40 -195 0 -145 -2 -160 -20 -178 l-20 -20
52 0 c47 0 50 1 32 14 -17 13 -19 29 -22 160 -2 80 0 146 5 146 4 0 64 -72
133 -160 69 -87 131 -159 138 -160 9 0 12 42 12 178 0 181 4 202 40 215 8 3
-13 6 -47 6 l-62 1 24 -25 c24 -23 25 -30 25 -140 0 -63 -3 -115 -7 -115 -5 0
-57 63 -118 140 l-110 139 -55 0 c-30 0 -48 -3 -40 -6z"/>
<path d="M7608 1904 c21 -15 22 -21 22 -181 0 -141 -3 -169 -17 -185 -15 -17
-13 -18 52 -18 61 0 67 2 50 14 -15 11 -19 30 -23 100 l-5 86 108 0 107 0 -3
-86 c-3 -71 -7 -88 -23 -100 -18 -13 -12 -14 52 -14 l72 0 -20 20 c-18 18 -20
33 -20 180 0 147 2 162 20 180 l20 20 -72 0 c-64 0 -70 -2 -53 -14 16 -11 20
-30 23 -90 l4 -76 -106 0 -106 0 0 54 c0 64 16 113 38 119 9 3 -19 5 -63 6
-75 1 -78 0 -57 -15z"/>
<path d="M8510 1911 c22 -6 26 -15 33 -66 5 -33 6 -111 4 -174 -4 -104 -7
-117 -27 -133 -22 -18 -22 -18 33 -18 l56 0 -24 25 c-24 23 -25 29 -25 165 0
78 4 139 8 136 5 -3 37 -77 72 -165 35 -89 66 -161 69 -161 3 0 37 74 76 165
41 99 73 161 78 156 5 -5 8 -71 5 -146 -3 -129 -5 -138 -27 -156 l-23 -19 72
0 c63 0 70 2 56 15 -20 21 -29 107 -24 237 4 102 7 113 28 130 l24 19 -53 -3
-53 -3 -60 -140 c-33 -77 -63 -144 -68 -148 -4 -4 -34 59 -68 140 l-60 148
-64 2 c-39 1 -54 -1 -38 -6z"/>
<path d="M913 540 c-5 -18 -14 -20 -79 -20 -59 0 -74 -3 -74 -15 0 -12 15 -15
75 -15 68 0 75 -2 75 -20 0 -18 -7 -20 -70 -20 l-70 0 0 -120 c0 -113 1 -120
20 -120 19 0 20 7 20 104 0 58 3 107 8 109 4 2 58 2 120 -1 l113 -5 -3 -86 -3
-86 -33 -3 c-45 -5 -36 -26 13 -30 57 -5 65 12 65 135 l0 103 -70 0 c-63 0
-70 2 -70 20 0 18 7 20 75 20 60 0 75 3 75 15 0 12 -15 15 -74 15 -65 0 -74 2
-79 20 -3 11 -10 20 -17 20 -7 0 -14 -9 -17 -20z"/>
<path d="M2341 551 c-19 -12 3 -51 29 -51 24 0 25 8 2 37 -11 15 -21 20 -31
14z"/>
<path d="M4540 521 c-19 -21 -40 -40 -46 -42 -7 -2 -10 -17 -7 -35 4 -25 9
-31 24 -27 26 7 24 -9 -6 -37 -23 -22 -34 -50 -18 -50 4 0 17 10 30 22 31 29
29 7 -3 -31 -28 -34 -84 -44 -84 -16 0 8 9 15 20 15 18 0 20 7 20 70 0 63 -2
70 -20 70 -11 0 -20 7 -20 15 0 9 9 15 25 15 16 0 25 6 25 15 0 9 -9 15 -25
15 -14 0 -28 7 -31 15 -4 8 -12 15 -20 15 -8 0 -14 -7 -14 -15 0 -9 -9 -15
-25 -15 -14 0 -25 -4 -25 -10 0 -5 11 -10 25 -10 18 0 25 -5 25 -20 0 -13 -7
-20 -20 -20 -18 0 -20 -7 -20 -69 0 -64 1 -69 20 -64 15 4 20 0 20 -16 0 -16
-6 -21 -25 -21 -16 0 -25 -6 -25 -15 0 -9 9 -15 25 -15 20 0 25 -5 25 -25 0
-16 6 -25 15 -25 9 0 15 9 15 25 0 22 4 25 37 25 24 0 45 8 60 22 l23 21 0
-31 c0 -25 -4 -32 -20 -32 -11 0 -20 -7 -20 -15 0 -18 41 -20 58 -3 7 7 12 23
12 38 0 19 2 22 10 10 7 -12 13 -11 34 10 l26 23 0 -31 c0 -25 -4 -32 -20 -32
-11 0 -20 -7 -20 -16 0 -11 8 -14 33 -12 l32 3 5 120 c3 66 9 126 13 133 5 7
4 12 -2 12 -5 0 -31 18 -56 40 -25 22 -47 40 -48 40 -1 0 -18 -18 -37 -39z
m80 -41 l34 -30 -32 0 c-26 0 -32 -4 -32 -21 0 -11 5 -17 10 -14 24 15 30 -8
9 -31 -32 -34 -39 -30 -39 21 0 43 -1 45 -30 45 l-30 0 32 30 c18 16 35 29 38
29 3 0 21 -13 40 -29z m-182 -57 c2 -9 -7 -13 -27 -13 -21 0 -31 5 -31 16 0
19 51 16 58 -3z m2 -58 c0 -10 -10 -15 -30 -15 -20 0 -30 5 -30 15 0 10 10 15
30 15 20 0 30 -5 30 -15z m200 -4 c0 -13 -50 -71 -61 -71 -5 0 -9 15 -9 33 0
24 3 28 10 17 8 -13 13 -12 32 8 25 25 28 26 28 13z"/>
<path d="M5923 553 c-18 -7 6 -53 29 -53 10 0 18 4 18 9 0 16 -35 49 -47 44z"/>
<path d="M7335 519 c-22 -22 -59 -52 -82 -66 -24 -14 -43 -29 -43 -33 0 -16
20 -21 40 -10 11 6 25 8 31 5 17 -11 199 -11 202 0 2 6 13 5 29 -2 14 -6 29
-9 32 -6 14 14 4 30 -28 45 -44 21 -106 76 -106 94 0 27 -36 14 -75 -27z m120
-71 c5 -5 -27 -8 -70 -8 l-80 0 40 34 40 34 30 -26 c17 -15 34 -30 40 -34z"/>
<path d="M8073 552 c-10 -6 -9 -13 3 -30 15 -22 44 -30 44 -13 0 19 -35 51
-47 43z"/>
<path d="M8850 540 c0 -17 -7 -20 -40 -20 -39 0 -40 -1 -40 -35 0 -24 5 -35
15 -35 8 0 15 7 15 15 0 12 14 15 70 15 57 0 70 -3 70 -16 0 -9 7 -14 17 -12
11 2 17 13 17 33 0 29 -2 30 -47 33 -39 3 -47 6 -47 23 0 10 -7 19 -15 19 -8
0 -15 -9 -15 -20z"/>
<path d="M1630 505 l0 -45 -75 0 c-65 0 -75 -2 -75 -17 0 -16 8 -18 65 -15 55
3 66 1 72 -14 11 -30 -37 -106 -89 -139 -51 -33 -52 -34 -39 -54 17 -26 110
47 144 114 14 28 16 28 23 10 14 -40 48 -78 92 -106 41 -26 46 -27 57 -12 11
15 6 21 -38 47 -56 34 -106 109 -94 140 6 15 17 17 72 14 56 -3 65 -1 65 14 0
14 -12 18 -72 20 l-73 3 3 43 c3 37 1 42 -17 42 -18 0 -21 -6 -21 -45z"/>
<path d="M2230 536 c0 -7 7 -19 15 -26 23 -19 18 -30 -15 -30 -28 0 -30 -3
-30 -35 0 -24 5 -35 15 -35 8 0 15 9 15 20 0 19 7 20 130 20 123 0 130 -1 130
-20 0 -13 7 -20 20 -20 16 0 20 7 20 35 0 33 -2 35 -35 35 -37 0 -44 10 -20
30 8 7 15 19 15 26 0 25 -29 14 -56 -21 -26 -34 -28 -35 -95 -35 -62 0 -90 11
-56 23 8 3 7 10 -7 26 -22 24 -46 28 -46 7z"/>
<path d="M2980 539 c0 -7 -16 -45 -35 -86 -25 -51 -33 -78 -27 -89 8 -15 10
-15 15 0 16 40 27 11 27 -69 0 -69 3 -85 15 -85 13 0 15 21 15 130 0 94 4 141
15 167 19 44 19 43 -5 43 -11 0 -20 -5 -20 -11z"/>
<path d="M3114 525 c-5 -21 -12 -25 -40 -25 l-34 0 0 -145 c0 -138 1 -145 20
-145 11 0 20 7 20 15 0 12 14 15 65 15 51 0 65 -3 65 -15 0 -8 9 -15 20 -15
19 0 20 7 20 145 l0 145 -51 0 c-50 0 -51 1 -45 25 5 20 3 25 -14 25 -13 0
-22 -9 -26 -25z m96 -95 l0 -40 -65 0 -65 0 0 40 0 40 65 0 65 0 0 -40z m0
-120 l0 -40 -65 0 -65 0 0 40 0 40 65 0 65 0 0 -40z"/>
<path d="M5210 505 l0 -45 -76 0 c-65 0 -75 -2 -72 -17 2 -14 14 -16 70 -14
36 1 69 -2 72 -8 19 -31 -88 -171 -130 -171 -18 0 -18 -14 1 -30 20 -17 98 38
127 90 26 45 34 49 43 21 6 -21 80 -92 113 -110 16 -8 23 -7 33 6 11 13 12 17
1 21 -59 19 -156 142 -137 172 4 7 33 10 73 9 56 -2 68 0 70 14 3 15 -7 17
-72 17 l-76 0 0 45 c0 38 -3 45 -20 45 -17 0 -20 -7 -20 -45z"/>
<path d="M5817 544 c-3 -4 0 -16 8 -28 21 -30 19 -36 -15 -36 -28 0 -30 -3
-30 -35 0 -28 4 -35 20 -35 13 0 20 7 20 20 0 19 7 20 130 20 123 0 130 -1
130 -20 0 -11 7 -20 15 -20 10 0 15 11 15 35 0 32 -2 35 -30 35 -34 0 -37 7
-15 36 20 26 19 34 -4 34 -11 0 -28 -15 -41 -35 l-22 -35 -76 1 c-60 0 -73 3
-60 11 14 11 15 14 1 35 -15 23 -33 29 -46 17z"/>
<path d="M6667 544 c-9 -9 23 -54 39 -54 18 0 18 10 -2 38 -15 22 -26 27 -37
16z"/>
<path d="M6761 515 c-18 -32 -24 -35 -66 -35 -33 0 -45 -4 -45 -15 0 -10 11
-15 35 -15 32 0 35 -2 35 -30 0 -28 -2 -30 -40 -30 -33 0 -40 -3 -40 -20 0
-16 7 -20 35 -20 47 0 46 -19 -4 -73 -26 -28 -37 -47 -32 -56 12 -18 46 4 73
47 l20 33 40 -46 c42 -48 53 -53 61 -31 4 9 -10 31 -34 54 -21 22 -39 49 -39
61 0 18 6 21 40 21 29 0 40 4 40 15 0 11 -12 15 -45 15 -43 0 -45 1 -45 30 0
28 2 30 40 30 29 0 40 4 40 15 0 9 -9 15 -25 15 -25 0 -25 1 -10 30 19 36 19
40 1 40 -8 0 -23 -16 -35 -35z"/>
<path d="M7967 544 c-3 -4 0 -16 8 -28 21 -30 19 -36 -15 -36 -28 0 -30 -3
-30 -35 0 -28 4 -35 20 -35 13 0 20 7 20 20 0 19 7 20 130 20 123 0 130 -1
130 -20 0 -11 7 -20 15 -20 10 0 15 11 15 35 0 32 -2 35 -30 35 -33 0 -36 6
-15 34 20 26 19 36 -4 36 -11 0 -28 -15 -41 -35 l-22 -35 -76 1 c-60 0 -73 3
-60 11 14 11 15 14 1 35 -15 23 -33 29 -46 17z"/>
<path d="M58 463 c-2 -43 -2 -81 -1 -85 2 -3 26 0 55 8 33 8 56 10 63 4 7 -6
15 -7 18 -4 3 3 12 2 19 -2 8 -6 -13 -11 -57 -14 l-70 -5 0 -50 0 -50 127 -3
128 -3 0 53 0 53 -55 -3 c-30 -2 -55 0 -55 5 0 8 54 53 63 53 3 0 7 -9 10 -21
8 -30 71 -24 75 9 4 25 -13 30 -22 6 -8 -21 -27 -14 -37 14 -8 20 -5 22 26 22
19 0 35 5 35 10 0 6 -16 10 -36 10 -31 0 -35 3 -32 23 2 16 11 23 31 25 57 7
24 22 -48 22 -43 0 -75 -4 -75 -10 0 -5 13 -10 28 -10 35 0 41 -6 35 -31 -7
-26 -33 -24 -33 2 0 32 -24 17 -31 -20 -7 -32 -6 -32 25 -25 l31 6 -24 -26
c-29 -31 -42 -32 -64 -8 -20 22 -22 33 -4 30 8 -2 13 13 15 45 l3 47 -70 0
-69 0 -4 -77z m107 47 c-3 -5 -22 -10 -41 -10 -19 0 -34 5 -34 10 0 6 18 10
41 10 24 0 38 -4 34 -10z m0 -40 c-3 -5 -22 -10 -41 -10 -19 0 -34 5 -34 10 0
6 18 10 41 10 24 0 38 -4 34 -10z m-21 -39 c3 -5 -1 -12 -10 -15 -27 -10 -44
-7 -44 9 0 16 45 21 54 6z m161 -101 c-3 -5 -46 -10 -96 -10 -53 0 -89 4 -89
10 0 6 39 10 96 10 61 0 93 -4 89 -10z m-2 -35 c1 -6 -35 -11 -90 -13 -85 -3
-105 3 -86 22 11 10 173 2 176 -9z"/>
<path d="M3800 442 c0 -109 -10 -155 -40 -187 -18 -20 -19 -23 -5 -35 21 -17
39 0 61 56 16 43 18 44 60 44 43 0 44 0 44 -34 0 -33 -21 -52 -46 -44 -9 3
-14 -5 -14 -22 0 -16 67 -12 84 6 13 13 16 42 16 165 l0 149 -80 0 -80 0 0
-98z m120 38 c0 -28 -2 -30 -40 -30 -38 0 -40 2 -40 30 0 28 2 30 40 30 38 0
40 -2 40 -30z m-2 -97 c3 -32 2 -33 -37 -33 -40 0 -41 1 -41 36 0 35 1 35 38
32 34 -3 37 -6 40 -35z"/>
<path d="M8650 375 c0 -135 3 -165 14 -165 9 0 12 7 9 19 -3 11 0 28 6 38 6
10 11 12 11 6 0 -16 32 -17 48 -1 17 17 15 73 -3 108 -13 25 -13 34 0 77 24
79 22 83 -35 83 l-50 0 0 -165z m62 129 c3 -3 0 -25 -8 -49 -11 -39 -11 -50 2
-81 18 -43 15 -79 -6 -79 -12 0 -16 20 -18 108 -2 85 0 107 11 107 8 0 16 -2
19 -6z"/>
<path d="M3640 385 c0 -122 2 -145 15 -145 8 0 15 4 15 9 0 6 19 11 43 13 l42
3 3 133 3 132 -61 0 -60 0 0 -145z m80 75 c0 -36 -2 -40 -25 -40 -22 0 -25 4
-25 40 0 36 3 40 25 40 23 0 25 -4 25 -40z m0 -120 c0 -36 -2 -40 -25 -40 -22
0 -25 4 -25 40 0 36 3 40 25 40 23 0 25 -4 25 -40z"/>
<path d="M6490 521 c0 -6 5 -13 10 -16 6 -4 10 -53 10 -116 0 -66 -4 -109 -10
-109 -5 0 -10 -7 -10 -16 0 -15 22 -15 83 2 13 4 17 -1 17 -25 0 -21 5 -31 15
-31 10 0 15 10 15 29 0 16 6 31 15 35 8 3 15 12 15 21 0 8 -7 15 -15 15 -12 0
-15 17 -15 94 0 53 4 98 10 101 26 16 3 25 -65 25 -41 0 -75 -4 -75 -9z m100
-46 c0 -20 -5 -25 -25 -25 -20 0 -25 5 -25 25 0 20 5 25 25 25 20 0 25 -5 25
-25z m0 -75 c0 -15 -7 -20 -25 -20 -18 0 -25 5 -25 20 0 15 7 20 25 20 18 0
25 -5 25 -20z m0 -75 c0 -14 -4 -25 -9 -25 -5 0 -16 -3 -25 -6 -13 -5 -16 1
-16 25 0 26 4 31 25 31 20 0 25 -5 25 -25z"/>
<path d="M8783 428 c2 -9 29 -13 87 -13 58 0 85 4 88 13 3 9 -19 12 -88 12
-69 0 -91 -3 -87 -12z"/>
<path d="M865 390 c5 -14 2 -20 -9 -20 -9 0 -16 -7 -16 -15 0 -10 11 -15 35
-15 24 0 35 -5 35 -15 0 -11 -11 -15 -40 -15 -29 0 -40 -4 -40 -15 0 -11 11
-15 40 -15 38 0 40 -2 40 -30 0 -23 4 -30 20 -30 16 0 20 7 20 30 0 28 2 30
40 30 29 0 40 4 40 15 0 11 -11 15 -40 15 -29 0 -40 4 -40 15 0 10 11 15 35
15 24 0 35 5 35 15 0 9 -9 15 -22 15 -17 0 -19 3 -10 12 17 17 15 28 -6 28 -9
0 -23 -9 -30 -20 -7 -11 -19 -20 -26 -20 -8 0 -18 9 -21 20 -4 11 -15 20 -26
20 -16 0 -19 -5 -14 -20z"/>
<path d="M2252 398 c3 -8 32 -15 77 -18 l73 -5 -31 -22 c-25 -19 -43 -23 -106
-23 -60 0 -75 -3 -75 -15 0 -12 16 -15 80 -15 l80 0 0 -30 c0 -28 -3 -30 -36
-30 -48 0 -40 -24 10 -28 47 -4 66 11 66 54 l0 34 75 0 c59 0 75 3 75 15 0 11
-17 15 -72 17 l-73 3 38 23 c66 42 51 52 -74 52 -84 0 -110 -3 -107 -12z"/>
<path d="M5840 394 c0 -13 12 -15 75 -12 41 2 75 0 75 -3 0 -3 -11 -12 -25
-19 -14 -7 -25 -17 -25 -22 0 -4 -36 -8 -80 -8 -64 0 -80 -3 -80 -15 0 -12 16
-15 81 -15 l80 0 -3 -27 c-2 -23 -8 -29 -35 -31 -53 -5 -43 -32 12 -32 48 0
65 16 65 64 0 25 2 26 70 26 56 0 70 3 70 15 0 12 -14 15 -67 15 l-68 1 33 27
c54 45 44 52 -73 52 -89 0 -105 -2 -105 -16z"/>
<path d="M7990 394 c0 -13 12 -15 75 -12 78 3 93 -4 50 -24 -14 -6 -25 -15
-25 -20 0 -4 -36 -8 -80 -8 -64 0 -80 -3 -80 -15 0 -12 16 -15 81 -15 l80 0
-3 -27 c-2 -23 -8 -29 -35 -31 -53 -5 -43 -32 12 -32 48 0 65 16 65 64 0 25 2
26 70 26 56 0 70 3 70 15 0 12 -14 15 -67 15 l-68 1 33 27 c54 45 44 52 -73
52 -89 0 -105 -2 -105 -16z"/>
<path d="M8760 355 c0 -9 9 -15 25 -15 16 0 25 -6 25 -15 0 -27 -29 -73 -50
-80 -24 -8 -26 -23 -4 -32 24 -9 73 45 80 89 5 28 11 38 25 38 16 0 19 -8 19
-55 0 -48 3 -57 23 -66 35 -16 74 3 79 40 3 19 0 32 -9 35 -8 3 -13 -2 -13
-13 0 -22 -25 -45 -40 -36 -5 3 -10 26 -10 51 0 44 0 44 35 44 24 0 35 5 35
15 0 12 -19 15 -110 15 -91 0 -110 -3 -110 -15z"/>
<path d="M7250 285 c0 -68 2 -75 20 -75 11 0 20 5 20 10 0 13 177 13 185 0 3
-5 13 -10 21 -10 11 0 14 16 14 75 l0 75 -130 0 -130 0 0 -75z m228 8 l3 -33
-95 0 -96 0 0 35 0 36 93 -3 92 -3 3 -32z"/>
<path d="M40 230 c0 -6 65 -10 175 -10 110 0 175 4 175 10 0 6 -65 10 -175 10
-110 0 -175 -4 -175 -10z"/>
</g>
</svg>
