<svg xmlns="http://www.w3.org/2000/svg" width="938" height="306" viewBox="0 0 938 306" version="1.1"><path d="M 895.486 37.438 C 890.733 39.436, 889.874 41.157, 890.203 48.023 C 890.428 52.721, 890.136 54.434, 889 55.081 C 885.229 57.228, 873.916 61.066, 873.009 60.506 C 872.454 60.163, 872 58.065, 872 55.845 C 872 50.177, 869.404 46.320, 864.270 44.359 C 860.218 42.811, 859.856 42.820, 857.986 44.512 C 856.091 46.228, 856.025 47.291, 856.512 68.267 C 856.792 80.345, 857.264 90.618, 857.559 91.096 C 857.855 91.575, 857.738 93.661, 857.299 95.733 C 856.661 98.742, 856.366 97.085, 855.833 87.500 C 854.715 67.408, 853.984 64.008, 849.523 58.158 C 847.359 55.321, 845.067 53, 844.429 53 C 842.430 53, 838.322 56.808, 837.076 59.816 C 835.092 64.606, 837.170 100.716, 839.801 107.169 C 840.399 108.637, 841.702 110.295, 842.695 110.852 C 844.404 111.811, 844.393 111.902, 842.500 112.557 C 841.400 112.937, 838.168 114.279, 835.317 115.538 C 831.644 117.161, 829.007 117.677, 826.263 117.309 C 822.749 116.837, 822.085 117.139, 819.065 120.579 C 814.652 125.605, 812.049 131.555, 812.022 136.679 C 812.004 140.066, 812.638 141.534, 815.368 144.429 C 819.639 148.957, 824.592 149.311, 829.656 145.449 C 832.438 143.327, 833 142.244, 833 139.008 C 833 136.869, 832.550 134.840, 832 134.500 C 830.318 133.460, 830.887 128.499, 832.941 126.294 C 835.106 123.970, 837.272 123.648, 862 121.974 C 871.203 121.351, 882.984 121.244, 891 121.712 L 904.500 122.500 904.817 126.354 C 905.116 129.999, 905.279 130.169, 907.817 129.496 C 909.292 129.105, 913.715 128.721, 917.644 128.643 C 926.191 128.472, 929.284 126.509, 928.799 121.564 C 928.528 118.810, 927.608 118.079, 919 113.773 L 909.500 109.021 890.550 109.011 C 875.811 109.002, 871.867 108.733, 872.800 107.800 C 873.460 107.140, 874 105.592, 874 104.359 C 874 103.126, 874.450 101.840, 875 101.500 C 876.321 100.684, 876.265 95.587, 874.844 87.269 C 874.208 83.546, 873.995 78.468, 874.370 75.985 C 875.002 71.802, 875.343 71.380, 879.010 70.235 C 886.508 67.895, 894.235 69.439, 887.618 71.955 C 884.299 73.217, 881 78.204, 881 81.957 C 881 83.689, 882.125 86.762, 883.500 88.785 C 884.875 90.809, 886 93.053, 886 93.772 C 886 94.492, 884.164 96.827, 881.920 98.961 C 878.993 101.746, 877.933 103.500, 878.170 105.171 C 878.560 107.924, 882.671 109.020, 883.593 106.617 C 883.915 105.780, 886.388 103.676, 889.089 101.943 C 891.790 100.210, 894 98.365, 894 97.845 C 894 97.324, 895.500 96.271, 897.333 95.506 C 901.285 93.854, 907.020 87.779, 908.891 83.262 C 910.530 79.306, 909.595 74.968, 906.954 74.278 C 903.975 73.499, 904.352 68.548, 907.562 66.297 C 914.699 61.293, 916.106 59.725, 915.804 57.116 C 915.581 55.197, 914.674 54.233, 912.402 53.499 C 907.365 51.870, 906 50.172, 906 45.533 C 906 39.234, 900.777 35.213, 895.486 37.438 M 378.500 50.536 C 376.850 51.292, 372.300 51.930, 368.390 51.955 C 364.479 51.980, 359.191 52.286, 356.640 52.636 C 352.030 53.268, 352 53.297, 352 57.136 C 352 62.020, 354.762 65, 359.289 65 C 361.097 65, 364.360 65.914, 366.539 67.031 C 369.724 68.665, 371.545 68.934, 375.836 68.405 C 381.032 67.765, 381.163 67.810, 380.836 70.124 C 380.540 72.217, 379.762 72.605, 374.312 73.381 C 367.223 74.390, 365 73.859, 365 71.154 C 365 68.865, 363.385 67.386, 359.940 66.521 L 357.391 65.881 357.425 77.191 C 357.496 100.785, 356.298 121.351, 354.618 125.372 C 352.313 130.888, 352.606 134.825, 355.649 139.215 C 360.079 145.607, 364.463 145.302, 369.676 138.237 C 371.192 136.181, 373.885 132.839, 375.660 130.810 C 379.662 126.233, 380.979 120.550, 378.591 118.163 C 377.039 116.612, 376.663 116.652, 373.015 118.750 C 370.864 119.988, 368.630 121, 368.052 121 C 367.410 121, 367 118.086, 367 113.519 L 367 106.038 371.382 106.639 C 378.660 107.636, 391 102.413, 391 98.335 C 391 97.499, 391.877 95.700, 392.950 94.337 C 396.535 89.779, 397.984 82.176, 397.894 68.399 C 397.807 55.149, 396.804 50.906, 393.455 49.621 C 390.663 48.550, 381.632 49.102, 378.500 50.536 M 428.103 53.376 C 427.036 54.662, 424.815 55, 417.437 55 C 412.311 55, 407.872 55.398, 407.571 55.885 C 407.270 56.372, 407.500 58.136, 408.082 59.804 C 409.465 63.772, 414.255 66, 421.401 66 L 427 66 426.988 71.250 C 426.974 77.501, 424.621 86.990, 422.798 88.146 C 420.263 89.754, 419.909 88.928, 420.582 82.975 C 421.150 77.960, 420.964 76.618, 419.477 74.975 C 417.424 72.706, 414.283 72.469, 411.750 74.392 C 410.522 75.324, 410 77.116, 410 80.401 C 410 83.468, 409.323 86.015, 408.035 87.790 C 405.576 91.179, 404.953 99.697, 407.059 101.120 C 407.852 101.656, 410.895 101.840, 413.823 101.530 C 418.998 100.981, 419.126 101.028, 418.442 103.233 C 417.618 105.886, 414.750 110.133, 412.547 111.961 C 411.582 112.762, 411 114.893, 411 117.622 C 411 121.843, 411.111 122, 414.072 122 C 415.761 122, 419.053 120.881, 421.386 119.514 L 425.628 117.028 427.320 120.865 C 429.934 126.789, 431.801 127.906, 441.030 129.063 C 452.418 130.491, 456.015 129.716, 461.637 124.627 L 466.273 120.429 464.584 117.163 C 463.655 115.367, 462.244 113.647, 461.448 113.342 C 460.651 113.036, 460 112.020, 460 111.084 C 460 110.148, 459.325 108.509, 458.499 107.441 C 456.835 105.289, 457.491 104.783, 450.967 113.250 C 449.227 115.508, 448.065 116, 444.471 116 C 440.227 116, 440.031 115.859, 438.047 111.373 C 436.921 108.828, 436 105.207, 436 103.327 C 436 100.180, 436.417 99.714, 441.250 97.464 C 444.137 96.119, 447.288 95.015, 448.250 95.010 C 451.361 94.992, 450.429 89.140, 446.378 83.259 C 442.795 78.055, 440.713 76.827, 439.585 79.250 C 439.264 79.938, 439.244 78.436, 439.538 75.912 C 439.833 73.389, 439.633 70.165, 439.094 68.747 C 438.050 66.001, 439.100 65, 443.026 65 C 444.050 65, 446.101 63.957, 447.582 62.683 C 450.119 60.501, 450.205 60.152, 449.060 56.683 C 448.064 53.664, 447.363 52.999, 445.172 52.993 C 443.703 52.989, 439.564 52.708, 435.975 52.369 C 430.656 51.867, 429.201 52.053, 428.103 53.376 M 550.465 59.952 C 546.793 61.440, 545.780 63.863, 544.909 73.242 C 544.092 82.051, 543.465 86.726, 542.427 91.750 C 542.019 93.725, 541.344 94, 536.915 94 C 530.358 94, 528 95.301, 528 98.919 C 528 100.973, 529.115 102.775, 532 105.381 C 534.200 107.369, 536 109.638, 536 110.425 C 536 112.556, 529.563 124.501, 525.971 129.037 C 522.517 133.398, 521 134.018, 521 131.067 C 521 128.254, 517.309 127.418, 514.787 129.660 C 512.081 132.066, 509.050 138.746, 509.022 142.363 C 509.010 143.938, 508.145 148.888, 507.099 153.363 C 505.810 158.881, 504.992 167.358, 504.558 179.702 C 503.920 197.838, 503.927 197.923, 506.476 202.952 C 509.190 208.308, 511.662 209.322, 516.150 206.920 C 520.542 204.569, 521 200.960, 521 168.699 L 521 138.334 526.250 137.319 C 529.138 136.761, 532.135 136.123, 532.911 135.902 C 533.853 135.634, 534.758 136.952, 535.630 139.859 C 536.348 142.257, 537.430 144.813, 538.033 145.539 C 538.865 146.542, 538.631 147.127, 537.065 147.965 C 534.521 149.327, 534.402 152.756, 536.750 157.003 C 538.490 160.148, 538.537 160.164, 544.678 159.563 C 548.675 159.172, 551.094 159.343, 551.528 160.046 C 552.452 161.541, 552.135 161.729, 546.472 163.041 C 533.588 166.028, 533.854 165.903, 534.189 168.808 C 534.594 172.310, 539.827 174.996, 546.250 174.998 L 551 175 551 181.893 C 551 187.531, 551.319 188.910, 552.750 189.468 C 555.072 190.372, 561.650 182.891, 563.054 177.750 C 563.930 174.538, 564.484 174, 566.916 174 C 573.289 174, 573.660 167.990, 567.500 164.553 C 565.300 163.326, 563.339 161.492, 563.141 160.477 C 562.710 158.258, 565.508 156, 568.691 156 C 572.124 156, 571.553 153.407, 567.250 149.449 L 563.500 146.001 566.868 142.839 C 568.721 141.100, 570.838 138.239, 571.572 136.481 C 572.731 133.707, 573.527 133.200, 577.594 132.642 C 584.965 131.632, 589.456 131.882, 591.559 133.419 C 593.340 134.722, 593.471 135.899, 593.155 147.669 C 592.965 154.725, 592.515 160.949, 592.155 161.499 C 591.795 162.050, 591.480 165.875, 591.455 170 C 591.430 174.125, 590.850 179.412, 590.166 181.750 C 588.942 185.935, 588.854 186, 584.430 186 C 578.841 186, 578.052 187.568, 580.896 193.024 C 582.053 195.245, 583 197.586, 583 198.226 C 583 198.867, 584.209 200.653, 585.687 202.195 C 587.715 204.312, 589.313 205, 592.202 205 C 598.212 205, 602.086 200.599, 607.048 188.133 C 610.700 178.957, 611.276 176.373, 612.057 165.633 C 612.542 158.960, 612.953 147.413, 612.969 139.973 C 613.004 124.841, 612.345 122.878, 606.401 120.394 C 601.966 118.541, 583.791 118.599, 569.500 120.511 C 563.450 121.321, 555.146 121.987, 551.047 121.992 L 543.594 122 547.119 118.250 C 549.057 116.188, 551.409 113.263, 552.345 111.750 C 553.823 109.361, 554.684 109, 558.901 109 C 561.571 109, 565.371 108.325, 567.346 107.500 C 569.320 106.675, 572.222 106, 573.794 106 C 575.531 106, 577.551 105.042, 578.947 103.556 C 580.811 101.573, 581.119 100.447, 580.582 97.585 C 579.790 93.363, 576.776 91, 572.184 91 C 569.654 91, 568.682 90.501, 568.290 89 C 567.470 85.865, 564.366 86.603, 562.274 90.431 C 561.509 91.830, 561.363 88.786, 561.745 79.375 L 562.272 66.388 557.956 62.694 C 553.275 58.688, 553.437 58.747, 550.465 59.952 M 723.530 76.904 C 722.392 80.490, 720.039 100.495, 720.020 106.750 L 720 113 716.968 113 C 715.300 113, 712.326 113.672, 710.359 114.494 C 708.038 115.464, 705.393 115.767, 702.825 115.356 C 699.204 114.777, 698.534 115.050, 694.934 118.565 C 690.007 123.376, 689.951 125.884, 694.665 130.599 L 698.330 134.264 705.709 133.706 C 714.217 133.062, 713.984 132.334, 709 144 C 707.473 147.575, 705.887 151.608, 705.477 152.962 C 705.067 154.316, 702.991 157.145, 700.865 159.250 C 698.739 161.355, 697 163.727, 697 164.521 C 697 165.316, 695.763 167.383, 694.250 169.117 C 686.122 178.431, 681.574 183, 680.432 183 C 679.730 183, 678.635 184.575, 678 186.500 C 677.365 188.425, 676.280 190, 675.590 190 C 674.900 190, 672.866 191.828, 671.070 194.063 C 669.274 196.297, 666.274 198.855, 664.403 199.748 C 658.249 202.682, 661.128 207.009, 668.200 205.456 C 669.935 205.075, 674.671 203.016, 678.725 200.882 C 682.778 198.747, 686.694 197, 687.425 197 C 688.157 197, 689.351 196.282, 690.080 195.404 C 690.808 194.526, 694.599 191.403, 698.504 188.464 C 704.723 183.784, 706.439 181.716, 712.323 171.810 C 716.018 165.590, 719.992 157.912, 721.155 154.750 C 722.317 151.588, 723.623 149, 724.056 149 C 724.490 149, 725.389 150.688, 726.055 152.750 C 727.588 157.504, 736.556 174.415, 739.931 178.917 C 741.339 180.796, 743.633 184.621, 745.027 187.417 C 747.881 193.140, 753.324 196.989, 765.087 201.604 C 772.659 204.574, 779.059 204.392, 783.138 201.089 C 785.181 199.435, 785.255 199.029, 784.040 196.097 C 783.313 194.342, 781.544 192.295, 780.109 191.548 C 778.674 190.801, 776.375 188.972, 775 187.484 C 773.625 185.996, 769.922 182.784, 766.772 180.347 C 763.621 177.910, 758.014 171.998, 754.312 167.208 C 750.610 162.419, 745.723 156.250, 743.452 153.500 C 741.182 150.750, 737.925 145.463, 736.215 141.750 C 734.504 138.037, 732.631 135, 732.053 135 C 731.474 135, 731 134.618, 731 134.151 C 731 133.684, 735.613 133.040, 741.250 132.721 C 752.322 132.094, 756.246 131.041, 759.750 127.759 C 763.715 124.045, 761.851 114.040, 756.901 112.469 C 755.735 112.099, 749.833 112.119, 743.786 112.514 C 733.349 113.196, 732.820 113.138, 733.343 111.366 C 733.647 110.340, 734.017 102.366, 734.167 93.647 C 734.417 79.020, 734.290 77.685, 732.528 76.397 C 729.639 74.284, 724.266 74.587, 723.530 76.904 M 373.108 86.900 C 368.546 87.523, 366.277 90.211, 367.982 92.971 C 368.832 94.346, 374.809 93.708, 378.232 91.876 C 380.236 90.803, 380.678 85.918, 378.750 86.150 C 378.063 86.233, 375.524 86.570, 373.108 86.900 M 855.100 105.061 C 855.045 106.470, 854.082 108.608, 852.961 109.811 C 850.636 112.307, 850.874 112.470, 854.453 110.839 C 857.135 109.617, 857.291 109.030, 856 105 L 855.199 102.500 855.100 105.061 M 380.250 107.610 C 378.105 108.565, 378.870 113.010, 382.231 119.123 C 385.835 125.679, 387.293 126.218, 392.580 122.950 C 398.189 119.484, 398.387 114.141, 393.053 110.197 C 390.090 108.006, 382.709 106.515, 380.250 107.610 M 865.276 126.326 C 863.502 126.972, 861.038 128.514, 859.800 129.753 C 857.560 131.996, 857.558 132.024, 859.421 135.482 C 862 140.272, 867.127 141.596, 872.336 138.817 C 873.345 138.279, 874.394 138.061, 874.667 138.333 C 875.610 139.276, 872.993 142.867, 870.872 143.541 C 868.962 144.147, 868.798 144.749, 869.275 149.377 L 869.808 154.538 857.702 156.257 C 844.850 158.082, 841.610 159.573, 843.610 162.743 C 845.696 166.050, 853.569 169.029, 861.923 169.674 L 869.921 170.290 870.563 174.570 C 871.235 179.051, 870.128 183.718, 866.844 190.250 C 864.814 194.289, 863.554 194.800, 861.079 192.590 C 858.333 190.138, 855.539 190.226, 855.177 192.776 C 854.640 196.561, 858.898 207.774, 861.713 209.989 C 865.886 213.271, 871.239 212.682, 875.954 208.422 C 882.209 202.771, 884.423 195.927, 884.420 182.250 L 884.417 171 888.748 171 C 891.131 171, 894.855 170.095, 897.024 168.988 C 906.907 163.946, 900.259 155, 886.630 155 C 881.610 155, 881.120 154.791, 880.200 152.250 C 879.653 150.738, 878.899 148.749, 878.526 147.830 C 878 146.535, 878.931 145.682, 882.674 144.027 C 895.273 138.455, 896.633 129.213, 885.315 126.071 C 880.353 124.693, 869.378 124.832, 865.276 126.326 M 547.902 135.775 C 551.080 138.504, 551.262 138.986, 550.664 143.098 C 550.030 147.460, 550.037 147.475, 551.544 144.750 C 552.380 143.238, 553.445 142, 553.911 142 C 555.266 142, 557.398 135.996, 556.394 135.006 C 555.902 134.521, 553.025 133.838, 550 133.488 L 544.500 132.853 547.902 135.775 M 394.450 134.883 C 394.135 135.198, 391.559 135.691, 388.726 135.978 C 383.867 136.470, 383.537 136.684, 382.915 139.744 C 382.552 141.528, 381.799 143.553, 381.242 144.244 C 379.949 145.846, 378 160.436, 378 168.510 C 378 175.045, 379.356 180.424, 381.684 183.126 C 383.650 185.407, 390.004 186.299, 391.954 184.569 C 392.804 183.814, 395.750 182.981, 398.500 182.717 C 404.259 182.165, 413 179.210, 413 177.816 C 413 173.346, 404.030 170.502, 397.918 173.034 C 396.278 173.713, 394.673 174.006, 394.351 173.684 C 393.196 172.530, 392.717 164, 393.807 164 C 394.393 164, 395.014 165.463, 395.187 167.250 C 395.462 170.108, 395.892 170.538, 398.750 170.813 C 400.576 170.989, 402 170.661, 402 170.063 C 402 169.479, 403.012 168.982, 404.250 168.959 C 405.488 168.937, 408.053 167.592, 409.950 165.970 C 412.668 163.646, 413.400 162.276, 413.400 159.510 C 413.400 154.256, 411.944 153.321, 406.244 154.915 C 398.836 156.986, 392.862 158.033, 391.889 157.431 C 391.400 157.129, 391 153.707, 391 149.827 L 391 142.773 394.250 143.458 C 396.038 143.835, 400.951 144.449, 405.169 144.822 C 409.386 145.195, 413.176 145.840, 413.591 146.256 C 415.180 147.849, 416.991 163.647, 416.379 170.586 C 415.622 179.168, 416.758 182, 420.958 182 C 424.037 182, 429.255 178.251, 431.199 174.642 C 432.489 172.248, 434.231 158.174, 434.188 150.500 C 434.140 141.889, 432.981 137.066, 430.643 135.743 C 428.450 134.501, 395.612 133.721, 394.450 134.883 M 412.508 195.825 C 412.244 196.089, 403.359 196.234, 392.764 196.147 C 372.194 195.978, 368.780 196.608, 368.193 200.676 C 367.832 203.183, 372.944 209.403, 377.157 211.581 C 379.473 212.779, 380.445 212.827, 382.259 211.836 C 383.794 210.998, 391.559 210.533, 406.914 210.359 C 430.363 210.095, 432.731 209.718, 438.750 205.289 C 446.231 199.786, 439.922 195.813, 423.244 195.523 C 417.603 195.426, 412.772 195.561, 412.508 195.825 M 453.046 252.217 C 445.759 269.578, 443.832 273, 441.345 273 C 440.605 273, 440 273.450, 440 274 C 440 274.571, 443 275, 447 275 C 451 275, 454 274.571, 454 274 C 454 273.450, 453.127 273, 452.059 273 C 449.024 273, 448.735 271.389, 450.892 266.512 L 452.888 262 459.694 262.004 L 466.500 262.007 468.333 266.465 C 470.220 271.054, 469.955 273, 467.441 273 C 466.648 273, 466 273.450, 466 274 C 466 274.583, 469.333 275, 474 275 C 478.667 275, 482 274.583, 482 274 C 482 273.450, 481.380 273, 480.622 273 C 478.332 273, 477.126 270.795, 469.612 252.862 C 465.642 243.385, 461.922 235.474, 461.347 235.282 C 460.771 235.090, 457.036 242.711, 453.046 252.217 M 800.304 236.956 C 798.160 238.264, 796.717 240.211, 795.919 242.877 C 794.218 248.553, 796.681 252.344, 805.537 257.684 C 815.971 263.977, 817.907 267.093, 813.884 271.116 C 809.593 275.407, 799.926 271.492, 798.472 264.874 C 797.328 259.663, 796 261.878, 796 269 C 796 272.850, 796.413 276, 796.917 276 C 797.421 276, 798.008 275.475, 798.222 274.834 C 798.518 273.947, 799.408 273.947, 801.954 274.834 C 809.683 277.528, 817.678 275.456, 820.483 270.033 C 823.779 263.659, 821.181 258.019, 812.916 253.608 C 809.937 252.018, 806.038 249.633, 804.250 248.308 C 798.610 244.126, 800.585 238.600, 807.720 238.600 C 810.436 238.600, 811.918 239.344, 814.127 241.816 C 815.707 243.584, 817 245.924, 817 247.016 C 817 248.107, 817.450 249, 818 249 C 818.571 249, 819 246, 819 242 C 819 238.150, 818.587 235, 818.083 235 C 817.579 235, 816.992 235.525, 816.778 236.166 C 816.482 237.053, 815.592 237.053, 813.046 236.166 C 808.192 234.474, 803.943 234.737, 800.304 236.956 M 353 237 C 353 237.550, 353.810 238, 354.800 238 C 358.566 238, 359 239.876, 359 256.141 C 359 264.799, 358.599 272.130, 358.109 272.432 C 357.620 272.735, 356.466 271.834, 355.546 270.430 C 353.387 267.135, 349.650 267.435, 349.155 270.944 C 348.492 275.641, 356.175 277.839, 360.633 274.228 C 364.413 271.166, 365 268.581, 365 255 C 365 241.257, 365.773 238, 369.035 238 C 370.116 238, 371 237.550, 371 237 C 371 236.407, 367.333 236, 362 236 C 356.667 236, 353 236.407, 353 237 M 375 236.892 C 375 237.382, 376.136 238.068, 377.524 238.417 L 380.048 239.050 379.774 255.775 C 379.504 272.263, 379.468 272.505, 377.250 272.820 C 376.012 272.995, 375 273.558, 375 274.070 C 375 274.581, 378.825 275, 383.500 275 C 388.500 275, 392 274.588, 392 274 C 392 273.450, 391.089 273, 389.975 273 C 386.873 273, 386 269.155, 386 255.500 C 386 241.845, 386.873 238, 389.975 238 C 391.089 238, 392 237.550, 392 237 C 392 236.412, 388.500 236, 383.500 236 C 378.825 236, 375 236.401, 375 236.892 M 395.022 236.750 C 395.034 237.162, 396.496 238.175, 398.272 239 L 401.500 240.500 401.500 256.500 C 401.500 272.331, 401.476 272.503, 399.250 272.820 C 394.247 273.530, 397.450 275, 404 275 C 408 275, 411 274.571, 411 274 C 411 273.450, 410.086 273, 408.969 273 C 406.116 273, 405.897 271.865, 406.217 258.725 L 406.500 247.066 418.307 261.533 C 424.801 269.490, 430.529 276, 431.035 276 C 431.554 276, 432.075 267.808, 432.228 257.250 C 432.498 238.661, 432.519 238.497, 434.750 238.180 C 439.753 237.470, 436.550 236, 430 236 C 423.450 236, 420.247 237.470, 425.250 238.180 C 427.427 238.490, 427.509 238.901, 427.782 250.875 L 428.064 263.249 416.920 249.625 L 405.777 236 400.388 236 C 397.425 236, 395.010 236.338, 395.022 236.750 M 484 237 C 484 237.550, 484.822 238, 485.826 238 C 486.830 238, 488.630 239.042, 489.826 240.314 C 491.821 242.438, 492 243.668, 492 255.249 C 492 269.148, 491.137 273, 488.025 273 C 486.911 273, 486 273.450, 486 274 C 486 274.571, 489 275, 493 275 C 497 275, 500 274.571, 500 274 C 500 273.450, 499.086 273, 497.969 273 C 496.851 273, 495.711 272.411, 495.435 271.692 C 495.159 270.972, 495.061 265.021, 495.217 258.466 L 495.500 246.548 507.334 261.024 C 513.843 268.986, 519.580 275.650, 520.084 275.833 C 520.616 276.027, 521 268.977, 521 259.018 C 521 241.218, 521.618 238, 525.035 238 C 526.116 238, 527 237.550, 527 237 C 527 236.422, 523.833 236, 519.500 236 C 515.167 236, 512 236.422, 512 237 C 512 237.550, 512.845 238, 513.878 238 C 517.445 238, 518.080 240.284, 517.784 252.042 L 517.500 263.297 506.500 249.692 L 495.500 236.086 489.750 236.043 C 486.555 236.019, 484 236.444, 484 237 M 556 236.930 C 556 237.442, 557.013 238.005, 558.250 238.180 C 560.428 238.490, 560.519 238.947, 561.086 252.500 C 561.758 268.539, 563.018 272.274, 568.534 274.579 C 573.894 276.818, 582.084 276.418, 586.088 273.720 C 591.275 270.224, 591.969 267.925, 591.985 254.184 C 592.001 241.228, 592.809 238, 596.035 238 C 597.116 238, 598 237.550, 598 237 C 598 236.422, 594.833 236, 590.500 236 C 586.167 236, 583 236.422, 583 237 C 583 237.550, 583.884 238, 584.965 238 C 586.045 238, 587.395 238.870, 587.965 239.934 C 589.372 242.564, 589.173 261.661, 587.694 266 C 585.406 272.708, 575.054 275.028, 570.387 269.878 C 568.718 268.036, 568.500 266.101, 568.500 253.148 C 568.500 238.719, 568.534 238.495, 570.750 238.180 C 571.987 238.005, 573 237.442, 573 236.930 C 573 236.419, 569.175 236, 564.500 236 C 559.825 236, 556 236.419, 556 236.930 M 600.022 236.750 C 600.034 237.162, 601.496 238.175, 603.272 239 L 606.500 240.500 606.500 256.500 C 606.500 272.331, 606.476 272.503, 604.250 272.820 C 599.247 273.530, 602.450 275, 609 275 C 613 275, 616 274.571, 616 274 C 616 273.450, 615.086 273, 613.969 273 C 611.116 273, 610.897 271.865, 611.217 258.725 L 611.500 247.066 623.307 261.533 C 629.801 269.490, 635.529 276, 636.035 276 C 636.554 276, 637.075 267.808, 637.228 257.250 C 637.498 238.661, 637.519 238.497, 639.750 238.180 C 644.753 237.470, 641.550 236, 635 236 C 628.450 236, 625.247 237.470, 630.250 238.180 C 632.426 238.490, 632.509 238.903, 632.781 250.820 L 633.063 263.141 630.226 259.820 C 628.665 257.994, 623.650 251.887, 619.081 246.250 L 610.774 236 605.387 236 C 602.424 236, 600.010 236.338, 600.022 236.750 M 646 237 C 646 237.550, 646.845 238, 647.878 238 C 651.619 238, 652.063 240.124, 651.776 256.634 L 651.500 272.500 648.750 272.816 C 647.237 272.990, 646 273.553, 646 274.066 C 646 274.580, 650.050 275, 655 275 C 660.333 275, 664 274.593, 664 274 C 664 273.450, 663.190 273, 662.200 273 C 658.484 273, 658 271.070, 658 256.234 C 658 241.265, 658.723 238, 662.035 238 C 663.116 238, 664 237.550, 664 237 C 664 236.407, 660.333 236, 655 236 C 649.667 236, 646 236.407, 646 237 M 668 236.839 C 668 237.301, 669.013 238.140, 670.250 238.704 C 671.910 239.461, 674.567 244.500, 680.377 257.906 C 684.710 267.903, 688.745 275.918, 689.345 275.718 C 689.944 275.519, 693.616 267.572, 697.504 258.060 C 701.710 247.769, 705.469 240.039, 706.786 238.972 C 708.004 237.986, 709 236.914, 709 236.590 C 709 236.265, 706.300 236, 703 236 C 697.314 236, 695.216 237.101, 698.500 238.362 C 699.325 238.678, 700 239.777, 700 240.803 C 700 242.516, 693.425 259.631, 691.327 263.380 C 690.642 264.604, 689.183 262.115, 685.244 252.996 C 680.248 241.432, 679.644 238, 682.607 238 C 683.373 238, 684 237.550, 684 237 C 684 236.417, 680.667 236, 676 236 C 671.600 236, 668 236.378, 668 236.839 M 713 237 C 713 237.550, 713.884 238, 714.965 238 C 718.245 238, 719 241.272, 719 255.500 C 719 269.728, 718.245 273, 714.965 273 C 713.884 273, 713 273.450, 713 274 C 713 274.623, 718.802 275, 728.406 275 L 743.812 275 745.403 270.330 C 746.278 267.762, 746.764 265.431, 746.483 265.150 C 746.202 264.869, 744.456 266.295, 742.601 268.320 C 739.322 271.899, 739.036 272, 732.115 272 L 725 272 725 264 L 725 256 729.566 256 C 735.084 256, 738 257.395, 738 260.035 C 738 261.116, 738.675 262, 739.500 262 C 740.690 262, 741 260.556, 741 255 C 741 249.596, 740.674 248, 739.570 248 C 738.783 248, 737.995 249.012, 737.820 250.250 C 737.533 252.271, 736.864 252.530, 731.250 252.798 L 725 253.095 725 246.048 L 725 239 732.047 239 C 738.827 239, 739.157 239.113, 740.797 241.994 C 743.158 246.144, 744 245.752, 744 240.500 L 744 236 728.500 236 C 718.833 236, 713 236.376, 713 237 M 751 236.918 C 751 237.513, 751.810 238, 752.800 238 C 756.530 238, 757 239.917, 757 255.118 C 757 263.213, 756.727 270.548, 756.393 271.418 C 756.059 272.288, 754.709 273, 753.393 273 C 752.077 273, 751 273.450, 751 274 C 751 274.593, 754.667 275, 760 275 C 765.333 275, 769 274.593, 769 274 C 769 273.450, 767.923 273, 766.607 273 C 763.594 273, 763 271.423, 763 263.418 C 763 258.430, 763.328 257, 764.474 257 C 765.285 257, 768.921 261.050, 772.554 266 L 779.160 275 784.580 275 C 790.762 275, 791.367 274.155, 786.728 272 C 784.910 271.155, 781.222 267.463, 778.284 263.545 L 773.069 256.590 775.906 255.397 C 782.456 252.643, 783.963 245.230, 779.084 239.766 L 776.169 236.500 763.584 236.168 C 755.024 235.943, 751 236.183, 751 236.918 M 828 237 C 828 237.550, 828.810 238, 829.800 238 C 833.530 238, 834 239.917, 834 255.118 C 834 263.213, 833.727 270.548, 833.393 271.418 C 833.059 272.288, 831.709 273, 830.393 273 C 829.077 273, 828 273.450, 828 274 C 828 274.593, 831.667 275, 837 275 C 842.333 275, 846 274.593, 846 274 C 846 273.450, 844.923 273, 843.607 273 C 842.291 273, 840.941 272.288, 840.607 271.418 C 840.273 270.548, 840 263.213, 840 255.118 C 840 239.917, 840.470 238, 844.200 238 C 845.190 238, 846 237.550, 846 237 C 846 236.407, 842.333 236, 837 236 C 831.667 236, 828 236.407, 828 237 M 851 241 C 851 243.750, 851.450 246, 852 246 C 852.550 246, 853 245.325, 853 244.500 C 853 241.786, 856.811 239, 860.524 239 L 864.048 239 863.774 255.750 C 863.504 272.264, 863.468 272.504, 861.250 272.820 C 860.013 272.995, 859 273.558, 859 274.070 C 859 274.581, 862.825 275, 867.500 275 C 872.175 275, 876 274.581, 876 274.070 C 876 273.558, 875.006 272.995, 873.791 272.820 C 870.712 272.374, 870.215 269.742, 870.100 253.250 L 870 239 872.935 239 C 877.597 239, 880.886 240.699, 881.580 243.465 C 882.642 247.693, 884 246.309, 884 241 L 884 236 867.500 236 L 851 236 851 241 M 888 236.933 C 888 237.446, 888.938 238.163, 890.084 238.527 C 891.236 238.892, 895.061 243.602, 898.631 249.051 L 905.093 258.914 904.797 265.707 C 904.527 271.884, 904.296 272.529, 902.250 272.820 C 901.013 272.995, 900 273.558, 900 274.070 C 900 274.581, 903.825 275, 908.500 275 C 913.175 275, 917 274.581, 917 274.070 C 917 273.558, 915.987 272.995, 914.750 272.820 C 912.694 272.528, 912.475 271.896, 912.212 265.500 C 911.928 258.564, 911.974 258.422, 917.300 250 C 920.256 245.325, 924.080 240.600, 925.799 239.500 C 927.517 238.400, 928.940 237.162, 928.961 236.750 C 928.983 236.338, 925.850 236, 922 236 C 918 236, 915 236.429, 915 237 C 915 237.550, 915.648 238, 916.441 238 C 917.234 238, 918.173 238.470, 918.528 239.045 C 919.214 240.156, 911.448 254, 910.139 254 C 909.715 254, 907.461 251.010, 905.132 247.356 C 900.960 240.812, 900.460 238, 903.469 238 C 904.311 238, 905 237.550, 905 237 C 905 236.412, 901.500 236, 896.500 236 C 891.825 236, 888 236.420, 888 236.933 M 763 247 C 763 251.400, 763.337 254.997, 763.750 254.994 C 764.163 254.991, 766.192 254.519, 768.259 253.945 C 777.936 251.258, 776.310 239, 766.277 239 L 763 239 763 247 M 456.811 252.467 L 454.122 259 459.561 259 C 462.552 259, 464.978 258.663, 464.951 258.250 C 464.924 257.837, 463.686 254.898, 462.201 251.717 L 459.500 245.934 456.811 252.467" stroke="none" fill="#312a23" fill-rule="evenodd"/><path d="M 129 5.432 C 96.921 11.172, 70.184 24.918, 48.051 47.051 C 27.424 67.678, 13.621 93.410, 7.312 123 C 4.733 135.097, 4.733 167.903, 7.312 180 C 13.621 209.590, 27.424 235.322, 48.051 255.949 C 64.291 272.189, 83.808 284.331, 105.012 291.386 C 123.317 297.476, 130.152 298.500, 152.500 298.500 C 174.848 298.500, 181.683 297.476, 199.988 291.386 C 221.192 284.331, 240.709 272.189, 256.949 255.949 C 277.576 235.322, 291.379 209.590, 297.688 180 C 300.267 167.903, 300.267 135.097, 297.688 123 C 291.379 93.410, 277.576 67.678, 256.949 47.051 C 236.625 26.727, 211.150 12.936, 182 6.475 C 171.807 4.216, 139.366 3.578, 129 5.432 M 130.668 9.501 C 98.746 14.706, 71.647 28.972, 49.321 52.326 C 34.011 68.340, 23.895 85.091, 16.979 105.879 C 11.513 122.309, 9.718 133.585, 9.718 151.500 C 9.718 169.415, 11.513 180.691, 16.979 197.121 C 24.431 219.520, 34.486 235.611, 51.938 253.062 C 73.023 274.147, 96.648 286.836, 125.730 292.695 C 137.977 295.162, 167.023 295.162, 179.270 292.695 C 208.352 286.836, 231.977 274.147, 253.062 253.062 C 270.514 235.611, 280.569 219.520, 288.021 197.121 C 293.487 180.691, 295.282 169.415, 295.282 151.500 C 295.282 133.585, 293.487 122.309, 288.021 105.879 C 280.569 83.480, 270.514 67.389, 253.062 49.938 C 232.358 29.233, 209.905 16.958, 181.500 10.815 C 169.372 8.192, 142.896 7.508, 130.668 9.501 M 136.609 10.991 C 73.097 19.020, 23.674 66.574, 13.473 129.470 C 11.596 141.043, 11.596 161.957, 13.473 173.530 C 23.017 232.375, 66.362 277.579, 125.312 290.162 C 139.833 293.262, 165.167 293.262, 179.688 290.162 C 238.638 277.579, 281.983 232.375, 291.527 173.530 C 293.404 161.957, 293.404 141.043, 291.527 129.470 C 281.990 70.669, 238.021 24.824, 179.780 12.955 C 168.321 10.620, 147.159 9.657, 136.609 10.991 M 102 28.257 C 102 28.398, 102.439 30.044, 102.975 31.914 C 103.779 34.716, 103.647 35.546, 102.225 36.626 C 100.594 37.865, 100.596 37.938, 102.250 37.968 C 103.583 37.992, 104 38.848, 104 41.559 C 104 43.516, 104.419 44.859, 104.932 44.542 C 105.444 44.226, 106.506 44.884, 107.291 46.006 C 108.191 47.290, 109.327 47.812, 110.360 47.415 C 112.275 46.681, 112.531 48.069, 110.800 49.800 C 109.867 50.733, 110.089 51, 111.800 51 C 113.010 51, 114.045 51.563, 114.100 52.250 C 114.155 52.938, 114.524 52.375, 114.922 51 C 115.405 49.328, 115.199 48.231, 114.301 47.689 C 113.562 47.242, 113.200 46.486, 113.495 46.008 C 113.791 45.529, 113.618 44.882, 113.110 44.568 C 111.677 43.682, 113.029 40.055, 115.232 38.876 C 116.323 38.292, 117.542 38.194, 117.942 38.657 C 119.289 40.218, 121.917 48.482, 121.707 50.500 C 121.583 51.703, 122.098 52.500, 123 52.500 C 123.868 52.500, 124.626 51.413, 124.800 49.921 C 125.115 47.212, 121.513 36.435, 119.975 35.485 C 119.482 35.180, 116.374 36.297, 113.068 37.966 C 109.762 39.634, 106.819 41, 106.529 41 C 105.125 41, 106.270 38.095, 108.500 36 C 111.642 33.048, 111.689 31.789, 108.628 32.557 C 106.681 33.046, 106.139 32.690, 105.609 30.576 C 105.253 29.159, 104.295 28, 103.481 28 C 102.666 28, 102 28.115, 102 28.257 M 195.470 31.417 C 194.087 34.729, 193.568 35.106, 190.791 34.821 C 187.176 34.449, 185.604 36.822, 188.895 37.683 C 190.053 37.986, 191 38.601, 191 39.050 C 191 40.070, 183.515 46.173, 179.500 48.425 L 176.500 50.109 180.422 49.589 C 183.166 49.226, 185.484 47.957, 188.138 45.365 C 192.313 41.288, 192.433 41.375, 193.482 49.222 C 193.938 52.630, 194.827 54.506, 196.675 55.959 C 200.609 59.053, 200.968 57.628, 197.851 51.285 C 196.288 48.103, 194.743 44.123, 194.417 42.441 C 193.836 39.433, 193.887 39.388, 197.413 39.800 C 200.217 40.127, 201 39.867, 201 38.609 C 201 37.683, 200.176 37, 199.059 37 C 196.344 37, 195.849 35.733, 197.128 32.064 C 198.711 27.521, 197.324 26.980, 195.470 31.417 M 107 42.571 C 107 43.675, 109.769 45.898, 110.381 45.286 C 111.716 43.950, 110.897 42, 109 42 C 107.900 42, 107 42.257, 107 42.571 M 101.602 48.750 C 102.563 52.883, 105.625 59.650, 106.887 60.430 C 108.679 61.538, 108.191 58.937, 105.353 52.250 C 102.638 45.855, 100.454 43.817, 101.602 48.750 M 143 58.578 C 141.625 58.823, 137.800 59.509, 134.500 60.102 C 99.097 66.468, 69.021 96.243, 61.573 132.300 C 59.534 142.172, 59.534 160.828, 61.573 170.700 C 67.832 201.002, 89.917 227.103, 118.913 238.466 C 139.684 246.606, 165.316 246.606, 186.087 238.466 C 215.083 227.103, 237.168 201.002, 243.427 170.700 C 245.466 160.828, 245.466 142.172, 243.427 132.300 C 236.146 97.050, 208.576 68.955, 173 60.530 C 166.446 58.978, 147.631 57.754, 143 58.578 M 47.369 68.162 C 45.173 71.586, 44.197 74, 45.010 74 C 45.500 74, 46.277 73.328, 46.737 72.506 C 47.475 71.186, 47.831 71.193, 49.786 72.563 C 52.581 74.521, 52.676 76.349, 49.937 75.480 C 48.059 74.884, 47.991 75.013, 49.177 76.913 C 50.638 79.251, 52.569 79.639, 53.349 77.750 C 53.662 76.993, 54.135 77.387, 54.549 78.750 C 55.319 81.282, 57 81.797, 57 79.500 C 57 78.675, 57.738 78, 58.640 78 C 60.419 78, 62.917 75.259, 62.968 73.250 C 62.986 72.563, 62.325 72, 61.500 72 C 60.675 72, 60.053 72.338, 60.118 72.750 C 60.501 75.170, 59.777 76.107, 57.750 75.820 C 56.312 75.615, 55.386 74.696, 55.184 73.274 C 54.957 71.679, 54.265 71.111, 52.745 71.274 C 51.384 71.419, 50.194 70.661, 49.425 69.162 C 48.504 67.363, 48.029 67.132, 47.369 68.162 M 255.728 76.073 C 252.012 79.136, 251.016 81, 253.096 81 C 254.773 81, 259.877 77.099, 261.037 74.930 C 262.640 71.936, 260.077 72.487, 255.728 76.073 M 258.744 79.284 L 252.987 83.380 249.696 80.190 C 246.131 76.735, 243.284 76.097, 242.345 78.543 C 241.488 80.778, 242.793 81.611, 244.996 80.234 C 246.527 79.279, 247.207 79.350, 248.454 80.597 C 251.144 83.287, 256.358 91.320, 256.479 92.961 C 256.628 94.991, 257.877 97, 258.989 97 C 260.148 97, 258.576 91.661, 256.579 88.809 C 255.711 87.569, 255 86.242, 255 85.859 C 255 84.526, 262.061 80.809, 263.525 81.371 C 265.651 82.187, 265.400 84.915, 263.250 84.363 C 262.231 84.102, 260.999 84.728, 260.301 85.862 C 259.249 87.571, 259.423 87.889, 261.726 88.467 C 263.598 88.937, 264.608 88.665, 265.249 87.519 C 265.756 86.614, 266.880 86.142, 267.824 86.438 C 268.931 86.785, 269.885 86.137, 270.633 84.531 C 271.960 81.680, 271.393 80.719, 269.104 81.944 C 266.802 83.176, 263.120 80.480, 264.804 78.796 C 266.126 77.474, 266.430 74.946, 265.250 75.094 C 264.837 75.146, 261.910 77.032, 258.744 79.284 M 38.500 80.654 C 36.598 85.207, 37.052 85.767, 40.089 82.611 C 42.903 79.687, 44.720 80.252, 42.652 83.408 C 41.266 85.524, 41.455 85.831, 46.605 89.815 C 53.381 95.058, 55.187 95.256, 53.383 90.556 C 52.974 89.489, 52.385 89.266, 51.630 89.892 C 50.901 90.497, 49.848 90.362, 48.687 89.513 C 47.548 88.680, 47.272 87.950, 47.940 87.537 C 50.037 86.241, 49.008 82.184, 45.923 79.589 C 41.790 76.111, 40.310 76.323, 38.500 80.654 M 58.989 84.250 C 57.899 86.037, 57.009 88.175, 57.011 89 C 57.013 90.317, 62.636 95, 64.214 95 C 64.539 95, 65.292 93.537, 65.888 91.750 C 66.820 88.957, 66.783 88.746, 65.626 90.250 C 64.160 92.155, 62 92.602, 62 91 C 62 90.450, 62.450 90, 63 90 C 63.550 90, 63.976 89.213, 63.948 88.250 C 63.903 86.761, 63.667 86.826, 62.367 88.688 C 60.814 90.910, 58 90.820, 58 88.548 C 58 87.867, 58.878 86.515, 59.952 85.544 C 61.823 83.850, 62.050 83.868, 65.452 85.970 C 68.313 87.739, 69 87.871, 69 86.654 C 69 84.915, 64.396 81, 62.350 81 C 61.592 81, 60.079 82.463, 58.989 84.250 M 142.500 95.915 C 106.892 112.349, 109.349 110.326, 112.943 120.253 C 115.725 127.936, 116.548 138.823, 115.029 147.830 C 113.478 157.024, 109.716 162.369, 102.064 166.250 C 95.968 169.342, 90.707 169.707, 84.500 167.471 C 79.382 165.627, 74 165.554, 74 167.329 C 74 170.086, 80.550 178.393, 84.899 181.151 L 89.423 184.020 135.329 183.760 L 181.235 183.500 183.220 178.500 C 192.077 156.183, 193.291 128.032, 186.419 104.319 C 183.303 93.564, 177.560 80.976, 175.815 81.073 C 175.092 81.114, 160.100 87.793, 142.500 95.915 M 249.395 87.626 C 250.402 90.865, 246.085 91.711, 243.772 88.728 C 241.890 86.301, 241.354 87.924, 243.013 91.024 C 243.818 92.529, 243.606 93.141, 241.973 94.014 C 240.845 94.618, 238.968 94.975, 237.804 94.806 C 236.639 94.638, 235.494 95.062, 235.260 95.749 C 234.540 97.861, 238 98.370, 241.553 96.676 C 243.590 95.705, 245.160 95.451, 245.521 96.034 C 246.725 97.981, 248.068 96.924, 247.788 94.250 C 247.530 91.790, 247.790 91.530, 250.250 91.788 C 253.621 92.141, 253.906 90.119, 250.867 87.405 C 248.758 85.521, 248.742 85.524, 249.395 87.626 M 70.392 92.750 C 65.598 99.833, 65.521 100.006, 67.167 99.973 C 69.323 99.930, 76.773 87, 74.642 87 C 74.444 87, 72.532 89.588, 70.392 92.750 M 150 119 L 150 124 144.441 124 C 138.360 124, 137.995 122.817, 143.514 120.995 C 146.219 120.103, 147 119.302, 147 117.422 C 147 114.420, 145.243 114.325, 139.919 117.041 C 135.932 119.075, 128 126.449, 128 128.121 C 128 128.604, 132.950 129, 139 129 L 150 129 150 135 C 150 140.333, 149.778 141, 148 141 C 146.333 141, 146 140.333, 146 137 L 146 133 135.500 133 C 125.667 133, 125 133.127, 125 135 C 125 136.843, 125.667 137, 133.500 137 C 141.333 137, 142 137.157, 142 139 C 142 140.854, 141.333 141, 132.860 141 L 123.720 141 124.276 146.387 C 125.229 155.623, 130.278 163.398, 138.313 168.006 C 144.667 171.651, 147 171.837, 147 168.701 C 147 166.999, 146.127 166.086, 143.638 165.186 C 137.341 162.909, 131.077 155.384, 129.541 148.250 L 128.841 145 135.421 145 C 141.333 145, 142 145.203, 142 147 C 142 148.619, 141.333 149, 138.500 149 C 136.295 149, 135 149.481, 135 150.300 C 135 152.934, 137.506 154, 143.700 154 C 148.532 154, 150 154.337, 150 155.448 C 150 156.484, 148.508 156.993, 144.750 157.239 L 139.500 157.582 144.750 159.989 L 150 162.397 150 167.198 C 150 171.653, 150.180 172, 152.500 172 C 154.812 172, 155.002 171.644, 155.024 167.250 C 155.047 162.512, 155.060 162.494, 160.274 160.026 L 165.500 157.551 160.250 157.223 C 156.485 156.988, 155 156.486, 155 155.448 C 155 154.323, 156.552 154, 161.965 154 C 167.827 154, 169.093 153.694, 169.965 152.066 C 171.494 149.209, 171.326 149, 167.500 149 C 164.639 149, 164 148.626, 164 146.952 C 164 145.075, 164.521 144.929, 170.250 145.202 C 176.277 145.489, 176.487 145.589, 176.146 147.994 C 175.232 154.430, 168.087 163.028, 161.844 165.204 C 159.783 165.923, 159 166.857, 159 168.598 C 159 169.919, 159.563 170.990, 160.250 170.978 C 163.354 170.923, 169.872 166.897, 173.826 162.591 C 178.840 157.131, 180.618 153.361, 181.572 146.168 L 182.258 141 173.129 141 C 164.667 141, 164 140.854, 164 139 C 164 137.156, 164.667 137, 172.573 137 C 180.199 137, 181.110 136.807, 180.812 135.250 C 180.523 133.742, 179.060 133.461, 170.238 133.215 L 160 132.930 160 136.965 C 160 140.602, 159.754 141, 157.500 141 C 155.113 141, 155 140.731, 155 135.032 L 155 129.063 166.750 128.782 L 178.500 128.500 174.169 123.800 C 170.195 119.488, 163.063 115, 160.184 115 C 157.935 115, 158.858 119.821, 161.250 120.567 C 162.488 120.953, 164.388 121.884, 165.473 122.635 C 167.233 123.853, 166.777 124, 161.223 124 L 155 124 155 119 C 155 114.333, 154.833 114, 152.500 114 C 150.167 114, 150 114.333, 150 119 M 146 147 C 146 148.810, 146.667 149, 153 149 C 159.333 149, 160 148.810, 160 147 C 160 145.190, 159.333 145, 153 145 C 146.667 145, 146 145.190, 146 147 M 34.502 148.375 C 31.969 150.227, 32.902 154.416, 35.944 154.845 C 39.013 155.278, 41.332 152.489, 39.989 149.980 C 38.690 147.552, 36.502 146.912, 34.502 148.375 M 266.571 148.571 C 263.541 151.602, 265.772 155.454, 270.195 154.827 C 273.168 154.405, 273.954 150.170, 271.404 148.306 C 269.108 146.627, 268.481 146.662, 266.571 148.571 M 227.867 156.236 C 223.566 158.127, 223.107 158.694, 221.459 164.137 C 220.482 167.361, 219.305 170, 218.842 170 C 217.611 170, 217.801 168.539, 219.625 163.979 C 220.519 161.745, 221.059 159.725, 220.824 159.491 C 220.468 159.134, 213.196 160.903, 212.177 161.594 C 211.999 161.715, 210.095 166.806, 207.946 172.907 L 204.038 184 211.937 184 C 216.282 184, 220.527 183.735, 221.371 183.411 C 225.104 181.979, 231.811 167.997, 233.467 158.194 C 234.267 153.459, 234.221 153.443, 227.867 156.236 M 205.026 162.882 C 202.703 163.295, 201.130 164.328, 200.276 166 L 199 168.500 198.369 166.193 C 197.963 164.712, 197.218 164.086, 196.287 164.443 C 195.489 164.750, 193.820 165, 192.577 165 C 190.646 165, 189.942 166.129, 187.744 172.750 C 186.328 177.012, 184.859 181.287, 184.478 182.250 C 183.888 183.743, 184.382 184, 187.843 184 C 190.652 184, 192.214 183.462, 192.920 182.250 C 193.882 180.598, 193.941 180.601, 193.970 182.307 C 193.995 183.812, 194.713 184.063, 198.248 183.807 L 202.497 183.500 206.222 173 C 210.497 160.948, 210.215 161.962, 209.250 162.132 C 208.838 162.204, 206.937 162.542, 205.026 162.882 M 41 187.080 C 32.705 189.996, 32.676 190.009, 33.233 190.566 C 34.057 191.390, 48.946 186.722, 48.386 185.816 C 47.732 184.757, 47.491 184.798, 41 187.080 M 258.250 195.317 C 255.363 195.894, 253 196.772, 253 197.270 C 253 197.793, 254.796 197.841, 257.250 197.383 C 262.535 196.397, 265.714 196.408, 269.250 197.426 C 270.933 197.910, 272 197.832, 272 197.225 C 272 196.311, 271.102 195.964, 265.500 194.716 C 264.400 194.471, 261.137 194.741, 258.250 195.317 M 50.410 196.885 C 49.910 197.327, 46.508 198.965, 42.850 200.524 C 39.124 202.112, 36.392 203.857, 36.636 204.493 C 36.917 205.226, 39.405 204.454, 43.656 202.314 C 47.278 200.491, 50.862 199, 51.620 199 C 52.379 199, 53 198.577, 53 198.059 C 53 196.664, 51.453 195.963, 50.410 196.885 M 122.250 197.678 C 121.013 198.539, 120 199.864, 120 200.622 C 120 202.319, 121.204 202.396, 122.800 200.800 C 123.733 199.867, 124 201.311, 124 207.300 C 124 213.561, 124.287 215, 125.538 215 C 126.830 215, 127.029 213.539, 126.788 205.831 C 126.629 200.788, 126.050 196.538, 125.500 196.387 C 124.950 196.235, 123.487 196.816, 122.250 197.678 M 138 197.263 C 135.137 198.732, 134.162 203.566, 136.027 207.051 C 136.964 208.801, 137.891 209.125, 141.087 208.820 C 145.222 208.426, 146.472 210.077, 143.358 211.820 C 141.514 212.851, 138 212.237, 138 210.883 C 138 210.398, 137.325 210, 136.500 210 C 134.559 210, 134.589 211.446, 136.571 213.429 C 138.755 215.613, 143.608 215.392, 146 213 C 148.340 210.660, 148.824 201.461, 146.750 198.746 C 144.988 196.439, 140.943 195.754, 138 197.263 M 155.409 196.972 C 152.530 198.137, 150.614 203.222, 151.341 207.767 C 152.342 214.015, 157.914 216.849, 162.662 213.524 C 167.226 210.328, 166.307 198.828, 161.337 196.938 C 158.468 195.847, 158.188 195.849, 155.409 196.972 M 172.247 197.200 C 167.972 199.303, 167.092 208.995, 170.789 213.250 C 174.338 217.334, 182 214.155, 182 208.598 C 182 204.255, 179.100 201.612, 174.996 202.214 C 172.635 202.560, 172.041 202.335, 172.457 201.251 C 172.756 200.473, 173 199.648, 173 199.418 C 173 198.231, 178.146 199.218, 178.638 200.500 C 179.361 202.382, 182 202.478, 182 200.622 C 182 197.478, 175.977 195.365, 172.247 197.200 M 138.667 199.667 C 138.300 200.033, 138 201.578, 138 203.099 C 138 206.491, 141.403 208.025, 143.741 205.687 C 146.007 203.421, 144.623 199, 141.648 199 C 140.375 199, 139.033 199.300, 138.667 199.667 M 155.449 201.345 C 155.126 202.635, 155.005 205.448, 155.180 207.595 C 155.446 210.838, 155.905 211.557, 157.887 211.837 C 159.200 212.023, 160.655 211.573, 161.122 210.837 C 162.391 208.834, 162.172 201.572, 160.800 200.200 C 158.821 198.221, 156.087 198.806, 155.449 201.345 M 172.713 205.621 C 171.315 207.018, 172.031 210.946, 173.862 211.926 C 176.493 213.334, 179.290 211.098, 178.845 207.944 C 178.597 206.187, 177.786 205.417, 175.963 205.204 C 174.567 205.041, 173.104 205.229, 172.713 205.621 M 53.776 216.317 C 51.754 222.266, 50.608 226.964, 51.229 226.757 C 52.681 226.273, 58.148 210.134, 57.752 207.500 C 57.587 206.400, 55.798 210.367, 53.776 216.317 M 246 209.738 C 246 210.611, 259.256 220, 260.488 220 C 262.379 220, 260.212 217.687, 255.750 214.943 C 252.863 213.167, 249.488 211.052, 248.250 210.242 C 247.012 209.433, 246 209.206, 246 209.738 M 236.703 222.630 C 235.849 223.485, 249.277 234.947, 250.354 234.281 C 250.859 233.969, 250.357 232.991, 249.238 232.107 C 248.120 231.223, 244.972 228.599, 242.244 226.275 C 239.515 223.952, 237.022 222.311, 236.703 222.630 M 72.738 229.692 C 71.769 229.945, 71.212 230.534, 71.501 231.002 C 72.049 231.888, 68.374 242.686, 66.876 244.592 C 66.404 245.193, 66.313 245.980, 66.675 246.342 C 67.890 247.557, 68.763 247.016, 69.245 244.750 C 69.508 243.512, 70.890 239.463, 72.317 235.750 C 73.743 232.037, 74.818 229.052, 74.705 229.116 C 74.592 229.180, 73.707 229.439, 72.738 229.692 M 223.063 237.179 C 222.928 240.764, 225.822 242.119, 232.094 241.410 C 237.638 240.783, 238.024 240.880, 238.922 243.123 C 239.757 245.211, 239.879 245.257, 239.921 243.500 C 240.021 239.339, 238.642 238.658, 231.578 239.382 C 225.317 240.023, 224.908 239.936, 224.042 237.780 C 223.395 236.169, 223.108 235.992, 223.063 237.179 M 85.394 239.794 C 85.829 240.516, 85.582 241.815, 84.836 242.736 C 84.087 243.660, 84.008 244.079, 84.656 243.691 C 85.446 243.218, 86.013 244.662, 86.448 248.249 C 87.728 258.828, 88.225 261.174, 89.007 260.346 C 89.447 259.881, 89.427 257.250, 88.963 254.500 C 88.499 251.750, 88.092 247.643, 88.060 245.372 C 88.022 242.760, 87.379 240.741, 86.308 239.872 C 85.051 238.852, 84.816 238.832, 85.394 239.794 M 211.957 246.223 C 213.308 246.934, 214.709 248.637, 215.069 250.008 C 215.664 252.269, 215.798 252.325, 216.521 250.614 C 217.646 247.952, 215.812 245.551, 212.399 245.215 L 209.500 244.929 211.957 246.223 M 206.263 248.250 C 205.568 249.134, 206.682 251.628, 210.068 256.771 C 212.702 260.770, 215.101 263.646, 215.399 263.163 C 215.697 262.680, 213.919 259.270, 211.448 255.585 C 208.976 251.899, 207.216 248.460, 207.536 247.942 C 208.392 246.556, 207.406 246.795, 206.263 248.250 M 107.193 260.266 C 105.164 266.707, 105.105 267.511, 106.510 269.655 C 108.351 272.465, 109.540 272.838, 107.806 270.062 C 106.831 268.500, 106.949 266.993, 108.410 262.312 C 109.408 259.115, 110.635 255.990, 111.138 255.367 C 111.719 254.645, 111.572 254.050, 110.732 253.727 C 109.824 253.379, 108.721 255.416, 107.193 260.266 M 214 253.536 C 214 253.830, 216.064 254.956, 218.586 256.037 C 221.833 257.429, 223.658 257.719, 224.836 257.032 C 226.287 256.185, 226.227 256.057, 224.372 256.030 C 223.202 256.014, 220.629 255.325, 218.654 254.500 C 214.760 252.873, 214 252.715, 214 253.536 M 188 256.828 C 188 257.283, 189.058 260.320, 190.351 263.578 C 191.645 266.835, 192.991 270.316, 193.344 271.313 C 193.697 272.311, 194.424 272.856, 194.959 272.526 C 195.925 271.928, 195.742 271.372, 191.076 260.750 C 189.130 256.318, 188 254.878, 188 256.828 M 131.008 261.750 C 139.826 276.067, 141.994 279.240, 141.997 277.830 C 142.001 275.380, 132.721 260.053, 131.215 260.025 C 130.246 260.006, 130.195 260.431, 131.008 261.750 M 165.645 262.250 C 166.065 262.938, 168.509 266.786, 171.077 270.803 C 175.282 277.380, 175.795 277.855, 176.229 275.583 C 176.494 274.196, 176.384 273.263, 175.984 273.510 C 175.187 274.003, 168 263.655, 168 262.015 C 168 261.457, 167.298 261, 166.441 261 C 165.453 261, 165.162 261.458, 165.645 262.250 M 154 270.500 C 154 275.500, 154.412 279, 155 279 C 155.588 279, 156 275.500, 156 270.500 C 156 265.500, 155.588 262, 155 262 C 154.412 262, 154 265.500, 154 270.500" stroke="none" fill="#0f6a7b" fill-rule="evenodd"/><path d="" stroke="none" fill="#342c24" fill-rule="evenodd"/><path d="" stroke="none" fill="#0c6c7c" fill-rule="evenodd"/></svg>