<?xml version="1.0" standalone="no"?>
<!DOCTYPE svg PUBLIC "-//W3C//DTD SVG 20010904//EN"
 "http://www.w3.org/TR/2001/REC-SVG-20010904/DTD/svg10.dtd">
<svg version="1.0" xmlns="http://www.w3.org/2000/svg"
 width="938.000000pt" height="306.000000pt" viewBox="0 0 938.000000 306.000000"
 preserveAspectRatio="xMidYMid meet">

<g transform="translate(0.000000,306.000000) scale(0.100000,-0.100000)"
fill="#000000" stroke="none">
<path d="M1405 3014 c-325 -34 -609 -154 -847 -359 -247 -212 -423 -524 -484
-856 -23 -128 -23 -380 0 -508 112 -614 583 -1085 1197 -1197 128 -23 380 -23
508 0 614 112 1085 583 1197 1197 23 128 23 380 0 508 -112 611 -589 1090
-1191 1195 -91 16 -307 27 -380 20z m395 -53 c284 -56 528 -188 735 -395 209
-209 341 -453 401 -741 27 -128 27 -432 0 -560 -60 -288 -192 -532 -401 -741
-278 -279 -614 -418 -1010 -418 -396 0 -732 139 -1010 418 -209 209 -341 453
-401 741 -27 128 -27 432 0 560 60 288 192 532 401 741 241 242 522 375 885
418 73 9 309 -5 400 -23z"/>
<path d="M1315 2936 c-294 -49 -542 -171 -751 -368 -394 -374 -538 -946 -368
-1466 135 -413 469 -751 877 -887 176 -58 251 -70 452 -70 201 0 276 12 452
70 478 159 839 583 928 1090 24 133 24 347 0 480 -89 507 -450 931 -928 1090
-56 18 -136 41 -177 50 -103 22 -380 29 -485 11z m-259 -171 c10 -15 26 -25
40 -25 31 0 30 -13 -1 -38 -24 -19 -34 -42 -17 -42 4 0 25 12 47 25 61 38 79
33 103 -23 25 -57 31 -117 14 -134 -17 -17 -44 9 -36 34 8 25 -23 108 -41 108
-17 0 -38 -27 -32 -42 2 -7 4 -17 3 -21 0 -5 7 -13 17 -18 10 -6 14 -15 10
-22 -4 -7 -8 -18 -9 -25 -4 -22 -13 -26 -19 -10 -4 10 -14 14 -26 11 -22 -6
-25 7 -6 26 10 11 9 12 -2 6 -9 -5 -20 0 -31 15 -9 13 -22 20 -28 16 -7 -4 0
-29 19 -72 33 -72 33 -110 0 -80 -31 28 -65 156 -42 156 5 0 12 12 15 26 5 19
2 30 -11 40 -15 12 -16 15 -4 23 12 8 13 16 4 45 -16 52 4 65 33 21z m924 -19
c-14 -39 -13 -43 16 -50 38 -10 28 -41 -14 -41 -42 0 -42 -18 -1 -101 18 -36
29 -68 25 -71 -4 -4 -19 -1 -34 8 -21 11 -30 28 -43 77 l-15 62 -25 -26 c-28
-31 -77 -54 -114 -54 -37 0 -31 12 17 35 24 11 57 33 76 49 l33 29 -21 19
c-26 24 -18 38 24 38 27 0 35 6 50 36 20 44 43 35 26 -10z m-190 -301 c326
-106 554 -343 642 -666 33 -121 33 -347 0 -468 -88 -323 -313 -558 -642 -667
-81 -27 -94 -28 -265 -28 -171 0 -184 1 -265 28 -329 109 -554 344 -642 667
-33 121 -33 347 0 468 86 315 315 559 623 660 108 35 147 40 309 37 137 -3
165 -6 240 -31z m-1290 -69 c7 -18 14 -22 34 -19 22 5 26 2 26 -20 0 -14 7
-27 15 -30 17 -7 29 8 21 28 -4 10 1 15 15 15 11 0 22 -7 25 -14 8 -20 -26
-65 -48 -66 -10 0 -18 -8 -18 -17 -1 -15 -3 -15 -19 5 -13 15 -21 18 -24 10
-3 -9 -12 -6 -30 11 -28 25 -27 47 2 36 14 -5 14 -4 -1 12 -17 16 -18 16 -32
-2 -20 -28 -32 -10 -16 23 16 31 31 52 36 52 3 0 9 -11 14 -24z m2117 -68 c-4
-15 -3 -17 9 -7 22 18 47 4 35 -20 -14 -26 11 -50 34 -31 12 10 16 9 21 -3 3
-9 2 -22 -2 -29 -5 -7 -9 -17 -9 -23 0 -5 -9 -9 -19 -7 -10 2 -22 -2 -27 -9
-6 -11 -17 -11 -48 -3 -44 12 -48 9 -26 -20 16 -21 20 -76 6 -76 -13 0 -35 30
-36 51 -2 17 -72 129 -81 129 -3 0 -13 -6 -24 -12 -23 -15 -46 1 -37 26 8 21
54 21 74 0 14 -14 18 -13 42 9 62 57 99 67 88 25z m-2161 -33 c18 -14 35 -34
39 -44 4 -13 12 -17 25 -14 14 4 20 0 20 -12 0 -13 -6 -16 -24 -13 -27 5 -44
-17 -21 -26 8 -3 16 0 18 7 6 16 22 0 32 -31 12 -41 -21 -37 -81 12 -31 25
-67 49 -80 52 -13 3 -24 8 -24 10 0 13 44 84 53 84 5 0 25 -11 43 -25z m213
-46 c24 -22 31 -33 23 -41 -8 -8 -15 -8 -27 2 -21 18 -30 6 -10 -13 10 -11 13
-25 9 -42 -9 -34 -43 -33 -78 4 -27 29 -27 29 -11 62 36 70 45 73 94 28z
m1862 -62 c15 -27 -2 -42 -31 -27 -20 11 -21 10 -14 -24 7 -38 3 -42 -26 -26
-12 7 -27 5 -49 -6 -40 -20 -77 -4 -61 26 12 23 30 35 30 21 0 -11 32 -15 42
-5 3 3 1 18 -5 34 -14 38 -1 51 22 22 11 -15 23 -21 34 -16 9 3 14 10 11 15
-3 5 -2 14 1 19 8 13 31 -3 46 -33z m-1771 18 c0 -16 -58 -116 -74 -127 -40
-28 -33 10 14 81 40 60 60 75 60 46z m-362 -607 c28 -28 7 -78 -33 -78 -27 0
-45 18 -45 45 0 27 18 45 45 45 12 0 26 -5 33 -12z m2332 -8 c15 -29 3 -59
-26 -66 -30 -8 -54 11 -54 40 0 46 59 64 80 26z m-2236 -377 c6 -18 4 -22 -8
-17 -8 3 -39 -1 -70 -10 -73 -22 -103 -20 -116 4 -12 23 -6 40 16 40 17 0 18
-12 2 -28 -18 -18 5 -15 84 10 45 15 68 27 68 37 1 14 2 14 9 1 5 -8 12 -25
15 -37z m2131 -29 c34 -48 80 -70 104 -51 8 7 12 7 8 1 -3 -6 -11 -23 -17 -38
l-10 -26 -20 20 c-24 24 -59 25 -123 6 -50 -15 -53 -13 -36 31 7 20 12 24 18
14 6 -10 19 -12 45 -7 20 4 36 10 36 14 -1 17 -49 64 -59 58 -14 -9 -14 -3 1
30 11 24 13 25 18 8 3 -11 18 -38 35 -60z m-2089 -79 c13 -32 13 -37 1 -27
-11 10 -28 6 -86 -19 -45 -20 -71 -38 -71 -48 -1 -9 -7 -1 -15 18 -18 41 -18
42 -1 35 23 -9 146 52 146 72 0 23 6 16 26 -31z m1984 -70 c10 -12 9 -15 -8
-15 -16 0 -40 -27 -30 -35 39 -30 124 -75 134 -71 19 7 17 -4 -6 -39 -14 -22
-20 -25 -20 -12 0 10 -24 33 -62 57 -49 32 -64 38 -75 28 -8 -6 -12 -20 -10
-30 5 -19 -8 -25 -18 -8 -7 11 64 140 76 140 4 0 12 -7 19 -15z m-1930 -35 c0
-4 -11 -40 -25 -80 -14 -40 -25 -75 -25 -77 0 -1 22 11 49 28 33 20 48 35 44
45 -10 26 6 15 22 -16 14 -26 14 -29 0 -24 -8 4 -45 -12 -83 -35 -38 -23 -71
-41 -74 -41 -4 0 6 38 22 85 16 47 26 85 23 85 -18 0 -93 -57 -95 -73 -2 -15
-6 -13 -21 11 -16 29 -16 30 0 26 28 -7 133 63 133 89 1 22 1 22 15 3 8 -11
15 -23 15 -26z m1859 -198 c32 -27 58 -42 67 -38 11 4 9 -3 -7 -26 -20 -28
-23 -29 -30 -12 -9 26 -103 104 -125 104 -15 0 -14 4 6 25 22 23 25 24 31 8 4
-10 30 -38 58 -61z m-1703 -39 c-8 -21 -24 -62 -35 -92 -12 -30 -20 -60 -17
-68 3 -7 -8 -3 -25 9 -22 17 -27 24 -15 26 28 6 30 42 3 69 -21 21 -28 23 -46
14 -12 -7 -19 -16 -16 -22 11 -17 -12 -9 -30 11 -18 19 -17 20 6 20 13 0 58
16 99 34 41 19 78 35 82 35 4 1 1 -16 -6 -36z m1575 -14 c10 -19 9 -20 -10 -9
-27 14 -61 -3 -61 -32 0 -19 4 -20 61 -14 50 6 64 4 80 -10 32 -29 21 -62 -32
-96 -25 -16 -28 -16 -45 3 -17 19 -16 19 13 13 28 -6 63 14 63 35 0 23 -29 31
-74 21 -59 -13 -86 -1 -86 40 0 20 9 36 32 54 34 27 42 26 59 -5z m-1452 -63
c6 -7 14 -42 17 -77 4 -35 10 -70 14 -77 9 -18 64 64 56 84 -4 11 -2 12 14 4
10 -5 22 -15 26 -22 4 -7 3 -8 -4 -4 -7 4 -30 -21 -58 -64 -26 -38 -50 -70
-55 -70 -4 0 -10 38 -14 85 -4 47 -10 85 -14 85 -13 0 -63 -91 -57 -105 4 -13
2 -13 -14 -5 -10 5 -22 15 -26 22 -4 7 -3 8 4 4 15 -9 94 113 88 137 -5 20 7
22 23 3z m1296 -66 c15 -16 16 -25 7 -44 -10 -22 -8 -25 32 -40 24 -9 52 -14
62 -10 18 5 18 5 0 -10 -25 -20 -37 -20 -83 -1 -57 24 -67 20 -47 -15 10 -16
26 -30 36 -32 14 -2 10 -8 -16 -25 -29 -19 -33 -19 -29 -5 6 25 -74 145 -92
138 -29 -11 -14 5 32 34 55 35 74 37 98 10z m-1035 -81 c13 -7 13 -8 -1 -9
-16 0 -49 -86 -49 -127 0 -28 23 -45 57 -41 24 3 31 11 51 67 17 48 20 67 11
77 -14 17 -9 17 27 4 24 -9 25 -12 11 -23 -9 -7 -26 -38 -37 -70 -23 -62 -48
-82 -88 -72 -62 15 -75 55 -47 136 9 24 14 52 11 62 -3 14 0 17 17 11 12 -3
29 -10 37 -15z m858 -5 c2 -14 1 -16 -6 -5 -8 11 -16 11 -45 2 -34 -12 -35
-13 -25 -42 5 -16 16 -29 23 -29 26 0 45 12 45 29 1 11 5 8 15 -9 18 -32 19
-46 1 -31 -9 8 -21 8 -40 1 -24 -9 -25 -12 -14 -37 6 -15 15 -32 19 -36 10
-12 69 21 69 38 0 7 5 17 10 20 6 4 10 -5 10 -20 0 -21 -8 -29 -42 -44 -64
-27 -91 -35 -84 -23 10 16 -47 152 -63 152 -24 0 0 17 54 39 57 23 69 22 73
-5z m-176 -47 c-6 -7 -19 -49 -28 -93 -9 -43 -20 -83 -25 -88 -4 -4 -31 27
-60 70 -29 44 -57 82 -62 85 -5 3 2 9 15 12 37 10 48 8 42 -8 -4 -8 9 -38 27
-67 l34 -52 15 64 c12 52 12 64 1 68 -18 6 6 22 33 22 14 0 16 -3 8 -13z
m-442 -75 l45 -77 8 59 c6 45 5 61 -5 67 -8 6 -1 9 22 9 23 0 30 -3 22 -9 -8
-4 -18 -43 -24 -87 -6 -43 -14 -82 -17 -86 -4 -4 -27 26 -51 67 -24 40 -47 72
-50 70 -14 -9 -20 -109 -7 -117 7 -4 -2 -8 -23 -8 -23 0 -31 3 -21 9 26 17 42
165 19 174 -7 3 -2 6 12 6 21 1 32 -12 70 -77z m207 47 c-16 -10 -18 -19 -11
-87 3 -43 12 -80 18 -84 6 -4 -9 -8 -34 -8 -35 1 -41 3 -28 11 15 8 17 20 11
87 -3 42 -11 80 -17 84 -6 4 9 8 34 8 37 -1 42 -3 27 -11z"/>
<path d="M1434 2098 l-331 -152 26 -61 c21 -50 26 -80 29 -180 5 -141 -5 -185
-53 -247 -63 -83 -189 -118 -272 -75 -44 23 -83 22 -83 -1 0 -29 55 -98 102
-129 l42 -28 455 0 456 0 23 58 c46 115 63 206 69 358 3 91 1 177 -6 227 -13
92 -59 240 -99 324 l-27 58 -331 -152z m126 -223 l0 -55 53 1 52 1 -42 19
c-37 17 -43 24 -43 49 0 17 5 30 13 30 33 0 117 -52 156 -96 l43 -49 -116 -3
-116 -3 0 -59 c0 -47 3 -60 15 -60 11 0 15 12 15 45 l0 45 105 0 c93 0 105 -2
115 -19 19 -37 12 -41 -75 -41 -68 0 -85 -3 -85 -15 0 -11 19 -15 88 -17 l87
-3 -3 -45 c-8 -96 -72 -189 -164 -236 -63 -32 -78 -31 -78 6 0 25 6 32 38 45
49 21 100 70 123 120 28 61 26 65 -36 65 -42 0 -55 -3 -55 -15 0 -10 11 -15
35 -15 38 0 40 -2 25 -31 -9 -16 -22 -19 -80 -19 -40 0 -70 -4 -70 -10 0 -5
23 -10 50 -10 28 0 50 -5 50 -10 0 -14 -60 -50 -82 -50 -15 0 -18 -9 -18 -55
0 -54 0 -55 -30 -55 -29 0 -30 1 -30 50 0 46 -2 51 -27 60 -40 14 -77 37 -81
49 -2 7 17 11 52 11 31 0 56 5 56 10 0 6 -30 10 -70 10 -58 0 -71 3 -80 19
-15 29 -13 31 25 31 24 0 35 5 35 15 0 12 -13 15 -55 15 -67 0 -70 -11 -22
-90 25 -42 45 -60 89 -84 49 -26 58 -35 58 -58 0 -34 -14 -35 -75 -7 -91 43
-157 135 -171 238 l-7 51 92 0 c74 0 91 3 91 15 0 12 -16 15 -85 15 -74 0 -85
2 -85 18 0 39 13 43 121 40 l104 -3 3 -42 c2 -29 8 -43 18 -43 11 0 14 14 14
60 l0 60 -115 0 c-111 0 -115 1 -105 19 19 36 75 84 125 107 65 31 75 30 75
-6 0 -25 -6 -32 -42 -49 l-43 -19 53 -1 52 -1 0 55 c0 54 0 55 30 55 30 0 30
-1 30 -55z"/>
<path d="M1470 1585 c0 -12 13 -15 60 -15 47 0 60 3 60 15 0 12 -13 15 -60 15
-47 0 -60 -3 -60 -15z"/>
<path d="M2283 1492 c-38 -14 -45 -22 -59 -67 -19 -58 -34 -79 -46 -67 -5 5
-2 27 7 52 8 24 14 45 12 46 -2 2 -19 -1 -38 -6 -34 -10 -37 -14 -69 -108 -18
-53 -35 -103 -38 -109 -6 -19 121 -17 157 1 32 17 82 105 106 189 23 81 20 88
-32 69z"/>
<path d="M2038 1423 c-20 -3 -28 -12 -33 -34 -7 -33 -25 -40 -25 -10 0 26 -14
34 -48 26 -23 -5 -30 -16 -52 -83 -14 -42 -26 -83 -28 -89 -2 -9 8 -13 31 -13
29 0 36 4 41 25 7 29 26 24 26 -6 0 -15 7 -19 34 -19 34 0 34 0 66 93 17 50
34 98 37 105 5 12 1 12 -49 5z"/>
<path d="M1228 1079 c-10 -5 -18 -15 -18 -21 0 -7 5 -6 15 2 13 11 15 3 15
-64 0 -44 4 -76 10 -76 6 0 10 35 10 85 0 47 -3 85 -7 85 -5 0 -16 -5 -25 -11z"/>
<path d="M1365 1066 c-34 -51 9 -107 66 -87 32 11 36 4 19 -30 -13 -24 -47
-25 -73 -1 -19 16 -19 16 -16 -3 3 -16 13 -21 46 -23 38 -3 43 0 58 29 21 40
13 114 -15 129 -33 17 -68 12 -85 -14z m71 6 c32 -22 18 -82 -19 -82 -29 0
-47 17 -47 45 0 36 37 57 66 37z"/>
<path d="M1540 1070 c-14 -14 -20 -33 -20 -63 0 -58 22 -87 65 -87 43 0 65 29
65 87 0 50 -26 83 -65 83 -14 0 -34 -9 -45 -20z m74 -12 c21 -29 20 -92 0
-112 -38 -39 -74 -8 -74 63 0 64 44 93 74 49z"/>
<path d="M1724 1082 c-35 -23 -45 -102 -18 -140 10 -15 25 -22 48 -22 40 0 56
15 56 56 0 41 -21 58 -65 51 -39 -6 -47 9 -19 37 20 21 51 20 63 -1 5 -10 13
-15 17 -11 22 23 -52 50 -82 30z m67 -83 c16 -31 -3 -69 -36 -69 -17 0 -29 8
-36 24 -15 32 4 66 36 66 15 0 29 -9 36 -21z"/>
<path d="M2599 2231 c-13 -10 -31 -21 -39 -24 -9 -3 -4 -6 11 -6 16 -1 29 6
33 15 4 11 13 14 27 11 16 -4 18 -3 8 9 -14 17 -12 18 -40 -5z"/>
<path d="M412 2234 c-7 -8 -8 -14 -3 -14 10 0 25 19 20 25 -2 1 -10 -3 -17
-11z"/>
<path d="M595 2190 c-10 -11 -13 -20 -7 -20 7 0 15 0 19 -1 4 0 10 9 15 20 9
27 -4 27 -27 1z"/>
<path d="M672 727 l-23 -13 20 -18 c20 -18 21 -18 31 8 16 42 12 45 -28 23z"/>
<path d="M2085 580 c-6 -10 22 -60 35 -60 16 0 31 30 25 50 -7 21 -49 29 -60
10z"/>
<path d="M8935 2672 c-29 -18 -30 -21 -30 -91 l0 -73 -62 -23 c-35 -12 -70
-28 -78 -35 -24 -20 -45 5 -45 55 0 34 -6 50 -29 74 -16 17 -38 31 -48 31 -10
0 -24 5 -29 10 -7 7 -17 4 -30 -8 -18 -18 -19 -29 -15 -168 4 -148 4 -313 1
-431 -2 -53 -5 -62 -24 -67 -36 -10 -40 -7 -20 15 17 20 19 38 18 234 l-1 214
-42 55 c-25 32 -51 56 -62 56 -22 0 -58 -36 -65 -66 -12 -48 13 -435 31 -476
4 -10 15 -20 26 -23 24 -8 25 -25 2 -25 -10 0 -43 -12 -73 -26 -40 -19 -63
-24 -90 -19 -33 6 -40 3 -74 -36 -80 -88 -95 -166 -45 -224 27 -30 37 -35 77
-35 36 0 52 6 74 27 28 27 38 76 18 88 -5 3 -10 23 -10 44 0 67 21 76 205 90
174 12 424 14 495 3 45 -7 45 -8 42 -44 l-3 -37 33 11 c18 5 62 9 98 9 54 -2
69 2 88 19 26 25 28 52 5 72 -10 8 -54 32 -98 54 l-80 39 -192 3 c-177 3 -192
5 -184 20 41 85 43 92 36 129 -4 21 -9 82 -12 136 l-4 97 31 6 c17 4 33 11 36
15 3 5 25 9 49 9 51 0 70 -25 31 -40 -30 -11 -76 -70 -76 -98 0 -11 14 -43 31
-71 l32 -51 -47 -50 c-26 -28 -46 -56 -43 -63 7 -23 37 -18 74 12 21 17 58 46
81 66 24 19 49 35 56 35 16 0 60 47 80 87 24 48 21 89 -10 109 -36 24 -29 62
16 90 49 31 81 65 78 82 -3 15 -13 22 -63 44 -24 11 -31 20 -33 48 -4 53 -21
86 -48 99 -34 15 -44 14 -79 -7z"/>
<path d="M3780 2550 c-33 -14 -72 -19 -148 -19 -116 -1 -123 -5 -103 -72 10
-34 16 -39 44 -40 18 -1 36 -1 40 0 5 1 23 -8 42 -19 23 -14 50 -20 94 -20 58
0 61 -1 61 -25 0 -28 -13 -33 -99 -37 -53 -3 -53 -3 -65 32 -9 28 -17 36 -41
38 l-30 3 -3 -272 c-2 -209 -6 -280 -18 -307 -22 -54 -18 -110 12 -149 38 -50
73 -46 121 14 21 25 52 63 70 82 37 43 47 98 20 115 -14 9 -26 6 -57 -11 -21
-13 -41 -23 -44 -23 -4 0 -6 37 -6 81 l0 82 41 -7 c29 -5 57 -1 100 15 62 23
71 30 100 82 53 95 53 96 57 264 l4 162 -26 26 c-20 20 -34 25 -73 24 -26 -1
-68 -9 -93 -19z m20 -369 c0 -38 -20 -53 -80 -59 -45 -4 -50 -3 -50 16 0 40
11 52 49 52 20 0 43 5 51 10 24 16 30 12 30 -19z"/>
<path d="M4285 2520 c-12 -11 -38 -15 -105 -15 -49 0 -92 -3 -96 -7 -12 -13 6
-57 29 -73 12 -8 56 -18 96 -21 l73 -7 -6 -66 c-10 -103 -29 -155 -56 -159
-22 -4 -23 -2 -17 43 12 83 -15 125 -68 105 -22 -8 -25 -15 -25 -56 0 -29 -7
-56 -19 -72 -10 -15 -21 -50 -25 -79 -8 -65 7 -77 78 -64 44 8 46 7 46 -15 0
-13 -16 -42 -36 -63 -27 -31 -35 -49 -37 -83 -2 -37 1 -43 20 -46 12 -2 42 8
66 22 24 14 46 26 50 26 3 0 18 -23 33 -50 33 -60 42 -64 180 -64 95 -1 102 1
137 26 47 37 55 63 28 97 -12 14 -28 41 -36 59 -9 17 -19 32 -24 32 -6 0 -23
-19 -38 -42 -22 -33 -36 -44 -63 -48 -59 -9 -74 -2 -93 43 -32 79 -32 101 -1
126 16 12 48 27 71 34 62 16 66 41 17 117 -41 62 -64 76 -64 38 0 -13 -4 -29
-9 -36 -5 -8 -7 28 -6 85 l3 98 34 10 c46 13 68 32 68 59 0 40 -14 48 -104 55
-70 5 -89 4 -101 -9z"/>
<path d="M5486 2445 c-16 -12 -21 -33 -26 -108 -4 -51 -12 -103 -19 -115 -6
-11 -11 -36 -11 -54 0 -46 -15 -58 -75 -58 -88 0 -102 -46 -31 -104 41 -33 44
-39 36 -66 -21 -74 -116 -210 -146 -210 -8 0 -14 9 -14 21 0 16 -5 20 -27 17
-36 -4 -72 -73 -83 -160 -5 -34 -14 -80 -20 -100 -6 -21 -15 -122 -19 -225 -8
-184 -8 -189 15 -241 23 -52 25 -53 60 -50 27 2 43 11 58 31 20 27 21 41 24
348 l3 319 26 0 c14 0 43 5 65 12 44 13 58 4 58 -38 0 -12 9 -33 20 -47 l20
-25 -25 -16 c-31 -20 -31 -38 -3 -83 20 -33 23 -35 62 -28 75 12 81 11 81 -10
0 -19 -34 -32 -142 -51 -17 -3 -23 -11 -23 -29 0 -36 35 -55 101 -55 66 0 69
-4 69 -91 0 -44 4 -59 14 -59 17 0 86 78 86 96 0 33 24 64 50 64 61 0 67 49 9
75 -69 32 -71 94 -2 95 37 0 35 18 -7 63 l-40 44 34 27 c19 14 40 42 46 61 6
19 14 35 16 35 3 0 37 5 75 11 78 12 124 1 134 -32 3 -10 1 -91 -5 -180 -6
-89 -8 -169 -6 -178 2 -9 -3 -45 -12 -81 l-17 -65 -45 -5 c-30 -3 -46 -10 -48
-20 -4 -24 56 -148 77 -160 71 -37 128 11 185 156 47 117 60 227 58 474 l-2
155 -29 27 c-50 45 -98 45 -524 7 -70 -6 -131 -9 -134 -6 -3 3 18 32 46 64 28
31 51 61 51 65 0 4 22 8 49 8 27 0 70 9 96 20 26 11 57 20 70 20 33 0 55 26
55 64 0 43 -26 66 -74 66 -29 0 -39 4 -43 20 -8 29 -42 25 -54 -6 -18 -48 -24
-14 -20 106 1 65 0 127 -3 138 -7 22 -64 62 -87 62 -8 0 -23 -7 -33 -15z m30
-716 c3 -6 15 -9 25 -6 31 8 41 -24 19 -61 -11 -18 -24 -32 -29 -32 -5 0 -11
-9 -14 -20 -3 -11 -10 -20 -16 -20 -14 0 -14 17 -1 25 6 3 10 19 10 35 0 21
-8 33 -30 47 -16 9 -30 23 -30 30 0 16 56 18 66 2z"/>
<path d="M7258 2303 c-11 -3 -20 -18 -23 -41 -3 -20 -8 -48 -11 -62 -2 -14 -9
-78 -13 -143 -5 -65 -12 -121 -15 -124 -10 -10 -98 -25 -158 -27 -48 -1 -61
-5 -87 -30 -44 -43 -42 -84 6 -126 32 -29 41 -32 82 -27 25 3 56 9 69 12 18 6
22 4 22 -16 0 -13 -12 -49 -26 -79 -14 -30 -35 -78 -45 -107 -11 -29 -31 -58
-45 -68 -14 -9 -31 -29 -37 -44 -21 -48 -154 -201 -175 -201 -6 0 -14 -10 -19
-23 -9 -25 -136 -147 -153 -147 -5 0 -10 -9 -10 -20 0 -34 64 -26 155 20 43
22 84 40 92 40 7 0 35 19 62 42 27 24 67 58 89 75 43 35 161 226 191 310 21
60 37 65 56 16 26 -66 106 -216 137 -255 15 -21 37 -57 47 -82 23 -53 62 -84
164 -131 81 -37 152 -46 202 -23 32 14 33 51 3 78 -36 31 -128 113 -187 166
-30 27 -86 92 -126 144 -40 52 -80 102 -90 110 -10 8 -31 44 -47 80 -16 36
-39 75 -50 88 -12 12 -20 22 -17 23 2 0 56 4 119 8 167 11 210 38 191 122 -14
61 -31 74 -99 73 -31 -1 -85 -5 -120 -9 l-63 -7 5 181 c5 177 4 181 -17 196
-22 15 -29 16 -59 8z"/>
<path d="M3797 1973 c-4 -3 -7 -14 -7 -24 0 -24 69 -139 84 -139 20 0 84 49
91 69 8 28 -8 55 -49 80 -32 20 -105 29 -119 14z"/>
<path d="M8632 1783 c-19 -9 -36 -22 -39 -30 -9 -24 7 -62 33 -80 22 -14 32
-15 75 -4 28 7 53 10 56 7 3 -3 -11 -22 -32 -41 -38 -37 -40 -45 -23 -115 2
-11 -14 -16 -77 -22 -126 -12 -167 -22 -179 -41 -23 -37 77 -87 173 -87 22 0
51 -4 65 -10 24 -9 26 -14 26 -68 0 -46 -7 -73 -31 -120 -17 -34 -34 -62 -38
-62 -5 0 -20 9 -34 20 -36 28 -47 25 -47 -13 0 -54 29 -125 63 -153 58 -49
136 -13 184 84 25 51 28 69 32 180 l3 122 37 0 c20 0 57 10 81 23 40 20 45 26
45 57 0 30 -5 37 -37 53 -20 10 -64 21 -98 25 -60 7 -61 8 -80 49 l-19 43 65
30 c76 37 102 69 88 108 -15 44 -65 62 -169 62 -63 0 -100 -5 -123 -17z"/>
<path d="M4035 1708 c-60 -4 -126 -10 -145 -12 -19 -2 -41 -4 -47 -5 -7 0 -13
-13 -13 -29 0 -15 -6 -36 -13 -47 -8 -11 -20 -74 -27 -141 -14 -136 -4 -210
33 -245 22 -20 81 -26 92 -9 3 6 25 10 48 10 23 0 62 9 86 20 24 11 49 20 57
20 23 0 25 19 4 40 -23 23 -106 28 -142 9 -27 -15 -38 2 -38 59 0 46 17 58 22
15 2 -23 8 -29 36 -31 18 -2 32 1 32 7 0 6 10 11 22 11 11 0 36 12 55 26 29
22 34 31 31 62 -3 35 -5 37 -38 36 -19 -1 -66 -7 -103 -14 -38 -6 -70 -10 -72
-8 -2 1 -7 36 -11 77 l-7 73 44 -6 c24 -4 76 -10 116 -12 39 -3 76 -11 82 -18
21 -25 39 -180 28 -240 -14 -75 0 -106 46 -106 40 0 81 34 101 82 21 50 29
253 14 313 l-13 49 -60 13 c-33 7 -71 11 -85 11 -14 -1 -74 -5 -135 -10z"/>
<path d="M3718 1086 c-42 -15 -38 -56 9 -101 41 -40 76 -53 97 -36 8 7 56 11
127 10 310 -3 409 13 457 70 18 22 15 29 -20 48 -29 15 -68 17 -338 18 -180 1
-316 -3 -332 -9z"/>
<path d="M3540 695 c0 -3 11 -10 25 -15 l25 -10 0 -170 c0 -112 -4 -170 -10
-170 -6 0 -21 12 -34 26 -21 25 -23 25 -39 10 -23 -23 -21 -33 8 -52 33 -22
80 -9 109 29 19 25 21 44 24 178 3 148 4 150 28 159 13 5 24 12 24 15 0 3 -36
5 -80 5 -44 0 -80 -2 -80 -5z"/>
<path d="M3755 690 c3 -5 13 -10 21 -10 25 0 34 -47 34 -175 0 -135 -8 -171
-42 -185 -17 -6 1 -9 62 -9 81 0 84 1 58 15 l-28 15 0 165 0 164 25 10 c14 5
25 12 25 15 0 3 -36 5 -81 5 -51 0 -78 -4 -74 -10z"/>
<path d="M3955 691 c3 -6 13 -11 21 -11 8 0 23 -9 34 -20 18 -18 20 -33 20
-152 0 -157 -4 -174 -39 -187 -21 -8 -13 -9 44 -10 68 0 69 0 43 15 l-28 15 0
129 c0 72 3 130 8 129 4 0 59 -65 122 -144 63 -79 118 -144 123 -144 4 -1 7
75 7 167 0 175 3 187 45 210 16 9 7 11 -48 12 -43 0 -66 -4 -62 -10 3 -5 12
-10 20 -10 21 0 25 -25 24 -148 l0 -117 -38 45 c-22 25 -74 88 -118 140 l-79
95 -53 3 c-35 2 -51 0 -46 -7z"/>
<path d="M4532 528 c-50 -117 -82 -180 -100 -195 l-27 -23 65 1 c54 0 61 2 43
11 -27 13 -29 35 -6 83 l17 35 73 0 73 0 15 -36 c19 -47 19 -64 -2 -80 -16
-11 -7 -13 62 -13 75 0 78 1 54 14 -26 14 -48 59 -162 338 -9 20 -20 37 -24
37 -5 0 -41 -78 -81 -172z m100 5 c15 -37 28 -69 28 -70 0 -2 -29 -3 -64 -3
l-65 0 31 75 c18 41 34 72 36 70 3 -3 18 -35 34 -72z"/>
<path d="M4850 690 c0 -5 8 -10 18 -10 11 0 26 -8 35 -18 14 -16 17 -43 17
-170 l0 -151 -27 -15 c-27 -15 -26 -15 42 -15 59 1 66 2 43 11 l-28 10 0 134
c0 74 1 134 3 134 2 0 57 -65 121 -145 65 -80 122 -145 127 -145 5 0 9 81 9
180 l0 180 25 10 c40 15 30 20 -42 20 -66 -1 -67 -1 -40 -16 l27 -15 0 -126
c0 -107 -2 -125 -13 -113 -8 8 -60 72 -117 143 l-103 127 -48 0 c-27 0 -49 -4
-49 -10z"/>
<path d="M5575 690 c3 -5 12 -10 20 -10 21 0 25 -24 25 -159 0 -117 2 -131 23
-162 38 -57 132 -73 211 -37 49 22 60 59 64 211 l4 138 26 12 27 11 -38 4
c-20 2 -52 2 -70 0 l-32 -4 28 -12 27 -12 0 -130 c0 -144 -9 -177 -55 -198
-38 -18 -99 -15 -125 6 -28 22 -39 80 -40 203 0 98 6 116 45 137 16 9 3 11
-63 12 -53 0 -81 -4 -77 -10z"/>
<path d="M6005 691 c3 -6 13 -11 21 -11 8 0 23 -9 34 -20 18 -18 20 -33 20
-152 0 -157 -4 -174 -39 -187 -21 -8 -13 -9 44 -10 68 0 69 0 43 15 l-28 15 0
129 c0 72 3 130 8 129 4 0 59 -65 122 -144 63 -79 118 -144 123 -144 4 -1 7
75 7 167 0 175 3 187 45 210 16 9 7 11 -48 12 -43 0 -66 -4 -62 -10 3 -5 12
-10 20 -10 21 0 25 -25 24 -148 l0 -117 -38 45 c-22 25 -74 88 -118 140 l-79
95 -53 3 c-35 2 -51 0 -46 -7z"/>
<path d="M6470 695 c0 -3 11 -10 25 -15 l25 -10 -2 -167 c-3 -167 -3 -167 -28
-180 -22 -11 -15 -13 60 -12 81 0 84 0 58 15 l-28 15 0 165 0 164 25 10 c14 5
25 12 25 15 0 3 -36 5 -80 5 -44 0 -80 -2 -80 -5z"/>
<path d="M6680 690 c0 -5 6 -10 13 -10 25 0 44 -33 117 -203 40 -92 76 -170
80 -172 4 -3 41 77 82 178 55 136 79 184 96 192 37 17 25 25 -38 25 -33 0 -60
-4 -60 -10 0 -5 7 -10 15 -10 9 0 18 -6 21 -14 5 -13 -79 -239 -96 -259 -7 -8
-110 223 -110 249 0 9 9 18 20 21 45 12 15 23 -60 23 -47 0 -80 -4 -80 -10z"/>
<path d="M7140 695 c0 -3 11 -10 25 -15 l25 -10 0 -164 0 -165 -27 -15 c-26
-14 -17 -15 120 -16 l147 0 10 25 c5 14 13 38 16 52 6 24 4 23 -29 -13 -35
-38 -37 -39 -104 -39 l-68 0 -3 83 -3 82 53 0 c58 0 69 -5 86 -35 9 -16 11 -7
11 50 0 50 -3 64 -9 48 -12 -30 -41 -43 -94 -43 l-46 0 0 75 0 75 76 0 c75 0
76 0 87 -30 6 -16 15 -30 20 -30 5 0 6 7 3 16 -3 9 -6 29 -6 45 l0 29 -145 0
c-80 0 -145 -2 -145 -5z"/>
<path d="M7520 696 c0 -3 11 -11 25 -16 l25 -10 -2 -167 c-3 -167 -3 -167 -28
-180 -22 -11 -15 -13 60 -13 75 0 82 2 60 13 -23 11 -25 19 -28 90 -3 70 -1
77 16 77 12 0 41 -31 83 -90 l64 -89 54 -1 c59 0 60 3 10 28 -39 20 -140 153
-121 160 27 9 70 53 76 79 10 37 -11 81 -47 100 -31 16 -247 33 -247 19z m207
-48 c34 -32 31 -79 -8 -112 -18 -15 -43 -26 -60 -26 l-29 0 0 80 0 80 37 0
c24 0 45 -8 60 -22z"/>
<path d="M7989 671 c-56 -56 -33 -125 59 -178 87 -49 112 -72 112 -102 0 -39
-28 -61 -79 -61 -34 0 -49 6 -72 29 -16 16 -29 39 -29 50 0 12 -4 21 -10 21
-6 0 -10 -29 -10 -66 0 -59 2 -65 15 -54 13 11 27 11 70 1 96 -22 165 20 165
99 0 49 -25 79 -97 118 -61 32 -113 74 -113 90 0 5 9 21 21 36 41 52 116 28
149 -48 l19 -41 0 68 c1 61 -8 83 -24 57 -4 -6 -15 -6 -31 0 -14 6 -46 10 -70
10 -37 0 -51 -6 -75 -29z"/>
<path d="M8290 695 c0 -3 11 -10 25 -15 l25 -10 -2 -167 c-3 -167 -3 -167 -28
-180 -22 -11 -15 -13 60 -12 81 0 84 0 58 15 l-28 15 0 165 0 164 25 10 c14 5
25 12 25 15 0 3 -36 5 -80 5 -44 0 -80 -2 -80 -5z"/>
<path d="M8520 686 c0 -7 -3 -28 -6 -45 -4 -20 -3 -31 5 -31 6 0 11 6 11 13 0
26 36 47 78 47 l42 0 0 -147 c0 -82 -3 -158 -6 -170 -3 -12 -18 -26 -33 -32
-20 -7 -8 -10 59 -10 81 0 84 1 58 15 l-28 15 0 164 0 165 43 0 c43 0 67 -15
80 -50 3 -8 6 6 6 33 l1 47 -155 0 c-125 0 -155 -3 -155 -14z"/>
<path d="M8890 691 c0 -5 8 -12 18 -15 10 -4 48 -52 85 -109 62 -95 67 -106
67 -157 0 -63 -6 -75 -40 -89 -19 -7 -4 -10 65 -10 69 0 84 3 65 10 -34 14
-40 26 -40 91 0 54 4 65 61 153 39 60 73 102 93 113 l31 17 -64 3 c-67 3 -87
-3 -58 -19 9 -6 17 -15 17 -21 0 -16 -79 -148 -88 -148 -4 0 -26 30 -49 65
-44 66 -54 105 -29 105 8 0 18 5 21 10 4 6 -23 10 -74 10 -45 0 -81 -4 -81 -9z"/>
</g>
</svg>
